<svg xmlns="http://www.w3.org/2000/svg" xmlns:html="http://www.w3.org/1999/xhtml" xmlns:xlink="http://www.w3.org/1999/xlink" version="1.1" class="blocklySvg" width="853px" height="832px"><defs><filter id="blocklyEmbossFilter8482993715116667"><feGaussianBlur in="SourceAlpha" stdDeviation="1" result="blur"></feGaussianBlur><feSpecularLighting in="blur" surfaceScale="1" specularConstant="0.5" specularExponent="10" lighting-color="white" result="specOut"><fePointLight x="-5000" y="-10000" z="20000"></fePointLight></feSpecularLighting><feComposite in="specOut" in2="SourceAlpha" operator="in" result="specOut"></feComposite><feComposite in="SourceGraphic" in2="specOut" operator="arithmetic" k1="0" k2="1" k3="1" k4="0"></feComposite></filter><pattern id="blocklyDisabledPattern8482993715116667" patternUnits="userSpaceOnUse" width="10" height="10"><rect width="10" height="10" fill="#aaa"></rect><path d="M 0 0 L 10 10 M 10 0 L 0 10" stroke="#cc0"></path></pattern><pattern id="blocklyGridPattern8482993715116667" patternUnits="userSpaceOnUse" width="100" height="100" x="124.99999999999955" y="7"></pattern></defs><g class="blocklyWorkspace"><rect height="100%" width="100%" class="blocklyMainBackground" style="fill: url(&quot;#blocklyGridPattern8482993715116667&quot;);"></rect><g class="blocklyTrash" transform="translate(771,737) scale(1)" style="opacity: 0.4;"><clipPath id="blocklyTrashBodyClipPath7323516329329054"><rect width="47" height="44" y="16"></rect></clipPath><image width="96" x="0" height="124" y="-32" clip-path="url(#blocklyTrashBodyClipPath7323516329329054)" xlink:href="../../../../_common/modules//img/blockly/sprites.png"></image><clipPath id="blocklyTrashLidClipPath7323516329329054"><rect width="47" height="16"></rect></clipPath><image width="96" x="0" height="124" y="-32" clip-path="url(#blocklyTrashLidClipPath7323516329329054)" xlink:href="../../../../_common/modules//img/blockly/sprites.png" transform="rotate(0,43,14)"></image></g><g class="blocklyBlockCanvas" transform="translate(124.99999999999955,7) scale(1)"><g><path class="blocklyPathDark" transform="translate(1,1)" fill="#496684" d="m 0,8 A 8,8 0 0,1 8,0 H 88.4375 v 24 H 29.5 l -6,4 -3,0 -6,-4 H 8 a 8,8 0 0,1 -8,-8 z
"></path><path class="blocklyPath" fill="#5b80a5" d="m 0,8 A 8,8 0 0,1 8,0 H 88.4375 v 24 H 29.5 l -6,4 -3,0 -6,-4 H 8 a 8,8 0 0,1 -8,-8 z
"></path><path class="blocklyPathLight" stroke="#8ca6c0" d="m 0.5,7.5 A 7.5,7.5 0 0,1 8,0.5 H 87.9375 M 87.9375,0.5 M 2.6966991411008934,21.303300858899107 A 7.5,7.5 0 0,1 0.5,16 V 8
"></path><text class="blocklyText" y="12.5" transform="translate(10,5)">Programm</text></g><g class="blocklyDraggable" transform="translate(77.99999999999977,191.99999999999977)"><path class="blocklyPathDark" transform="translate(1,1)" fill="#ad6e22" d="m 0,8 A 8,8 0 0,1 8,0 H 15 l 6,4 3,0 6,-4 H 40 H 449.78125 v 36 H 29.5 l -6,4 -3,0 -6,-4 H 8 a 8,8 0 0,1 -8,-8 z
M 167.015625,5 h -69.296875 v 5 c 0,10 -8,-8 -8,7.5 s 8,-2.5 8,7.5 v 7 h 69.296875 z M 311.25,5 h -41.59375 v 5 c 0,10 -8,-8 -8,7.5 s 8,-2.5 8,7.5 v 7 h 41.59375 z M 439.78125,5 h -14.5 v 5 c 0,10 -8,-8 -8,7.5 s 8,-2.5 8,7.5 v 6 h 14.5 z"></path><path class="blocklyPath" fill="#d8892b" d="m 0,8 A 8,8 0 0,1 8,0 H 15 l 6,4 3,0 6,-4 H 40 H 449.78125 v 36 H 29.5 l -6,4 -3,0 -6,-4 H 8 a 8,8 0 0,1 -8,-8 z
M 167.015625,5 h -69.296875 v 5 c 0,10 -8,-8 -8,7.5 s 8,-2.5 8,7.5 v 7 h 69.296875 z M 311.25,5 h -41.59375 v 5 c 0,10 -8,-8 -8,7.5 s 8,-2.5 8,7.5 v 7 h 41.59375 z M 439.78125,5 h -14.5 v 5 c 0,10 -8,-8 -8,7.5 s 8,-2.5 8,7.5 v 6 h 14.5 z"></path><path class="blocklyPathLight" stroke="#e4ac6b" d="m 0.5,7.5 A 7.5,7.5 0 0,1 8,0.5 H 15 l 6,4 3,0 6,-4 H 39.5 M 39.5,0.5 H 449.28125 M 2.6966991411008934,33.30330085889911 A 7.5,7.5 0 0,1 0.5,28 V 8
M 167.515625,5.5 v 27 h -69.296875 M 92.61875,24.3 l 3.68,-2.1 M 311.75,5.5 v 27 h -41.59375 M 264.55625,24.3 l 3.68,-2.1 M 440.28125,5.5 v 26 h -14.5 M 420.18125,24.3 l 3.68,-2.1"></path><text class="blocklyText" y="12.5" transform="translate(10,10)">in der Liste</text><g class="blocklyEditableText" transform="translate(177.015625,10)" style="cursor: default;"><rect rx="4" ry="4" x="-5" y="0" height="16" width="86.640625"></rect><text class="blocklyText" y="12.5">am Index<tspan style="fill: rgb(216, 137, 43);"> ▾</tspan></text></g><g class="blocklyEditableText" transform="translate(321.25,10)" style="cursor: default;"><rect rx="4" ry="4" x="-5" y="0" height="16" width="98.03125"></rect><text class="blocklyText" y="12.5">ersetze mit<tspan style="fill: rgb(216, 137, 43);"> ▾</tspan></text></g><g class="blocklyDraggable" transform="translate(98.71875,6)"><path class="blocklyPathDark" transform="translate(1,1)" fill="#843456" d="m 0,0 H 67.296875 v 25 H 0 V 20 c 0,-10 -8,8 -8,-7.5 s 8,2.5 8,-7.5 z
"></path><path class="blocklyPath" fill="#a5416b" d="m 0,0 H 67.296875 v 25 H 0 V 20 c 0,-10 -8,8 -8,-7.5 s 8,2.5 8,-7.5 z
"></path><path class="blocklyPathLight" stroke="#c07a97" d="m 0.5,0.5 H 66.796875 M 66.796875,0.5 M 0.5,24.5 V 18.5 m -7.36,-0.5 q -1.52,-5.5 0,-11 m 7.36,1 V 0.5 H 1
"></path><g class="blocklyEditableText" transform="translate(10,5)" style="cursor: default;"><rect rx="4" ry="4" x="-5" y="0" height="16" width="57.296875"></rect><text class="blocklyText" y="12.5">Liste<tspan style="fill: rgb(165, 65, 107);"> ▾</tspan></text></g></g><g class="blocklyDraggable" transform="translate(270.65625,6)"><path class="blocklyPathDark" transform="translate(1,1)" fill="#843456" d="m 0,0 H 39.59375 v 25 H 0 V 20 c 0,-10 -8,8 -8,-7.5 s 8,2.5 8,-7.5 z
"></path><path class="blocklyPath" fill="#a5416b" d="m 0,0 H 39.59375 v 25 H 0 V 20 c 0,-10 -8,8 -8,-7.5 s 8,2.5 8,-7.5 z
"></path><path class="blocklyPathLight" stroke="#c07a97" d="m 0.5,0.5 H 39.09375 M 39.09375,0.5 M 0.5,24.5 V 18.5 m -7.36,-0.5 q -1.52,-5.5 0,-11 m 7.36,1 V 0.5 H 1
"></path><g class="blocklyEditableText" transform="translate(10,5)" style="cursor: default;"><rect rx="4" ry="4" x="-5" y="0" height="16" width="29.59375"></rect><text class="blocklyText" y="12.5">i<tspan style="fill: rgb(165, 65, 107);"> ▾</tspan></text></g></g></g><g class="blocklyDraggable" transform="translate(59.00000000000034,280.9999999999998)"><path class="blocklyPathDark" transform="translate(1,1)" fill="#ad6e22" d="m 0,8 A 8,8 0 0,1 8,0 H 15 l 6,4 3,0 6,-4 H 40 H 807.6875 v 47 H 29.5 l -6,4 -3,0 -6,-4 H 8 a 8,8 0 0,1 -8,-8 z
M 167.015625,5 h -69.296875 v 5 c 0,10 -8,-8 -8,7.5 s 8,-2.5 8,7.5 v 7 h 69.296875 z M 669.15625,5 h -399.5 v 5 c 0,10 -8,-8 -8,7.5 s 8,-2.5 8,7.5 v 18 h 399.5 z M 797.6875,5 h -14.5 v 5 c 0,10 -8,-8 -8,7.5 s 8,-2.5 8,7.5 v 6 h 14.5 z"></path><path class="blocklyPath" fill="#d8892b" d="m 0,8 A 8,8 0 0,1 8,0 H 15 l 6,4 3,0 6,-4 H 40 H 807.6875 v 47 H 29.5 l -6,4 -3,0 -6,-4 H 8 a 8,8 0 0,1 -8,-8 z
M 167.015625,5 h -69.296875 v 5 c 0,10 -8,-8 -8,7.5 s 8,-2.5 8,7.5 v 7 h 69.296875 z M 669.15625,5 h -399.5 v 5 c 0,10 -8,-8 -8,7.5 s 8,-2.5 8,7.5 v 18 h 399.5 z M 797.6875,5 h -14.5 v 5 c 0,10 -8,-8 -8,7.5 s 8,-2.5 8,7.5 v 6 h 14.5 z"></path><path class="blocklyPathLight" stroke="#e4ac6b" d="m 0.5,7.5 A 7.5,7.5 0 0,1 8,0.5 H 15 l 6,4 3,0 6,-4 H 39.5 M 39.5,0.5 H 807.1875 M 2.6966991411008934,44.30330085889911 A 7.5,7.5 0 0,1 0.5,39 V 8
M 167.515625,5.5 v 27 h -69.296875 M 92.61875,24.3 l 3.68,-2.1 M 669.65625,5.5 v 38 h -399.5 M 264.55625,24.3 l 3.68,-2.1 M 798.1875,5.5 v 26 h -14.5 M 778.0875,24.3 l 3.68,-2.1"></path><text class="blocklyText" y="12.5" transform="translate(10,10)">in der Liste</text><g class="blocklyEditableText" transform="translate(177.015625,10)" style="cursor: default;"><rect rx="4" ry="4" x="-5" y="0" height="16" width="86.640625"></rect><text class="blocklyText" y="12.5">am Index<tspan style="fill: rgb(216, 137, 43);"> ▾</tspan></text></g><g class="blocklyEditableText" transform="translate(679.15625,10)" style="cursor: default;"><rect rx="4" ry="4" x="-5" y="0" height="16" width="98.03125"></rect><text class="blocklyText" y="12.5">ersetze mit<tspan style="fill: rgb(216, 137, 43);"> ▾</tspan></text></g><g class="blocklyDraggable" transform="translate(98.71875,6)"><path class="blocklyPathDark" transform="translate(1,1)" fill="#843456" d="m 0,0 H 67.296875 v 25 H 0 V 20 c 0,-10 -8,8 -8,-7.5 s 8,2.5 8,-7.5 z
"></path><path class="blocklyPath" fill="#a5416b" d="m 0,0 H 67.296875 v 25 H 0 V 20 c 0,-10 -8,8 -8,-7.5 s 8,2.5 8,-7.5 z
"></path><path class="blocklyPathLight" stroke="#c07a97" d="m 0.5,0.5 H 66.796875 M 66.796875,0.5 M 0.5,24.5 V 18.5 m -7.36,-0.5 q -1.52,-5.5 0,-11 m 7.36,1 V 0.5 H 1
"></path><g class="blocklyEditableText" transform="translate(10,5)" style="cursor: default;"><rect rx="4" ry="4" x="-5" y="0" height="16" width="57.296875"></rect><text class="blocklyText" y="12.5">Liste<tspan style="fill: rgb(165, 65, 107);"> ▾</tspan></text></g></g><g class="blocklyDraggable" transform="translate(270.65625,6)"><path class="blocklyPathDark" transform="translate(1,1)" fill="#ad6e22" d="m 0,0 H 20 H 397.5 v 36 H 0 V 20 c 0,-10 -8,8 -8,-7.5 s 8,2.5 8,-7.5 z
M 167.015625,5 h -69.296875 v 5 c 0,10 -8,-8 -8,7.5 s 8,-2.5 8,7.5 v 7 h 69.296875 z M 387.5,5 h -41.59375 v 5 c 0,10 -8,-8 -8,7.5 s 8,-2.5 8,7.5 v 7 h 41.59375 z"></path><path class="blocklyPath" fill="#d8892b" d="m 0,0 H 20 H 397.5 v 36 H 0 V 20 c 0,-10 -8,8 -8,-7.5 s 8,2.5 8,-7.5 z
M 167.015625,5 h -69.296875 v 5 c 0,10 -8,-8 -8,7.5 s 8,-2.5 8,7.5 v 7 h 69.296875 z M 387.5,5 h -41.59375 v 5 c 0,10 -8,-8 -8,7.5 s 8,-2.5 8,7.5 v 7 h 41.59375 z"></path><path class="blocklyPathLight" stroke="#e4ac6b" d="m 0.5,0.5 H 19.5 M 19.5,0.5 H 397 M 0.5,35.5 V 18.5 m -7.36,-0.5 q -1.52,-5.5 0,-11 m 7.36,1 V 0.5 H 1
M 167.515625,5.5 v 27 h -69.296875 M 92.61875,24.3 l 3.68,-2.1 M 388,5.5 v 27 h -41.59375 M 340.80625,24.3 l 3.68,-2.1"></path><text class="blocklyText" y="12.5" transform="translate(10,10)">in der Liste</text><g class="blocklyEditableText" transform="translate(177.015625,10)" style="cursor: default;"><rect rx="4" ry="4" x="-5" y="0" height="16" width="62.171875"></rect><text class="blocklyText" y="12.5">nimm<tspan style="fill: rgb(216, 137, 43);"> ▾</tspan></text></g><text class="blocklyText" y="12.5" transform="translate(239.1875,10)"> </text><g class="blocklyEditableText" transform="translate(253.265625,10)" style="cursor: default;"><rect rx="4" ry="4" x="-5" y="0" height="16" width="86.640625"></rect><text class="blocklyText" y="12.5">am Index<tspan style="fill: rgb(216, 137, 43);"> ▾</tspan></text></g><g class="blocklyDraggable" transform="translate(98.71875,6)"><path class="blocklyPathDark" transform="translate(1,1)" fill="#843456" d="m 0,0 H 67.296875 v 25 H 0 V 20 c 0,-10 -8,8 -8,-7.5 s 8,2.5 8,-7.5 z
"></path><path class="blocklyPath" fill="#a5416b" d="m 0,0 H 67.296875 v 25 H 0 V 20 c 0,-10 -8,8 -8,-7.5 s 8,2.5 8,-7.5 z
"></path><path class="blocklyPathLight" stroke="#c07a97" d="m 0.5,0.5 H 66.796875 M 66.796875,0.5 M 0.5,24.5 V 18.5 m -7.36,-0.5 q -1.52,-5.5 0,-11 m 7.36,1 V 0.5 H 1
"></path><g class="blocklyEditableText" transform="translate(10,5)" style="cursor: default;"><rect rx="4" ry="4" x="-5" y="0" height="16" width="57.296875"></rect><text class="blocklyText" y="12.5">Liste<tspan style="fill: rgb(165, 65, 107);"> ▾</tspan></text></g></g><g class="blocklyDraggable" transform="translate(346.90625,5.999999999999943)"><path class="blocklyPathDark" transform="translate(1,1)" fill="#843456" d="m 0,0 H 39.59375 v 25 H 0 V 20 c 0,-10 -8,8 -8,-7.5 s 8,2.5 8,-7.5 z
"></path><path class="blocklyPath" fill="#a5416b" d="m 0,0 H 39.59375 v 25 H 0 V 20 c 0,-10 -8,8 -8,-7.5 s 8,2.5 8,-7.5 z
"></path><path class="blocklyPathLight" stroke="#c07a97" d="m 0.5,0.5 H 39.09375 M 39.09375,0.5 M 0.5,24.5 V 18.5 m -7.36,-0.5 q -1.52,-5.5 0,-11 m 7.36,1 V 0.5 H 1
"></path><g class="blocklyEditableText" transform="translate(10,5)" style="cursor: default;"><rect rx="4" ry="4" x="-5" y="0" height="16" width="29.59375"></rect><text class="blocklyText" y="12.5">i<tspan style="fill: rgb(165, 65, 107);"> ▾</tspan></text></g></g></g></g></g><g class="blocklyBubbleCanvas" transform="translate(124.99999999999955,7) scale(1)"></g><rect height="15" width="15" class="blocklyScrollbarBackground" x="837.5" y="816.5"></rect><g class="blocklyScrollbarVertical" transform="translate(837.5,0.5)"><rect class="blocklyScrollbarBackground" width="15" height="816"></rect><rect class="blocklyScrollbarHandle" rx="5" ry="5" width="10" x="2.5" height="515.4988610478359" y="300.50113895216407"></rect></g><g class="blocklyScrollbarHorizontal" transform="translate(110.5,816.5)"><rect class="blocklyScrollbarBackground" height="15" width="727"></rect><rect class="blocklyScrollbarHandle" rx="5" ry="5" height="10" y="2.5" width="337.03451234254953" x="160.12541434309574"></rect></g></g><g class="blocklyFlyout" transform="translate(110,0)" style="display: none;"><path class="blocklyFlyoutBackground" d="M 0,0 h 230.703125 a 8 8 0 0 1 8 8 v 816 a 8 8 0 0 1 -8 8 h -230.703125 z"></path><g class="blocklyWorkspace"><g class="blocklyBlockCanvas" transform="translate(0,2) scale(1)"><rect fill-opacity="0" width="75.296875" height="26" x="8" y="52"></rect><rect fill-opacity="0" width="128.265625" height="26" x="8" y="86"></rect><rect fill-opacity="0" width="47.59375" height="26" x="8" y="120"></rect><rect fill-opacity="0" width="150.734375" height="30" x="16" y="170"></rect><rect fill-opacity="0" width="203.703125" height="30" x="16" y="208"></rect><rect fill-opacity="0" width="123.03125" height="30" x="16" y="246"></rect><rect fill-opacity="0" width="75.296875" height="26" x="8" y="52"></rect><rect fill-opacity="0" width="128.265625" height="26" x="8" y="86"></rect><rect fill-opacity="0" width="47.59375" height="26" x="8" y="120"></rect><rect fill-opacity="0" width="150.734375" height="30" x="16" y="170"></rect><g class="blocklyDraggable" transform="translate(16,170)"><path class="blocklyPathDark" transform="translate(1,1)" fill="#843456" d="m 0,8 A 8,8 0 0,1 8,0 H 15 l 6,4 3,0 6,-4 H 150.734375 v 5 c 0,10 -8,-8 -8,7.5 s 8,-2.5 8,7.5 v 5 H 29.5 l -6,4 -3,0 -6,-4 H 8 a 8,8 0 0,1 -8,-8 z
"></path><path class="blocklyPath" fill="#a5416b" d="m 0,8 A 8,8 0 0,1 8,0 H 15 l 6,4 3,0 6,-4 H 150.734375 v 5 c 0,10 -8,-8 -8,7.5 s 8,-2.5 8,7.5 v 5 H 29.5 l -6,4 -3,0 -6,-4 H 8 a 8,8 0 0,1 -8,-8 z
"></path><path class="blocklyPathLight" stroke="#c07a97" d="m 0.5,7.5 A 7.5,7.5 0 0,1 8,0.5 H 15 l 6,4 3,0 6,-4 H 150.234375 M 150.234375,0.5 M 145.734375,19.3 l 3.68,-2.1 M 2.6966991411008934,22.303300858899107 A 7.5,7.5 0 0,1 0.5,17 V 8
"></path><text class="blocklyText" y="12.5" transform="translate(10,5)">setze</text><g class="blocklyEditableText" transform="translate(55.046875,5)" style="cursor: default;"><rect rx="4" ry="4" x="-5" y="0" height="16" width="57.296875"></rect><text class="blocklyText" y="12.5">Liste<tspan style="fill: rgb(165, 65, 107);"> ▾</tspan></text></g><text class="blocklyText" y="12.5" transform="translate(112.34375,5)">auf</text></g><rect fill-opacity="0" width="203.703125" height="30" x="16" y="208"></rect><g class="blocklyDraggable" transform="translate(16,208)"><path class="blocklyPathDark" transform="translate(1,1)" fill="#843456" d="m 0,8 A 8,8 0 0,1 8,0 H 15 l 6,4 3,0 6,-4 H 203.703125 v 5 c 0,10 -8,-8 -8,7.5 s 8,-2.5 8,7.5 v 5 H 29.5 l -6,4 -3,0 -6,-4 H 8 a 8,8 0 0,1 -8,-8 z
"></path><path class="blocklyPath" fill="#a5416b" d="m 0,8 A 8,8 0 0,1 8,0 H 15 l 6,4 3,0 6,-4 H 203.703125 v 5 c 0,10 -8,-8 -8,7.5 s 8,-2.5 8,7.5 v 5 H 29.5 l -6,4 -3,0 -6,-4 H 8 a 8,8 0 0,1 -8,-8 z
"></path><path class="blocklyPathLight" stroke="#c07a97" d="m 0.5,7.5 A 7.5,7.5 0 0,1 8,0.5 H 15 l 6,4 3,0 6,-4 H 203.203125 M 203.203125,0.5 M 198.703125,19.3 l 3.68,-2.1 M 2.6966991411008934,22.303300858899107 A 7.5,7.5 0 0,1 0.5,17 V 8
"></path><text class="blocklyText" y="12.5" transform="translate(10,5)">setze</text><g class="blocklyEditableText" transform="translate(55.046875,5)" style="cursor: default;"><rect rx="4" ry="4" x="-5" y="0" height="16" width="110.265625"></rect><text class="blocklyText" y="12.5">Ergebnisliste<tspan style="fill: rgb(165, 65, 107);"> ▾</tspan></text></g><text class="blocklyText" y="12.5" transform="translate(165.3125,5)">auf</text></g><rect fill-opacity="0" width="123.03125" height="30" x="16" y="246"></rect><g class="blocklyDraggable" transform="translate(16,246)"><path class="blocklyPathDark" transform="translate(1,1)" fill="#843456" d="m 0,8 A 8,8 0 0,1 8,0 H 15 l 6,4 3,0 6,-4 H 123.03125 v 5 c 0,10 -8,-8 -8,7.5 s 8,-2.5 8,7.5 v 5 H 29.5 l -6,4 -3,0 -6,-4 H 8 a 8,8 0 0,1 -8,-8 z
"></path><path class="blocklyPath" fill="#a5416b" d="m 0,8 A 8,8 0 0,1 8,0 H 15 l 6,4 3,0 6,-4 H 123.03125 v 5 c 0,10 -8,-8 -8,7.5 s 8,-2.5 8,7.5 v 5 H 29.5 l -6,4 -3,0 -6,-4 H 8 a 8,8 0 0,1 -8,-8 z
"></path><path class="blocklyPathLight" stroke="#c07a97" d="m 0.5,7.5 A 7.5,7.5 0 0,1 8,0.5 H 15 l 6,4 3,0 6,-4 H 122.53125 M 122.53125,0.5 M 118.03125,19.3 l 3.68,-2.1 M 2.6966991411008934,22.303300858899107 A 7.5,7.5 0 0,1 0.5,17 V 8
"></path><text class="blocklyText" y="12.5" transform="translate(10,5)">setze</text><g class="blocklyEditableText" transform="translate(55.046875,5)" style="cursor: default;"><rect rx="4" ry="4" x="-5" y="0" height="16" width="29.59375"></rect><text class="blocklyText" y="12.5">i<tspan style="fill: rgb(165, 65, 107);"> ▾</tspan></text></g><text class="blocklyText" y="12.5" transform="translate(84.640625,5)">auf</text></g><g class="blocklyFlyoutButton" transform="translate(16,8)" display="block"><rect class="blocklyFlyoutButtonShadow" rx="4" ry="4" x="1" y="1" width="140.921875" height="20"></rect><rect class="blocklyFlyoutButtonBackground" rx="4" ry="4" width="140.921875" height="20"></rect><text class="blocklyText" x="70.4609375" y="15" text-anchor="middle">Variable erstellen …</text></g><g class="blocklyDraggable" transform="translate(16,52)"><path class="blocklyPathDark" transform="translate(1,1)" fill="#843456" d="m 0,0 H 67.296875 v 25 H 0 V 20 c 0,-10 -8,8 -8,-7.5 s 8,2.5 8,-7.5 z
"></path><path class="blocklyPath" fill="#a5416b" d="m 0,0 H 67.296875 v 25 H 0 V 20 c 0,-10 -8,8 -8,-7.5 s 8,2.5 8,-7.5 z
"></path><path class="blocklyPathLight" stroke="#c07a97" d="m 0.5,0.5 H 66.796875 M 66.796875,0.5 M 0.5,24.5 V 18.5 m -7.36,-0.5 q -1.52,-5.5 0,-11 m 7.36,1 V 0.5 H 1
"></path><g class="blocklyEditableText" transform="translate(10,5)" style="cursor: default;"><rect rx="4" ry="4" x="-5" y="0" height="16" width="57.296875"></rect><text class="blocklyText" y="12.5">Liste<tspan style="fill: rgb(165, 65, 107);"> ▾</tspan></text></g></g><g class="blocklyDraggable" transform="translate(16,86)"><path class="blocklyPathDark" transform="translate(1,1)" fill="#843456" d="m 0,0 H 120.265625 v 25 H 0 V 20 c 0,-10 -8,8 -8,-7.5 s 8,2.5 8,-7.5 z
"></path><path class="blocklyPath" fill="#a5416b" d="m 0,0 H 120.265625 v 25 H 0 V 20 c 0,-10 -8,8 -8,-7.5 s 8,2.5 8,-7.5 z
"></path><path class="blocklyPathLight" stroke="#c07a97" d="m 0.5,0.5 H 119.765625 M 119.765625,0.5 M 0.5,24.5 V 18.5 m -7.36,-0.5 q -1.52,-5.5 0,-11 m 7.36,1 V 0.5 H 1
"></path><g class="blocklyEditableText" transform="translate(10,5)" style="cursor: default;"><rect rx="4" ry="4" x="-5" y="0" height="16" width="110.265625"></rect><text class="blocklyText" y="12.5">Ergebnisliste<tspan style="fill: rgb(165, 65, 107);"> ▾</tspan></text></g></g><g class="blocklyDraggable blocklySelected" transform="translate(16,120)"><path class="blocklyPathDark" transform="translate(1,1)" fill="#843456" d="m 0,0 H 39.59375 v 25 H 0 V 20 c 0,-10 -8,8 -8,-7.5 s 8,2.5 8,-7.5 z
"></path><path class="blocklyPath" fill="#a5416b" d="m 0,0 H 39.59375 v 25 H 0 V 20 c 0,-10 -8,8 -8,-7.5 s 8,2.5 8,-7.5 z
"></path><path class="blocklyPathLight" stroke="#c07a97" d="m 0.5,0.5 H 39.09375 M 39.09375,0.5 M 0.5,24.5 V 18.5 m -7.36,-0.5 q -1.52,-5.5 0,-11 m 7.36,1 V 0.5 H 1
"></path><g class="blocklyEditableText" transform="translate(10,5)" style="cursor: default;"><rect rx="4" ry="4" x="-5" y="0" height="16" width="29.59375"></rect><text class="blocklyText" y="12.5">i<tspan style="fill: rgb(165, 65, 107);"> ▾</tspan></text></g></g></g><g class="blocklyBubbleCanvas" transform="translate(0,2) scale(1)"></g><g class="blocklyScrollbarVertical" transform="translate(221.203125,2.5)" display="none"><rect class="blocklyScrollbarBackground" width="15" height="827"></rect><rect class="blocklyScrollbarHandle" rx="5" ry="5" width="10" x="2.5" height="2411.112676056338" y="0"></rect></g></g></g></svg>
