<?xml version="1.0" encoding="UTF-8" standalone="no"?>
<svg
   version="1.1"
   class="blocklySvg"
   width="808.6875"
   height="52"
   id="svg82"
   xmlns="http://www.w3.org/2000/svg"
   xmlns:svg="http://www.w3.org/2000/svg">
  <defs
     id="defs2" />
  <g
     class="blocklyWorkspace"
     id="g46"
     transform="translate(-184,-288)">
    <g
       class="blocklyBlockCanvas"
       transform="translate(125,7)"
       id="g40">
      <g
         class="blocklyDraggable"
         transform="translate(59,281)"
         id="g39">
        <path
           class="blocklyPathDark"
           transform="translate(1,1)"
           fill="#ad6e22"
           d="M 0,8 A 8,8 0 0 1 8,0 h 7 l 6,4 h 3 L 30,0 H 40 807.6875 V 47 H 29.5 l -6,4 h -3 l -6,-4 H 8 A 8,8 0 0 1 0,39 Z M 167.01562,5 H 97.71875 v 5 c 0,10 -8,-8 -8,7.5 0,15.5 8,-2.5 8,7.5 v 7 h 69.29687 z m 502.14063,0 h -399.5 v 5 c 0,10 -8,-8 -8,7.5 0,15.5 8,-2.5 8,7.5 v 18 h 399.5 z M 797.6875,5 h -14.5 v 5 c 0,10 -8,-8 -8,7.5 0,15.5 8,-2.5 8,7.5 v 6 h 14.5 z"
           id="path19" />
        <path
           class="blocklyPath"
           fill="#d8892b"
           d="M 0,8 A 8,8 0 0 1 8,0 h 7 l 6,4 h 3 L 30,0 H 40 807.6875 V 47 H 29.5 l -6,4 h -3 l -6,-4 H 8 A 8,8 0 0 1 0,39 Z M 167.01562,5 H 97.71875 v 5 c 0,10 -8,-8 -8,7.5 0,15.5 8,-2.5 8,7.5 v 7 h 69.29687 z m 502.14063,0 h -399.5 v 5 c 0,10 -8,-8 -8,7.5 0,15.5 8,-2.5 8,7.5 v 18 h 399.5 z M 797.6875,5 h -14.5 v 5 c 0,10 -8,-8 -8,7.5 0,15.5 8,-2.5 8,7.5 v 6 h 14.5 z"
           id="path20" />
        <text
           class="blocklyText"
           y="12.5"
           transform="translate(10,10)"
           id="text21"
           style="font-style:normal;font-variant:normal;font-weight:normal;font-stretch:normal;font-size:14.6667px;font-family:Arial;-inkscape-font-specification:'Arial, Normal';font-variant-ligatures:normal;font-variant-caps:normal;font-variant-numeric:normal;font-variant-east-asian:normal;fill:#ffffff;fill-opacity:1">in der Liste</text>
        <g
           class="blocklyEditableText"
           transform="translate(177.01562,10)"
           id="g22">
          <rect
             rx="4"
             ry="4"
             x="-5"
             y="0"
             height="16"
             width="86.640625"
             id="rect21"
             style="fill:#efd0aa;fill-opacity:1" />
          <text
             class="blocklyText"
             y="12.5"
             id="text22"
             style="font-style:normal;font-variant:normal;font-weight:normal;font-stretch:normal;font-size:14.6667px;font-family:Arial;-inkscape-font-specification:'Arial, Normal';font-variant-ligatures:normal;font-variant-caps:normal;font-variant-numeric:normal;font-variant-east-asian:normal;fill:#000000;fill-opacity:1">am Index<tspan
   style="font-style:normal;font-variant:normal;font-weight:normal;font-stretch:normal;font-size:14.6667px;font-family:Arial;-inkscape-font-specification:'Arial, Normal';font-variant-ligatures:normal;font-variant-caps:normal;font-variant-numeric:normal;font-variant-east-asian:normal;fill:#000000;fill-opacity:1"
   id="tspan21">▾</tspan></text>
        </g>
        <g
           class="blocklyEditableText"
           transform="translate(679.15625,10)"
           id="g23">
          <rect
             rx="4"
             ry="4"
             x="-5"
             y="0"
             height="16"
             width="98.03125"
             id="rect22"
             style="fill:#efd0aa;fill-opacity:1" />
          <text
             class="blocklyText"
             y="12.5"
             id="text23"
             style="font-style:normal;font-variant:normal;font-weight:normal;font-stretch:normal;font-size:14.6667px;font-family:Arial;-inkscape-font-specification:'Arial, Normal';font-variant-ligatures:normal;font-variant-caps:normal;font-variant-numeric:normal;font-variant-east-asian:normal;fill:#000000;fill-opacity:1">ersetze mit<tspan
   style="font-style:normal;font-variant:normal;font-weight:normal;font-stretch:normal;font-size:14.6667px;font-family:Arial;-inkscape-font-specification:'Arial, Normal';font-variant-ligatures:normal;font-variant-caps:normal;font-variant-numeric:normal;font-variant-east-asian:normal;fill:#000000;fill-opacity:1"
   id="tspan22">▾</tspan></text>
        </g>
        <g
           class="blocklyDraggable"
           transform="translate(98.71875,6)"
           id="g26">
          <path
             class="blocklyPathDark"
             transform="translate(1,1)"
             fill="#843456"
             d="M 0,0 H 67.296875 V 25 H 0 V 20 C 0,10 -8,28 -8,12.5 -8,-3 0,15 0,5 Z"
             id="path23" />
          <path
             class="blocklyPath"
             fill="#a5416b"
             d="M 0,0 H 67.296875 V 25 H 0 V 20 C 0,10 -8,28 -8,12.5 -8,-3 0,15 0,5 Z"
             id="path24" />
          <path
             class="blocklyPathLight"
             stroke="#c07a97"
             d="m 0.5,0.5 h 66.296875 m 0,0 M 0.5,24.5 v -6 M -6.86,18 q -1.52,-5.5 0,-11 M 0.5,8 V 0.5 H 1"
             id="path25" />
          <g
             class="blocklyEditableText"
             transform="translate(10,5)"
             id="g25">
            <rect
               rx="4"
               ry="4"
               x="-5"
               y="0"
               height="16"
               width="57.296875"
               id="rect25"
               style="fill:#dbb3c4;fill-opacity:1" />
            <text
               class="blocklyText"
               y="12.5"
               id="text25"
               style="font-style:normal;font-variant:normal;font-weight:normal;font-stretch:normal;font-size:14.6667px;font-family:Arial;-inkscape-font-specification:'Arial, Normal';font-variant-ligatures:normal;font-variant-caps:normal;font-variant-numeric:normal;font-variant-east-asian:normal;fill:#000000;fill-opacity:1">Liste<tspan
   style="font-style:normal;font-variant:normal;font-weight:normal;font-stretch:normal;font-size:14.6667px;font-family:Arial;-inkscape-font-specification:'Arial, Normal';font-variant-ligatures:normal;font-variant-caps:normal;font-variant-numeric:normal;font-variant-east-asian:normal;fill:#000000;fill-opacity:1"
   id="tspan25">▾</tspan></text>
          </g>
        </g>
        <g
           class="blocklyDraggable"
           transform="translate(270.65625,6)"
           id="g38">
          <path
             class="blocklyPathDark"
             transform="translate(1,1)"
             fill="#ad6e22"
             d="M 0,0 H 20 397.5 V 36 H 0 V 20 C 0,10 -8,28 -8,12.5 -8,-3 0,15 0,5 Z M 167.01562,5 H 97.71875 v 5 c 0,10 -8,-8 -8,7.5 0,15.5 8,-2.5 8,7.5 v 7 h 69.29687 z M 387.5,5 h -41.59375 v 5 c 0,10 -8,-8 -8,7.5 0,15.5 8,-2.5 8,7.5 v 7 H 387.5 Z"
             id="path26" />
          <path
             class="blocklyPath"
             fill="#d8892b"
             d="M 0,0 H 20 397.5 V 36 H 0 V 20 C 0,10 -8,28 -8,12.5 -8,-3 0,15 0,5 Z M 167.01562,5 H 97.71875 v 5 c 0,10 -8,-8 -8,7.5 0,15.5 8,-2.5 8,7.5 v 7 h 69.29687 z M 387.5,5 h -41.59375 v 5 c 0,10 -8,-8 -8,7.5 0,15.5 8,-2.5 8,7.5 v 7 H 387.5 Z"
             id="path27" />
          <path
             class="blocklyPathLight"
             stroke="#e4ac6b"
             d="m 0.5,0.5 h 19 m 0,0 H 397 M 0.5,35.5 v -17 M -6.86,18 q -1.52,-5.5 0,-11 M 0.5,8 V 0.5 H 1 m 166.51562,5 v 27 H 98.21875 m -5.6,-8.2 3.68,-2.1 M 388,5.5 v 27 h -41.59375 m -5.6,-8.2 3.68,-2.1"
             id="path28" />
          <text
             class="blocklyText"
             y="12.5"
             transform="translate(10,10)"
             id="text28"
             style="font-style:normal;font-variant:normal;font-weight:normal;font-stretch:normal;font-size:14.6667px;font-family:Arial;-inkscape-font-specification:'Arial, Normal';font-variant-ligatures:normal;font-variant-caps:normal;font-variant-numeric:normal;font-variant-east-asian:normal;fill:#ffffff;fill-opacity:1">in der Liste</text>
          <g
             class="blocklyEditableText"
             transform="translate(177.01562,10)"
             id="g29">
            <rect
               rx="4"
               ry="4"
               x="-5"
               y="0"
               height="16"
               width="62.171875"
               id="rect28"
               style="fill:#efd0aa;fill-opacity:1" />
            <text
               class="blocklyText"
               y="12.5"
               id="text29"
               style="font-style:normal;font-variant:normal;font-weight:normal;font-stretch:normal;font-size:14.6667px;font-family:Arial;-inkscape-font-specification:'Arial, Normal';font-variant-ligatures:normal;font-variant-caps:normal;font-variant-numeric:normal;font-variant-east-asian:normal;fill:#000000;fill-opacity:1">nimm<tspan
   style="font-style:normal;font-variant:normal;font-weight:normal;font-stretch:normal;font-size:14.6667px;font-family:Arial;-inkscape-font-specification:'Arial, Normal';font-variant-ligatures:normal;font-variant-caps:normal;font-variant-numeric:normal;font-variant-east-asian:normal;fill:#000000;fill-opacity:1"
   id="tspan28">▾</tspan></text>
          </g>
          <text
             class="blocklyText"
             y="12.5"
             transform="translate(239.1875,10)"
             id="text30"
             style="font-style:normal;font-variant:normal;font-weight:normal;font-stretch:normal;font-size:14.6667px;font-family:Arial;-inkscape-font-specification:'Arial, Normal';font-variant-ligatures:normal;font-variant-caps:normal;font-variant-numeric:normal;font-variant-east-asian:normal;fill:#ffffff;fill-opacity:1" />
          <g
             class="blocklyEditableText"
             transform="translate(253.26562,10)"
             id="g31">
            <rect
               rx="4"
               ry="4"
               x="-5"
               y="0"
               height="16"
               width="86.640625"
               id="rect30"
               style="fill:#efd0aa;fill-opacity:1" />
            <text
               class="blocklyText"
               y="12.5"
               id="text31"
               style="font-style:normal;font-variant:normal;font-weight:normal;font-stretch:normal;font-size:14.6667px;font-family:Arial;-inkscape-font-specification:'Arial, Normal';font-variant-ligatures:normal;font-variant-caps:normal;font-variant-numeric:normal;font-variant-east-asian:normal;fill:#000000;fill-opacity:1">am Index<tspan
   style="font-style:normal;font-variant:normal;font-weight:normal;font-stretch:normal;font-size:14.6667px;font-family:Arial;-inkscape-font-specification:'Arial, Normal';font-variant-ligatures:normal;font-variant-caps:normal;font-variant-numeric:normal;font-variant-east-asian:normal;fill:#000000;fill-opacity:1"
   id="tspan30">▾</tspan></text>
          </g>
          <g
             class="blocklyDraggable"
             transform="translate(98.71875,6)"
             id="g34">
            <path
               class="blocklyPathDark"
               transform="translate(1,1)"
               fill="#843456"
               d="M 0,0 H 67.296875 V 25 H 0 V 20 C 0,10 -8,28 -8,12.5 -8,-3 0,15 0,5 Z"
               id="path31" />
            <path
               class="blocklyPath"
               fill="#a5416b"
               d="M 0,0 H 67.296875 V 25 H 0 V 20 C 0,10 -8,28 -8,12.5 -8,-3 0,15 0,5 Z"
               id="path32" />
            <path
               class="blocklyPathLight"
               stroke="#c07a97"
               d="m 0.5,0.5 h 66.296875 m 0,0 M 0.5,24.5 v -6 M -6.86,18 q -1.52,-5.5 0,-11 M 0.5,8 V 0.5 H 1"
               id="path33" />
            <g
               class="blocklyEditableText"
               transform="translate(10,5)"
               id="g33">
              <rect
                 rx="4"
                 ry="4"
                 x="-5"
                 y="0"
                 height="16"
                 width="57.296875"
                 id="rect33"
                 style="fill:#dbb3c4;fill-opacity:1" />
              <text
                 class="blocklyText"
                 y="12.5"
                 id="text33"
                 style="font-style:normal;font-variant:normal;font-weight:normal;font-stretch:normal;font-size:14.6667px;font-family:Arial;-inkscape-font-specification:'Arial, Normal';font-variant-ligatures:normal;font-variant-caps:normal;font-variant-numeric:normal;font-variant-east-asian:normal;fill:#000000;fill-opacity:1">Liste<tspan
   style="font-style:normal;font-variant:normal;font-weight:normal;font-stretch:normal;font-size:14.6667px;font-family:Arial;-inkscape-font-specification:'Arial, Normal';font-variant-ligatures:normal;font-variant-caps:normal;font-variant-numeric:normal;font-variant-east-asian:normal;fill:#000000;fill-opacity:1"
   id="tspan33">▾</tspan></text>
            </g>
          </g>
          <g
             class="blocklyDraggable"
             transform="translate(346.90625,6)"
             id="g37">
            <path
               class="blocklyPathDark"
               transform="translate(1,1)"
               fill="#843456"
               d="M 0,0 H 39.59375 V 25 H 0 V 20 C 0,10 -8,28 -8,12.5 -8,-3 0,15 0,5 Z"
               id="path34" />
            <path
               class="blocklyPath"
               fill="#a5416b"
               d="M 0,0 H 39.59375 V 25 H 0 V 20 C 0,10 -8,28 -8,12.5 -8,-3 0,15 0,5 Z"
               id="path35" />
            <g
               class="blocklyEditableText"
               transform="translate(10,5)"
               id="g36">
              <rect
                 rx="4"
                 ry="4"
                 x="-5"
                 y="0"
                 height="16"
                 width="29.59375"
                 id="rect36"
                 style="fill:#dbb3c4;fill-opacity:1" />
              <text
                 class="blocklyText"
                 y="12.5"
                 id="text36"
                 style="font-style:normal;font-variant:normal;font-weight:normal;font-stretch:normal;font-size:14.6667px;font-family:Arial;-inkscape-font-specification:'Arial, Normal';font-variant-ligatures:normal;font-variant-caps:normal;font-variant-numeric:normal;font-variant-east-asian:normal;fill:#000000;fill-opacity:1">i<tspan
   style="font-style:normal;font-variant:normal;font-weight:normal;font-stretch:normal;font-size:14.6667px;font-family:Arial;-inkscape-font-specification:'Arial, Normal';font-variant-ligatures:normal;font-variant-caps:normal;font-variant-numeric:normal;font-variant-east-asian:normal;fill:#000000;fill-opacity:1"
   id="tspan36">▾</tspan></text>
            </g>
          </g>
        </g>
      </g>
    </g>
  </g>
</svg>
