<?xml version="1.0" encoding="UTF-8" standalone="no"?>
<svg
   version="1.1"
   class="blocklySvg"
   width="88.603409"
   height="25"
   id="svg63"
   xmlns="http://www.w3.org/2000/svg"
   xmlns:svg="http://www.w3.org/2000/svg">
  <defs
     id="defs2">
    <linearGradient
       id="swatch65">
      <stop
         style="stop-color:#80b42b;stop-opacity:1;"
         offset="0"
         id="stop65" />
    </linearGradient>
  </defs>
  <g
     class="blocklyWorkspace"
     id="g63"
     transform="translate(-7.8809681,-348)">
    <g
       class="blocklyFlyout"
       style="display:block"
       id="g54">
      <g
         class="blocklyWorkspace"
         id="g53">
        <g
           class="blocklyBlockCanvas"
           transform="translate(0,2)"
           id="g50">
          <g
             class="blocklyDraggable"
             transform="translate(16,346)"
             id="g34">
            <path
               class="blocklyPathDark"
               transform="translate(1,1)"
               fill="#226384"
               d="M 0,0 H 79.484375 V 24 H 0 V 20 C 0,10 -8,28 -8,12.5 -8,-3 0,15 0,5 Z"
               id="path32" />
            <path
               class="blocklyPath"
               fill="#2b7ca5"
               d="M 0,0 H 79.484375 V 24 H 0 V 20 C 0,10 -8,28 -8,12.5 -8,-3 0,15 0,5 Z"
               id="path33" />
            <path
               class="blocklyPathLight"
               stroke="#6ba3c0"
               d="m 0.5,0.5 h 78.484375 m 0,0 M 0.5,23.5 v -5 M -6.86,18 q -1.52,-5.5 0,-11 M 0.5,8 V 0.5 H 1"
               id="path34" />
            <text
               class="blocklyText"
               y="12.5"
               transform="translate(10,5)"
               id="text34"
               style="font-style:normal;font-variant:normal;font-weight:normal;font-stretch:normal;font-size:14.6667px;font-family:Arial;-inkscape-font-specification:'Arial, Normal';font-variant-ligatures:normal;font-variant-caps:normal;font-variant-numeric:normal;font-variant-east-asian:normal;fill:#ffffff;fill-opacity:1">auf Fisch</text>
          </g>
        </g>
      </g>
    </g>
  </g>
</svg>
