<?xml version="1.0" encoding="UTF-8" standalone="no"?>
<svg
   version="1.1"
   class="blocklySvg"
   width="95.015625"
   height="63"
   id="svg506"
   xmlns="http://www.w3.org/2000/svg"
   xmlns:svg="http://www.w3.org/2000/svg">
  <defs
     id="defs2" />
  <g
     class="blocklyWorkspace"
     id="g506"
     transform="translate(-16,-352)">
    <g
       class="blocklyFlyout"
       style="display:block"
       id="g497">
      <g
         class="blocklyWorkspace"
         id="g496">
        <g
           class="blocklyBlockCanvas"
           transform="translate(0,-4151)"
           id="g493">
          <g
             class="blocklyDraggable"
             transform="translate(16,4503)"
             id="g376">
            <path
               class="blocklyPathDark"
               transform="translate(1,1)"
               fill="#678f17"
               d="M 0,8 A 8,8 0 0 1 8,0 h 7 l 6,4 h 3 l 6,-4 h 64.015625 v 5 c 0,10 -8,-8 -8,7.5 0,15.5 8,-2.5 8,7.5 v 4 0 l -6,4 h -3 l -6,-4 h -7 a 8,8 0 0 0 -8,8 v 8 a 8,8 0 0 0 8,8 h 22 V 58 H 29.5 l -6,4 h -3 l -6,-4 H 8 A 8,8 0 0 1 0,50 Z"
               id="path372" />
            <path
               class="blocklyPath"
               fill="#81b31d"
               d="M 0,8 A 8,8 0 0 1 8,0 h 7 l 6,4 h 3 l 6,-4 h 64.015625 v 5 c 0,10 -8,-8 -8,7.5 0,15.5 8,-2.5 8,7.5 v 4 0 l -6,4 h -3 l -6,-4 h -7 a 8,8 0 0 0 -8,8 v 8 a 8,8 0 0 0 8,8 h 22 V 58 H 29.5 l -6,4 h -3 l -6,-4 H 8 A 8,8 0 0 1 0,50 Z"
               id="path373" />
            <g
               class="blocklyIconGroup blocklyIconGroupReadonly"
               display="block"
               transform="translate(10,5)"
               id="g375">
              <rect
                 class="blocklyIconShape"
                 rx="4"
                 ry="4"
                 height="16"
                 width="16"
                 id="rect374"
                 style="fill:#3347a4;fill-opacity:1"
                 x="0"
                 y="0" />
              <path
                 class="blocklyIconSymbol"
                 d="m 4.203,7.296 v 1.368 l -0.92,0.677 -0.11,0.41 0.9,1.559 0.41,0.11 1.043,-0.457 1.187,0.683 0.127,1.134 0.3,0.3 h 1.8 l 0.3,-0.299 0.127,-1.138 1.185,-0.682 1.046,0.458 0.409,-0.11 0.9,-1.559 -0.11,-0.41 -0.92,-0.677 V 7.297 L 12.797,6.62 12.907,6.21 12.007,4.651 11.598,4.542 10.552,5 9.367,4.318 9.24,3.18 8.94,2.881 H 7.14 L 6.84,3.181 6.714,4.316 5.527,4.998 4.484,4.541 4.074,4.651 3.175,6.21 3.283,6.619 Z"
                 id="path375"
                 style="fill:#cce0a5;fill-opacity:1" />
              <circle
                 class="blocklyIconShape"
                 r="2.7"
                 cx="8"
                 cy="8"
                 id="circle375"
                 style="fill:#3347a4;fill-opacity:1" />
            </g>
            <text
               class="blocklyText"
               y="12.5"
               transform="translate(37,5)"
               id="text375"
               style="font-style:normal;font-variant:normal;font-weight:normal;font-stretch:normal;font-size:14.6667px;font-family:Arial;-inkscape-font-specification:'Arial, Normal';font-variant-ligatures:normal;font-variant-caps:normal;font-variant-numeric:normal;font-variant-east-asian:normal;fill:#ffffff;fill-opacity:1">falls</text>
            <text
               class="blocklyText"
               y="12.5"
               transform="translate(10,29)"
               id="text376"
               style="font-style:normal;font-variant:normal;font-weight:normal;font-stretch:normal;font-size:14.6667px;font-family:Arial;-inkscape-font-specification:'Arial, Normal';font-variant-ligatures:normal;font-variant-caps:normal;font-variant-numeric:normal;font-variant-east-asian:normal;fill:#ffffff;fill-opacity:1">mache</text>
          </g>
        </g>
      </g>
    </g>
  </g>
</svg>
