<?xml version="1.0" encoding="UTF-8" standalone="no"?>
<svg
   version="1.1"
   class="blocklySvg"
   width="244.34375"
   height="64"
   id="svg506"
   xmlns="http://www.w3.org/2000/svg"
   xmlns:svg="http://www.w3.org/2000/svg">
  <defs
     id="defs2" />
  <g
     class="blocklyWorkspace"
     id="g506"
     transform="translate(-16,-139)">
    <g
       class="blocklyFlyout"
       style="display:block"
       id="g497">
      <g
         class="blocklyWorkspace"
         id="g496">
        <g
           class="blocklyBlockCanvas"
           transform="translate(0,-4151)"
           id="g493">
          <g
             class="blocklyDraggable"
             transform="translate(16,4290)"
             id="g366">
            <path
               class="blocklyPathDark"
               transform="translate(1,1)"
               fill="#269197"
               d="M 0,8 A 8,8 0 0 1 8,0 h 7 l 6,4 h 3 l 6,-4 h 213.34375 v 5 c 0,10 -8,-8 -8,7.5 0,15.5 8,-2.5 8,7.5 v 5 H 94.015625 l -6,4 h -3 l -6,-4 h -7 a 8,8 0 0 0 -8,8 v 8 a 8,8 0 0 0 8,8 H 243.34375 V 59 H 29.5 l -6,4 h -3 l -6,-4 H 8 A 8,8 0 0 1 0,51 Z"
               id="path361" />
            <path
               class="blocklyPath"
               fill="#2fb5bd"
               d="M 0,8 A 8,8 0 0 1 8,0 h 7 l 6,4 h 3 l 6,-4 h 213.34375 v 5 c 0,10 -8,-8 -8,7.5 0,15.5 8,-2.5 8,7.5 v 5 H 94.015625 l -6,4 h -3 l -6,-4 h -7 a 8,8 0 0 0 -8,8 v 8 a 8,8 0 0 0 8,8 H 243.34375 V 59 H 29.5 l -6,4 h -3 l -6,-4 H 8 A 8,8 0 0 1 0,51 Z"
               id="path362" />
            <text
               class="blocklyText"
               y="12.5"
               transform="translate(10,5)"
               id="text363"
               style="font-style:normal;font-variant:normal;font-weight:normal;font-stretch:normal;font-size:14.6667px;font-family:Arial;-inkscape-font-specification:'Arial, Normal';font-variant-ligatures:normal;font-variant-caps:normal;font-variant-numeric:normal;font-variant-east-asian:normal;fill:#ffffff;fill-opacity:1">für jeden Wert</text>
            <g
               class="blocklyEditableText"
               transform="translate(111.8125,5)"
               id="g364">
              <rect
                 rx="4"
                 ry="4"
                 x="-5"
                 y="0"
                 height="16"
                 width="29.59375"
                 id="rect363"
                 style="fill:#abe1e5;fill-opacity:1" />
              <text
                 class="blocklyText"
                 y="12.5"
                 id="text364"
                 style="font-style:normal;font-variant:normal;font-weight:normal;font-stretch:normal;font-size:14.6667px;font-family:Arial;-inkscape-font-specification:'Arial, Normal';font-variant-ligatures:normal;font-variant-caps:normal;font-variant-numeric:normal;font-variant-east-asian:normal;fill:#000000;fill-opacity:1">i<tspan
   style="font-style:normal;font-variant:normal;font-weight:normal;font-stretch:normal;font-size:14.6667px;font-family:Arial;-inkscape-font-specification:'Arial, Normal';font-variant-ligatures:normal;font-variant-caps:normal;font-variant-numeric:normal;font-variant-east-asian:normal;fill:#000000;fill-opacity:1"
   id="tspan363">▾</tspan></text>
            </g>
            <text
               class="blocklyText"
               y="12.5"
               transform="translate(141.40625,5)"
               id="text365"
               style="font-style:normal;font-variant:normal;font-weight:normal;font-stretch:normal;font-size:14.6667px;font-family:Arial;-inkscape-font-specification:'Arial, Normal';font-variant-ligatures:normal;font-variant-caps:normal;font-variant-numeric:normal;font-variant-east-asian:normal;fill:#ffffff;fill-opacity:1">aus der Liste</text>
            <text
               class="blocklyText"
               y="12.5"
               transform="translate(10,30)"
               id="text366"
               style="font-style:normal;font-variant:normal;font-weight:normal;font-stretch:normal;font-size:14.6667px;font-family:Arial;-inkscape-font-specification:'Arial, Normal';font-variant-ligatures:normal;font-variant-caps:normal;font-variant-numeric:normal;font-variant-east-asian:normal;fill:#ffffff;fill-opacity:1">mache</text>
          </g>
        </g>
      </g>
    </g>
  </g>
</svg>
