<?xml version="1.0" encoding="UTF-8" standalone="no"?>
<svg
   version="1.1"
   class="blocklySvg"
   width="145.53125"
   height="49"
   id="svg506"
   xmlns="http://www.w3.org/2000/svg"
   xmlns:svg="http://www.w3.org/2000/svg">
  <defs
     id="defs2" />
  <g
     class="blocklyWorkspace"
     id="g506"
     transform="translate(-16,-279)">
    <g
       class="blocklyFlyout"
       style="display:block"
       id="g497">
      <g
         class="blocklyWorkspace"
         id="g496">
        <g
           class="blocklyBlockCanvas"
           transform="translate(0,-4151)"
           id="g493">
          <g
             class="blocklyDraggable"
             transform="translate(16,4430)"
             id="g371">
            <path
               class="blocklyPathDark"
               transform="translate(1,1)"
               fill="#269197"
               d="M 0,8 A 8,8 0 0 1 8,0 h 7 l 6,4 h 3 l 6,-4 h 114.53125 v 10 0 l -6,4 h -3 l -6,-4 h -7 a 8,8 0 0 0 -8,8 v 8 a 8,8 0 0 0 8,8 h 22 V 44 H 29.5 l -6,4 h -3 l -6,-4 H 8 A 8,8 0 0 1 0,36 Z"
               id="path369" />
            <path
               class="blocklyPath"
               fill="#2fb5bd"
               d="M 0,8 A 8,8 0 0 1 8,0 h 7 l 6,4 h 3 l 6,-4 h 114.53125 v 10 0 l -6,4 h -3 l -6,-4 h -7 a 8,8 0 0 0 -8,8 v 8 a 8,8 0 0 0 8,8 h 22 V 44 H 29.5 l -6,4 h -3 l -6,-4 H 8 A 8,8 0 0 1 0,36 Z"
               id="path370" />
            <text
               class="blocklyText"
               y="12.5"
               transform="translate(10,15)"
               id="text371"
               style="font-style:normal;font-variant:normal;font-weight:normal;font-stretch:normal;font-size:14.6667px;font-family:Arial;-inkscape-font-specification:'Arial, Normal';font-variant-ligatures:normal;font-variant-caps:normal;font-variant-numeric:normal;font-variant-east-asian:normal;fill:#ffffff;fill-opacity:1">Endlosschleife</text>
          </g>
        </g>
      </g>
    </g>
  </g>
</svg>
