<?xml version="1.0" encoding="UTF-8" standalone="no"?>
<svg
   version="1.1"
   class="blocklySvg"
   width="183.92188"
   height="76"
   id="svg506"
   xmlns="http://www.w3.org/2000/svg"
   xmlns:svg="http://www.w3.org/2000/svg">
  <defs
     id="defs2" />
  <g
     class="blocklyWorkspace"
     id="g506"
     transform="translate(-16,535)">
    <g
       class="blocklyFlyout"
       style="display:block"
       id="g497">
      <g
         class="blocklyWorkspace"
         id="g496">
        <g
           class="blocklyBlockCanvas"
           transform="translate(0,-4151)"
           id="g493">
          <g
             class="blocklyDraggable"
             transform="translate(16,3616)"
             id="g324">
            <path
               class="blocklyPathDark"
               transform="translate(1,1)"
               fill="#269197"
               d="M 0,8 A 8,8 0 0 1 8,0 h 7 l 6,4 h 3 L 30,0 H 94.015625 182.92187 V 36 H 94.015625 l -6,4 h -3 l -6,-4 h -7 a 8,8 0 0 0 -8,8 v 9 a 8,8 0 0 0 8,8 h 22 V 71 H 29.5 l -6,4 h -3 l -6,-4 H 8 A 8,8 0 0 1 0,63 Z M 135.21875,5 h -38.3125 v 5 c 0,10 -8,-8 -8,7.5 0,15.5 8,-2.5 8,7.5 v 7 h 38.3125 z"
               id="path316" />
            <path
               class="blocklyPath"
               fill="#2fb5bd"
               d="M 0,8 A 8,8 0 0 1 8,0 h 7 l 6,4 h 3 L 30,0 H 94.015625 182.92187 V 36 H 94.015625 l -6,4 h -3 l -6,-4 h -7 a 8,8 0 0 0 -8,8 v 9 a 8,8 0 0 0 8,8 h 22 V 71 H 29.5 l -6,4 h -3 l -6,-4 H 8 A 8,8 0 0 1 0,63 Z M 135.21875,5 h -38.3125 v 5 c 0,10 -8,-8 -8,7.5 0,15.5 8,-2.5 8,7.5 v 7 h 38.3125 z"
               id="path317" />
            <g
               transform="translate(97.90625,6)"
               id="g322">
              <path
                 class="blocklyPathDark"
                 transform="translate(1,1)"
                 fill="#b0b9db"
                 d="M 0,0 H 36.3125 V 25 H 0 V 20 C 0,10 -8,28 -8,12.5 -8,-3 0,15 0,5 Z"
                 id="path319" />
              <path
                 class="blocklyPath"
                 fill="#b0b9db"
                 d="M 0,0 H 36.3125 V 25 H 0 V 20 C 0,10 -8,28 -8,12.5 -8,-3 0,15 0,5 Z"
                 id="path320" />
              <path
                 class="blocklyPathLight"
                 d="m 0.5,0.5 h 35.3125 m 0,0 M 0.5,24.5 v -6 M -6.86,18 q -1.52,-5.5 0,-11 M 0.5,8 V 0.5 H 1"
                 style="display:none"
                 id="path321" />
              <g
                 class="blocklyEditableText"
                 transform="translate(10,5)"
                 id="g321">
                <rect
                   rx="4"
                   ry="4"
                   x="-5"
                   y="0"
                   height="16"
                   width="26.3125"
                   id="rect321"
                   style="fill:#dfe3f1;fill-opacity:1" />
                <text
                   class="blocklyText"
                   y="12.5"
                   id="text321"
                   style="font-style:normal;font-variant:normal;font-weight:normal;font-stretch:normal;font-size:14.6667px;font-family:Arial;-inkscape-font-specification:'Arial, Normal';font-variant-ligatures:normal;font-variant-caps:normal;font-variant-numeric:normal;font-variant-east-asian:normal;fill:#000000;fill-opacity:1">10</text>
              </g>
            </g>
            <text
               class="blocklyText"
               y="12.5"
               transform="translate(10,10)"
               id="text322"
               style="font-style:normal;font-variant:normal;font-weight:normal;font-stretch:normal;font-size:14.6667px;font-family:Arial;-inkscape-font-specification:'Arial, Normal';font-variant-ligatures:normal;font-variant-caps:normal;font-variant-numeric:normal;font-variant-east-asian:normal;fill:#ffffff;fill-opacity:1">wiederhole</text>
            <text
               class="blocklyText"
               y="12.5"
               transform="translate(145.21875,10)"
               id="text323"
               style="font-style:normal;font-variant:normal;font-weight:normal;font-stretch:normal;font-size:14.6667px;font-family:Arial;-inkscape-font-specification:'Arial, Normal';font-variant-ligatures:normal;font-variant-caps:normal;font-variant-numeric:normal;font-variant-east-asian:normal;fill:#ffffff;fill-opacity:1">mal:</text>
            <text
               class="blocklyText"
               y="12.5"
               transform="translate(10,41)"
               id="text324"
               style="font-style:normal;font-variant:normal;font-weight:normal;font-stretch:normal;font-size:14.6667px;font-family:Arial;-inkscape-font-specification:'Arial, Normal';font-variant-ligatures:normal;font-variant-caps:normal;font-variant-numeric:normal;font-variant-east-asian:normal;fill:#ffffff;fill-opacity:1">mache</text>
          </g>
        </g>
      </g>
    </g>
  </g>
</svg>
