<?xml version="1.0" encoding="UTF-8" standalone="no"?>
<svg
   version="1.1"
   class="blocklySvg"
   width="350.57812"
   height="75"
   id="svg506"
   xmlns="http://www.w3.org/2000/svg"
   xmlns:svg="http://www.w3.org/2000/svg">
  <defs
     id="defs2" />
  <g
     class="blocklyWorkspace"
     id="g506"
     transform="translate(-16,60)">
    <g
       class="blocklyFlyout"
       style="display:block"
       id="g497">
      <g
         class="blocklyWorkspace"
         id="g496">
        <g
           class="blocklyBlockCanvas"
           transform="translate(0,-4151)"
           id="g493">
          <g
             class="blocklyDraggable"
             transform="translate(16,4091)"
             id="g344">
            <path
               class="blocklyPathDark"
               transform="translate(1,1)"
               fill="#269197"
               d="M 0,8 A 8,8 0 0 1 8,0 h 7 l 6,4 h 3 L 30,0 H 94.015625 349.57812 V 35 H 94.015625 l -6,4 h -3 l -6,-4 h -7 a 8,8 0 0 0 -8,8 v 9 a 8,8 0 0 0 8,8 h 22 V 70 H 29.5 l -6,4 h -3 l -6,-4 H 8 A 8,8 0 0 1 0,62 Z M 138.78125,5 h -14.5 v 5 c 0,10 -8,-8 -8,7.5 0,15.5 8,-2.5 8,7.5 v 6 h 14.5 z m 59.25,0 h -14.5 v 5 c 0,10 -8,-8 -8,7.5 0,15.5 8,-2.5 8,7.5 v 6 h 14.5 z m 141.54687,0 h -14.5 v 5 c 0,10 -8,-8 -8,7.5 0,15.5 8,-2.5 8,7.5 v 6 h 14.5 z"
               id="path337" />
            <path
               class="blocklyPath"
               fill="#2fb5bd"
               d="M 0,8 A 8,8 0 0 1 8,0 h 7 l 6,4 h 3 L 30,0 H 94.015625 349.57812 V 35 H 94.015625 l -6,4 h -3 l -6,-4 h -7 a 8,8 0 0 0 -8,8 v 9 a 8,8 0 0 0 8,8 h 22 V 70 H 29.5 l -6,4 h -3 l -6,-4 H 8 A 8,8 0 0 1 0,62 Z M 138.78125,5 h -14.5 v 5 c 0,10 -8,-8 -8,7.5 0,15.5 8,-2.5 8,7.5 v 6 h 14.5 z m 59.25,0 h -14.5 v 5 c 0,10 -8,-8 -8,7.5 0,15.5 8,-2.5 8,7.5 v 6 h 14.5 z m 141.54687,0 h -14.5 v 5 c 0,10 -8,-8 -8,7.5 0,15.5 8,-2.5 8,7.5 v 6 h 14.5 z"
               id="path338" />
            <text
               class="blocklyText"
               y="12.5"
               transform="translate(10,10)"
               id="text339"
               style="font-style:normal;font-variant:normal;font-weight:normal;font-stretch:normal;font-size:14.6667px;font-family:Arial;-inkscape-font-specification:'Arial, Normal';font-variant-ligatures:normal;font-variant-caps:normal;font-variant-numeric:normal;font-variant-east-asian:normal;fill:#ffffff;fill-opacity:1">zähle</text>
            <g
               class="blocklyEditableText"
               transform="translate(55.046875,10)"
               id="g340">
              <rect
                 rx="4"
                 ry="4"
                 x="-5"
                 y="0"
                 height="16"
                 width="29.59375"
                 id="rect339"
                 style="fill:#abe1e5;fill-opacity:1" />
              <text
                 class="blocklyText"
                 y="12.5"
                 id="text340"
                 style="font-style:normal;font-variant:normal;font-weight:normal;font-stretch:normal;font-size:14.6667px;font-family:Arial;-inkscape-font-specification:'Arial, Normal';font-variant-ligatures:normal;font-variant-caps:normal;font-variant-numeric:normal;font-variant-east-asian:normal;fill:#000000;fill-opacity:1">i<tspan
   style="font-style:normal;font-variant:normal;font-weight:normal;font-stretch:normal;font-size:14.6667px;font-family:Arial;-inkscape-font-specification:'Arial, Normal';font-variant-ligatures:normal;font-variant-caps:normal;font-variant-numeric:normal;font-variant-east-asian:normal;fill:#000000;fill-opacity:1"
   id="tspan339">▾</tspan></text>
            </g>
            <text
               class="blocklyText"
               y="12.5"
               transform="translate(84.640625,10)"
               id="text341"
               style="font-style:normal;font-variant:normal;font-weight:normal;font-stretch:normal;font-size:14.6667px;font-family:Arial;-inkscape-font-specification:'Arial, Normal';font-variant-ligatures:normal;font-variant-caps:normal;font-variant-numeric:normal;font-variant-east-asian:normal;fill:#ffffff;fill-opacity:1">von</text>
            <text
               class="blocklyText"
               y="12.5"
               transform="translate(148.78125,10)"
               id="text342"
               style="font-style:normal;font-variant:normal;font-weight:normal;font-stretch:normal;font-size:14.6667px;font-family:Arial;-inkscape-font-specification:'Arial, Normal';font-variant-ligatures:normal;font-variant-caps:normal;font-variant-numeric:normal;font-variant-east-asian:normal;fill:#ffffff;fill-opacity:1">bis</text>
            <text
               class="blocklyText"
               y="12.5"
               transform="translate(208.03125,10)"
               id="text343"
               style="font-style:normal;font-variant:normal;font-weight:normal;font-stretch:normal;font-size:14.6667px;font-family:Arial;-inkscape-font-specification:'Arial, Normal';font-variant-ligatures:normal;font-variant-caps:normal;font-variant-numeric:normal;font-variant-east-asian:normal;fill:#ffffff;fill-opacity:1">in Schritten von</text>
            <text
               class="blocklyText"
               y="12.5"
               transform="translate(10,40)"
               id="text344"
               style="font-style:normal;font-variant:normal;font-weight:normal;font-stretch:normal;font-size:14.6667px;font-family:Arial;-inkscape-font-specification:'Arial, Normal';font-variant-ligatures:normal;font-variant-caps:normal;font-variant-numeric:normal;font-variant-east-asian:normal;fill:#ffffff;fill-opacity:1">mache</text>
          </g>
        </g>
      </g>
    </g>
  </g>
</svg>
