<?xml version="1.0" encoding="UTF-8" standalone="no"?>
<svg
   version="1.1"
   class="blocklySvg"
   width="174.60905"
   height="27.5"
   id="svg61"
   sodipodi:docname="Domino_aufBlauemQuadrat.svg"
   inkscape:version="1.3.2 (091e20e, 2023-11-25, custom)"
   xmlns:inkscape="http://www.inkscape.org/namespaces/inkscape"
   xmlns:sodipodi="http://sodipodi.sourceforge.net/DTD/sodipodi-0.dtd"
   xmlns="http://www.w3.org/2000/svg"
   xmlns:svg="http://www.w3.org/2000/svg">
  <sodipodi:namedview
     id="namedview1"
     pagecolor="#ffffff"
     bordercolor="#000000"
     borderopacity="0.25"
     inkscape:showpageshadow="2"
     inkscape:pageopacity="0.0"
     inkscape:pagecheckerboard="0"
     inkscape:deskcolor="#d1d1d1"
     inkscape:zoom="6.1279755"
     inkscape:cx="87.304527"
     inkscape:cy="13.78922"
     inkscape:window-width="1920"
     inkscape:window-height="1017"
     inkscape:window-x="-8"
     inkscape:window-y="-8"
     inkscape:window-maximized="1"
     inkscape:current-layer="svg61" />
  <defs
     id="defs2" />
  <g
     class="blocklyWorkspace"
     id="g61"
     transform="translate(-311.66907,-251.4)">
    <g
       class="blocklyBlockCanvas"
       transform="matrix(1.1,0,0,1.1,218.8875,7)"
       id="g55">
      <g
         class="blocklyDraggable"
         transform="translate(92.465916,222.18182)"
         id="g54">
        <path
           class="blocklyPathDark"
           transform="translate(1,1)"
           fill="#226384"
           d="M 0,0 H 149.61647 V 24 H 0 V 20 C 0,10 -8,28 -8,12.5 -8,-3 0,15 0,5 Z"
           id="path52" />
        <path
           class="blocklyPath"
           fill="#2b7ca5"
           d="M 0,0 H 149.61647 V 24 H 0 V 20 C 0,10 -8,28 -8,12.5 -8,-3 0,15 0,5 Z"
           id="path53" />
        <path
           class="blocklyPathLight"
           stroke="#6ba3c0"
           d="m 0.5,0.5 h 148.61647 m 0,0 M 0.5,23.5 v -5 M -6.86,18 q -1.52,-5.5 0,-11 M 0.5,8 V 0.5 H 1"
           id="path54" />
        <text
           class="blocklyText"
           y="12.5"
           transform="translate(10,5)"
           id="text54"
           style="font-style:normal;font-variant:normal;font-weight:normal;font-stretch:normal;font-size:14.5455px;font-family:Arial;-inkscape-font-specification:'Arial, Normal';font-variant-ligatures:normal;font-variant-caps:normal;font-variant-numeric:normal;font-variant-east-asian:normal;fill:#ffffff;fill-opacity:1">auf blauem Quadrat</text>
      </g>
    </g>
  </g>
</svg>
