<?xml version="1.0" encoding="UTF-8" standalone="no"?>
<svg
   version="1.1"
   class="blocklySvg"
   width="146.49403"
   height="25"
   id="svg506"
   xmlns="http://www.w3.org/2000/svg"
   xmlns:svg="http://www.w3.org/2000/svg">
  <defs
     id="defs2" />
  <g
     class="blocklyWorkspace"
     id="g506"
     transform="translate(-6.8675701,3886.9099)">
    <g
       class="blocklyFlyout"
       style="display:block"
       id="g497">
      <g
         class="blocklyWorkspace"
         id="g496">
        <g
           class="blocklyBlockCanvas"
           transform="translate(0,-4151)"
           id="g493">
          <g
             class="blocklyDraggable"
             transform="translate(14.986602,264.09013)"
             id="g14">
            <path
               class="blocklyPathDark"
               transform="translate(1,1)"
               fill="#840101"
               d="M 0,0 H 137.375 V 24 H 0 V 20 C 0,10 -8,28 -8,12.5 -8,-3 0,15 0,5 Z"
               id="path12" />
            <path
               class="blocklyPath"
               fill="#a50101"
               d="M 0,0 H 137.375 V 24 H 0 V 20 C 0,10 -8,28 -8,12.5 -8,-3 0,15 0,5 Z"
               id="path13" />
            <path
               class="blocklyPathLight"
               stroke="#c04d4d"
               d="m 0.5,0.5 h 136.375 m 0,0 M 0.5,23.5 v -5 M -6.86,18 q -1.52,-5.5 0,-11 M 0.5,8 V 0.5 H 1"
               id="path14" />
            <text
               class="blocklyText"
               y="12.5"
               transform="translate(10,5)"
               id="text14"
               style="font-style:normal;font-variant:normal;font-weight:normal;font-stretch:normal;font-size:14.6667px;font-family:Arial;-inkscape-font-specification:'Arial, Normal';font-variant-ligatures:normal;font-variant-caps:normal;font-variant-numeric:normal;font-variant-east-asian:normal;fill:#ffffff;fill-opacity:1">Ende der Eingabe</text>
          </g>
        </g>
      </g>
    </g>
  </g>
</svg>
