<?xml version="1.0" encoding="UTF-8" standalone="no"?>
<svg
   version="1.1"
   class="blocklySvg"
   width="174.98438"
   height="80"
   id="svg93"
   xmlns="http://www.w3.org/2000/svg"
   xmlns:svg="http://www.w3.org/2000/svg">
  <defs
     id="defs2" />
  <g
     class="blocklyWorkspace"
     id="g71"
     transform="translate(-140,-47)">
    <g
       class="blocklyBubbleCanvas"
       transform="translate(140,47)"
       id="g66"
       style="display:inline">
      <g
         id="g17">
        <path
           class="blocklyPathDark"
           transform="translate(1,1)"
           fill="#496684"
           d="M 0,8 A 8,8 0 0 1 8,0 H 173.98437 V 24 H 29.5 l -6,4 h -3 l -6,-4 H 0 Z"
           id="path5" />
        <path
           class="blocklyPath"
           fill="#5b80a5"
           d="M 0,8 A 8,8 0 0 1 8,0 H 173.98437 V 24 H 29.5 l -6,4 h -3 l -6,-4 H 0 Z"
           id="path6" />
        <text
           class="blocklyText"
           y="12.5"
           transform="translate(10,5)"
           id="text7"
           style="font-style:normal;font-variant:normal;font-weight:normal;font-stretch:normal;font-size:14.6667px;font-family:Arial;-inkscape-font-specification:'Arial, Normal';font-variant-ligatures:normal;font-variant-caps:normal;font-variant-numeric:normal;font-variant-east-asian:normal;fill:#ffffff;fill-opacity:1">Schildkröten-Programm</text>
        <g
           class="blocklyDraggable"
           transform="translate(0,25)"
           id="g16">
          <path
             class="blocklyPathDark"
             transform="translate(1,1)"
             fill="#7a0e84"
             d="m 0,0 h 15 l 6,4 h 3 l 6,-4 h 94.375 v 25 5 c 0,10 -8,-8 -8,7.5 0,15.5 8,-2.5 8,7.5 v 5 H 29.5 l -6,4 h -3 l -6,-4 H 8 A 8,8 0 0 1 0,42 Z"
             id="path8" />
          <path
             class="blocklyPath"
             fill="#9911a5"
             d="m 0,0 h 15 l 6,4 h 3 l 6,-4 h 94.375 v 25 5 c 0,10 -8,-8 -8,7.5 0,15.5 8,-2.5 8,7.5 v 5 H 29.5 l -6,4 h -3 l -6,-4 H 8 A 8,8 0 0 1 0,42 Z"
             id="path9" />
          <text
             class="blocklyText"
             y="12.5"
             transform="translate(99.03125,30)"
             id="text10"
             style="font-style:normal;font-variant:normal;font-weight:normal;font-stretch:normal;font-size:14.6667px;font-family:Arial;-inkscape-font-specification:'Arial, Normal';font-variant-ligatures:normal;font-variant-caps:normal;font-variant-numeric:normal;font-variant-east-asian:normal;fill:#ffffff;fill-opacity:1">x</text>
          <text
             class="blocklyText"
             y="12.5"
             transform="translate(10,5)"
             id="text11"
             style="font-style:normal;font-variant:normal;font-weight:normal;font-stretch:normal;font-size:14.6667px;font-family:Arial;-inkscape-font-specification:'Arial, Normal';font-variant-ligatures:normal;font-variant-caps:normal;font-variant-numeric:normal;font-variant-east-asian:normal;fill:#ffffff;fill-opacity:1">etwas tun</text>
          <text
             class="blocklyText"
             y="12.5"
             transform="translate(82.75,5)"
             id="text12"
             style="font-style:normal;font-variant:normal;font-weight:normal;font-stretch:normal;font-size:14.6667px;font-family:Arial;-inkscape-font-specification:'Arial, Normal';font-variant-ligatures:normal;font-variant-caps:normal;font-variant-numeric:normal;font-variant-east-asian:normal;fill:#ffffff;fill-opacity:1">mit:</text>
          <g
             class="blocklyDraggable"
             transform="translate(125.375,25)"
             id="g15">
            <path
               class="blocklyPathDark"
               transform="translate(1,1)"
               fill="#2e4084"
               d="M 0,0 H 28.15625 V 25 H 0 V 20 C 0,10 -8,28 -8,12.5 -8,-3 0,15 0,5 Z"
               id="path12" />
            <path
               class="blocklyPath"
               fill="#3950a5"
               d="M 0,0 H 28.15625 V 25 H 0 V 20 C 0,10 -8,28 -8,12.5 -8,-3 0,15 0,5 Z"
               id="path13" />
            <g
               class="blocklyEditableText"
               transform="translate(10,5)"
               id="g14">
              <rect
                 rx="4"
                 ry="4"
                 x="-5"
                 y="0"
                 height="16"
                 width="18.15625"
                 id="rect14"
                 style="fill:#afb9db;fill-opacity:1" />
              <text
                 class="blocklyText"
                 y="12.5"
                 id="text14"
                 style="font-style:normal;font-variant:normal;font-weight:normal;font-stretch:normal;font-size:14.6667px;font-family:Arial;-inkscape-font-specification:'Arial, Normal';font-variant-ligatures:normal;font-variant-caps:normal;font-variant-numeric:normal;font-variant-east-asian:normal;fill:#000000;fill-opacity:1">2</text>
            </g>
          </g>
        </g>
      </g>
    </g>
  </g>
</svg>
