<?xml version="1.0" encoding="UTF-8" standalone="no"?>
<svg
   version="1.1"
   class="blocklySvg"
   width="95.125"
   height="30.000002"
   id="svg93"
   xmlns="http://www.w3.org/2000/svg"
   xmlns:svg="http://www.w3.org/2000/svg">
  <defs
     id="defs2">
    <filter
       id="blocklyEmbossFilter3236190549714164"
       x="-0.0077607114"
       y="-0.018020829"
       width="1.0155214"
       height="1.0360417">
      <feGaussianBlur
         in="SourceAlpha"
         stdDeviation="1"
         result="blur"
         id="feGaussianBlur1" />
      <feSpecularLighting
         in="blur"
         surfaceScale="1"
         specularConstant="0.5"
         specularExponent="10"
         lighting-color="#ffffff"
         result="specOut"
         id="feSpecularLighting1">
        <fePointLight
           x="-5000"
           y="-10000"
           z="20000"
           id="fePointLight1" />
      </feSpecularLighting>
      <feComposite
         in="specOut"
         in2="SourceAlpha"
         operator="in"
         result="specOut"
         id="feComposite1" />
      <feComposite
         in="SourceGraphic"
         in2="specOut"
         operator="arithmetic"
         k1="0"
         k2="1"
         k3="1"
         k4="0"
         id="feComposite2" />
    </filter>
  </defs>
  <g
     class="blocklyWorkspace"
     id="g71"
     transform="translate(-409.1875,-75.5)">
    <g
       class="blocklyBlockCanvas"
       transform="translate(140,47)"
       id="g40">
      <g
         class="blocklyDraggable"
         transform="translate(306,138)"
         id="g39">
        <path
           class="blocklyPathDark"
           transform="translate(1,1)"
           fill="#7a0e84"
           d="M 0,8 A 8,8 0 0 1 8,0 H 181.78125 V 25 H 50 l -6,4 h -3 l -6,-4 h -7 a 8,8 0 0 0 -8,8 v 35 a 8,8 0 0 0 8,8 H 181.78125 V 86 H 8 A 8,8 0 0 1 0,78 Z"
           id="path17" />
        <path
           class="blocklyPath"
           fill="#9911a5"
           d="M 0,8 A 8,8 0 0 1 8,0 H 181.78125 V 25 H 50 l -6,4 h -3 l -6,-4 h -7 a 8,8 0 0 0 -8,8 v 35 a 8,8 0 0 0 8,8 H 181.78125 V 86 H 8 A 8,8 0 0 1 0,78 Z"
           id="path18" />
        <g
           class="blocklyIconGroup"
           display="block"
           transform="translate(10,5)"
           id="g20">
          <rect
             class="blocklyIconShape"
             rx="4"
             ry="4"
             height="16"
             width="16"
             id="rect19"
             style="fill:#3c06db;fill-opacity:1"
             x="0"
             y="0" />
          <path
             class="blocklyIconSymbol"
             d="m 4.203,7.296 v 1.368 l -0.92,0.677 -0.11,0.41 0.9,1.559 0.41,0.11 1.043,-0.457 1.187,0.683 0.127,1.134 0.3,0.3 h 1.8 l 0.3,-0.299 0.127,-1.138 1.185,-0.682 1.046,0.458 0.409,-0.11 0.9,-1.559 -0.11,-0.41 -0.92,-0.677 V 7.297 L 12.797,6.62 12.907,6.21 12.007,4.651 11.598,4.542 10.552,5 9.367,4.318 9.24,3.18 8.94,2.881 H 7.14 L 6.84,3.181 6.714,4.316 5.527,4.998 4.484,4.541 4.074,4.651 3.175,6.21 3.283,6.619 Z"
             id="path20"
             style="fill:#d6a0db;fill-opacity:1" />
          <circle
             class="blocklyIconShape"
             r="2.7"
             cx="8"
             cy="8"
             id="circle20"
             style="fill:#3c06db;fill-opacity:1" />
        </g>
        <g
           class="blocklyIconGroup"
           display="block"
           transform="translate(37,5)"
           id="g21">
          <circle
             class="blocklyIconShape"
             r="8"
             cx="8"
             cy="8"
             id="circle21"
             style="fill:#3c06db;fill-opacity:1" />
          <path
             class="blocklyIconSymbol"
             d="m 6.8,10 h 2 C 8.803,9.383 9.071,9.038 9.433,8.734 12.308,6.329 10.04,3.2 5.668,4.86 v 1.7 C 8.788,4.903 9.366,6.678 8.004,7.81 6.803,8.808 6.803,9.338 6.8,10 Z"
             id="path21"
             style="fill:#d6a0db;fill-opacity:1" />
          <rect
             class="blocklyIconSymbol"
             x="6.8000002"
             y="10.78"
             height="2"
             width="2"
             id="rect21"
             style="fill:#d6a0db;fill-opacity:1" />
        </g>
        <g
           class="blocklyEditableText"
           transform="translate(64,5)"
           id="g22">
          <rect
             rx="4"
             ry="4"
             x="-5"
             y="0"
             height="16"
             width="72.75"
             id="rect22"
             style="fill:#d6a0db;fill-opacity:1" />
          <text
             class="blocklyText"
             y="12.5"
             id="text22"
             style="font-style:normal;font-variant:normal;font-weight:normal;font-stretch:normal;font-size:14.6667px;font-family:Arial;-inkscape-font-specification:'Arial, Normal';font-variant-ligatures:normal;font-variant-caps:normal;font-variant-numeric:normal;font-variant-east-asian:normal;fill:#000000;fill-opacity:1">etwas tun</text>
        </g>
        <text
           class="blocklyText"
           y="12.5"
           transform="translate(136.75,5)"
           id="text23"
           style="font-style:normal;font-variant:normal;font-weight:normal;font-stretch:normal;font-size:14.6667px;font-family:Arial;-inkscape-font-specification:'Arial, Normal';font-variant-ligatures:normal;font-variant-caps:normal;font-variant-numeric:normal;font-variant-east-asian:normal;fill:#ffffff;fill-opacity:1">mit: x</text>
        <g
           class="blocklyDraggable"
           transform="translate(21,26)"
           id="g38">
          <path
             class="blocklyPathDark"
             transform="translate(1,1)"
             fill="#5b3084"
             d="M 0,8 A 8,8 0 0 1 8,0 h 7 l 6,4 h 3 L 30,0 H 40 283.04687 V 47 H 29.5 l -6,4 h -3 l -6,-4 H 8 A 8,8 0 0 1 0,39 Z M 213.34375,5 H 58.625 v 5 c 0,10 -8,-8 -8,7.5 0,15.5 8,-2.5 8,7.5 v 18 h 154.71875 z"
             id="path23" />
          <path
             class="blocklyPath"
             fill="#723ca5"
             d="M 0,8 A 8,8 0 0 1 8,0 h 7 l 6,4 h 3 L 30,0 H 40 283.04687 V 47 H 29.5 l -6,4 h -3 l -6,-4 H 8 A 8,8 0 0 1 0,39 Z M 213.34375,5 H 58.625 v 5 c 0,10 -8,-8 -8,7.5 0,15.5 8,-2.5 8,7.5 v 18 h 154.71875 z"
             id="path24" />
          <text
             class="blocklyText"
             y="12.5"
             transform="translate(10,10)"
             id="text25"
             style="font-style:normal;font-variant:normal;font-weight:normal;font-stretch:normal;font-size:14.6667px;font-family:Arial;-inkscape-font-specification:'Arial, Normal';font-variant-ligatures:normal;font-variant-caps:normal;font-variant-numeric:normal;font-variant-east-asian:normal;fill:#ffffff;fill-opacity:1">gehe</text>
          <text
             class="blocklyText"
             y="12.5"
             transform="translate(223.34375,10)"
             id="text26"
             style="font-style:normal;font-variant:normal;font-weight:normal;font-stretch:normal;font-size:14.6667px;font-family:Arial;-inkscape-font-specification:'Arial, Normal';font-variant-ligatures:normal;font-variant-caps:normal;font-variant-numeric:normal;font-variant-east-asian:normal;fill:#ffffff;fill-opacity:1">Schritte</text>
          <g
             class="blocklyDraggable"
             transform="translate(59.625,6)"
             id="g37">
            <path
               class="blocklyPathDark"
               transform="translate(1,1)"
               fill="#2e4084"
               d="M 0,0 H 20 152.71875 V 36 H 0 V 20 C 0,10 -8,28 -8,12.5 -8,-3 0,15 0,5 Z M 46.15625,5 H 16 v 5 C 16,20 8,2 8,17.5 8,33 16,15 16,25 v 7 h 30.15625 z m 96.5625,0 H 97.046875 v 5 c 0,10 -8,-8 -8,7.5 0,15.5 8,-2.5 8,7.5 v 7 h 45.671875 z"
               id="path26" />
            <path
               class="blocklyPath"
               fill="#3950a5"
               d="M 0,0 H 20 152.71875 V 36 H 0 V 20 C 0,10 -8,28 -8,12.5 -8,-3 0,15 0,5 Z M 46.15625,5 H 16 v 5 C 16,20 8,2 8,17.5 8,33 16,15 16,25 v 7 h 30.15625 z m 96.5625,0 H 97.046875 v 5 c 0,10 -8,-8 -8,7.5 0,15.5 8,-2.5 8,7.5 v 7 h 45.671875 z"
               id="path27" />
            <path
               class="blocklyPathLight"
               stroke="#7485c0"
               d="m 0.5,0.5 h 19 m 0,0 H 152.21875 M 0.5,35.5 v -17 M -6.86,18 q -1.52,-5.5 0,-11 M 0.5,8 V 0.5 H 1 m 45.65625,5 v 27 H 16.5 m -5.6,-8.2 3.68,-2.1 M 143.21875,5.5 v 27 H 97.546875 m -5.6,-8.2 3.68,-2.1"
               id="path28" />
            <g
               transform="translate(17,6)"
               id="g32">
              <path
                 class="blocklyPathDark"
                 transform="translate(1,1)"
                 fill="#b0b9db"
                 d="M 0,0 H 28.15625 V 25 H 0 V 20 C 0,10 -8,28 -8,12.5 -8,-3 0,15 0,5 Z"
                 id="path29" />
              <path
                 class="blocklyPath"
                 fill="#b0b9db"
                 d="M 0,0 H 28.15625 V 25 H 0 V 20 C 0,10 -8,28 -8,12.5 -8,-3 0,15 0,5 Z"
                 id="path30" />
              <path
                 class="blocklyPathLight"
                 d="m 0.5,0.5 h 27.15625 m 0,0 M 0.5,24.5 v -6 M -6.86,18 q -1.52,-5.5 0,-11 M 0.5,8 V 0.5 H 1"
                 style="display:none"
                 id="path31" />
              <g
                 class="blocklyEditableText"
                 transform="translate(10,5)"
                 id="g31">
                <rect
                   rx="4"
                   ry="4"
                   x="-5"
                   y="0"
                   height="16"
                   width="18.15625"
                   id="rect31"
                   style="fill:#dfe3f1;fill-opacity:1" />
                <text
                   class="blocklyText"
                   y="12.5"
                   id="text31"
                   style="font-style:normal;font-variant:normal;font-weight:normal;font-stretch:normal;font-size:14.6667px;font-family:Arial;-inkscape-font-specification:'Arial, Normal';font-variant-ligatures:normal;font-variant-caps:normal;font-variant-numeric:normal;font-variant-east-asian:normal;fill:#000000;fill-opacity:1">8</text>
              </g>
            </g>
            <g
               class="blocklyEditableText"
               transform="translate(56.15625,10)"
               id="g33">
              <rect
                 rx="4"
                 ry="4"
                 x="-5"
                 y="0"
                 height="16"
                 width="34.890625"
                 id="rect32"
                 style="fill:#afb9db;fill-opacity:1" />
              <text
                 class="blocklyText"
                 y="12.5"
                 id="text32"
                 style="font-style:normal;font-variant:normal;font-weight:normal;font-stretch:normal;font-size:14.6667px;font-family:Arial;-inkscape-font-specification:'Arial, Normal';font-variant-ligatures:normal;font-variant-caps:normal;font-variant-numeric:normal;font-variant-east-asian:normal;fill:#000000;fill-opacity:1">+<tspan
   style="font-style:normal;font-variant:normal;font-weight:normal;font-stretch:normal;font-size:14.6667px;font-family:Arial;-inkscape-font-specification:'Arial, Normal';font-variant-ligatures:normal;font-variant-caps:normal;font-variant-numeric:normal;font-variant-east-asian:normal;fill:#000000;fill-opacity:1"
   id="tspan32">▾</tspan></text>
            </g>
            <g
               class="blocklyDraggable"
               transform="translate(98.046875,6)"
               id="g36">
              <path
                 class="blocklyPathDark"
                 transform="translate(1,1)"
                 fill="#843456"
                 d="M 0,0 H 43.671875 V 25 H 0 V 20 C 0,10 -8,28 -8,12.5 -8,-3 0,15 0,5 Z"
                 id="path33" />
              <path
                 class="blocklyPath"
                 fill="#a5416b"
                 d="M 0,0 H 43.671875 V 25 H 0 V 20 C 0,10 -8,28 -8,12.5 -8,-3 0,15 0,5 Z"
                 id="path34" />
              <path
                 class="blocklyPathLight"
                 stroke="#c07a97"
                 d="m 0.5,0.5 h 42.671875 m 0,0 M 0.5,24.5 v -6 M -6.86,18 q -1.52,-5.5 0,-11 M 0.5,8 V 0.5 H 1"
                 id="path35" />
              <g
                 class="blocklyEditableText"
                 transform="translate(10,5)"
                 id="g35">
                <rect
                   rx="4"
                   ry="4"
                   x="-5"
                   y="0"
                   height="16"
                   width="33.671875"
                   id="rect35"
                   style="fill:#dbb3c4;fill-opacity:1" />
                <text
                   class="blocklyText"
                   y="12.5"
                   id="text35"
                   style="font-style:normal;font-variant:normal;font-weight:normal;font-stretch:normal;font-size:14.6667px;font-family:Arial;-inkscape-font-specification:'Arial, Normal';font-variant-ligatures:normal;font-variant-caps:normal;font-variant-numeric:normal;font-variant-east-asian:normal;fill:#000000;fill-opacity:1">x<tspan
   style="font-style:normal;font-variant:normal;font-weight:normal;font-stretch:normal;font-size:14.6667px;font-family:Arial;-inkscape-font-specification:'Arial, Normal';font-variant-ligatures:normal;font-variant-caps:normal;font-variant-numeric:normal;font-variant-east-asian:normal;fill:#000000;fill-opacity:1"
   id="tspan35">▾</tspan></text>
              </g>
            </g>
          </g>
        </g>
        <g
           transform="translate(-58.8125,-125.5)"
           id="g65"
           style="display:inline">
          <g
             filter="url(#blocklyEmbossFilter3236190549714164)"
             id="g41">
            <path
               d="m 139.22722,42.48243 c -25.17391,12.653091 -56.426684,90.69679 -56.426684,90.69679 0,0 62.048334,-49.00856 87.222244,-61.66165 z"
               fill="#9911a5"
               id="path40" />
            <rect
               class="blocklyDraggable"
               x="0"
               y="0"
               rx="6"
               ry="6"
               width="309.25"
               height="114"
               fill="#9911a5"
               id="rect40" />
          </g>
          <svg
             x="6"
             y="6"
             width="297.25"
             height="102"
             version="1.1"
             id="svg64">
            <g
               class="blocklyWorkspace"
               id="g64">
              <rect
                 height="100%"
                 width="100%"
                 class="blocklyMutatorBackground"
                 id="rect41"
                 x="0"
                 y="0"
                 style="display:inline;fill:#ffffff;fill-opacity:1" />
              <g
                 class="blocklyFlyout"
                 style="display:block"
                 id="g51">
                <path
                   class="blocklyFlyoutBackground"
                   d="m 0,0 h 121.125 a 8,8 0 0 1 8,8 v 86 a 8,8 0 0 1 -8,8 H 0 Z"
                   id="path41"
                   style="fill:#dddddd;fill-opacity:1" />
                <g
                   class="blocklyWorkspace"
                   id="g50">
                  <g
                     class="blocklyBlockCanvas"
                     transform="translate(0,2)"
                     id="g47">
                    <g
                       class="blocklyDraggable"
                       transform="translate(16,8)"
                       id="g46">
                      <path
                         class="blocklyPathDark"
                         transform="translate(1,1)"
                         fill="#7a0e84"
                         d="M 0,8 A 8,8 0 0 1 8,0 h 7 l 6,4 h 3 L 30,0 H 94.125 V 25 H 29.5 l -6,4 h -3 l -6,-4 H 8 A 8,8 0 0 1 0,17 Z"
                         id="path42" />
                      <path
                         class="blocklyPath"
                         fill="#9911a5"
                         d="M 0,8 A 8,8 0 0 1 8,0 h 7 l 6,4 h 3 L 30,0 H 94.125 V 25 H 29.5 l -6,4 h -3 l -6,-4 H 8 A 8,8 0 0 1 0,17 Z"
                         id="path43" />
                      <text
                         class="blocklyText"
                         y="12.5"
                         transform="translate(10,5)"
                         id="text44"
                         style="font-style:normal;font-variant:normal;font-weight:normal;font-stretch:normal;font-size:14.6667px;font-family:Arial;-inkscape-font-specification:'Arial, Normal';font-variant-ligatures:normal;font-variant-caps:normal;font-variant-numeric:normal;font-variant-east-asian:normal;fill:#ffffff;fill-opacity:1">Variable:</text>
                      <g
                         class="blocklyEditableText"
                         transform="translate(76.78125,5)"
                         id="g45">
                        <rect
                           rx="4"
                           ry="4"
                           x="-5"
                           y="0"
                           height="16"
                           width="17.34375"
                           id="rect44"
                           style="fill:#d6a0db;fill-opacity:1" />
                        <text
                           class="blocklyText"
                           y="12.5"
                           id="text45"
                           style="font-style:normal;font-variant:normal;font-weight:normal;font-stretch:normal;font-size:14.6667px;font-family:Arial;-inkscape-font-specification:'Arial, Normal';font-variant-ligatures:normal;font-variant-caps:normal;font-variant-numeric:normal;font-variant-east-asian:normal;fill:#000000;fill-opacity:1">x</text>
                      </g>
                    </g>
                  </g>
                </g>
              </g>
              <g
                 class="blocklyBlockCanvas"
                 id="g62">
                <g
                   transform="translate(145.125,16)"
                   id="g61">
                  <path
                     class="blocklyPathDark"
                     transform="translate(1,1)"
                     fill="#7a0e84"
                     d="M 0,8 A 8,8 0 0 1 8,0 H 88.453125 V 25 H 50 l -6,4 h -3 l -6,-4 h -7 a 8,8 0 0 0 -8,8 v 14 a 8,8 0 0 0 8,8 H 88.453125 V 65 H 8 A 8,8 0 0 1 0,57 Z"
                     id="path51" />
                  <path
                     class="blocklyPath"
                     fill="#9911a5"
                     d="M 0,8 A 8,8 0 0 1 8,0 H 88.453125 V 25 H 50 l -6,4 h -3 l -6,-4 h -7 a 8,8 0 0 0 -8,8 v 14 a 8,8 0 0 0 8,8 H 88.453125 V 65 H 8 A 8,8 0 0 1 0,57 Z"
                     id="path52" />
                  <text
                     class="blocklyText"
                     y="12.5"
                     transform="translate(10,5)"
                     id="text53"
                     style="font-style:normal;font-variant:normal;font-weight:normal;font-stretch:normal;font-size:14.6667px;font-family:Arial;-inkscape-font-specification:'Arial, Normal';font-variant-ligatures:normal;font-variant-caps:normal;font-variant-numeric:normal;font-variant-east-asian:normal;fill:#ffffff;fill-opacity:1">Parameter</text>
                  <text
                     class="blocklyText"
                     y="12.5"
                     style="display:none"
                     id="text54">Anweisungenerlauben</text>
                  <g
                     class="blocklyEditableText"
                     style="display:none"
                     id="g56">
                    <rect
                       rx="4"
                       ry="4"
                       x="-5"
                       y="0"
                       height="16"
                       id="rect54"
                       width="0" />
                    <text
                       class="blocklyText"
                       y="12.5"
                       id="text55" />
                    <text
                       class="blocklyText blocklyCheckbox"
                       x="-3"
                       y="14"
                       style="display:block"
                       id="text56">✓</text>
                  </g>
                  <g
                     class="blocklyDraggable"
                     transform="translate(21,26)"
                     id="g60">
                    <path
                       class="blocklyPathDark"
                       transform="translate(1,1)"
                       fill="#7a0e84"
                       d="M 0,8 A 8,8 0 0 1 8,0 h 7 l 6,4 h 3 L 30,0 H 94.125 V 25 H 29.5 l -6,4 h -3 l -6,-4 H 8 A 8,8 0 0 1 0,17 Z"
                       id="path56" />
                    <path
                       class="blocklyPath"
                       fill="#9911a5"
                       d="M 0,8 A 8,8 0 0 1 8,0 h 7 l 6,4 h 3 L 30,0 H 94.125 V 25 H 29.5 l -6,4 h -3 l -6,-4 H 8 A 8,8 0 0 1 0,17 Z"
                       id="path57" />
                    <text
                       class="blocklyText"
                       y="12.5"
                       transform="translate(10,5)"
                       id="text58"
                       style="font-style:normal;font-variant:normal;font-weight:normal;font-stretch:normal;font-size:14.6667px;font-family:Arial;-inkscape-font-specification:'Arial, Normal';font-variant-ligatures:normal;font-variant-caps:normal;font-variant-numeric:normal;font-variant-east-asian:normal;fill:#ffffff;fill-opacity:1">Variable:</text>
                    <g
                       class="blocklyEditableText"
                       transform="translate(76.78125,5)"
                       id="g59">
                      <rect
                         rx="4"
                         ry="4"
                         x="-5"
                         y="0"
                         height="16"
                         width="17.34375"
                         id="rect58"
                         style="fill:#d6a0db;fill-opacity:1" />
                      <text
                         class="blocklyText"
                         y="12.5"
                         id="text59"
                         style="font-style:normal;font-variant:normal;font-weight:normal;font-stretch:normal;font-size:14.6667px;font-family:Arial;-inkscape-font-specification:'Arial, Normal';font-variant-ligatures:normal;font-variant-caps:normal;font-variant-numeric:normal;font-variant-east-asian:normal;fill:#000000;fill-opacity:1">x</text>
                    </g>
                  </g>
                </g>
              </g>
            </g>
          </svg>
        </g>
      </g>
    </g>
  </g>
</svg>
