<?xml version="1.0" encoding="UTF-8" standalone="no"?>
<svg
   version="1.1"
   class="blocklySvg"
   width="149.57709"
   height="31.9"
   id="svg61"
   xmlns="http://www.w3.org/2000/svg"
   xmlns:svg="http://www.w3.org/2000/svg">
  <defs
     id="defs2" />
  <g
     class="blocklyWorkspace"
     id="g61"
     transform="translate(-17.6,-535.5)">
    <g
       class="blocklyFlyout"
       style="display:block"
       id="g52">
      <g
         class="blocklyWorkspace"
         id="g51">
        <g
           class="blocklyBlockCanvas"
           transform="matrix(1.1,0,0,1.1,0,2)"
           id="g48">
          <g
             class="blocklyDraggable"
             transform="translate(16,485)"
             id="g35">
            <path
               class="blocklyPathDark"
               transform="translate(1,1)"
               fill="#5b3084"
               d="M 0,8 A 8,8 0 0 1 8,0 h 7 l 6,4 h 3 L 30,0 H 134.97916 V 24 H 29.5 l -6,4 h -3 l -6,-4 H 8 A 8,8 0 0 1 0,16 Z"
               id="path33" />
            <path
               class="blocklyPath"
               fill="#723ca5"
               d="M 0,8 A 8,8 0 0 1 8,0 h 7 l 6,4 h 3 L 30,0 H 134.97916 V 24 H 29.5 l -6,4 h -3 l -6,-4 H 8 A 8,8 0 0 1 0,16 Z"
               id="path34" />
            <text
               class="blocklyText"
               y="12.5"
               transform="translate(10,5)"
               id="text35"
               style="font-style:normal;font-variant:normal;font-weight:normal;font-stretch:normal;font-size:14.5455px;font-family:Arial;-inkscape-font-specification:'Arial, Normal';font-variant-ligatures:normal;font-variant-caps:normal;font-variant-numeric:normal;font-variant-east-asian:normal;fill:#ffffff;fill-opacity:1">baue Zahnrad ein</text>
          </g>
        </g>
      </g>
    </g>
  </g>
</svg>
