<?xml version="1.0" encoding="UTF-8" standalone="no"?>
<svg
   version="1.1"
   class="blocklySvg"
   width="138.81876"
   height="31.900024"
   id="svg28"
   xmlns="http://www.w3.org/2000/svg"
   xmlns:svg="http://www.w3.org/2000/svg">
  <defs
     id="defs2" />
  <g
     class="blocklyWorkspace"
     id="g28"
     transform="translate(-354.59998,-277.29999)">
    <g
       class="blocklyBlockCanvas"
       transform="matrix(1.1,0,0,1.1,267.73281,116)"
       id="g22">
      <g
         class="blocklyDraggable"
         transform="translate(78.970154,146.63636)"
         id="g21">
        <path
           class="blocklyPathDark"
           transform="translate(1,1)"
           fill="#5b3084"
           d="M 0,8 A 8,8 0 0 1 8,0 h 7 l 6,4 h 3 l 6,-4 h 95.19886 V 24 H 29.5 l -6,4 h -3 l -6,-4 H 8 A 8,8 0 0 1 0,16 Z"
           id="path19" />
        <path
           class="blocklyPath"
           fill="#723ca5"
           d="M 0,8 A 8,8 0 0 1 8,0 h 7 l 6,4 h 3 l 6,-4 h 95.19886 V 24 H 29.5 l -6,4 h -3 l -6,-4 H 8 A 8,8 0 0 1 0,16 Z"
           id="path20" />
        <text
           class="blocklyText"
           y="12.5"
           transform="translate(10,5)"
           id="text21"
           style="font-style:normal;font-variant:normal;font-weight:normal;font-stretch:normal;font-size:13.3333px;font-family:Arial;-inkscape-font-specification:'Arial, Normal';font-variant-ligatures:normal;font-variant-caps:normal;font-variant-numeric:normal;font-variant-east-asian:normal;fill:#ffffff;fill-opacity:1">gehe nach oben</text>
      </g>
    </g>
  </g>
</svg>
