<?xml version="1.0" encoding="UTF-8" standalone="no"?>
<svg
   version="1.1"
   class="blocklySvg"
   width="113.07813"
   height="29.000019"
   id="svg75"
   xmlns="http://www.w3.org/2000/svg"
   xmlns:svg="http://www.w3.org/2000/svg">
  <defs
     id="defs2" />
  <g
     class="blocklyWorkspace"
     id="g75"
     transform="translate(-16,-9.9999812)">
    <g
       class="blocklyFlyout"
       style="display:block"
       id="g66">
      <g
         class="blocklyWorkspace"
         id="g65">
        <g
           class="blocklyBlockCanvas"
           transform="translate(0,2)"
           id="g62">
          <g
             class="blocklyDraggable"
             transform="translate(16,8)"
             id="g8"
             style="display:inline">
            <path
               class="blocklyPathDark"
               transform="translate(1,1)"
               fill="#5b3084"
               d="M 0,8 C 0,3.581722 3.581722,0 8,0 L 14.279113,-0.45055449 21,4 h 3 l 6,-4 h 82.07813 V 24 H 29.5 l -6,4 h -3 l -6,-4 H 8 C 3.581722,24 0,20.418278 0,16 Z"
               id="path6" />
            <path
               class="blocklyPath"
               fill="#723ca5"
               d="M 0,8 A 8,8 0 0 1 8,0 h 7 l 6,4 h 3 l 6,-4 h 82.07813 V 24 H 29.5 l -6,4 h -3 l -6,-4 H 8 A 8,8 0 0 1 0,16 Z"
               id="path7" />
            <path
               class="blocklyPathLight"
               stroke="#9c77c0"
               d="M 0.5,7.5 A 7.5,7.5 0 0 1 8,0.5 h 7 l 6,4 h 3 l 6,-4 h 81.57813 m 0,0 M 2.6966991,21.303301 A 7.5,7.5 0 0 1 0.5,16 V 8"
               id="path8"
               style="display:inline;opacity:0" />
            <text
               class="blocklyText"
               y="12.5"
               transform="translate(10,5)"
               id="text8"
               style="font-style:normal;font-variant:normal;font-weight:normal;font-stretch:normal;font-size:14.6667px;font-family:Arial;-inkscape-font-specification:'Arial, Normal';font-variant-ligatures:normal;font-variant-caps:normal;font-variant-numeric:normal;font-variant-east-asian:normal;fill:#ffffff;fill-opacity:1">gehe vorwärts</text>
          </g>
        </g>
      </g>
    </g>
  </g>
</svg>
