<?xml version="1.0" encoding="UTF-8" standalone="no"?>
<svg
   version="1.1"
   class="blocklySvg"
   width="133.48438"
   height="29.000019"
   id="svg63"
   xmlns="http://www.w3.org/2000/svg"
   xmlns:svg="http://www.w3.org/2000/svg">
  <defs
     id="defs2">
    <linearGradient
       id="swatch65">
      <stop
         style="stop-color:#80b42b;stop-opacity:1;"
         offset="0"
         id="stop65" />
    </linearGradient>
  </defs>
  <g
     class="blocklyWorkspace"
     id="g63"
     transform="translate(-16,-9.9999812)">
    <g
       class="blocklyFlyout"
       style="display:block"
       id="g54">
      <g
         class="blocklyWorkspace"
         id="g53">
        <g
           class="blocklyBlockCanvas"
           transform="translate(0,2)"
           id="g50">
          <g
             class="blocklyDraggable"
             transform="translate(16,8)"
             id="g8">
            <path
               class="blocklyPathDark"
               transform="translate(1,1)"
               fill="#5b3084"
               d="M 0,8 A 8,8 0 0 1 8,0 h 7 l 6,4 h 3 L 30,0 H 132.48437 V 24 H 29.5 l -6,4 h -3 l -6,-4 H 8 A 8,8 0 0 1 0,16 Z"
               id="path6" />
            <path
               class="blocklyPath"
               fill="#723ca5"
               d="M 0,8 A 8,8 0 0 1 8,0 h 7 l 6,4 h 3 L 30,0 H 132.48437 V 24 H 29.5 l -6,4 h -3 l -6,-4 H 8 A 8,8 0 0 1 0,16 Z"
               id="path7" />
            <path
               class="blocklyPathLight"
               stroke="#9c77c0"
               d="M 0.5,7.5 A 7.5,7.5 0 0 1 8,0.5 h 7 l 6,4 h 3 l 6,-4 h 101.98437 m 0,0 M 2.6966991,21.303301 A 7.5,7.5 0 0 1 0.5,16 V 8"
               id="path8"
               style="opacity:0" />
            <text
               class="blocklyText"
               y="12.5"
               transform="translate(10,5)"
               id="text8"
               style="font-style:normal;font-variant:normal;font-weight:normal;font-stretch:normal;font-size:14.6667px;font-family:Arial;-inkscape-font-specification:'Arial, Normal';font-variant-ligatures:normal;font-variant-caps:normal;font-variant-numeric:normal;font-variant-east-asian:normal;fill:#ffffff;fill-opacity:1">gehe nach rechts</text>
          </g>
        </g>
      </g>
    </g>
  </g>
</svg>
