<?xml version="1.0" encoding="UTF-8" standalone="no"?>
<svg
   version="1.1"
   class="blocklySvg"
   width="163.625"
   height="29.000019"
   id="svg56"
   xmlns="http://www.w3.org/2000/svg"
   xmlns:svg="http://www.w3.org/2000/svg">
  <defs
     id="defs2" />
  <g
     class="blocklyWorkspace"
     id="g56"
     transform="translate(-16,-62.999981)">
    <g
       class="blocklyFlyout"
       style="display:block"
       id="g47">
      <g
         class="blocklyWorkspace"
         id="g46">
        <g
           class="blocklyBlockCanvas"
           transform="translate(0,2)"
           id="g43">
          <g
             class="blocklyDraggable"
             transform="translate(16,61)"
             id="g11">
            <path
               class="blocklyPathDark"
               transform="translate(1,1)"
               fill="#5b3084"
               d="M 0,8 A 8,8 0 0 1 8,0 h 7 l 6,4 h 3 L 30,0 H 162.625 V 24 H 29.5 l -6,4 h -3 l -6,-4 H 8 A 8,8 0 0 1 0,16 Z"
               id="path9" />
            <path
               class="blocklyPath"
               fill="#723ca5"
               d="M 0,8 A 8,8 0 0 1 8,0 h 7 l 6,4 h 3 L 30,0 H 162.625 V 24 H 29.5 l -6,4 h -3 l -6,-4 H 8 A 8,8 0 0 1 0,16 Z"
               id="path10" />
            <path
               class="blocklyPathLight"
               stroke="#9c77c0"
               d="M 0.5,7.5 A 7.5,7.5 0 0 1 8,0.5 h 7 l 6,4 h 3 l 6,-4 h 132.125 m 0,0 M 2.6966991,21.303301 A 7.5,7.5 0 0 1 0.5,16 V 8"
               id="path11"
               style="opacity:0" />
            <text
               class="blocklyText"
               y="12.5"
               transform="translate(10,5)"
               id="text11"
               style="font-style:normal;font-variant:normal;font-weight:normal;font-stretch:normal;font-size:14.6667px;font-family:Arial;-inkscape-font-specification:'Arial, Normal';font-variant-ligatures:normal;font-variant-caps:normal;font-variant-numeric:normal;font-variant-east-asian:normal;fill:#ffffff;fill-opacity:1">hebe Dominostein auf</text>
          </g>
        </g>
      </g>
    </g>
  </g>
</svg>
