<?xml version="1.0" encoding="UTF-8" standalone="no"?>
<svg
   version="1.1"
   class="blocklySvg"
   width="136.99063"
   height="31.900009"
   id="svg34"
   xmlns="http://www.w3.org/2000/svg"
   xmlns:svg="http://www.w3.org/2000/svg">
  <defs
     id="defs2" />
  <g
     class="blocklyWorkspace"
     id="g34"
     transform="translate(-372.60001,-217.89999)">
    <g
       class="blocklyBlockCanvas"
       transform="matrix(1.1,0,0,1.1,194.09531,6)"
       id="g28">
      <g
         class="blocklyDraggable"
         transform="translate(162.27699,192.63636)"
         id="g27">
        <path
           class="blocklyPathDark"
           transform="translate(1,1)"
           fill="#5b3084"
           d="M 0,8 A 8,8 0 0 1 8,0 h 7 l 6,4 h 3 l 6,-4 h 93.53693 V 24 H 29.5 l -6,4 h -3 l -6,-4 H 8 A 8,8 0 0 1 0,16 Z"
           id="path25" />
        <path
           class="blocklyPath"
           fill="#723ca5"
           d="M 0,8 A 8,8 0 0 1 8,0 h 7 l 6,4 h 3 l 6,-4 h 93.53693 V 24 H 29.5 l -6,4 h -3 l -6,-4 H 8 A 8,8 0 0 1 0,16 Z"
           id="path26" />
        <text
           class="blocklyText"
           y="12.5"
           transform="translate(10,5)"
           id="text27"
           style="font-style:normal;font-variant:normal;font-weight:normal;font-stretch:normal;font-size:13.3333px;font-family:Arial;-inkscape-font-specification:'Arial, Normal';font-variant-ligatures:normal;font-variant-caps:normal;font-variant-numeric:normal;font-variant-east-asian:normal;fill:#ffffff;fill-opacity:1">hebe Objekt auf</text>
      </g>
    </g>
  </g>
</svg>
