<?xml version="1.0" encoding="UTF-8" standalone="no"?>
<svg
   version="1.1"
   class="blocklySvg"
   width="414.73486"
   height="196"
   id="svg102"
   xmlns="http://www.w3.org/2000/svg"
   xmlns:svg="http://www.w3.org/2000/svg">
  <defs
     id="defs2">
    <filter
       id="blocklyEmbossFilter9067669693062637"
       x="-0.0062787998"
       y="-0.014876003"
       width="1.0125576"
       height="1.029752">
      <feGaussianBlur
         in="SourceAlpha"
         stdDeviation="1"
         result="blur"
         id="feGaussianBlur1" />
      <feSpecularLighting
         in="blur"
         surfaceScale="1"
         specularConstant="0.5"
         specularExponent="10"
         lighting-color="#ffffff"
         result="specOut"
         id="feSpecularLighting1">
        <fePointLight
           x="-5000"
           y="-10000"
           z="20000"
           id="fePointLight1" />
      </feSpecularLighting>
      <feComposite
         in="specOut"
         in2="SourceAlpha"
         operator="in"
         result="specOut"
         id="feComposite1" />
      <feComposite
         in="SourceGraphic"
         in2="specOut"
         operator="arithmetic"
         k1="0"
         k2="1"
         k3="1"
         k4="0"
         id="feComposite2" />
    </filter>
  </defs>
  <g
     class="blocklyWorkspace"
     id="g102"
     transform="translate(-290.77588,-217.86602)">
    <g
       class="blocklyBlockCanvas"
       transform="translate(99.994633,32.866017)"
       id="g65">
      <g
         class="blocklyDraggable"
         transform="translate(190.78125,185)"
         id="g64">
        <path
           class="blocklyPathDark"
           transform="translate(1,1)"
           fill="#678f17"
           d="M 0,8 A 8,8 0 0 1 8,0 h 7 l 6,4 h 3 l 6,-4 h 64.015625 v 5 c 0,10 -8,-8 -8,7.5 0,15.5 8,-2.5 8,7.5 v 4 0 l -6,4 h -3 l -6,-4 h -7 a 8,8 0 0 0 -8,8 v 9 a 8,8 0 0 0 8,8 h 22 v 5 c 0,10 -8,-8 -8,7.5 0,15.5 8,-2.5 8,7.5 v 4 0 l -6,4 h -3 l -6,-4 h -7 a 8,8 0 0 0 -8,8 v 9 a 8,8 0 0 0 8,8 h 22 v 5 c 0,10 -8,-8 -8,7.5 0,15.5 8,-2.5 8,7.5 v 4 0 l -6,4 h -3 l -6,-4 h -7 a 8,8 0 0 0 -8,8 v 9 a 8,8 0 0 0 8,8 h 22 v 10 0 l -6,4 h -3 l -6,-4 h -7 a 8,8 0 0 0 -8,8 v 8 a 8,8 0 0 0 8,8 h 22 v 10 H 29.5 l -6,4 h -3 l -6,-4 H 8 a 8,8 0 0 1 -8,-8 z"
           id="path55" />
        <path
           class="blocklyPath"
           fill="#81b31d"
           d="M 0,8 A 8,8 0 0 1 8,0 h 7 l 6,4 h 3 l 6,-4 h 64.015625 v 5 c 0,10 -8,-8 -8,7.5 0,15.5 8,-2.5 8,7.5 v 4 0 l -6,4 h -3 l -6,-4 h -7 a 8,8 0 0 0 -8,8 v 9 a 8,8 0 0 0 8,8 h 22 v 5 c 0,10 -8,-8 -8,7.5 0,15.5 8,-2.5 8,7.5 v 4 0 l -6,4 h -3 l -6,-4 h -7 a 8,8 0 0 0 -8,8 v 9 a 8,8 0 0 0 8,8 h 22 v 5 c 0,10 -8,-8 -8,7.5 0,15.5 8,-2.5 8,7.5 v 4 0 l -6,4 h -3 l -6,-4 h -7 a 8,8 0 0 0 -8,8 v 9 a 8,8 0 0 0 8,8 h 22 v 10 0 l -6,4 h -3 l -6,-4 h -7 a 8,8 0 0 0 -8,8 v 8 a 8,8 0 0 0 8,8 h 22 v 10 H 29.5 l -6,4 h -3 l -6,-4 H 8 a 8,8 0 0 1 -8,-8 z"
           id="path56" />
        <g
           class="blocklyIconGroup"
           display="block"
           transform="translate(10,5)"
           id="g58">
          <rect
             class="blocklyIconShape"
             rx="4"
             ry="4"
             height="16"
             width="16"
             id="rect57"
             x="0"
             y="0"
             style="fill:#3347a4;fill-opacity:1" />
          <path
             class="blocklyIconSymbol"
             d="m 4.203,7.296 v 1.368 l -0.92,0.677 -0.11,0.41 0.9,1.559 0.41,0.11 1.043,-0.457 1.187,0.683 0.127,1.134 0.3,0.3 h 1.8 l 0.3,-0.299 0.127,-1.138 1.185,-0.682 1.046,0.458 0.409,-0.11 0.9,-1.559 -0.11,-0.41 -0.92,-0.677 V 7.297 L 12.797,6.62 12.907,6.21 12.007,4.651 11.598,4.542 10.552,5 9.367,4.318 9.24,3.18 8.94,2.881 H 7.14 L 6.84,3.181 6.714,4.316 5.527,4.998 4.484,4.541 4.074,4.651 3.175,6.21 3.283,6.619 Z"
             id="path58"
             style="fill:#c8e9a4;fill-opacity:1" />
          <circle
             class="blocklyIconShape"
             r="2.7"
             cx="8"
             cy="8"
             id="circle58"
             style="fill:#3347a4;fill-opacity:1" />
        </g>
        <text
           class="blocklyText"
           y="12.5"
           transform="translate(37,5)"
           id="text58"
           style="font-style:normal;font-variant:normal;font-weight:normal;font-stretch:normal;font-size:14.6667px;font-family:Arial;-inkscape-font-specification:'Arial, Normal';font-variant-ligatures:normal;font-variant-caps:normal;font-variant-numeric:normal;font-variant-east-asian:normal;fill:#ffffff;fill-opacity:1">falls</text>
        <text
           class="blocklyText"
           y="12.5"
           transform="translate(10,29)"
           id="text59"
           style="font-style:normal;font-variant:normal;font-weight:normal;font-stretch:normal;font-size:14.6667px;font-family:Arial;-inkscape-font-specification:'Arial, Normal';font-variant-ligatures:normal;font-variant-caps:normal;font-variant-numeric:normal;font-variant-east-asian:normal;fill:#ffffff;fill-opacity:1">mache</text>
        <text
           class="blocklyText"
           y="12.5"
           transform="translate(10,54)"
           id="text60"
           style="font-style:normal;font-variant:normal;font-weight:normal;font-stretch:normal;font-size:14.6667px;font-family:Arial;-inkscape-font-specification:'Arial, Normal';font-variant-ligatures:normal;font-variant-caps:normal;font-variant-numeric:normal;font-variant-east-asian:normal;fill:#ffffff;fill-opacity:1">sonst falls</text>
        <text
           class="blocklyText"
           y="12.5"
           transform="translate(10,78)"
           id="text61"
           style="font-style:normal;font-variant:normal;font-weight:normal;font-stretch:normal;font-size:14.6667px;font-family:Arial;-inkscape-font-specification:'Arial, Normal';font-variant-ligatures:normal;font-variant-caps:normal;font-variant-numeric:normal;font-variant-east-asian:normal;fill:#ffffff;fill-opacity:1">mache</text>
        <text
           class="blocklyText"
           y="12.5"
           transform="translate(10,103)"
           id="text62"
           style="font-style:normal;font-variant:normal;font-weight:normal;font-stretch:normal;font-size:14.6667px;font-family:Arial;-inkscape-font-specification:'Arial, Normal';font-variant-ligatures:normal;font-variant-caps:normal;font-variant-numeric:normal;font-variant-east-asian:normal;fill:#ffffff;fill-opacity:1">sonst falls</text>
        <text
           class="blocklyText"
           y="12.5"
           transform="translate(10,127)"
           id="text63"
           style="font-style:normal;font-variant:normal;font-weight:normal;font-stretch:normal;font-size:14.6667px;font-family:Arial;-inkscape-font-specification:'Arial, Normal';font-variant-ligatures:normal;font-variant-caps:normal;font-variant-numeric:normal;font-variant-east-asian:normal;fill:#ffffff;fill-opacity:1">mache</text>
        <text
           class="blocklyText"
           y="12.5"
           transform="translate(10,162)"
           id="text64"
           style="font-style:normal;font-variant:normal;font-weight:normal;font-stretch:normal;font-size:14.6667px;font-family:Arial;-inkscape-font-specification:'Arial, Normal';font-variant-ligatures:normal;font-variant-caps:normal;font-variant-numeric:normal;font-variant-east-asian:normal;fill:#ffffff;fill-opacity:1">sonst</text>
      </g>
    </g>
    <g
       class="blocklyBubbleCanvas"
       transform="translate(104.04823,37.933009)"
       id="g97">
      <g
         transform="translate(328.6875,213.4866)"
         id="g96">
        <g
           filter="url(#blocklyEmbossFilter9067669693062637)"
           id="g66">
          <path
             d="m 142.15956,54.277309 c -52.114517,-42.912131 -254.02322,-67.610971 -254.02322,-67.610971 0,0 187.964589,64.144221 240.0791,107.056353 z"
             fill="#81b31d"
             id="path65" />
          <rect
             class="blocklyDraggable"
             x="0"
             y="0"
             rx="6"
             ry="6"
             width="270.375"
             height="148"
             fill="#81b31d"
             id="rect65" />
        </g>
        <svg
           x="6"
           y="6"
           width="258.375"
           height="136"
           version="1.1"
           id="svg95"
           style="display:inline">
          <g
             class="blocklyWorkspace"
             id="g95">
            <rect
               height="100%"
               width="100%"
               class="blocklyMutatorBackground"
               id="rect66"
               x="0"
               y="0"
               style="fill:#ffffff;fill-opacity:1;stroke:#ffffff;stroke-opacity:1" />
            <g
               class="blocklyFlyout"
               style="display:inline"
               id="g78">
              <path
                 class="blocklyFlyoutBackground"
                 d="m 0,0 h 112.1875 a 8,8 0 0 1 8,8 v 120 a 8,8 0 0 1 -8,8 H 0 Z"
                 id="path66"
                 style="display:inline;fill:#dddddd;fill-opacity:1;stroke:#dddddd;stroke-opacity:1" />
              <g
                 class="blocklyWorkspace"
                 id="g77">
                <g
                   class="blocklyBlockCanvas"
                   transform="translate(0,2)"
                   id="g74">
                  <rect
                     fill-opacity="0"
                     width="85.1875"
                     height="29"
                     x="16"
                     y="8"
                     id="rect67" />
                  <rect
                     fill-opacity="0"
                     width="55.046875"
                     height="27"
                     x="16"
                     y="61"
                     id="rect68" />
                  <g
                     class="blocklyDraggable"
                     transform="translate(16,61)"
                     id="g70">
                    <path
                       class="blocklyPathDark"
                       transform="translate(1,1)"
                       fill="#678f17"
                       d="M 0,8 A 8,8 0 0 1 8,0 h 7 l 6,4 h 3 L 30,0 H 55.046875 V 24 H 8 A 8,8 0 0 1 0,16 Z"
                       id="path68" />
                    <path
                       class="blocklyPath"
                       fill="#81b31d"
                       d="M 0,8 A 8,8 0 0 1 8,0 h 7 l 6,4 h 3 L 30,0 H 55.046875 V 24 H 8 A 8,8 0 0 1 0,16 Z"
                       id="path69" />
                    <text
                       class="blocklyText"
                       y="12.5"
                       transform="translate(10,5)"
                       id="text70"
                       style="font-style:normal;font-variant:normal;font-weight:normal;font-stretch:normal;font-size:14.6667px;font-family:Arial;-inkscape-font-specification:'Arial, Normal';font-variant-ligatures:normal;font-variant-caps:normal;font-variant-numeric:normal;font-variant-east-asian:normal;fill:#ffffff;fill-opacity:1">sonst</text>
                  </g>
                  <g
                     class="blocklyDraggable"
                     transform="translate(16,8)"
                     id="g73">
                    <path
                       class="blocklyPathDark"
                       transform="translate(1,1)"
                       fill="#678f17"
                       d="M 0,8 A 8,8 0 0 1 8,0 h 7 l 6,4 h 3 L 30,0 H 85.1875 V 24 H 29.5 l -6,4 h -3 l -6,-4 H 8 A 8,8 0 0 1 0,16 Z"
                       id="path71" />
                    <path
                       class="blocklyPath"
                       fill="#81b31d"
                       d="M 0,8 A 8,8 0 0 1 8,0 h 7 l 6,4 h 3 L 30,0 H 85.1875 V 24 H 29.5 l -6,4 h -3 l -6,-4 H 8 A 8,8 0 0 1 0,16 Z"
                       id="path72" />
                    <text
                       class="blocklyText"
                       y="12.5"
                       transform="translate(10,5)"
                       id="text73"
                       style="font-style:normal;font-variant:normal;font-weight:normal;font-stretch:normal;font-size:14.6667px;font-family:Arial;-inkscape-font-specification:'Arial, Normal';font-variant-ligatures:normal;font-variant-caps:normal;font-variant-numeric:normal;font-variant-east-asian:normal;fill:#ffffff;fill-opacity:1">sonst falls</text>
                  </g>
                </g>
                <g
                   class="blocklyBubbleCanvas"
                   transform="translate(0,2)"
                   id="g75" />
                <g
                   class="blocklyScrollbarVertical"
                   transform="translate(102.6875,2.5)"
                   display="none"
                   id="g76">
                  <rect
                     class="blocklyScrollbarBackground"
                     width="15"
                     height="131"
                     id="rect75"
                     x="0"
                     y="0" />
                  <rect
                     class="blocklyScrollbarHandle"
                     rx="5"
                     ry="5"
                     width="10"
                     x="2.5"
                     height="180.125"
                     y="0"
                     id="rect76" />
                </g>
              </g>
            </g>
            <g
               class="blocklyBlockCanvas"
               id="g93"
               style="display:inline">
              <g
                 transform="translate(136.1875,16)"
                 id="g92">
                <path
                   class="blocklyPathDark"
                   transform="translate(1,1)"
                   fill="#678f17"
                   d="M 0,8 A 8,8 0 0 1 8,0 H 46.078125 V 24 H 29.5 l -6,4 h -3 l -6,-4 H 0 Z"
                   id="path78" />
                <path
                   class="blocklyPath"
                   fill="#81b31d"
                   d="M 0,8 A 8,8 0 0 1 8,0 H 46.078125 V 24 H 29.5 l -6,4 h -3 l -6,-4 H 0 Z"
                   id="path79" />
                <text
                   class="blocklyText"
                   y="12.5"
                   transform="translate(10,5)"
                   id="text80"
                   style="font-style:normal;font-variant:normal;font-weight:normal;font-stretch:normal;font-size:14.6667px;font-family:Arial;-inkscape-font-specification:'Arial, Normal';font-variant-ligatures:normal;font-variant-caps:normal;font-variant-numeric:normal;font-variant-east-asian:normal;fill:#ffffff;fill-opacity:1">falls</text>
                <g
                   class="blocklyDraggable"
                   transform="translate(0,25)"
                   id="g91">
                  <path
                     class="blocklyPathDark"
                     transform="translate(1,1)"
                     fill="#678f17"
                     d="m 0,0 h 15 l 6,4 h 3 L 30,0 H 85.1875 V 24 H 29.5 l -6,4 h -3 l -6,-4 H 0 Z"
                     id="path81" />
                  <path
                     class="blocklyPath"
                     fill="#81b31d"
                     d="m 0,0 h 15 l 6,4 h 3 L 30,0 H 85.1875 V 24 H 29.5 l -6,4 h -3 l -6,-4 H 0 Z"
                     id="path82" />
                  <text
                     class="blocklyText"
                     y="12.5"
                     transform="translate(10,5)"
                     id="text83"
                     style="font-style:normal;font-variant:normal;font-weight:normal;font-stretch:normal;font-size:14.6667px;font-family:Arial;-inkscape-font-specification:'Arial, Normal';font-variant-ligatures:normal;font-variant-caps:normal;font-variant-numeric:normal;font-variant-east-asian:normal;fill:#ffffff;fill-opacity:1">sonst falls</text>
                  <g
                     class="blocklyDraggable"
                     transform="translate(0,25)"
                     id="g90">
                    <path
                       class="blocklyPathDark"
                       transform="translate(1,1)"
                       fill="#678f17"
                       d="m 0,0 h 15 l 6,4 h 3 L 30,0 H 85.1875 V 24 H 29.5 l -6,4 h -3 l -6,-4 H 0 Z"
                       id="path84" />
                    <path
                       class="blocklyPath"
                       fill="#81b31d"
                       d="m 0,0 h 15 l 6,4 h 3 L 30,0 H 85.1875 V 24 H 29.5 l -6,4 h -3 l -6,-4 H 0 Z"
                       id="path85" />
                    <text
                       class="blocklyText"
                       y="12.5"
                       transform="translate(10,5)"
                       id="text86"
                       style="font-style:normal;font-variant:normal;font-weight:normal;font-stretch:normal;font-size:14.6667px;font-family:Arial;-inkscape-font-specification:'Arial, Normal';font-variant-ligatures:normal;font-variant-caps:normal;font-variant-numeric:normal;font-variant-east-asian:normal;fill:#ffffff;fill-opacity:1">sonst falls</text>
                    <g
                       class="blocklyDraggable"
                       transform="translate(0,25)"
                       id="g89">
                      <path
                         class="blocklyPathDark"
                         transform="translate(1,1)"
                         fill="#678f17"
                         d="m 0,0 h 15 l 6,4 h 3 L 30,0 H 55.046875 V 24 H 8 A 8,8 0 0 1 0,16 Z"
                         id="path87" />
                      <path
                         class="blocklyPath"
                         fill="#81b31d"
                         d="m 0,0 h 15 l 6,4 h 3 L 30,0 H 55.046875 V 24 H 8 A 8,8 0 0 1 0,16 Z"
                         id="path88" />
                      <text
                         class="blocklyText"
                         y="12.5"
                         transform="translate(10,5)"
                         id="text89"
                         style="font-style:normal;font-variant:normal;font-weight:normal;font-stretch:normal;font-size:14.6667px;font-family:Arial;-inkscape-font-specification:'Arial, Normal';font-variant-ligatures:normal;font-variant-caps:normal;font-variant-numeric:normal;font-variant-east-asian:normal;fill:#ffffff;fill-opacity:1">sonst</text>
                    </g>
                  </g>
                </g>
              </g>
            </g>
          </g>
        </svg>
      </g>
    </g>
  </g>
</svg>
