<?xml version="1.0" encoding="UTF-8" standalone="no"?>
<svg
   version="1.1"
   class="blocklySvg"
   width="276.25"
   height="30"
   id="svg98"
   xmlns="http://www.w3.org/2000/svg"
   xmlns:svg="http://www.w3.org/2000/svg">
  <defs
     id="defs2" />
  <g
     class="blocklyWorkspace"
     id="g98"
     transform="translate(-381,-143)">
    <g
       class="blocklyBlockCanvas"
       transform="translate(323.84375,5)"
       id="g92">
      <g
         class="blocklyDraggable"
         transform="translate(57.15625,138)"
         id="g81">
        <path
           class="blocklyPathDark"
           transform="translate(1,1)"
           fill="#843456"
           d="M 0,8 A 8,8 0 0 1 8,0 h 7 l 6,4 h 3 l 6,-4 h 216.09375 v 5 c 0,10 -8,-8 -8,7.5 0,15.5 8,-2.5 8,7.5 v 5 H 29.5 l -6,4 h -3 l -6,-4 H 8 A 8,8 0 0 1 0,17 Z"
           id="path73" />
        <path
           class="blocklyPath"
           fill="#a5416b"
           d="M 0,8 A 8,8 0 0 1 8,0 h 7 l 6,4 h 3 l 6,-4 h 216.09375 v 5 c 0,10 -8,-8 -8,7.5 0,15.5 8,-2.5 8,7.5 v 5 H 29.5 l -6,4 h -3 l -6,-4 H 8 A 8,8 0 0 1 0,17 Z"
           id="path74" />
        <text
           class="blocklyText"
           y="12.5"
           transform="translate(10,5)"
           id="text75"
           style="font-style:normal;font-variant:normal;font-weight:normal;font-stretch:normal;font-size:14.6667px;font-family:Arial;-inkscape-font-specification:'Arial, Normal';font-variant-ligatures:normal;font-variant-caps:normal;font-variant-numeric:normal;font-variant-east-asian:normal;fill:#ffffff;fill-opacity:1">setze</text>
        <g
           class="blocklyNonEditableText"
           transform="translate(55.046875,5)"
           id="g76">
          <rect
             rx="4"
             ry="4"
             x="-5"
             y="0"
             height="16"
             width="152.65625"
             id="rect75"
             style="fill:#dbb3c4;fill-opacity:1" />
          <text
             class="blocklyText"
             y="12.5"
             id="text76"
             style="font-style:normal;font-variant:normal;font-weight:normal;font-stretch:normal;font-size:14.6667px;font-family:Arial;-inkscape-font-specification:'Arial, Normal';font-variant-ligatures:normal;font-variant-caps:normal;font-variant-numeric:normal;font-variant-east-asian:normal;fill:#000000;fill-opacity:1">Variablen Name▾</text>
        </g>
        <text
           class="blocklyText"
           y="12.5"
           transform="translate(207.70312,5)"
           id="text77"
           style="font-style:normal;font-variant:normal;font-weight:normal;font-stretch:normal;font-size:14.6667px;font-family:Arial;-inkscape-font-specification:'Arial, Normal';font-variant-ligatures:normal;font-variant-caps:normal;font-variant-numeric:normal;font-variant-east-asian:normal;fill:#ffffff;fill-opacity:1">auf</text>
        <g
           class="blocklyDraggable"
           transform="translate(247.09375)"
           id="g80">
          <path
             class="blocklyPathDark"
             transform="translate(1,1)"
             fill="#2e4084"
             d="M 0,0 H 28.15625 V 25 H 0 V 20 C 0,10 -8,28 -8,12.5 -8,-3 0,15 0,5 Z"
             id="path77" />
          <path
             class="blocklyPath"
             fill="#3950a5"
             d="M 0,0 H 28.15625 V 25 H 0 V 20 C 0,10 -8,28 -8,12.5 -8,-3 0,15 0,5 Z"
             id="path78" />
          <path
             class="blocklyPathLight"
             stroke="#7485c0"
             d="m 0.5,0.5 h 27.15625 m 0,0 M 0.5,24.5 v -6 M -6.86,18 q -1.52,-5.5 0,-11 M 0.5,8 V 0.5 H 1"
             id="path79" />
          <g
             class="blocklyEditableText"
             transform="translate(10,5)"
             id="g79">
            <rect
               rx="4"
               ry="4"
               x="-5"
               y="0"
               height="16"
               width="18.15625"
               id="rect79"
               style="fill:#afb9db;fill-opacity:1" />
            <text
               class="blocklyText"
               y="12.5"
               id="text79"
               style="font-style:normal;font-variant:normal;font-weight:normal;font-stretch:normal;font-size:14.6667px;font-family:Arial;-inkscape-font-specification:'Arial, Normal';font-variant-ligatures:normal;font-variant-caps:normal;font-variant-numeric:normal;font-variant-east-asian:normal;fill:#000000;fill-opacity:1">0</text>
          </g>
        </g>
      </g>
    </g>
  </g>
</svg>
