<?xml version="1.0" encoding="UTF-8" standalone="no"?>
<svg
   version="1.1"
   class="blocklySvg"
   width="279.35907"
   height="27.5"
   id="svg82"
   xmlns="http://www.w3.org/2000/svg"
   xmlns:svg="http://www.w3.org/2000/svg">
  <defs
     id="defs2" />
  <g
     class="blocklyWorkspace"
     id="g82"
     transform="translate(-8.6690649,-475)">
    <g
       class="blocklyFlyout"
       style="display:block"
       id="g73">
      <g
         class="blocklyWorkspace"
         id="g72">
        <g
           class="blocklyBlockCanvas"
           transform="matrix(1.1,0,0,1.1,0,2)"
           id="g69">
          <g
             class="blocklyDraggable"
             transform="translate(16,430)"
             id="g40">
            <path
               class="blocklyPathDark"
               transform="translate(1,1)"
               fill="#5b3084"
               d="m 0,0 h 244.84375 v 5 c 0,10 -8,-8 -8,7.5 0,15.5 8,-2.5 8,7.5 v 4 H 0 V 20 C 0,10 -8,28 -8,12.5 -8,-3 0,15 0,5 Z"
               id="path38" />
            <path
               class="blocklyPath"
               fill="#723ca5"
               d="m 0,0 h 244.84375 v 5 c 0,10 -8,-8 -8,7.5 0,15.5 8,-2.5 8,7.5 v 4 H 0 V 20 C 0,10 -8,28 -8,12.5 -8,-3 0,15 0,5 Z"
               id="path39" />
            <path
               class="blocklyPathLight"
               stroke="#9c77c0"
               d="m 0.5,0.5 h 243.84375 m 0,0 m -4.5,18.8 3.68,-2.1 M 0.5,23.5 v -5 M -6.86,18 q -1.52,-5.5 0,-11 M 0.5,8 V 0.5 H 1"
               id="path40" />
            <text
               class="blocklyText"
               y="12.5"
               transform="translate(10,5)"
               id="text40"
               style="font-style:normal;font-variant:normal;font-weight:normal;font-stretch:normal;font-size:14.5455px;font-family:Arial;-inkscape-font-specification:'Arial, Normal';font-variant-ligatures:normal;font-variant-caps:normal;font-variant-numeric:normal;font-variant-east-asian:normal;fill:#ffffff;fill-opacity:1">Rückkehr von der Schießrichtung</text>
          </g>
        </g>
      </g>
    </g>
  </g>
</svg>
