<?xml version="1.0" encoding="UTF-8" standalone="no"?>
<svg
   version="1.1"
   class="blocklySvg"
   width="225.60312"
   height="31.9"
   id="svg82"
   xmlns="http://www.w3.org/2000/svg"
   xmlns:svg="http://www.w3.org/2000/svg">
  <defs
     id="defs2" />
  <g
     class="blocklyWorkspace"
     id="g82"
     transform="translate(-17.6,-361.7)">
    <g
       class="blocklyFlyout"
       style="display:block"
       id="g73">
      <g
         class="blocklyWorkspace"
         id="g72">
        <g
           class="blocklyBlockCanvas"
           transform="matrix(1.1,0,0,1.1,0,2)"
           id="g69">
          <g
             class="blocklyDraggable"
             transform="translate(16,327)"
             id="g30">
            <path
               class="blocklyPathDark"
               transform="translate(1,1)"
               fill="#5b3084"
               d="M 0,8 A 8,8 0 0 1 8,0 h 7 l 6,4 h 3 l 6,-4 h 174.09375 v 5 c 0,10 -8,-8 -8,7.5 0,15.5 8,-2.5 8,7.5 v 4 H 29.5 l -6,4 h -3 l -6,-4 H 8 A 8,8 0 0 1 0,16 Z"
               id="path28" />
            <path
               class="blocklyPath"
               fill="#723ca5"
               d="M 0,8 A 8,8 0 0 1 8,0 h 7 l 6,4 h 3 l 6,-4 h 174.09375 v 5 c 0,10 -8,-8 -8,7.5 0,15.5 8,-2.5 8,7.5 v 4 H 29.5 l -6,4 h -3 l -6,-4 H 8 A 8,8 0 0 1 0,16 Z"
               id="path29" />
            <text
               class="blocklyText"
               y="12.5"
               transform="translate(10,5)"
               id="text30"
               style="font-style:normal;font-variant:normal;font-weight:normal;font-stretch:normal;font-size:14.5455px;font-family:Arial;-inkscape-font-specification:'Arial, Normal';font-variant-ligatures:normal;font-variant-caps:normal;font-variant-numeric:normal;font-variant-east-asian:normal;fill:#ffffff;fill-opacity:1">richte Laserstrahl aus nach</text>
          </g>
        </g>
      </g>
    </g>
  </g>
</svg>
