<?xml version="1.0" encoding="UTF-8" standalone="no"?>
<svg
   version="1.1"
   class="blocklySvg"
   width="180.35341"
   height="51"
   id="svg506"
   xmlns="http://www.w3.org/2000/svg"
   xmlns:svg="http://www.w3.org/2000/svg">
  <defs
     id="defs2" />
  <g
     class="blocklyWorkspace"
     id="g506"
     transform="translate(-7.8809681,3475)">
    <g
       class="blocklyFlyout"
       style="display:block"
       id="g497">
      <g
         class="blocklyWorkspace"
         id="g496">
        <g
           class="blocklyBlockCanvas"
           transform="translate(0,-4151)"
           id="g493">
          <g
             class="blocklyDraggable"
             transform="translate(16,676)"
             id="g58">
            <path
               class="blocklyPathDark"
               transform="translate(1,1)"
               fill="#ad6e22"
               d="m 0,0 h 142.07812 v 5 c 0,10 -8,-8 -8,7.5 0,15.5 8,-2.5 8,7.5 v 6 5 c 0,10 -8,-8 -8,7.5 0,15.5 8,-2.5 8,7.5 v 4 H 0 V 20 C 0,10 -8,28 -8,12.5 -8,-3 0,15 0,5 Z"
               id="path51" />
            <path
               class="blocklyPath"
               fill="#d8892b"
               d="m 0,0 h 142.07812 v 5 c 0,10 -8,-8 -8,7.5 0,15.5 8,-2.5 8,7.5 v 6 5 c 0,10 -8,-8 -8,7.5 0,15.5 8,-2.5 8,7.5 v 4 H 0 V 20 C 0,10 -8,28 -8,12.5 -8,-3 0,15 0,5 Z"
               id="path52" />
            <path
               class="blocklyPathLight"
               stroke="#e4ac6b"
               d="m 0.5,0.5 h 141.07812 m 0,0 m -4.5,18.8 3.68,-2.1 m 0.82,9.3 m -4.5,18.8 3.68,-2.1 M 0.5,49.5 v -31 M -6.86,18 q -1.52,-5.5 0,-11 M 0.5,8 V 0.5 H 1"
               id="path53" />
            <g
               transform="translate(143.07812)"
               id="g57">
              <path
                 class="blocklyPathDark"
                 transform="translate(1,1)"
                 fill="#b0b9db"
                 d="M 0,0 H 28.15625 V 25 H 0 V 20 C 0,10 -8,28 -8,12.5 -8,-3 0,15 0,5 Z"
                 id="path54" />
              <path
                 class="blocklyPath"
                 fill="#b0b9db"
                 d="M 0,0 H 28.15625 V 25 H 0 V 20 C 0,10 -8,28 -8,12.5 -8,-3 0,15 0,5 Z"
                 id="path55" />
              <path
                 class="blocklyPathLight"
                 d="m 0.5,0.5 h 27.15625 m 0,0 M 0.5,24.5 v -6 M -6.86,18 q -1.52,-5.5 0,-11 M 0.5,8 V 0.5 H 1"
                 style="display:none"
                 id="path56" />
              <g
                 class="blocklyEditableText"
                 transform="translate(10,5)"
                 id="g56">
                <rect
                   rx="4"
                   ry="4"
                   x="-5"
                   y="0"
                   height="16"
                   width="18.15625"
                   id="rect56"
                   style="fill:#dfe3f1;fill-opacity:1" />
                <text
                   class="blocklyText"
                   y="12.5"
                   id="text56"
                   style="font-style:normal;font-variant:normal;font-weight:normal;font-stretch:normal;font-size:14.6667px;font-family:Arial;-inkscape-font-specification:'Arial, Normal';font-variant-ligatures:normal;font-variant-caps:normal;font-variant-numeric:normal;font-variant-east-asian:normal;fill:#000000;fill-opacity:1">5</text>
              </g>
            </g>
            <text
               class="blocklyText"
               y="12.5"
               transform="translate(10,5)"
               id="text57"
               style="font-style:normal;font-variant:normal;font-weight:normal;font-stretch:normal;font-size:14.6667px;font-family:Arial;-inkscape-font-specification:'Arial, Normal';font-variant-ligatures:normal;font-variant-caps:normal;font-variant-numeric:normal;font-variant-east-asian:normal;fill:#ffffff;fill-opacity:1">erzeuge Liste mit</text>
            <text
               class="blocklyText"
               y="12.5"
               transform="translate(10,31)"
               id="text58"
               style="font-style:normal;font-variant:normal;font-weight:normal;font-stretch:normal;font-size:14.6667px;font-family:Arial;-inkscape-font-specification:'Arial, Normal';font-variant-ligatures:normal;font-variant-caps:normal;font-variant-numeric:normal;font-variant-east-asian:normal;fill:#ffffff;fill-opacity:1">mal dem Element</text>
          </g>
        </g>
      </g>
    </g>
  </g>
</svg>
