<?xml version="1.0" encoding="UTF-8" standalone="no"?>
<svg
   version="1.1"
   class="blocklySvg"
   width="413.57812"
   height="41"
   id="svg506"
   xmlns="http://www.w3.org/2000/svg"
   xmlns:svg="http://www.w3.org/2000/svg">
  <defs
     id="defs2" />
  <g
     class="blocklyWorkspace"
     id="g506"
     transform="translate(-16,2922)">
    <g
       class="blocklyFlyout"
       style="display:block"
       id="g497">
      <g
         class="blocklyWorkspace"
         id="g496">
        <g
           class="blocklyBlockCanvas"
           transform="translate(0,-4151)"
           id="g493">
          <g
             class="blocklyDraggable"
             transform="translate(16,1229)"
             id="g86">
            <path
               class="blocklyPathDark"
               transform="translate(1,1)"
               fill="#ad6e22"
               d="M 0,8 A 8,8 0 0 1 8,0 h 7 l 6,4 h 3 L 30,0 H 40 412.57812 V 36 H 29.5 l -6,4 h -3 l -6,-4 H 8 A 8,8 0 0 1 0,28 Z M 167.01562,5 H 97.71875 v 5 c 0,10 -8,-8 -8,7.5 0,15.5 8,-2.5 8,7.5 v 7 h 69.29687 z m 235.5625,0 h -14.5 v 5 c 0,10 -8,-8 -8,7.5 0,15.5 8,-2.5 8,7.5 v 6 h 14.5 z"
               id="path78" />
            <path
               class="blocklyPath"
               fill="#d8892b"
               d="M 0,8 A 8,8 0 0 1 8,0 h 7 l 6,4 h 3 L 30,0 H 40 412.57812 V 36 H 29.5 l -6,4 h -3 l -6,-4 H 8 A 8,8 0 0 1 0,28 Z M 167.01562,5 H 97.71875 v 5 c 0,10 -8,-8 -8,7.5 0,15.5 8,-2.5 8,7.5 v 7 h 69.29687 z m 235.5625,0 h -14.5 v 5 c 0,10 -8,-8 -8,7.5 0,15.5 8,-2.5 8,7.5 v 6 h 14.5 z"
               id="path79" />
            <text
               class="blocklyText"
               y="12.5"
               transform="translate(10,10)"
               id="text80"
               style="font-style:normal;font-variant:normal;font-weight:normal;font-stretch:normal;font-size:14.6667px;font-family:Arial;-inkscape-font-specification:'Arial, Normal';font-variant-ligatures:normal;font-variant-caps:normal;font-variant-numeric:normal;font-variant-east-asian:normal;fill:#ffffff;fill-opacity:1">in der Liste</text>
            <g
               class="blocklyEditableText"
               transform="translate(177.01562,10)"
               id="g81">
              <rect
                 rx="4"
                 ry="4"
                 x="-5"
                 y="0"
                 height="16"
                 width="126.5625"
                 id="rect80"
                 style="fill:#efd0aa;fill-opacity:1" />
              <text
                 class="blocklyText"
                 y="12.5"
                 id="text81"
                 style="font-style:normal;font-variant:normal;font-weight:normal;font-stretch:normal;font-size:14.6667px;font-family:Arial;-inkscape-font-specification:'Arial, Normal';font-variant-ligatures:normal;font-variant-caps:normal;font-variant-numeric:normal;font-variant-east-asian:normal;fill:#000000;fill-opacity:1">letztes Element<tspan
   style="font-style:normal;font-variant:normal;font-weight:normal;font-stretch:normal;font-size:14.6667px;font-family:Arial;-inkscape-font-specification:'Arial, Normal';font-variant-ligatures:normal;font-variant-caps:normal;font-variant-numeric:normal;font-variant-east-asian:normal;fill:#000000;fill-opacity:1"
   id="tspan80">▾</tspan></text>
            </g>
            <g
               class="blocklyEditableText"
               transform="translate(303.57812,10)"
               id="g82">
              <rect
                 rx="4"
                 ry="4"
                 x="-5"
                 y="0"
                 height="16"
                 width="78.5"
                 id="rect81"
                 style="fill:#efd0aa;fill-opacity:1" />
              <text
                 class="blocklyText"
                 y="12.5"
                 id="text82"
                 style="font-style:normal;font-variant:normal;font-weight:normal;font-stretch:normal;font-size:14.6667px;font-family:Arial;-inkscape-font-specification:'Arial, Normal';font-variant-ligatures:normal;font-variant-caps:normal;font-variant-numeric:normal;font-variant-east-asian:normal;fill:#000000;fill-opacity:1">füge ein<tspan
   style="font-style:normal;font-variant:normal;font-weight:normal;font-stretch:normal;font-size:14.6667px;font-family:Arial;-inkscape-font-specification:'Arial, Normal';font-variant-ligatures:normal;font-variant-caps:normal;font-variant-numeric:normal;font-variant-east-asian:normal;fill:#000000;fill-opacity:1"
   id="tspan81">▾</tspan></text>
            </g>
            <g
               class="blocklyDraggable"
               transform="translate(98.71875,6)"
               id="g85">
              <path
                 class="blocklyPathDark"
                 transform="translate(1,1)"
                 fill="#843456"
                 d="M 0,0 H 67.296875 V 25 H 0 V 20 C 0,10 -8,28 -8,12.5 -8,-3 0,15 0,5 Z"
                 id="path82" />
              <path
                 class="blocklyPath"
                 fill="#a5416b"
                 d="M 0,0 H 67.296875 V 25 H 0 V 20 C 0,10 -8,28 -8,12.5 -8,-3 0,15 0,5 Z"
                 id="path83" />
              <path
                 class="blocklyPathLight"
                 stroke="#c07a97"
                 d="m 0.5,0.5 h 66.296875 m 0,0 M 0.5,24.5 v -6 M -6.86,18 q -1.52,-5.5 0,-11 M 0.5,8 V 0.5 H 1"
                 id="path84" />
              <g
                 class="blocklyEditableText"
                 transform="translate(10,5)"
                 id="g84">
                <rect
                   rx="4"
                   ry="4"
                   x="-5"
                   y="0"
                   height="16"
                   width="57.296875"
                   id="rect84"
                   style="fill:#dbb3c4;fill-opacity:1" />
                <text
                   class="blocklyText"
                   y="12.5"
                   id="text84"
                   style="font-style:normal;font-variant:normal;font-weight:normal;font-stretch:normal;font-size:14.6667px;font-family:Arial;-inkscape-font-specification:'Arial, Normal';font-variant-ligatures:normal;font-variant-caps:normal;font-variant-numeric:normal;font-variant-east-asian:normal;fill:#000000;fill-opacity:1">Liste<tspan
   style="font-style:normal;font-variant:normal;font-weight:normal;font-stretch:normal;font-size:14.6667px;font-family:Arial;-inkscape-font-specification:'Arial, Normal';font-variant-ligatures:normal;font-variant-caps:normal;font-variant-numeric:normal;font-variant-east-asian:normal;fill:#000000;fill-opacity:1"
   id="tspan84">▾</tspan></text>
              </g>
            </g>
          </g>
        </g>
      </g>
    </g>
  </g>
</svg>
