<?xml version="1.0" encoding="UTF-8" standalone="no"?>
<svg
   version="1.1"
   class="blocklySvg"
   width="379.40625"
   height="37"
   id="svg506"
   xmlns="http://www.w3.org/2000/svg"
   xmlns:svg="http://www.w3.org/2000/svg">
  <defs
     id="defs2" />
  <g
     class="blocklyWorkspace"
     id="g506"
     transform="translate(-8,3230)">
    <g
       class="blocklyFlyout"
       style="display:block"
       id="g497">
      <g
         class="blocklyWorkspace"
         id="g496">
        <g
           class="blocklyBlockCanvas"
           transform="translate(0,-4151)"
           id="g493">
          <g
             class="blocklyDraggable"
             transform="translate(16,921)"
             id="g410">
            <path
               class="blocklyPathDark"
               transform="translate(1,1)"
               fill="#ad6e22"
               d="M 0,0 H 20 370.40625 V 36 H 0 V 20 C 0,10 -8,28 -8,12.5 -8,-3 0,15 0,5 Z M 167.01562,5 H 97.71875 v 5 c 0,10 -8,-8 -8,7.5 0,15.5 8,-2.5 8,7.5 v 7 h 69.29687 z m 193.39063,0 h -14.5 v 5 c 0,10 -8,-8 -8,7.5 0,15.5 8,-2.5 8,7.5 v 6 h 14.5 z"
               id="path400" />
            <path
               class="blocklyPath"
               fill="#d8892b"
               d="M 0,0 H 20 370.40625 V 36 H 0 V 20 C 0,10 -8,28 -8,12.5 -8,-3 0,15 0,5 Z M 167.01562,5 H 97.71875 v 5 c 0,10 -8,-8 -8,7.5 0,15.5 8,-2.5 8,7.5 v 7 h 69.29687 z m 193.39063,0 h -14.5 v 5 c 0,10 -8,-8 -8,7.5 0,15.5 8,-2.5 8,7.5 v 6 h 14.5 z"
               id="path401" />
            <g
               class="blocklyDraggable"
               transform="translate(98.71875,6)"
               id="g406">
              <path
                 class="blocklyPathDark"
                 transform="translate(1,1)"
                 fill="#843456"
                 d="M 0,0 H 67.296875 V 25 H 0 V 20 C 0,10 -8,28 -8,12.5 -8,-3 0,15 0,5 Z"
                 id="path403" />
              <path
                 class="blocklyPath"
                 fill="#a5416b"
                 d="M 0,0 H 67.296875 V 25 H 0 V 20 C 0,10 -8,28 -8,12.5 -8,-3 0,15 0,5 Z"
                 id="path404" />
              <path
                 class="blocklyPathLight"
                 stroke="#c07a97"
                 d="m 0.5,0.5 h 66.296875 m 0,0 M 0.5,24.5 v -6 M -6.86,18 q -1.52,-5.5 0,-11 M 0.5,8 V 0.5 H 1"
                 id="path405" />
              <g
                 class="blocklyEditableText"
                 transform="translate(10,5)"
                 id="g405">
                <rect
                   rx="4"
                   ry="4"
                   x="-5"
                   y="0"
                   height="16"
                   width="57.296875"
                   id="rect405"
                   style="fill:#dbb3c4;fill-opacity:1" />
                <text
                   class="blocklyText"
                   y="12.5"
                   id="text405"
                   style="font-style:normal;font-variant:normal;font-weight:normal;font-stretch:normal;font-size:14.6667px;font-family:Arial;-inkscape-font-specification:'Arial, Normal';font-variant-ligatures:normal;font-variant-caps:normal;font-variant-numeric:normal;font-variant-east-asian:normal;fill:#000000;fill-opacity:1">Liste<tspan
   style="font-style:normal;font-variant:normal;font-weight:normal;font-stretch:normal;font-size:14.6667px;font-family:Arial;-inkscape-font-specification:'Arial, Normal';font-variant-ligatures:normal;font-variant-caps:normal;font-variant-numeric:normal;font-variant-east-asian:normal;fill:#000000;fill-opacity:1"
   id="tspan405">▾</tspan></text>
              </g>
            </g>
            <text
               class="blocklyText"
               y="12.5"
               transform="translate(10,10)"
               id="text406"
               style="font-style:normal;font-variant:normal;font-weight:normal;font-stretch:normal;font-size:14.6667px;font-family:Arial;-inkscape-font-specification:'Arial, Normal';font-variant-ligatures:normal;font-variant-caps:normal;font-variant-numeric:normal;font-variant-east-asian:normal;fill:#ffffff;fill-opacity:1">in der Liste</text>
            <g
               class="blocklyEditableText"
               transform="translate(177.01562,10)"
               id="g407">
              <rect
                 rx="4"
                 ry="4"
                 x="-5"
                 y="0"
                 height="16"
                 width="62.171875"
                 id="rect406"
                 style="fill:#efd0aa;fill-opacity:1" />
              <text
                 class="blocklyText"
                 y="12.5"
                 id="text407"
                 style="font-style:normal;font-variant:normal;font-weight:normal;font-stretch:normal;font-size:14.6667px;font-family:Arial;-inkscape-font-specification:'Arial, Normal';font-variant-ligatures:normal;font-variant-caps:normal;font-variant-numeric:normal;font-variant-east-asian:normal;fill:#000000;fill-opacity:1">nimm<tspan
   style="font-style:normal;font-variant:normal;font-weight:normal;font-stretch:normal;font-size:14.6667px;font-family:Arial;-inkscape-font-specification:'Arial, Normal';font-variant-ligatures:normal;font-variant-caps:normal;font-variant-numeric:normal;font-variant-east-asian:normal;fill:#000000;fill-opacity:1"
   id="tspan406">▾</tspan></text>
            </g>
            <text
               class="blocklyText"
               y="12.5"
               transform="translate(239.1875,10)"
               id="text408"
               style="font-style:normal;font-variant:normal;font-weight:normal;font-stretch:normal;font-size:14.6667px;font-family:Arial;-inkscape-font-specification:'Arial, Normal';font-variant-ligatures:normal;font-variant-caps:normal;font-variant-numeric:normal;font-variant-east-asian:normal;fill:#ffffff;fill-opacity:1" />
            <g
               class="blocklyEditableText"
               transform="translate(253.26562,10)"
               id="g409">
              <rect
                 rx="4"
                 ry="4"
                 x="-5"
                 y="0"
                 height="16"
                 width="86.640625"
                 id="rect408"
                 style="fill:#efd0aa;fill-opacity:1" />
              <text
                 class="blocklyText"
                 y="12.5"
                 id="text409"
                 style="font-style:normal;font-variant:normal;font-weight:normal;font-stretch:normal;font-size:14.6667px;font-family:Arial;-inkscape-font-specification:'Arial, Normal';font-variant-ligatures:normal;font-variant-caps:normal;font-variant-numeric:normal;font-variant-east-asian:normal;fill:#000000;fill-opacity:1">am Index<tspan
   style="font-style:normal;font-variant:normal;font-weight:normal;font-stretch:normal;font-size:14.6667px;font-family:Arial;-inkscape-font-specification:'Arial, Normal';font-variant-ligatures:normal;font-variant-caps:normal;font-variant-numeric:normal;font-variant-east-asian:normal;fill:#000000;fill-opacity:1"
   id="tspan408">▾</tspan></text>
            </g>
          </g>
        </g>
      </g>
    </g>
  </g>
</svg>
