<?xml version="1.0" encoding="UTF-8" standalone="no"?>
<svg
   version="1.1"
   class="blocklySvg"
   width="102.6875"
   height="36"
   id="svg506"
   xmlns="http://www.w3.org/2000/svg"
   xmlns:svg="http://www.w3.org/2000/svg">
  <defs
     id="defs2" />
  <g
     class="blocklyWorkspace"
     id="g506"
     transform="translate(-8,3351)">
    <g
       class="blocklyFlyout"
       style="display:block"
       id="g497">
      <g
         class="blocklyWorkspace"
         id="g496">
        <g
           class="blocklyBlockCanvas"
           transform="translate(0,-4151)"
           id="g493">
          <g
             class="blocklyDraggable"
             transform="translate(16,800)"
             id="g63">
            <path
               class="blocklyPathDark"
               transform="translate(1,1)"
               fill="#ad6e22"
               d="M 0,0 H 20 93.6875 V 35 H 0 V 20 C 0,10 -8,28 -8,12.5 -8,-3 0,15 0,5 Z M 30.5,5 H 16 v 5 C 16,20 8,2 8,17.5 8,33 16,15 16,25 v 6 h 14.5 z"
               id="path61" />
            <path
               class="blocklyPath"
               fill="#d8892b"
               d="M 0,0 H 20 93.6875 V 35 H 0 V 20 C 0,10 -8,28 -8,12.5 -8,-3 0,15 0,5 Z M 30.5,5 H 16 v 5 C 16,20 8,2 8,17.5 8,33 16,15 16,25 v 6 h 14.5 z"
               id="path62" />
            <text
               class="blocklyText"
               y="12.5"
               transform="translate(40.5,10)"
               id="text63"
               style="font-style:normal;font-variant:normal;font-weight:normal;font-stretch:normal;font-size:14.6667px;font-family:Arial;-inkscape-font-specification:'Arial, Normal';font-variant-ligatures:normal;font-variant-caps:normal;font-variant-numeric:normal;font-variant-east-asian:normal;fill:#ffffff;fill-opacity:1">ist leer</text>
          </g>
        </g>
      </g>
    </g>
  </g>
</svg>
