<?xml version="1.0" encoding="UTF-8" standalone="no"?>
<svg
   version="1.1"
   class="blocklySvg"
   width="114.89062"
   height="36"
   id="svg506"
   xmlns="http://www.w3.org/2000/svg"
   xmlns:svg="http://www.w3.org/2000/svg">
  <defs
     id="defs2" />
  <g
     class="blocklyWorkspace"
     id="g506"
     transform="translate(-8,1777)">
    <g
       class="blocklyFlyout"
       style="display:block"
       id="g497">
      <g
         class="blocklyWorkspace"
         id="g496">
        <g
           class="blocklyBlockCanvas"
           transform="translate(0,-4151)"
           id="g493">
          <g
             class="blocklyDraggable"
             transform="translate(16,2374)"
             id="g191">
            <path
               class="blocklyPathDark"
               transform="translate(1,1)"
               fill="#2e4084"
               d="m 0,0 h 20 85.89063 V 35 H 0 V 20 C 0,10 -8,28 -8,12.5 -8,-3 0,15 0,5 Z M 30.5,5 H 16 v 5 C 16,20 8,2 8,17.5 8,33 16,15 16,25 v 6 h 14.5 z m 65.390625,0 h -14.5 v 5 c 0,10 -8,-8 -8,7.5 0,15.5 8,-2.5 8,7.5 v 6 h 14.5 z"
               id="path188" />
            <path
               class="blocklyPath"
               fill="#3950a5"
               d="m 0,0 h 20 85.89063 V 35 H 0 V 20 C 0,10 -8,28 -8,12.5 -8,-3 0,15 0,5 Z M 30.5,5 H 16 v 5 C 16,20 8,2 8,17.5 8,33 16,15 16,25 v 6 h 14.5 z m 65.390625,0 h -14.5 v 5 c 0,10 -8,-8 -8,7.5 0,15.5 8,-2.5 8,7.5 v 6 h 14.5 z"
               id="path189" />
            <g
               class="blocklyEditableText"
               transform="translate(40.5,10)"
               id="g190">
              <rect
                 rx="4"
                 ry="4"
                 x="-5"
                 y="0"
                 height="16"
                 width="34.890625"
                 id="rect190"
                 style="fill:#b0b9db;fill-opacity:1" />
              <text
                 class="blocklyText"
                 y="12.5"
                 id="text190"
                 style="font-style:normal;font-variant:normal;font-weight:normal;font-stretch:normal;font-size:14.6667px;font-family:Arial;-inkscape-font-specification:'Arial, Normal';font-variant-ligatures:normal;font-variant-caps:normal;font-variant-numeric:normal;font-variant-east-asian:normal;fill:#000000;fill-opacity:1">+<tspan
   style="font-style:normal;font-variant:normal;font-weight:normal;font-stretch:normal;font-size:14.6667px;font-family:Arial;-inkscape-font-specification:'Arial, Normal';font-variant-ligatures:normal;font-variant-caps:normal;font-variant-numeric:normal;font-variant-east-asian:normal;fill:#000000;fill-opacity:1"
   id="tspan190">▾</tspan></text>
            </g>
          </g>
        </g>
      </g>
    </g>
  </g>
</svg>
