<?xml version="1.0" encoding="UTF-8" standalone="no"?>
<svg
   version="1.1"
   class="blocklySvg"
   width="388.97839"
   height="37"
   id="svg506"
   xmlns="http://www.w3.org/2000/svg"
   xmlns:svg="http://www.w3.org/2000/svg">
  <defs
     id="defs2" />
  <g
     class="blocklyWorkspace"
     id="g506"
     transform="translate(-7.8809681,793)">
    <g
       class="blocklyFlyout"
       style="display:block"
       id="g497">
      <g
         class="blocklyWorkspace"
         id="g496">
        <g
           class="blocklyBlockCanvas"
           transform="translate(0,-4151)"
           id="g493">
          <g
             class="blocklyDraggable"
             transform="translate(16,3358)"
             id="g305">
            <path
               class="blocklyPathDark"
               transform="translate(1,1)"
               fill="#2e4084"
               d="M 0,0 H 20 379.85937 V 36 H 0 V 20 C 0,10 -8,28 -8,12.5 -8,-3 0,15 0,5 Z m 272.92187,5 h -30.15625 v 5 c 0,10 -8,-8 -8,7.5 0,15.5 8,-2.5 8,7.5 v 7 h 30.15625 z m 96.9375,0 h -46.46875 v 5 c 0,10 -8,-8 -8,7.5 0,15.5 8,-2.5 8,7.5 v 7 h 46.46875 z"
               id="path295" />
            <path
               class="blocklyPath"
               fill="#3950a5"
               d="M 0,0 H 20 379.85937 V 36 H 0 V 20 C 0,10 -8,28 -8,12.5 -8,-3 0,15 0,5 Z m 272.92187,5 h -30.15625 v 5 c 0,10 -8,-8 -8,7.5 0,15.5 8,-2.5 8,7.5 v 7 h 30.15625 z m 96.9375,0 h -46.46875 v 5 c 0,10 -8,-8 -8,7.5 0,15.5 8,-2.5 8,7.5 v 7 h 46.46875 z"
               id="path296" />
            <path
               class="blocklyPathLight"
               stroke="#7485c0"
               d="m 0.5,0.5 h 19 m 0,0 H 379.35937 M 0.5,35.5 v -17 M -6.86,18 q -1.52,-5.5 0,-11 M 0.5,8 V 0.5 H 1 m 272.42187,5 v 27 h -30.15625 m -5.6,-8.2 3.68,-2.1 M 370.35937,5.5 v 27 h -46.46875 m -5.6,-8.2 3.68,-2.1"
               id="path297" />
            <g
               transform="translate(243.76562,6)"
               id="g301">
              <path
                 class="blocklyPathDark"
                 transform="translate(1,1)"
                 fill="#b0b9db"
                 d="M 0,0 H 28.15625 V 25 H 0 V 20 C 0,10 -8,28 -8,12.5 -8,-3 0,15 0,5 Z"
                 id="path298" />
              <path
                 class="blocklyPath"
                 fill="#b0b9db"
                 d="M 0,0 H 28.15625 V 25 H 0 V 20 C 0,10 -8,28 -8,12.5 -8,-3 0,15 0,5 Z"
                 id="path299" />
              <g
                 class="blocklyEditableText"
                 transform="translate(10,5)"
                 id="g300">
                <rect
                   rx="4"
                   ry="4"
                   x="-5"
                   y="0"
                   height="16"
                   width="18.15625"
                   id="rect300"
                   style="fill:#dfe3f1;fill-opacity:1" />
                <text
                   class="blocklyText"
                   y="12.5"
                   id="text300"
                   style="font-style:normal;font-variant:normal;font-weight:normal;font-stretch:normal;font-size:14.6667px;font-family:Arial;-inkscape-font-specification:'Arial, Normal';font-variant-ligatures:normal;font-variant-caps:normal;font-variant-numeric:normal;font-variant-east-asian:normal;fill:#000000;fill-opacity:1">1</text>
              </g>
            </g>
            <g
               transform="translate(324.39062,6)"
               id="g304">
              <path
                 class="blocklyPathDark"
                 transform="translate(1,1)"
                 fill="#b0b9db"
                 d="M 0,0 H 44.46875 V 25 H 0 V 20 C 0,10 -8,28 -8,12.5 -8,-3 0,15 0,5 Z"
                 id="path301" />
              <path
                 class="blocklyPath"
                 fill="#b0b9db"
                 d="M 0,0 H 44.46875 V 25 H 0 V 20 C 0,10 -8,28 -8,12.5 -8,-3 0,15 0,5 Z"
                 id="path302" />
              <g
                 class="blocklyEditableText"
                 transform="translate(10,5)"
                 id="g303">
                <rect
                   rx="4"
                   ry="4"
                   x="-5"
                   y="0"
                   height="16"
                   width="34.46875"
                   id="rect303"
                   style="fill:#dfe3f1;fill-opacity:1" />
                <text
                   class="blocklyText"
                   y="12.5"
                   id="text303"
                   style="font-style:normal;font-variant:normal;font-weight:normal;font-stretch:normal;font-size:14.6667px;font-family:Arial;-inkscape-font-specification:'Arial, Normal';font-variant-ligatures:normal;font-variant-caps:normal;font-variant-numeric:normal;font-variant-east-asian:normal;fill:#000000;fill-opacity:1">100</text>
              </g>
            </g>
            <text
               class="blocklyText"
               y="12.5"
               transform="translate(10,10)"
               id="text304"
               style="font-style:normal;font-variant:normal;font-weight:normal;font-stretch:normal;font-size:14.6667px;font-family:Arial;-inkscape-font-specification:'Arial, Normal';font-variant-ligatures:normal;font-variant-caps:normal;font-variant-numeric:normal;font-variant-east-asian:normal;fill:#ffffff;fill-opacity:1">ganzzahlige Zufallszahl zwischen</text>
            <text
               class="blocklyText"
               y="12.5"
               transform="translate(282.92187,10)"
               id="text305"
               style="font-style:normal;font-variant:normal;font-weight:normal;font-stretch:normal;font-size:14.6667px;font-family:Arial;-inkscape-font-specification:'Arial, Normal';font-variant-ligatures:normal;font-variant-caps:normal;font-variant-numeric:normal;font-variant-east-asian:normal;fill:#ffffff;fill-opacity:1">und</text>
          </g>
        </g>
      </g>
    </g>
  </g>
</svg>
