<?xml version="1.0" encoding="UTF-8" standalone="no"?>
<svg
   version="1.1"
   class="blocklySvg"
   width="109.50966"
   height="26"
   id="svg506"
   xmlns="http://www.w3.org/2000/svg"
   xmlns:svg="http://www.w3.org/2000/svg">
  <defs
     id="defs2" />
  <g
     class="blocklyWorkspace"
     id="g506"
     transform="translate(-7.8809681,1456)">
    <g
       class="blocklyFlyout"
       style="display:block"
       id="g497">
      <g
         class="blocklyWorkspace"
         id="g496">
        <g
           class="blocklyBlockCanvas"
           transform="translate(0,-4151)"
           id="g493">
          <g
             class="blocklyDraggable"
             transform="translate(16,2695)"
             id="g232">
            <path
               class="blocklyPathDark"
               transform="translate(1,1)"
               fill="#2e4084"
               d="m 0,0 h 63.078125 v 5 c 0,10 -8,-8 -8,7.5 0,15.5 8,-2.5 8,7.5 v 5 H 0 V 20 C 0,10 -8,28 -8,12.5 -8,-3 0,15 0,5 Z"
               id="path224" />
            <path
               class="blocklyPath"
               fill="#3950a5"
               d="m 0,0 h 63.078125 v 5 c 0,10 -8,-8 -8,7.5 0,15.5 8,-2.5 8,7.5 v 5 H 0 V 20 C 0,10 -8,28 -8,12.5 -8,-3 0,15 0,5 Z"
               id="path225" />
            <path
               class="blocklyPathLight"
               stroke="#7485c0"
               d="m 0.5,0.5 h 62.078125 m 0,0 m -4.5,18.8 3.68,-2.1 M 0.5,24.5 v -6 M -6.86,18 q -1.52,-5.5 0,-11 M 0.5,8 V 0.5 H 1"
               id="path226" />
            <g
               transform="translate(64.078125)"
               id="g230">
              <path
                 class="blocklyPathDark"
                 transform="translate(1,1)"
                 fill="#b0b9db"
                 d="M 0,0 H 36.3125 V 25 H 0 V 20 C 0,10 -8,28 -8,12.5 -8,-3 0,15 0,5 Z"
                 id="path227" />
              <path
                 class="blocklyPath"
                 fill="#b0b9db"
                 d="M 0,0 H 36.3125 V 25 H 0 V 20 C 0,10 -8,28 -8,12.5 -8,-3 0,15 0,5 Z"
                 id="path228" />
              <path
                 class="blocklyPathLight"
                 d="m 0.5,0.5 h 35.3125 m 0,0 M 0.5,24.5 v -6 M -6.86,18 q -1.52,-5.5 0,-11 M 0.5,8 V 0.5 H 1"
                 style="display:none"
                 id="path229" />
              <g
                 class="blocklyEditableText"
                 transform="translate(10,5)"
                 id="g229">
                <rect
                   rx="4"
                   ry="4"
                   x="-5"
                   y="0"
                   height="16"
                   width="26.3125"
                   id="rect229"
                   style="fill:#dfe3f1;fill-opacity:1" />
                <text
                   class="blocklyText"
                   y="12.5"
                   id="text229"
                   style="font-style:normal;font-variant:normal;font-weight:normal;font-stretch:normal;font-size:14.6667px;font-family:Arial;-inkscape-font-specification:'Arial, Normal';font-variant-ligatures:normal;font-variant-caps:normal;font-variant-numeric:normal;font-variant-east-asian:normal;fill:#000000;fill-opacity:1">45</text>
              </g>
            </g>
            <g
               class="blocklyEditableText"
               transform="translate(10,5)"
               id="g231">
              <rect
                 rx="4"
                 ry="4"
                 x="-5"
                 y="0"
                 height="16"
                 width="45.078125"
                 id="rect230"
                 style="fill:#b0b9db;fill-opacity:1" />
              <text
                 class="blocklyText"
                 y="12.5"
                 id="text230"
                 style="font-style:normal;font-variant:normal;font-weight:normal;font-stretch:normal;font-size:14.6667px;font-family:Arial;-inkscape-font-specification:'Arial, Normal';font-variant-ligatures:normal;font-variant-caps:normal;font-variant-numeric:normal;font-variant-east-asian:normal;fill:#000000;fill-opacity:1">sin<tspan
   style="font-style:normal;font-variant:normal;font-weight:normal;font-stretch:normal;font-size:14.6667px;font-family:Arial;-inkscape-font-specification:'Arial, Normal';font-variant-ligatures:normal;font-variant-caps:normal;font-variant-numeric:normal;font-variant-east-asian:normal;fill:#000000;fill-opacity:1"
   id="tspan230">▾</tspan></text>
            </g>
          </g>
        </g>
      </g>
    </g>
  </g>
</svg>
