<?xml version="1.0" encoding="UTF-8" standalone="no"?>
<svg
   version="1.1"
   class="blocklySvg"
   width="146.32216"
   height="37"
   id="svg506"
   xmlns="http://www.w3.org/2000/svg"
   xmlns:svg="http://www.w3.org/2000/svg">
  <defs
     id="defs2" />
  <g
     class="blocklyWorkspace"
     id="g506"
     transform="translate(-7.8809681,1839.4332)">
    <g
       class="blocklyFlyout"
       style="display:block"
       id="g497">
      <g
         class="blocklyWorkspace"
         id="g496">
        <g
           class="blocklyBlockCanvas"
           transform="translate(0,-4151)"
           id="g493">
          <g
             class="blocklyDraggable"
             transform="translate(16,2311.5668)"
             id="g188">
            <path
               class="blocklyPathDark"
               transform="translate(1,1)"
               fill="#2e4084"
               d="M 0,0 H 20 137.20312 V 36 H 0 V 20 C 0,10 -8,28 -8,12.5 -8,-3 0,15 0,5 Z M 46.15625,5 H 16 v 5 C 16,20 8,2 8,17.5 8,33 16,15 16,25 v 7 h 30.15625 z m 81.04688,0 H 97.046875 v 5 c 0,10 -8,-8 -8,7.5 0,15.5 8,-2.5 8,7.5 v 7 h 30.156255 z"
               id="path177" />
            <path
               class="blocklyPath"
               fill="#3950a5"
               d="M 0,0 H 20 137.20312 V 36 H 0 V 20 C 0,10 -8,28 -8,12.5 -8,-3 0,15 0,5 Z M 46.15625,5 H 16 v 5 C 16,20 8,2 8,17.5 8,33 16,15 16,25 v 7 h 30.15625 z m 81.04688,0 H 97.046875 v 5 c 0,10 -8,-8 -8,7.5 0,15.5 8,-2.5 8,7.5 v 7 h 30.156255 z"
               id="path178" />
            <path
               class="blocklyPathLight"
               stroke="#7485c0"
               d="m 0.5,0.5 h 19 m 0,0 H 136.70312 M 0.5,35.5 v -17 M -6.86,18 q -1.52,-5.5 0,-11 M 0.5,8 V 0.5 H 1 m 45.65625,5 v 27 H 16.5 m -5.6,-8.2 3.68,-2.1 M 127.70313,5.5 v 27 H 97.546875 m -5.6,-8.2 3.68,-2.1"
               id="path179" />
            <g
               transform="translate(17,6)"
               id="g183">
              <path
                 class="blocklyPathDark"
                 transform="translate(1,1)"
                 fill="#b0b9db"
                 d="M 0,0 H 28.15625 V 25 H 0 V 20 C 0,10 -8,28 -8,12.5 -8,-3 0,15 0,5 Z"
                 id="path180" />
              <path
                 class="blocklyPath"
                 fill="#b0b9db"
                 d="M 0,0 H 28.15625 V 25 H 0 V 20 C 0,10 -8,28 -8,12.5 -8,-3 0,15 0,5 Z"
                 id="path181" />
              <path
                 class="blocklyPathLight"
                 d="m 0.5,0.5 h 27.15625 m 0,0 M 0.5,24.5 v -6 M -6.86,18 q -1.52,-5.5 0,-11 M 0.5,8 V 0.5 H 1"
                 style="display:none"
                 id="path182" />
              <g
                 class="blocklyEditableText"
                 transform="translate(10,5)"
                 id="g182">
                <rect
                   rx="4"
                   ry="4"
                   x="-5"
                   y="0"
                   height="16"
                   width="18.15625"
                   id="rect182"
                   style="fill:#dfe3f1;fill-opacity:1" />
                <text
                   class="blocklyText"
                   y="12.5"
                   id="text182"
                   style="font-style:normal;font-variant:normal;font-weight:normal;font-stretch:normal;font-size:14.6667px;font-family:Arial;-inkscape-font-specification:'Arial, Normal';font-variant-ligatures:normal;font-variant-caps:normal;font-variant-numeric:normal;font-variant-east-asian:normal;fill:#000000;fill-opacity:1">1</text>
              </g>
            </g>
            <g
               transform="translate(98.046875,6)"
               id="g186">
              <path
                 class="blocklyPathDark"
                 transform="translate(1,1)"
                 fill="#b0b9db"
                 d="M 0,0 H 28.15625 V 25 H 0 V 20 C 0,10 -8,28 -8,12.5 -8,-3 0,15 0,5 Z"
                 id="path183" />
              <path
                 class="blocklyPath"
                 fill="#b0b9db"
                 d="M 0,0 H 28.15625 V 25 H 0 V 20 C 0,10 -8,28 -8,12.5 -8,-3 0,15 0,5 Z"
                 id="path184" />
              <path
                 class="blocklyPathLight"
                 d="m 0.5,0.5 h 27.15625 m 0,0 M 0.5,24.5 v -6 M -6.86,18 q -1.52,-5.5 0,-11 M 0.5,8 V 0.5 H 1"
                 style="display:none"
                 id="path185" />
              <g
                 class="blocklyEditableText"
                 transform="translate(10,5)"
                 id="g185">
                <rect
                   rx="4"
                   ry="4"
                   x="-5"
                   y="0"
                   height="16"
                   width="18.15625"
                   id="rect185"
                   style="fill:#dfe3f1;fill-opacity:1" />
                <text
                   class="blocklyText"
                   y="12.5"
                   id="text185"
                   style="font-style:normal;font-variant:normal;font-weight:normal;font-stretch:normal;font-size:14.6667px;font-family:Arial;-inkscape-font-specification:'Arial, Normal';font-variant-ligatures:normal;font-variant-caps:normal;font-variant-numeric:normal;font-variant-east-asian:normal;fill:#000000;fill-opacity:1">1</text>
              </g>
            </g>
            <g
               class="blocklyEditableText"
               transform="translate(56.15625,10)"
               id="g187">
              <rect
                 rx="4"
                 ry="4"
                 x="-5"
                 y="0"
                 height="16"
                 width="34.890625"
                 id="rect186"
                 style="fill:#b0b9db;fill-opacity:1" />
              <text
                 class="blocklyText"
                 y="12.5"
                 id="text186"
                 style="font-style:normal;font-variant:normal;font-weight:normal;font-stretch:normal;font-size:14.6667px;font-family:Arial;-inkscape-font-specification:'Arial, Normal';font-variant-ligatures:normal;font-variant-caps:normal;font-variant-numeric:normal;font-variant-east-asian:normal;fill:#000000;fill-opacity:1">+<tspan
   style="font-style:normal;font-variant:normal;font-weight:normal;font-stretch:normal;font-size:14.6667px;font-family:Arial;-inkscape-font-specification:'Arial, Normal';font-variant-ligatures:normal;font-variant-caps:normal;font-variant-numeric:normal;font-variant-east-asian:normal;fill:#000000;fill-opacity:1"
   id="tspan186">▾</tspan></text>
            </g>
          </g>
        </g>
      </g>
    </g>
  </g>
</svg>
