<?xml version="1.0" encoding="UTF-8" standalone="no"?>
<svg
   version="1.1"
   class="blocklySvg"
   width="159.45312"
   height="41"
   id="svg122"
   sodipodi:docname="tmp.svg"
   xmlns:inkscape="http://www.inkscape.org/namespaces/inkscape"
   xmlns:sodipodi="http://sodipodi.sourceforge.net/DTD/sodipodi-0.dtd"
   xmlns="http://www.w3.org/2000/svg"
   xmlns:svg="http://www.w3.org/2000/svg">
  <sodipodi:namedview
     id="namedview122"
     pagecolor="#ffffff"
     bordercolor="#000000"
     borderopacity="0.25"
     inkscape:showpageshadow="2"
     inkscape:pageopacity="0.0"
     inkscape:pagecheckerboard="0"
     inkscape:deskcolor="#d1d1d1" />
  <defs
     id="defs2" />
  <g
     class="blocklyWorkspace"
     id="g122"
     transform="translate(-542.28125,-107)">
    <g
       class="blocklyBlockCanvas"
       transform="translate(453.96875,7)"
       id="g116">
      <g
         class="blocklyDraggable"
         transform="translate(88.3125,100)"
         id="g108"
         inkscape:label="nimmXBuecher">
        <path
           class="blocklyPathDark"
           transform="translate(1,1)"
           fill="#5b3084"
           d="M 0,8 A 8,8 0 0 1 8,0 h 7 l 6,4 h 3 L 30,0 H 40 158.45312 V 36 H 29.5 l -6,4 h -3 l -6,-4 H 8 A 8,8 0 0 1 0,28 Z M 92,5 H 61.84375 v 5 c 0,10 -8,-8 -8,7.5 0,15.5 8,-2.5 8,7.5 v 7 H 92 Z"
           id="path101" />
        <path
           class="blocklyPath"
           fill="#723ca5"
           d="M 0,8 A 8,8 0 0 1 8,0 h 7 l 6,4 h 3 L 30,0 H 40 158.45312 V 36 H 29.5 l -6,4 h -3 l -6,-4 H 8 A 8,8 0 0 1 0,28 Z M 92,5 H 61.84375 v 5 c 0,10 -8,-8 -8,7.5 0,15.5 8,-2.5 8,7.5 v 7 H 92 Z"
           id="path102" />
        <g
           transform="translate(62.84375,6)"
           id="g107">
          <path
             class="blocklyPathDark"
             transform="translate(1,1)"
             fill="#b0b9db"
             d="M 0,0 H 28.15625 V 25 H 0 V 20 C 0,10 -8,28 -8,12.5 -8,-3 0,15 0,5 Z"
             id="path104" />
          <path
             class="blocklyPath"
             fill="#b0b9db"
             d="M 0,0 H 28.15625 V 25 H 0 V 20 C 0,10 -8,28 -8,12.5 -8,-3 0,15 0,5 Z"
             id="path105" />
          <path
             class="blocklyPathLight"
             d="m 0.5,0.5 h 27.15625 m 0,0 M 0.5,24.5 v -6 M -6.86,18 q -1.52,-5.5 0,-11 M 0.5,8 V 0.5 H 1"
             style="display:none"
             id="path106" />
          <g
             class="blocklyEditableText"
             transform="translate(10,5)"
             id="g106">
            <rect
               rx="4"
               ry="4"
               x="-5"
               y="0"
               height="16"
               width="18.15625"
               id="rect106"
               style="fill:#dfe3f1;fill-opacity:1" />
            <text
               class="blocklyText"
               y="12.5"
               id="text106"
               style="font-style:normal;font-variant:normal;font-weight:normal;font-stretch:normal;font-size:14.6667px;font-family:Arial;-inkscape-font-specification:'Arial, Normal';font-variant-ligatures:normal;font-variant-caps:normal;font-variant-numeric:normal;font-variant-east-asian:normal;fill:#000000;fill-opacity:1">0</text>
          </g>
        </g>
        <text
           class="blocklyText"
           y="12.5"
           transform="translate(10,10)"
           id="text107"
           style="font-style:normal;font-variant:normal;font-weight:normal;font-stretch:normal;font-size:14.6667px;font-family:Arial;-inkscape-font-specification:'Arial, Normal';font-variant-ligatures:normal;font-variant-caps:normal;font-variant-numeric:normal;font-variant-east-asian:normal;fill:#ffffff;fill-opacity:1">nimm</text>
        <text
           class="blocklyText"
           y="12.5"
           transform="translate(102,10)"
           id="text108"
           style="font-style:normal;font-variant:normal;font-weight:normal;font-stretch:normal;font-size:14.6667px;font-family:Arial;-inkscape-font-specification:'Arial, Normal';font-variant-ligatures:normal;font-variant-caps:normal;font-variant-numeric:normal;font-variant-east-asian:normal;fill:#ffffff;fill-opacity:1">Bücher</text>
      </g>
    </g>
  </g>
</svg>
