<?xml version="1.0" encoding="UTF-8" standalone="no"?>
<svg
   version="1.1"
   class="blocklySvg"
   width="156.1875"
   height="41.000019"
   id="svg63"
   xmlns="http://www.w3.org/2000/svg"
   xmlns:svg="http://www.w3.org/2000/svg">
  <defs
     id="defs2">
    <linearGradient
       id="swatch65">
      <stop
         style="stop-color:#80b42b;stop-opacity:1;"
         offset="0"
         id="stop65" />
    </linearGradient>
  </defs>
  <g
     class="blocklyWorkspace"
     id="g63"
     transform="translate(-16,-168.99998)">
    <g
       class="blocklyFlyout"
       style="display:block"
       id="g54">
      <g
         class="blocklyWorkspace"
         id="g53">
        <g
           class="blocklyBlockCanvas"
           transform="translate(0,2)"
           id="g50">
          <g
             class="blocklyDraggable"
             transform="translate(16,167)"
             id="g22">
            <path
               class="blocklyPathDark"
               transform="translate(1,1)"
               fill="#5b3084"
               d="M 0,8 A 8,8 0 0 1 8,0 h 7 l 6,4 h 3 L 30,0 H 40 155.1875 V 36 H 29.5 l -6,4 h -3 l -6,-4 H 8 A 8,8 0 0 1 0,28 Z M 92,5 H 61.84375 v 5 c 0,10 -8,-8 -8,7.5 0,15.5 8,-2.5 8,7.5 v 7 H 92 Z"
               id="path15" />
            <path
               class="blocklyPath"
               fill="#723ca5"
               d="M 0,8 A 8,8 0 0 1 8,0 h 7 l 6,4 h 3 L 30,0 H 40 155.1875 V 36 H 29.5 l -6,4 h -3 l -6,-4 H 8 A 8,8 0 0 1 0,28 Z M 92,5 H 61.84375 v 5 c 0,10 -8,-8 -8,7.5 0,15.5 8,-2.5 8,7.5 v 7 H 92 Z"
               id="path16" />
            <path
               class="blocklyPathLight"
               stroke="#9c77c0"
               d="M 0.5,7.5 A 7.5,7.5 0 0 1 8,0.5 h 7 l 6,4 h 3 l 6,-4 h 9.5 m 0,0 H 154.6875 M 2.6966991,33.303301 A 7.5,7.5 0 0 1 0.5,28 V 8 m 92,-2.5 v 27 H 62.34375 m -5.6,-8.2 3.68,-2.1"
               id="path17"
               style="opacity:0" />
            <g
               transform="translate(62.84375,6)"
               id="g21">
              <path
                 class="blocklyPathDark"
                 transform="translate(1,1)"
                 fill="#b0b9db"
                 d="M 0,0 H 28.15625 V 25 H 0 V 20 C 0,10 -8,28 -8,12.5 -8,-3 0,15 0,5 Z"
                 id="path18" />
              <path
                 class="blocklyPath"
                 fill="#b0b9db"
                 d="M 0,0 H 28.15625 V 25 H 0 V 20 C 0,10 -8,28 -8,12.5 -8,-3 0,15 0,5 Z"
                 id="path19" />
              <path
                 class="blocklyPathLight"
                 d="m 0.5,0.5 h 27.15625 m 0,0 M 0.5,24.5 v -6 M -6.86,18 q -1.52,-5.5 0,-11 M 0.5,8 V 0.5 H 1"
                 style="display:none"
                 id="path20" />
              <g
                 class="blocklyEditableText"
                 transform="translate(10,5)"
                 id="g20">
                <rect
                   rx="4"
                   ry="4"
                   x="-5"
                   y="0"
                   height="16"
                   width="18.15625"
                   id="rect20"
                   style="fill:#dfe3f1;fill-opacity:1" />
                <text
                   class="blocklyText"
                   y="12.5"
                   id="text20"
                   style="font-style:normal;font-variant:normal;font-weight:normal;font-stretch:normal;font-size:14.6667px;font-family:Arial;-inkscape-font-specification:'Arial, Normal';font-variant-ligatures:normal;font-variant-caps:normal;font-variant-numeric:normal;font-variant-east-asian:normal;fill:#000000;fill-opacity:1">0</text>
              </g>
            </g>
            <text
               class="blocklyText"
               y="12.5"
               transform="translate(10,10)"
               id="text21"
               style="font-style:normal;font-variant:normal;font-weight:normal;font-stretch:normal;font-size:14.6667px;font-family:Arial;-inkscape-font-specification:'Arial, Normal';font-variant-ligatures:normal;font-variant-caps:normal;font-variant-numeric:normal;font-variant-east-asian:normal;fill:#ffffff;fill-opacity:1">nimm</text>
            <text
               class="blocklyText"
               y="12.5"
               transform="translate(102,10)"
               id="text22"
               style="font-style:normal;font-variant:normal;font-weight:normal;font-stretch:normal;font-size:14.6667px;font-family:Arial;-inkscape-font-specification:'Arial, Normal';font-variant-ligatures:normal;font-variant-caps:normal;font-variant-numeric:normal;font-variant-east-asian:normal;fill:#ffffff;fill-opacity:1">Fische</text>
          </g>
        </g>
      </g>
    </g>
  </g>
</svg>
