<?xml version="1.0" encoding="UTF-8" standalone="no"?>
<svg
   version="1.1"
   class="blocklySvg"
   width="117.01562"
   height="29"
   id="svg77"
   xmlns="http://www.w3.org/2000/svg"
   xmlns:svg="http://www.w3.org/2000/svg">
  <defs
     id="defs2" />
  <g
     class="blocklyWorkspace"
     id="g77"
     transform="translate(-453,-267)">
    <g
       class="blocklyBlockCanvas"
       transform="translate(321.84375,7)"
       id="g71">
      <g
         class="blocklyDraggable"
         transform="translate(131.15625,260)"
         id="g70">
        <path
           class="blocklyPathDark"
           transform="translate(1,1)"
           fill="#5b3084"
           d="M 0,8 A 8,8 0 0 1 8,0 h 7 l 6,4 h 3 l 6,-4 h 86.01563 v 5 c 0,10 -8,-8 -8,7.5 0,15.5 8,-2.5 8,7.5 v 4 H 29.5 l -6,4 h -3 l -6,-4 H 8 A 8,8 0 0 1 0,16 Z"
           id="path68" />
        <path
           class="blocklyPath"
           fill="#723ca5"
           d="M 0,8 A 8,8 0 0 1 8,0 h 7 l 6,4 h 3 l 6,-4 h 86.01563 v 5 c 0,10 -8,-8 -8,7.5 0,15.5 8,-2.5 8,7.5 v 4 H 29.5 l -6,4 h -3 l -6,-4 H 8 A 8,8 0 0 1 0,16 Z"
           id="path69" />
        <text
           class="blocklyText"
           y="12.5"
           transform="translate(10,5)"
           id="text70"
           style="font-style:normal;font-variant:normal;font-weight:normal;font-stretch:normal;font-size:14.6667px;font-family:Arial;-inkscape-font-specification:'Arial, Normal';font-variant-ligatures:normal;font-variant-caps:normal;font-variant-numeric:normal;font-variant-east-asian:normal;fill:#ffffff;fill-opacity:1">schreibe Zahl</text>
      </g>
    </g>
  </g>
</svg>
