<?xml version="1.0" encoding="UTF-8" standalone="no"?>
<svg
   version="1.1"
   class="blocklySvg"
   width="143.83334"
   height="40"
   id="svg124"
   xmlns="http://www.w3.org/2000/svg"
   xmlns:svg="http://www.w3.org/2000/svg">
  <defs
     id="defs2" />
  <g
     class="blocklyWorkspace"
     id="g124"
     transform="translate(-16,-552)">
    <g
       class="blocklyFlyout"
       style="display:block"
       id="g115">
      <g
         class="blocklyWorkspace"
         id="g114">
        <g
           class="blocklyBlockCanvas"
           transform="translate(0,2)"
           id="g111">
          <g
             class="blocklyDraggable"
             transform="translate(16,550)"
             id="g43">
            <path
               class="blocklyPathDark"
               transform="translate(1,1)"
               fill="#5b3084"
               d="M 0,8 A 8,8 0 0 1 8,0 h 7 l 6,4 h 3 L 30,0 H 40 142.83334 V 35 H 29.5 l -6,4 h -3 l -6,-4 H 8 A 8,8 0 0 1 0,27 Z M 76.354168,5 h -14.5 v 5 c 0,10 -8,-8 -8,7.5 0,15.5 8,-2.5 8,7.5 v 6 h 14.5 z"
               id="path40" />
            <path
               class="blocklyPath"
               fill="#723ca5"
               d="M 0,8 A 8,8 0 0 1 8,0 h 7 l 6,4 h 3 L 30,0 H 40 142.83334 V 35 H 29.5 l -6,4 h -3 l -6,-4 H 8 A 8,8 0 0 1 0,27 Z M 76.354168,5 h -14.5 v 5 c 0,10 -8,-8 -8,7.5 0,15.5 8,-2.5 8,7.5 v 6 h 14.5 z"
               id="path41" />
            <text
               class="blocklyText"
               y="12.5"
               transform="translate(10,10)"
               id="text42"
               style="font-style:normal;font-variant:normal;font-weight:normal;font-stretch:normal;font-size:14.6667px;font-family:Arial;-inkscape-font-specification:'Arial, Normal';font-variant-ligatures:normal;font-variant-caps:normal;font-variant-numeric:normal;font-variant-east-asian:normal;fill:#ffffff;fill-opacity:1">nimm</text>
            <text
               class="blocklyText"
               y="12.5"
               transform="translate(86.354168,10)"
               id="text43"
               style="font-style:normal;font-variant:normal;font-weight:normal;font-stretch:normal;font-size:14.6667px;font-family:Arial;-inkscape-font-specification:'Arial, Normal';font-variant-ligatures:normal;font-variant-caps:normal;font-variant-numeric:normal;font-variant-east-asian:normal;fill:#ffffff;fill-opacity:1">Bücher</text>
          </g>
        </g>
      </g>
    </g>
  </g>
</svg>
