<?xml version="1.0" encoding="UTF-8" standalone="no"?>
<svg
   version="1.1"
   class="blocklySvg"
   width="106.625"
   height="29"
   id="svg124"
   xmlns="http://www.w3.org/2000/svg"
   xmlns:svg="http://www.w3.org/2000/svg">
  <defs
     id="defs2" />
  <g
     class="blocklyWorkspace"
     id="g124"
     transform="translate(-16,-616)">
    <g
       class="blocklyFlyout"
       style="display:block"
       id="g115">
      <g
         class="blocklyWorkspace"
         id="g114">
        <g
           class="blocklyBlockCanvas"
           transform="translate(0,2)"
           id="g111">
          <g
             class="blocklyDraggable"
             transform="translate(16,614)"
             id="g45">
            <path
               class="blocklyPathDark"
               transform="translate(1,1)"
               fill="#5b3084"
               d="M 0,8 A 8,8 0 0 1 8,0 h 7 l 6,4 h 3 l 6,-4 h 75.625 V 24 H 29.5 l -6,4 h -3 l -6,-4 H 8 A 8,8 0 0 1 0,16 Z"
               id="path43" />
            <path
               class="blocklyPath"
               fill="#723ca5"
               d="M 0,8 A 8,8 0 0 1 8,0 h 7 l 6,4 h 3 l 6,-4 h 75.625 V 24 H 29.5 l -6,4 h -3 l -6,-4 H 8 A 8,8 0 0 1 0,16 Z"
               id="path44" />
            <text
               class="blocklyText"
               y="12.5"
               transform="translate(10,5)"
               id="text45"
               style="font-style:normal;font-variant:normal;font-weight:normal;font-stretch:normal;font-size:14.6667px;font-family:Arial;-inkscape-font-specification:'Arial, Normal';font-variant-ligatures:normal;font-variant-caps:normal;font-variant-numeric:normal;font-variant-east-asian:normal;fill:#ffffff;fill-opacity:1">lege Buch ab</text>
          </g>
        </g>
      </g>
    </g>
  </g>
</svg>
