<?xml version="1.0" encoding="UTF-8" standalone="no"?>
<svg
   version="1.1"
   class="blocklySvg"
   width="171.77528"
   height="26"
   id="svg75"
   xmlns="http://www.w3.org/2000/svg"
   xmlns:svg="http://www.w3.org/2000/svg">
  <defs
     id="defs2" />
  <g
     class="blocklyWorkspace"
     id="g75"
     transform="translate(-7.8809681,-608)">
    <g
       class="blocklyFlyout"
       style="display:block"
       id="g66">
      <g
         class="blocklyWorkspace"
         id="g65">
        <g
           class="blocklyBlockCanvas"
           transform="translate(0,2)"
           id="g62">
          <g
             class="blocklyDraggable"
             transform="translate(16,606)"
             id="g50">
            <path
               class="blocklyPathDark"
               transform="translate(1,1)"
               fill="#843456"
               d="M 0,0 H 162.65625 V 25 H 0 V 20 C 0,10 -8,28 -8,12.5 -8,-3 0,15 0,5 Z"
               id="path47" />
            <path
               class="blocklyPath"
               fill="#a5416b"
               d="M 0,0 H 162.65625 V 25 H 0 V 20 C 0,10 -8,28 -8,12.5 -8,-3 0,15 0,5 Z"
               id="path48" />
            <path
               class="blocklyPathLight"
               stroke="#c07a97"
               d="m 0.5,0.5 h 161.65625 m 0,0 M 0.5,24.5 v -6 M -6.86,18 q -1.52,-5.5 0,-11 M 0.5,8 V 0.5 H 1"
               id="path49" />
            <g
               class="blocklyNonEditableText"
               transform="translate(10,5)"
               id="g49">
              <rect
                 rx="4"
                 ry="4"
                 x="-5"
                 y="0"
                 height="16"
                 width="152.65625"
                 id="rect49"
                 style="fill:#dbb3c4;fill-opacity:1" />
              <text
                 class="blocklyText"
                 y="12.5"
                 id="text49"
                 style="font-style:normal;font-variant:normal;font-weight:normal;font-stretch:normal;font-size:14.6667px;font-family:Arial;-inkscape-font-specification:'Arial, Normal';font-variant-ligatures:normal;font-variant-caps:normal;font-variant-numeric:normal;font-variant-east-asian:normal;fill:#000000;fill-opacity:1">RoboterGedächtnis<tspan
   style="font-style:normal;font-variant:normal;font-weight:normal;font-stretch:normal;font-size:14.6667px;font-family:Arial;-inkscape-font-specification:'Arial, Normal';font-variant-ligatures:normal;font-variant-caps:normal;font-variant-numeric:normal;font-variant-east-asian:normal;fill:#000000;fill-opacity:1"
   id="tspan49">▾</tspan></text>
            </g>
          </g>
        </g>
      </g>
    </g>
  </g>
</svg>
