<?xml version="1.0" encoding="UTF-8" standalone="no"?>
<svg
   version="1.1"
   class="blocklySvg"
   width="247.09375"
   height="30.000019"
   id="svg75"
   xmlns="http://www.w3.org/2000/svg"
   xmlns:svg="http://www.w3.org/2000/svg">
  <defs
     id="defs2" />
  <g
     class="blocklyWorkspace"
     id="g75"
     transform="translate(-16,-657.99998)">
    <g
       class="blocklyFlyout"
       style="display:block"
       id="g66">
      <g
         class="blocklyWorkspace"
         id="g65">
        <g
           class="blocklyBlockCanvas"
           transform="translate(0,2)"
           id="g62">
          <g
             class="blocklyDraggable"
             transform="translate(16,656)"
             id="g54">
            <path
               class="blocklyPathDark"
               transform="translate(1,1)"
               fill="#843456"
               d="M 0,8 A 8,8 0 0 1 8,0 h 7 l 6,4 h 3 l 6,-4 h 216.09375 v 5 c 0,10 -8,-8 -8,7.5 0,15.5 8,-2.5 8,7.5 v 5 H 29.5 l -6,4 h -3 l -6,-4 H 8 A 8,8 0 0 1 0,17 Z"
               id="path50" />
            <path
               class="blocklyPath"
               fill="#a5416b"
               d="M 0,8 A 8,8 0 0 1 8,0 h 7 l 6,4 h 3 l 6,-4 h 216.09375 v 5 c 0,10 -8,-8 -8,7.5 0,15.5 8,-2.5 8,7.5 v 5 H 29.5 l -6,4 h -3 l -6,-4 H 8 A 8,8 0 0 1 0,17 Z"
               id="path51" />
            <path
               class="blocklyPathLight"
               stroke="#c07a97"
               d="M 0.5,7.5 A 7.5,7.5 0 0 1 8,0.5 h 7 l 6,4 h 3 l 6,-4 h 215.59375 m 0,0 m -4.5,18.8 3.68,-2.1 M 2.6966991,22.303301 A 7.5,7.5 0 0 1 0.5,17 V 8"
               id="path52"
               style="opacity:0" />
            <text
               class="blocklyText"
               y="12.5"
               transform="translate(10,5)"
               id="text52"
               style="font-style:normal;font-variant:normal;font-weight:normal;font-stretch:normal;font-size:14.6667px;font-family:Arial;-inkscape-font-specification:'Arial, Normal';font-variant-ligatures:normal;font-variant-caps:normal;font-variant-numeric:normal;font-variant-east-asian:normal;fill:#ffffff;fill-opacity:1">setze</text>
            <g
               class="blocklyNonEditableText"
               transform="translate(55.046875,5)"
               id="g53">
              <rect
                 rx="4"
                 ry="4"
                 x="-5"
                 y="0"
                 height="16"
                 width="152.65625"
                 id="rect52"
                 style="fill:#dbb3c4;fill-opacity:1" />
              <text
                 class="blocklyText"
                 y="12.5"
                 id="text53"
                 style="font-style:normal;font-variant:normal;font-weight:normal;font-stretch:normal;font-size:14.6667px;font-family:Arial;-inkscape-font-specification:'Arial, Normal';font-variant-ligatures:normal;font-variant-caps:normal;font-variant-numeric:normal;font-variant-east-asian:normal;fill:#000000;fill-opacity:1">RoboterGedächtnis<tspan
   style="font-style:normal;font-variant:normal;font-weight:normal;font-stretch:normal;font-size:14.6667px;font-family:Arial;-inkscape-font-specification:'Arial, Normal';font-variant-ligatures:normal;font-variant-caps:normal;font-variant-numeric:normal;font-variant-east-asian:normal;fill:#000000;fill-opacity:1"
   id="tspan52">▾</tspan></text>
            </g>
            <text
               class="blocklyText"
               y="12.5"
               transform="translate(207.70312,5)"
               id="text54"
               style="font-style:normal;font-variant:normal;font-weight:normal;font-stretch:normal;font-size:14.6667px;font-family:Arial;-inkscape-font-specification:'Arial, Normal';font-variant-ligatures:normal;font-variant-caps:normal;font-variant-numeric:normal;font-variant-east-asian:normal;fill:#ffffff;fill-opacity:1">auf</text>
          </g>
        </g>
      </g>
    </g>
  </g>
</svg>
