<?xml version="1.0" encoding="UTF-8" standalone="no"?>
<svg
   version="1.1"
   class="blocklySvg"
   width="106.47656"
   height="31.900021"
   id="svg42"
   sodipodi:docname="workspace_Aufgabe1.2.svg"
   xmlns:inkscape="http://www.inkscape.org/namespaces/inkscape"
   xmlns:sodipodi="http://sodipodi.sourceforge.net/DTD/sodipodi-0.dtd"
   xmlns="http://www.w3.org/2000/svg"
   xmlns:svg="http://www.w3.org/2000/svg">
  <sodipodi:namedview
     id="namedview42"
     pagecolor="#ffffff"
     bordercolor="#000000"
     borderopacity="0.25"
     inkscape:showpageshadow="2"
     inkscape:pageopacity="0.0"
     inkscape:pagecheckerboard="0"
     inkscape:deskcolor="#d1d1d1" />
  <defs
     id="defs2" />
  <g
     class="blocklyFlyout"
     transform="translate(-17.6,-127.39998)"
     style="display:block"
     id="g42">
    <g
       class="blocklyWorkspace"
       id="g41">
      <g
         class="blocklyBlockCanvas"
         transform="matrix(1.1,0,0,1.1,0,2)"
         id="g38">
        <g
           class="blocklyDraggable"
           transform="translate(16,114)"
           id="g20"
           inkscape:label="springhoch">
          <path
             class="blocklyPathDark"
             transform="translate(1,1)"
             fill="#5b3084"
             d="M 0,8 A 8,8 0 0 1 8,0 h 7 l 6,4 h 3 L 30,0 H 95.796875 V 24 H 29.5 l -6,4 h -3 l -6,-4 H 8 A 8,8 0 0 1 0,16 Z"
             id="path18" />
          <path
             class="blocklyPath"
             fill="#723ca5"
             d="M 0,8 A 8,8 0 0 1 8,0 h 7 l 6,4 h 3 L 30,0 H 95.796875 V 24 H 29.5 l -6,4 h -3 l -6,-4 H 8 A 8,8 0 0 1 0,16 Z"
             id="path19" />
          <path
             class="blocklyPathLight"
             stroke="#9c77c0"
             d="M 0.5,7.5 A 7.5,7.5 0 0 1 8,0.5 h 7 l 6,4 h 3 l 6,-4 h 65.296875 m 0,0 M 2.6966991,21.303301 A 7.5,7.5 0 0 1 0.5,16 V 8"
             id="path20"
             style="opacity:0" />
          <text
             class="blocklyText"
             y="12.5"
             transform="translate(10,5)"
             id="text20"
             style="font-style:normal;font-variant:normal;font-weight:normal;font-stretch:normal;font-size:13.3333px;font-family:Arial;-inkscape-font-specification:'Arial, Normal';font-variant-ligatures:normal;font-variant-caps:normal;font-variant-numeric:normal;font-variant-east-asian:normal;fill:#ffffff;fill-opacity:1">spring hoch</text>
        </g>
      </g>
    </g>
  </g>
</svg>
