<?xml version="1.0" encoding="UTF-8" standalone="no"?>
<svg
   version="1.1"
   class="blocklySvg"
   width="169.79091"
   height="50"
   id="svg506"
   xmlns="http://www.w3.org/2000/svg"
   xmlns:svg="http://www.w3.org/2000/svg">
  <defs
     id="defs2" />
  <g
     class="blocklyWorkspace"
     id="g506"
     transform="translate(-7.8809681,2807)">
    <g
       class="blocklyFlyout"
       style="display:block"
       id="g497">
      <g
         class="blocklyWorkspace"
         id="g496">
        <g
           class="blocklyBlockCanvas"
           transform="translate(0,-4151)"
           id="g493">
          <g
             class="blocklyDraggable"
             transform="translate(16,1344)"
             id="g95">
            <path
               class="blocklyPathDark"
               transform="translate(1,1)"
               fill="#522d84"
               d="m 0,0 h 160.67187 v 5 c 0,10 -8,-8 -8,7.5 0,15.5 8,-2.5 8,7.5 v 5 5 c 0,10 -8,-8 -8,7.5 0,15.5 8,-2.5 8,7.5 v 4 H 0 V 20 C 0,10 -8,28 -8,12.5 -8,-3 0,15 0,5 Z"
               id="path91" />
            <path
               class="blocklyPath"
               fill="#6638a5"
               d="m 0,0 h 160.67187 v 5 c 0,10 -8,-8 -8,7.5 0,15.5 8,-2.5 8,7.5 v 5 5 c 0,10 -8,-8 -8,7.5 0,15.5 8,-2.5 8,7.5 v 4 H 0 V 20 C 0,10 -8,28 -8,12.5 -8,-3 0,15 0,5 Z"
               id="path92" />
            <path
               class="blocklyPathLight"
               stroke="#9474c0"
               d="m 0.5,0.5 h 159.67187 m 0,0 m -4.5,18.8 3.68,-2.1 m 0.82,8.3 m -4.5,18.8 3.68,-2.1 M 0.5,48.5 v -30 M -6.86,18 q -1.52,-5.5 0,-11 M 0.5,8 V 0.5 H 1"
               id="path93" />
            <g
               class="blocklyIconGroup blocklyIconGroupReadonly"
               display="block"
               transform="translate(10,5)"
               id="g94">
              <rect
                 class="blocklyIconShape"
                 rx="4"
                 ry="4"
                 height="16"
                 width="16"
                 id="rect93"
                 style="fill:#3347a4;fill-opacity:1"
                 x="0"
                 y="0" />
              <path
                 class="blocklyIconSymbol"
                 d="m 4.203,7.296 v 1.368 l -0.92,0.677 -0.11,0.41 0.9,1.559 0.41,0.11 1.043,-0.457 1.187,0.683 0.127,1.134 0.3,0.3 h 1.8 l 0.3,-0.299 0.127,-1.138 1.185,-0.682 1.046,0.458 0.409,-0.11 0.9,-1.559 -0.11,-0.41 -0.92,-0.677 V 7.297 L 12.797,6.62 12.907,6.21 12.007,4.651 11.598,4.542 10.552,5 9.367,4.318 9.24,3.18 8.94,2.881 H 7.14 L 6.84,3.181 6.714,4.316 5.527,4.998 4.484,4.541 4.074,4.651 3.175,6.21 3.283,6.619 Z"
                 id="path94"
                 style="fill:#c2afdb;fill-opacity:1" />
              <circle
                 class="blocklyIconShape"
                 r="2.7"
                 cx="8"
                 cy="8"
                 id="circle94"
                 style="fill:#3347a4;fill-opacity:1" />
            </g>
            <text
               class="blocklyText"
               y="12.5"
               transform="translate(37,5)"
               id="text94"
               style="font-style:normal;font-variant:normal;font-weight:normal;font-stretch:normal;font-size:14.6667px;font-family:Arial;-inkscape-font-specification:'Arial, Normal';font-variant-ligatures:normal;font-variant-caps:normal;font-variant-numeric:normal;font-variant-east-asian:normal;fill:#ffffff;fill-opacity:1">erstelle Text aus</text>
          </g>
        </g>
      </g>
    </g>
  </g>
</svg>
