<?xml version="1.0" encoding="UTF-8" standalone="no"?>
<svg
   version="1.1"
   class="blocklySvg"
   width="478.26562"
   height="37"
   id="svg506"
   xmlns="http://www.w3.org/2000/svg"
   xmlns:svg="http://www.w3.org/2000/svg">
  <defs
     id="defs2" />
  <g
     class="blocklyWorkspace"
     id="g506"
     transform="translate(-8,2217)">
    <g
       class="blocklyFlyout"
       style="display:block"
       id="g497">
      <g
         class="blocklyWorkspace"
         id="g496">
        <g
           class="blocklyBlockCanvas"
           transform="translate(0,-4151)"
           id="g493">
          <g
             class="blocklyDraggable"
             transform="translate(16,1934)"
             id="g455">
            <path
               class="blocklyPathDark"
               transform="translate(1,1)"
               fill="#522d84"
               d="M 0,0 H 20 469.26562 V 36 H 0 V 20 C 0,10 -8,28 -8,12.5 -8,-3 0,15 0,5 Z M 137.39062,5 H 72.171875 v 5 c 0,10 -8,-8 -8,7.5 0,15.5 8,-2.5 8,7.5 v 7 H 137.39062 Z M 276.25,5 h -14.5 v 5 c 0,10 -8,-8 -8,7.5 0,15.5 8,-2.5 8,7.5 v 6 h 14.5 z m 89.65625,0 h -14.5 v 5 c 0,10 -8,-8 -8,7.5 0,15.5 8,-2.5 8,7.5 v 6 h 14.5 z"
               id="path444" />
            <path
               class="blocklyPath"
               fill="#6638a5"
               d="M 0,0 H 20 469.26562 V 36 H 0 V 20 C 0,10 -8,28 -8,12.5 -8,-3 0,15 0,5 Z M 137.39062,5 H 72.171875 v 5 c 0,10 -8,-8 -8,7.5 0,15.5 8,-2.5 8,7.5 v 7 H 137.39062 Z M 276.25,5 h -14.5 v 5 c 0,10 -8,-8 -8,7.5 0,15.5 8,-2.5 8,7.5 v 6 h 14.5 z m 89.65625,0 h -14.5 v 5 c 0,10 -8,-8 -8,7.5 0,15.5 8,-2.5 8,7.5 v 6 h 14.5 z"
               id="path445" />
            <g
               class="blocklyDraggable"
               transform="translate(73.171875,6)"
               id="g450">
              <path
                 class="blocklyPathDark"
                 transform="translate(1,1)"
                 fill="#843456"
                 d="M 0,0 H 63.21875 V 25 H 0 V 20 C 0,10 -8,28 -8,12.5 -8,-3 0,15 0,5 Z"
                 id="path447" />
              <path
                 class="blocklyPath"
                 fill="#a5416b"
                 d="M 0,0 H 63.21875 V 25 H 0 V 20 C 0,10 -8,28 -8,12.5 -8,-3 0,15 0,5 Z"
                 id="path448" />
              <path
                 class="blocklyPathLight"
                 stroke="#c07a97"
                 d="m 0.5,0.5 h 62.21875 m 0,0 M 0.5,24.5 v -6 M -6.86,18 q -1.52,-5.5 0,-11 M 0.5,8 V 0.5 H 1"
                 id="path449" />
              <g
                 class="blocklyEditableText"
                 transform="translate(10,5)"
                 id="g449">
                <rect
                   rx="4"
                   ry="4"
                   x="-5"
                   y="0"
                   height="16"
                   width="53.21875"
                   id="rect449"
                   style="fill:#dbb3c4;fill-opacity:1" />
                <text
                   class="blocklyText"
                   y="12.5"
                   id="text449"
                   style="font-style:normal;font-variant:normal;font-weight:normal;font-stretch:normal;font-size:14.6667px;font-family:Arial;-inkscape-font-specification:'Arial, Normal';font-variant-ligatures:normal;font-variant-caps:normal;font-variant-numeric:normal;font-variant-east-asian:normal;fill:#000000;fill-opacity:1">Text<tspan
   style="font-style:normal;font-variant:normal;font-weight:normal;font-stretch:normal;font-size:14.6667px;font-family:Arial;-inkscape-font-specification:'Arial, Normal';font-variant-ligatures:normal;font-variant-caps:normal;font-variant-numeric:normal;font-variant-east-asian:normal;fill:#000000;fill-opacity:1"
   id="tspan449">▾</tspan></text>
              </g>
            </g>
            <text
               class="blocklyText"
               y="12.5"
               transform="translate(10,10)"
               id="text450"
               style="font-style:normal;font-variant:normal;font-weight:normal;font-stretch:normal;font-size:14.6667px;font-family:Arial;-inkscape-font-specification:'Arial, Normal';font-variant-ligatures:normal;font-variant-caps:normal;font-variant-numeric:normal;font-variant-east-asian:normal;fill:#ffffff;fill-opacity:1">im Text</text>
            <g
               class="blocklyEditableText"
               transform="translate(147.39062,10)"
               id="g451">
              <rect
                 rx="4"
                 ry="4"
                 x="-5"
                 y="0"
                 height="16"
                 width="108.35938"
                 id="rect450"
                 style="fill:#c2afdb;fill-opacity:1" />
              <text
                 class="blocklyText"
                 y="12.5"
                 id="text451"
                 style="font-style:normal;font-variant:normal;font-weight:normal;font-stretch:normal;font-size:14.6667px;font-family:Arial;-inkscape-font-specification:'Arial, Normal';font-variant-ligatures:normal;font-variant-caps:normal;font-variant-numeric:normal;font-variant-east-asian:normal;fill:#000000;fill-opacity:1">nimm Teil ab<tspan
   style="font-style:normal;font-variant:normal;font-weight:normal;font-stretch:normal;font-size:14.6667px;font-family:Arial;-inkscape-font-specification:'Arial, Normal';font-variant-ligatures:normal;font-variant-caps:normal;font-variant-numeric:normal;font-variant-east-asian:normal;fill:#000000;fill-opacity:1"
   id="tspan450">▾</tspan></text>
            </g>
            <text
               class="blocklyText"
               y="12.5"
               transform="translate(286.25,10)"
               id="text452"
               style="font-style:normal;font-variant:normal;font-weight:normal;font-stretch:normal;font-size:14.6667px;font-family:Arial;-inkscape-font-specification:'Arial, Normal';font-variant-ligatures:normal;font-variant-caps:normal;font-variant-numeric:normal;font-variant-east-asian:normal;fill:#ffffff;fill-opacity:1">.</text>
            <g
               class="blocklyEditableText"
               transform="translate(300.32812,10)"
               id="g453">
              <rect
                 rx="4"
                 ry="4"
                 x="-5"
                 y="0"
                 height="16"
                 width="45.078125"
                 id="rect452"
                 style="fill:#c2afdb;fill-opacity:1" />
              <text
                 class="blocklyText"
                 y="12.5"
                 id="text453"
                 style="font-style:normal;font-variant:normal;font-weight:normal;font-stretch:normal;font-size:14.6667px;font-family:Arial;-inkscape-font-specification:'Arial, Normal';font-variant-ligatures:normal;font-variant-caps:normal;font-variant-numeric:normal;font-variant-east-asian:normal;fill:#000000;fill-opacity:1">bis<tspan
   style="font-style:normal;font-variant:normal;font-weight:normal;font-stretch:normal;font-size:14.6667px;font-family:Arial;-inkscape-font-specification:'Arial, Normal';font-variant-ligatures:normal;font-variant-caps:normal;font-variant-numeric:normal;font-variant-east-asian:normal;fill:#000000;fill-opacity:1"
   id="tspan452">▾</tspan></text>
            </g>
            <text
               class="blocklyText"
               y="12.5"
               transform="translate(375.90625,10)"
               id="text454"
               style="font-style:normal;font-variant:normal;font-weight:normal;font-stretch:normal;font-size:14.6667px;font-family:Arial;-inkscape-font-specification:'Arial, Normal';font-variant-ligatures:normal;font-variant-caps:normal;font-variant-numeric:normal;font-variant-east-asian:normal;fill:#ffffff;fill-opacity:1">.</text>
            <text
               class="blocklyText"
               y="12.5"
               transform="translate(389.98437,10)"
               id="text455"
               style="font-style:normal;font-variant:normal;font-weight:normal;font-stretch:normal;font-size:14.6667px;font-family:Arial;-inkscape-font-specification:'Arial, Normal';font-variant-ligatures:normal;font-variant-caps:normal;font-variant-numeric:normal;font-variant-east-asian:normal;fill:#ffffff;fill-opacity:1">Buchstabe</text>
          </g>
        </g>
      </g>
    </g>
  </g>
</svg>
