<?xml version="1.0" encoding="UTF-8" standalone="no"?>
<svg
   version="1.1"
   class="blocklySvg"
   width="266.66129"
   height="277.09"
   id="svg67"
   sodipodi:docname="text_join_Zahnrad.svg"
   xmlns:inkscape="http://www.inkscape.org/namespaces/inkscape"
   xmlns:sodipodi="http://sodipodi.sourceforge.net/DTD/sodipodi-0.dtd"
   xmlns="http://www.w3.org/2000/svg"
   xmlns:svg="http://www.w3.org/2000/svg">
  <sodipodi:namedview
     id="namedview67"
     pagecolor="#ffffff"
     bordercolor="#000000"
     borderopacity="0.25"
     inkscape:showpageshadow="2"
     inkscape:pageopacity="0.0"
     inkscape:pagecheckerboard="0"
     inkscape:deskcolor="#d1d1d1" />
  <defs
     id="defs2">
    <filter
       id="blocklyEmbossFilter008585515602564264"
       x="-0.010100189"
       y="-0.010501911"
       width="1.0202004"
       height="1.0210038">
      <feGaussianBlur
         in="SourceAlpha"
         stdDeviation="1"
         result="blur"
         id="feGaussianBlur1" />
      <feSpecularLighting
         in="blur"
         surfaceScale="1"
         specularConstant="0.5"
         specularExponent="10"
         lighting-color="#ffffff"
         result="specOut"
         id="feSpecularLighting1">
        <fePointLight
           x="-5000"
           y="-10000"
           z="20000"
           id="fePointLight1" />
      </feSpecularLighting>
      <feComposite
         in="specOut"
         in2="SourceAlpha"
         operator="in"
         result="specOut"
         id="feComposite1" />
      <feComposite
         in="SourceGraphic"
         in2="specOut"
         operator="arithmetic"
         k1="0"
         k2="1"
         k3="1"
         k4="0"
         id="feComposite2" />
    </filter>
  </defs>
  <g
     class="blocklyWorkspace"
     id="g67"
     transform="translate(-277.96469,-172.2)">
    <g
       class="blocklyBlockCanvas"
       transform="matrix(1.1,0,0,1.1,213.73906,7)"
       id="g34">
      <g
         class="blocklyDraggable"
         transform="translate(101.69177,150.18182)"
         id="g33">
        <path
           class="blocklyPathDark"
           transform="translate(1,1)"
           fill="#522d84"
           d="m 0,0 h 160.69602 v 5 c 0,10 -8,-8 -8,7.5 0,15.5 8,-2.5 8,7.5 v 5 5 c 0,10 -8,-8 -8,7.5 0,15.5 8,-2.5 8,7.5 v 5 5 c 0,10 -8,-8 -8,7.5 0,15.5 8,-2.5 8,7.5 v 4 H 0 V 20 C 0,10 -8,28 -8,12.5 -8,-3 0,15 0,5 Z"
           id="path29" />
        <path
           class="blocklyPath"
           fill="#6638a5"
           d="m 0,0 h 160.69602 v 5 c 0,10 -8,-8 -8,7.5 0,15.5 8,-2.5 8,7.5 v 5 5 c 0,10 -8,-8 -8,7.5 0,15.5 8,-2.5 8,7.5 v 5 5 c 0,10 -8,-8 -8,7.5 0,15.5 8,-2.5 8,7.5 v 4 H 0 V 20 C 0,10 -8,28 -8,12.5 -8,-3 0,15 0,5 Z"
           id="path30" />
        <path
           class="blocklyPathLight"
           stroke="#9474c0"
           d="m 0.5,0.5 h 159.69602 m 0,0 m -4.5,18.8 3.68,-2.1 m 0.82,8.3 m -4.5,18.8 3.68,-2.1 m 0.82,8.3 m -4.5,18.8 3.68,-2.1 M 0.5,73.5 v -55 M -6.86,18 q -1.52,-5.5 0,-11 M 0.5,8 V 0.5 H 1"
           id="path31" />
        <g
           class="blocklyIconGroup"
           display="block"
           transform="translate(10,5)"
           id="g32">
          <rect
             class="blocklyIconShape"
             rx="4"
             ry="4"
             height="16"
             width="16"
             id="rect31"
             style="fill:#2816db;fill-opacity:1"
             x="0"
             y="0" />
          <path
             class="blocklyIconSymbol"
             d="m 4.203,7.296 v 1.368 l -0.92,0.677 -0.11,0.41 0.9,1.559 0.41,0.11 1.043,-0.457 1.187,0.683 0.127,1.134 0.3,0.3 h 1.8 l 0.3,-0.299 0.127,-1.138 1.185,-0.682 1.046,0.458 0.409,-0.11 0.9,-1.559 -0.11,-0.41 -0.92,-0.677 V 7.297 L 12.797,6.62 12.907,6.21 12.007,4.651 11.598,4.542 10.552,5 9.367,4.318 9.24,3.18 8.94,2.881 H 7.14 L 6.84,3.181 6.714,4.316 5.527,4.998 4.484,4.541 4.074,4.651 3.175,6.21 3.283,6.619 Z"
             id="path32"
             style="fill:#c2afdb;fill-opacity:1" />
          <circle
             class="blocklyIconShape"
             r="2.7"
             cx="8"
             cy="8"
             id="circle32"
             style="fill:#2816db;fill-opacity:1" />
        </g>
        <text
           class="blocklyText"
           y="12.5"
           transform="translate(37,5)"
           id="text32"
           style="font-style:normal;font-variant:normal;font-weight:normal;font-stretch:normal;font-size:14.5455px;font-family:Arial;-inkscape-font-specification:'Arial, Normal';font-variant-ligatures:normal;font-variant-caps:normal;font-variant-numeric:normal;font-variant-east-asian:normal;fill:#ffffff;fill-opacity:1">erstelle Text aus</text>
      </g>
    </g>
    <g
       class="blocklyBubbleCanvas"
       transform="matrix(1.1,0,0,1.1,213.73906,7)"
       id="g62">
      <g
         transform="translate(60.786938,237.68182)"
         id="g61">
        <g
           filter="url(#blocklyEmbossFilter008585515602564264)"
           id="g35">
          <path
             d="M 137.46729,73.849335 C 136.765,32.356834 62.267822,-66.52984 62.267822,-66.52984 c 0,0 37.181924,113.188004 37.884218,154.680505 z"
             fill="#6638a5"
             id="path34" />
          <rect
             class="blocklyDraggable"
             x="0"
             y="0"
             rx="6"
             ry="6"
             width="237.61932"
             height="162"
             fill="#6638a5"
             id="rect34" />
        </g>
        <svg
           x="6"
           y="6"
           width="225.61932"
           height="150"
           version="1.1"
           id="svg60"
           style="display:inline">
          <g
             class="blocklyWorkspace"
             id="g60">
            <rect
               height="100%"
               width="100%"
               class="blocklyMutatorBackground"
               id="rect35"
               x="0"
               y="0"
               style="fill:#ffffff;fill-opacity:1" />
            <g
               class="blocklyFlyout"
               style="display:inline"
               id="g43">
              <path
                 class="blocklyFlyoutBackground"
                 d="m 0,0 h 85.309658 a 8,8 0 0 1 8,8 v 134 a 8,8 0 0 1 -8,8 H 0 Z"
                 id="path35"
                 style="display:inline;fill:#dddddd;fill-opacity:1" />
              <g
                 class="blocklyWorkspace"
                 id="g42">
                <g
                   class="blocklyBlockCanvas"
                   transform="translate(0,2)"
                   id="g39">
                  <rect
                     fill-opacity="0"
                     width="58.309658"
                     height="29"
                     x="16"
                     y="8"
                     id="rect36" />
                  <g
                     class="blocklyDraggable"
                     transform="translate(16,8)"
                     id="g38">
                    <path
                       class="blocklyPathDark"
                       transform="translate(1,1)"
                       fill="#522d84"
                       d="M 0,8 A 8,8 0 0 1 8,0 h 7 l 6,4 h 3 L 30,0 H 58.309658 V 24 H 29.5 l -6,4 h -3 l -6,-4 H 8 A 8,8 0 0 1 0,16 Z"
                       id="path36" />
                    <path
                       class="blocklyPath"
                       fill="#6638a5"
                       d="M 0,8 A 8,8 0 0 1 8,0 h 7 l 6,4 h 3 L 30,0 H 58.309658 V 24 H 29.5 l -6,4 h -3 l -6,-4 H 8 A 8,8 0 0 1 0,16 Z"
                       id="path37" />
                    <text
                       class="blocklyText"
                       y="12.5"
                       transform="translate(10,5)"
                       id="text38"
                       style="font-style:normal;font-variant:normal;font-weight:normal;font-stretch:normal;font-size:14.5455px;font-family:Arial;-inkscape-font-specification:'Arial, Normal';font-variant-ligatures:normal;font-variant-caps:normal;font-variant-numeric:normal;font-variant-east-asian:normal;fill:#ffffff;fill-opacity:1">etwas</text>
                  </g>
                </g>
                <g
                   class="blocklyBubbleCanvas"
                   transform="translate(0,2)"
                   id="g40" />
                <g
                   class="blocklyScrollbarVertical"
                   transform="translate(75.809658,2.5)"
                   display="none"
                   id="g41">
                  <rect
                     class="blocklyScrollbarBackground"
                     width="15"
                     height="145"
                     id="rect40"
                     x="0"
                     y="0"
                     style="display:inline" />
                  <rect
                     class="blocklyScrollbarHandle"
                     rx="5"
                     ry="5"
                     width="10"
                     x="2.5"
                     height="470.44446"
                     y="0"
                     id="rect41" />
                </g>
              </g>
            </g>
            <g
               class="blocklyBlockCanvas"
               id="g58">
              <g
                 transform="translate(109.30966,16)"
                 id="g57">
                <path
                   class="blocklyPathDark"
                   transform="translate(1,1)"
                   fill="#522d84"
                   d="M 0,8 A 8,8 0 0 1 8,0 h 42 v 25 0 l -6,4 h -3 l -6,-4 h -7 a 8,8 0 0 0 -8,8 v 62 a 8,8 0 0 0 8,8 h 22 v 10 H 8 a 8,8 0 0 1 -8,-8 z"
                   id="path43"
                   style="display:inline" />
                <path
                   class="blocklyPath"
                   fill="#6638a5"
                   d="M 0,8 A 8,8 0 0 1 8,0 h 42 v 25 0 l -6,4 h -3 l -6,-4 h -7 a 8,8 0 0 0 -8,8 v 62 a 8,8 0 0 0 8,8 h 22 v 10 H 8 a 8,8 0 0 1 -8,-8 z"
                   id="path44"
                   style="display:inline" />
                <text
                   class="blocklyText"
                   y="12.5"
                   transform="translate(10,5)"
                   id="text45"
                   style="font-style:normal;font-variant:normal;font-weight:normal;font-stretch:normal;font-size:14.5455px;font-family:Arial;-inkscape-font-specification:'Arial, Normal';font-variant-ligatures:normal;font-variant-caps:normal;font-variant-numeric:normal;font-variant-east-asian:normal;fill:#ffffff;fill-opacity:1">Text</text>
                <g
                   class="blocklyDraggable"
                   transform="translate(21,26)"
                   id="g56">
                  <path
                     class="blocklyPathDark"
                     transform="translate(1,1)"
                     fill="#522d84"
                     d="M 0,8 A 8,8 0 0 1 8,0 h 7 l 6,4 h 3 L 30,0 H 58.309658 V 24 H 29.5 l -6,4 h -3 l -6,-4 H 0 Z"
                     id="path46" />
                  <path
                     class="blocklyPath"
                     fill="#6638a5"
                     d="M 0,8 A 8,8 0 0 1 8,0 h 7 l 6,4 h 3 L 30,0 H 58.309658 V 24 H 29.5 l -6,4 h -3 l -6,-4 H 0 Z"
                     id="path47" />
                  <text
                     class="blocklyText"
                     y="12.5"
                     transform="translate(10,5)"
                     id="text48"
                     style="font-style:normal;font-variant:normal;font-weight:normal;font-stretch:normal;font-size:14.5455px;font-family:Arial;-inkscape-font-specification:'Arial, Normal';font-variant-ligatures:normal;font-variant-caps:normal;font-variant-numeric:normal;font-variant-east-asian:normal;fill:#ffffff;fill-opacity:1">etwas</text>
                  <g
                     class="blocklyDraggable"
                     transform="translate(0,25)"
                     id="g55">
                    <path
                       class="blocklyPathDark"
                       transform="translate(1,1)"
                       fill="#522d84"
                       d="m 0,0 h 15 l 6,4 h 3 L 30,0 H 58.309658 V 24 H 29.5 l -6,4 h -3 l -6,-4 H 0 Z"
                       id="path49" />
                    <path
                       class="blocklyPath"
                       fill="#6638a5"
                       d="m 0,0 h 15 l 6,4 h 3 L 30,0 H 58.309658 V 24 H 29.5 l -6,4 h -3 l -6,-4 H 0 Z"
                       id="path50" />
                    <text
                       class="blocklyText"
                       y="12.5"
                       transform="translate(10,5)"
                       id="text51"
                       style="font-style:normal;font-variant:normal;font-weight:normal;font-stretch:normal;font-size:14.5455px;font-family:Arial;-inkscape-font-specification:'Arial, Normal';font-variant-ligatures:normal;font-variant-caps:normal;font-variant-numeric:normal;font-variant-east-asian:normal;fill:#ffffff;fill-opacity:1">etwas</text>
                    <g
                       class="blocklyDraggable"
                       transform="translate(0,25)"
                       id="g54">
                      <path
                         class="blocklyPathDark"
                         transform="translate(1,1)"
                         fill="#522d84"
                         d="m 0,0 h 15 l 6,4 h 3 L 30,0 H 58.309658 V 24 H 29.5 l -6,4 h -3 l -6,-4 H 8 A 8,8 0 0 1 0,16 Z"
                         id="path52" />
                      <path
                         class="blocklyPath"
                         fill="#6638a5"
                         d="m 0,0 h 15 l 6,4 h 3 L 30,0 H 58.309658 V 24 H 29.5 l -6,4 h -3 l -6,-4 H 8 A 8,8 0 0 1 0,16 Z"
                         id="path53" />
                      <text
                         class="blocklyText"
                         y="12.5"
                         transform="translate(10,5)"
                         id="text54"
                         style="font-style:normal;font-variant:normal;font-weight:normal;font-stretch:normal;font-size:14.5455px;font-family:Arial;-inkscape-font-specification:'Arial, Normal';font-variant-ligatures:normal;font-variant-caps:normal;font-variant-numeric:normal;font-variant-east-asian:normal;fill:#ffffff;fill-opacity:1">etwas</text>
                    </g>
                  </g>
                </g>
              </g>
            </g>
            <g
               class="blocklyBubbleCanvas"
               id="g59" />
          </g>
        </svg>
      </g>
    </g>
  </g>
</svg>
