<?xml version="1.0" encoding="UTF-8" standalone="no"?>
<svg
   version="1.1"
   class="blocklySvg"
   width="82.9375"
   height="29"
   id="svg72"
   xmlns="http://www.w3.org/2000/svg"
   xmlns:svg="http://www.w3.org/2000/svg">
  <defs
     id="defs2" />
  <g
     class="blocklyWorkspace"
     id="g72"
     transform="translate(-16,-63)">
    <g
       class="blocklyFlyout"
       style="display:block"
       id="g63">
      <g
         class="blocklyWorkspace"
         id="g62">
        <g
           class="blocklyBlockCanvas"
           transform="translate(0,2)"
           id="g59">
          <g
             class="blocklyDraggable"
             transform="translate(16,61)"
             id="g46">
            <path
               class="blocklyPathDark"
               transform="translate(1,1)"
               fill="#5b3084"
               d="M 0,8 A 8,8 0 0 1 8,0 h 7 l 6,4 h 3 L 30,0 H 81.9375 V 24 H 29.5 l -6,4 h -3 l -6,-4 H 8 A 8,8 0 0 1 0,16 Z"
               id="path44" />
            <path
               class="blocklyPath"
               fill="#723ca5"
               d="M 0,8 A 8,8 0 0 1 8,0 h 7 l 6,4 h 3 L 30,0 H 81.9375 V 24 H 29.5 l -6,4 h -3 l -6,-4 H 8 A 8,8 0 0 1 0,16 Z"
               id="path45" />
            <text
               class="blocklyText"
               y="12.5"
               transform="translate(10,5)"
               id="text46"
               style="font-style:normal;font-variant:normal;font-weight:normal;font-stretch:normal;font-size:14.6667px;font-family:Arial;-inkscape-font-specification:'Arial, Normal';font-variant-ligatures:normal;font-variant-caps:normal;font-variant-numeric:normal;font-variant-east-asian:normal;fill:#fbfbfb;fill-opacity:1">drehe um</text>
          </g>
        </g>
      </g>
    </g>
  </g>
</svg>
