<?xml version="1.0" encoding="UTF-8" standalone="no"?>
<svg
   version="1.1"
   class="blocklySvg"
   width="248.875"
   height="33"
   id="svg128"
   xmlns="http://www.w3.org/2000/svg"
   xmlns:svg="http://www.w3.org/2000/svg">
  <defs
     id="defs2" />
  <g
     class="blocklyWorkspace"
     id="g128"
     transform="translate(-17.6,-1119.6)">
    <g
       class="blocklyFlyout"
       style="display:block"
       id="g119">
      <g
         class="blocklyWorkspace"
         id="g118">
        <g
           class="blocklyBlockCanvas"
           transform="matrix(1.1,0,0,1.1,0,2)"
           id="g115">
          <g
             class="blocklyDraggable"
             transform="translate(16,1016)"
             id="g59">
            <path
               class="blocklyPathDark"
               transform="translate(1,1)"
               fill="#5b3084"
               d="M 0,8 A 8,8 0 0 1 8,0 h 7 l 6,4 h 3 L 30,0 H 225.25 V 25 H 29.5 l -6,4 h -3 l -6,-4 H 8 A 8,8 0 0 1 0,17 Z"
               id="path55" />
            <path
               class="blocklyPath"
               fill="#723ca5"
               d="M 0,8 A 8,8 0 0 1 8,0 h 7 l 6,4 h 3 L 30,0 H 225.25 V 25 H 29.5 l -6,4 h -3 l -6,-4 H 8 A 8,8 0 0 1 0,17 Z"
               id="path56" />
            <text
               class="blocklyText"
               y="12.5"
               transform="translate(10,5)"
               id="text57"
               style="font-style:normal;font-variant:normal;font-weight:normal;font-stretch:normal;font-size:14.5455px;font-family:Arial;-inkscape-font-specification:'Arial, Normal';font-variant-ligatures:normal;font-variant-caps:normal;font-variant-numeric:normal;font-variant-east-asian:normal;fill:#ffffff;fill-opacity:1">drehe um</text>
            <g
               class="blocklyEditableText"
               transform="translate(81.9375,5)"
               id="g58">
              <rect
                 rx="4"
                 ry="4"
                 x="-5"
                 y="0"
                 height="16"
                 width="52.578125"
                 id="rect57"
                 style="fill:#c6b1db;fill-opacity:1" />
              <text
                 class="blocklyText"
                 y="12.5"
                 id="text58"
                 style="font-style:normal;font-variant:normal;font-weight:normal;font-stretch:normal;font-size:14.5455px;font-family:Arial;-inkscape-font-specification:'Arial, Normal';font-variant-ligatures:normal;font-variant-caps:normal;font-variant-numeric:normal;font-variant-east-asian:normal;fill:#000000;fill-opacity:1">15 °<tspan
   style="font-style:normal;font-variant:normal;font-weight:normal;font-stretch:normal;font-size:14.5455px;font-family:Arial;-inkscape-font-specification:'Arial, Normal';font-variant-ligatures:normal;font-variant-caps:normal;font-variant-numeric:normal;font-variant-east-asian:normal;fill:#000000;fill-opacity:1"
   id="tspan57">▾</tspan></text>
            </g>
            <text
               class="blocklyText"
               y="12.5"
               transform="translate(134.51562,5)"
               id="text59"
               style="font-style:normal;font-variant:normal;font-weight:normal;font-stretch:normal;font-size:14.5455px;font-family:Arial;-inkscape-font-specification:'Arial, Normal';font-variant-ligatures:normal;font-variant-caps:normal;font-variant-numeric:normal;font-variant-east-asian:normal;fill:#ffffff;fill-opacity:1">nach links ↺</text>
          </g>
        </g>
      </g>
    </g>
  </g>
</svg>
