<?xml version="1.0" encoding="UTF-8" standalone="no"?>
<svg
   version="1.1"
   class="blocklySvg"
   width="247.17343"
   height="44"
   id="svg128"
   xmlns="http://www.w3.org/2000/svg"
   xmlns:svg="http://www.w3.org/2000/svg">
  <defs
     id="defs2" />
  <g
     class="blocklyWorkspace"
     id="g128"
     transform="translate(-17.6,-574)">
    <g
       class="blocklyFlyout"
       style="display:block"
       id="g119">
      <g
         class="blocklyWorkspace"
         id="g118">
        <g
           class="blocklyBlockCanvas"
           transform="matrix(1.1,0,0,1.1,0,2)"
           id="g115">
          <g
             class="blocklyDraggable"
             transform="translate(16,520)"
             id="g23">
            <path
               class="blocklyPathDark"
               transform="translate(1,1)"
               fill="#5b3084"
               d="M 0,8 A 8,8 0 0 1 8,0 h 7 l 6,4 h 3 L 30,0 H 40 223.70312 V 35 H 29.5 l -6,4 h -3 l -6,-4 H 8 A 8,8 0 0 1 0,27 Z M 102.4375,5 h -14.5 v 5 c 0,10 -8,-8 -8,7.5 0,15.5 8,-2.5 8,7.5 v 6 h 14.5 z"
               id="path20" />
            <path
               class="blocklyPath"
               fill="#723ca5"
               d="M 0,8 A 8,8 0 0 1 8,0 h 7 l 6,4 h 3 L 30,0 H 40 223.70312 V 35 H 29.5 l -6,4 h -3 l -6,-4 H 8 A 8,8 0 0 1 0,27 Z M 102.4375,5 h -14.5 v 5 c 0,10 -8,-8 -8,7.5 0,15.5 8,-2.5 8,7.5 v 6 h 14.5 z"
               id="path21" />
            <text
               class="blocklyText"
               y="12.5"
               transform="translate(10,10)"
               id="text22"
               style="font-style:normal;font-variant:normal;font-weight:normal;font-stretch:normal;font-size:14.5455px;font-family:Arial;-inkscape-font-specification:'Arial, Normal';font-variant-ligatures:normal;font-variant-caps:normal;font-variant-numeric:normal;font-variant-east-asian:normal;fill:#ffffff;fill-opacity:1">drehe um</text>
            <text
               class="blocklyText"
               y="12.5"
               transform="translate(112.4375,10)"
               id="text23"
               style="font-style:normal;font-variant:normal;font-weight:normal;font-stretch:normal;font-size:14.5455px;font-family:Arial;-inkscape-font-specification:'Arial, Normal';font-variant-ligatures:normal;font-variant-caps:normal;font-variant-numeric:normal;font-variant-east-asian:normal;fill:#ffffff;fill-opacity:1">° nach rechts ↻</text>
          </g>
        </g>
      </g>
    </g>
  </g>
</svg>
