<?xml version="1.0" encoding="UTF-8" standalone="no"?>
<!-- Created with Inkscape (http://www.inkscape.org/) -->

<svg
   xmlns:dc="http://purl.org/dc/elements/1.1/"
   xmlns:cc="http://creativecommons.org/ns#"
   xmlns:rdf="http://www.w3.org/1999/02/22-rdf-syntax-ns#"
   xmlns:svg="http://www.w3.org/2000/svg"
   xmlns="http://www.w3.org/2000/svg"
   xmlns:sodipodi="http://sodipodi.sourceforge.net/DTD/sodipodi-0.dtd"
   xmlns:inkscape="http://www.inkscape.org/namespaces/inkscape"
   width="71.151497mm"
   height="71.151497mm"
   viewBox="0 0 71.151499 71.151497"
   version="1.1"
   id="svg2828"
   inkscape:version="0.92.5 (2060ec1f9f, 2020-04-08)"
   sodipodi:docname="turm_start.svg">
  <defs
     id="defs2822" />
  <sodipodi:namedview
     id="base"
     pagecolor="#ffffff"
     bordercolor="#666666"
     borderopacity="1.0"
     inkscape:pageopacity="0.0"
     inkscape:pageshadow="2"
     inkscape:zoom="1.979899"
     inkscape:cx="137.43793"
     inkscape:cy="132.46846"
     inkscape:document-units="mm"
     inkscape:current-layer="layer1"
     showgrid="false"
     fit-margin-top="0"
     fit-margin-left="0"
     fit-margin-right="0"
     fit-margin-bottom="0"
     inkscape:snap-global="false"
     inkscape:window-width="1920"
     inkscape:window-height="1003"
     inkscape:window-x="0"
     inkscape:window-y="0"
     inkscape:window-maximized="1" />
  <metadata
     id="metadata2825">
    <rdf:RDF>
      <cc:Work
         rdf:about="">
        <dc:format>image/svg+xml</dc:format>
        <dc:type
           rdf:resource="http://purl.org/dc/dcmitype/StillImage" />
        <dc:title></dc:title>
      </cc:Work>
    </rdf:RDF>
  </metadata>
  <g
     inkscape:label="Layer 1"
     inkscape:groupmode="layer"
     id="layer1"
     transform="translate(401.08232,77.746604)">
    <path
       style="opacity:1;vector-effect:none;fill:#ac9d93;fill-opacity:1;stroke:none;stroke-width:1.6665231;stroke-linecap:round;stroke-linejoin:round;stroke-miterlimit:4;stroke-dasharray:none;stroke-dashoffset:0;stroke-opacity:1"
       id="path11"
       d="m -336.17005,-77.746604 v 57.554164 h -58.67304 v -57.554164"
       inkscape:connector-curvature="0"
       sodipodi:nodetypes="cccc" />
    <path
       style="fill:#44aa00;stroke-width:0.16336015"
       d="m -352.08388,-27.642927 c -0.0321,9.7e-5 -0.10801,0.206576 -0.22117,0.609449 -0.30051,1.070022 -0.48633,2.131791 -0.60048,3.430952 -0.0598,0.680921 -0.1288,0.913479 -0.26097,0.879488 -0.0811,-0.02198 -0.13555,-0.148217 -0.25683,-0.599365 -0.16479,-0.612819 -0.21188,-0.695865 -0.21188,-0.377307 0,0.320633 -0.0717,0.689224 -0.15709,0.807578 -0.0712,0.09864 -0.13829,0.02198 -0.68523,-0.791169 -0.3334,-0.494953 -0.62514,-0.899682 -0.64854,-0.899682 -0.028,0 -0.021,0.123799 0.0202,0.362144 0.1025,0.594115 0.0904,2.009627 -0.0233,2.750812 -0.0503,0.3283 -0.0973,0.644196 -0.10439,0.702824 -0.008,0.06276 -0.0763,0.107195 -0.16743,0.107195 -0.11554,0 -0.16694,-0.04518 -0.20309,-0.178008 -0.0647,-0.237587 -0.26367,-0.453637 -0.56689,-0.615773 -0.26065,-0.139427 -0.76843,-0.278878 -0.76843,-0.210728 0,0.02198 0.14697,0.23832 0.3266,0.482012 0.17963,0.243692 0.32659,0.477397 0.32659,0.518615 0,0.04126 0.0104,0.135275 0.0233,0.209506 0.021,0.121358 2.10736,13.8592793 2.10736,13.8592793 h 49.00399 V -20.769718 c -0.11201,-0.04615 -0.61936,-0.103291 -0.89787,-0.08082 -0.33272,0.0271 -0.52076,0.0097 -0.54777,-0.05055 -0.0226,-0.05005 -0.0408,-0.218297 -0.0408,-0.373499 0,-0.266082 0.0161,-0.299632 0.28784,-0.598118 0.15848,-0.174101 0.28836,-0.340022 0.28836,-0.369714 0,-0.149194 -0.88959,-0.292601 -1.76734,-0.283909 l -0.94154,0.0097 -0.53795,0.320487 c -0.65757,0.39291 -0.77268,0.434031 -0.84595,0.299071 -0.0654,-0.12038 -0.0744,-0.449388 -0.0191,-0.678869 0.0207,-0.08595 0.15119,-0.355672 0.28991,-0.600634 0.1387,-0.244962 0.2443,-0.463016 0.23461,-0.484552 -0.0188,-0.04176 -0.55684,0.355478 -1.31155,0.969103 -0.25359,0.206088 -0.63981,0.573335 -0.85834,0.815147 -0.43712,0.483623 -0.51509,0.483061 -0.53692,-0.0013 -0.009,-0.207553 0.0251,-0.364708 0.16174,-0.736936 0.0954,-0.260076 0.19213,-0.55004 0.21498,-0.644783 0.0411,-0.170437 0.04,-0.171414 -0.12299,-0.02784 -0.19593,0.172636 -0.59339,0.677943 -0.62632,0.796223 -0.0128,0.04591 -0.0813,0.08326 -0.15193,0.08326 -0.10953,0 -0.13455,-0.03858 -0.17053,-0.267524 -0.0232,-0.14773 -0.0424,-0.398038 -0.0424,-0.555193 0,-0.157252 -0.006,-0.285178 -0.0139,-0.285178 -0.0285,0 -0.5879,0.659701 -0.75448,0.889597 -0.0951,0.131369 -0.26297,0.432468 -0.3731,0.67003 -0.18318,0.395109 -0.20857,0.424166 -0.29611,0.335651 -0.11455,-0.115741 -0.19142,-0.429806 -0.32866,-1.336276 l -0.10283,-0.678871 -0.0909,0.2738 c -0.0688,0.206576 -0.11999,0.272554 -0.21188,0.272554 -0.18347,0 -0.23357,-0.202425 -0.30541,-1.230278 -0.0639,-0.913942 -0.0552,-1.457976 0.0419,-2.54387 0.036,-0.402531 -0.0494,-0.259832 -0.23048,0.384878 -0.3005,1.069997 -0.48632,2.133036 -0.60048,3.432197 -0.0598,0.680921 -0.1288,0.912208 -0.26096,0.878219 -0.0811,-0.02198 -0.13554,-0.148218 -0.25683,-0.599365 -0.16478,-0.612819 -0.21136,-0.695865 -0.21136,-0.377283 0,0.320609 -0.0722,0.689198 -0.15761,0.807577 -0.0712,0.09864 -0.13777,0.02198 -0.68472,-0.789923 -0.33339,-0.494953 -0.62565,-0.900951 -0.64905,-0.900951 -0.028,0 -0.021,0.12502 0.0202,0.363413 0.10251,0.594115 0.0909,2.008358 -0.0227,2.749542 -0.0503,0.328301 -0.0978,0.645467 -0.1049,0.704095 -0.008,0.06275 -0.0763,0.105973 -0.16743,0.105973 0.0297,-0.989247 -0.29025,-2.237838 -0.35657,-2.873195 -0.32224,1.216384 -1.38938,4.478779 -0.95808,-1.553329 0.0552,-0.772219 -0.37023,1.694514 -0.80874,3.424628 -0.33271,0.02711 -0.52022,0.0097 -0.54725,-0.05055 -0.0226,-0.05031 -0.0413,-0.218297 -0.0413,-0.373498 0,-0.266083 0.0165,-0.299633 0.28835,-0.598119 0.1585,-0.174101 0.28784,-0.341292 0.28784,-0.370983 0,-0.149195 -0.88959,-0.291356 -1.76733,-0.282639 l -0.94155,0.0097 -0.53795,0.32178 c -0.65757,0.392886 -0.77216,0.432736 -0.84543,0.297778 -0.0653,-0.120381 -0.075,-0.448095 -0.0196,-0.6776 0.0207,-0.08595 0.15119,-0.356943 0.28991,-0.601905 0.13871,-0.244961 0.24431,-0.463014 0.23461,-0.484526 -0.0188,-0.04175 -0.55685,0.356722 -1.31155,0.970348 -0.25359,0.206087 -0.63981,0.57209 -0.85835,0.813877 -0.43712,0.483623 -0.51509,0.483086 -0.53691,-0.0013 -0.009,-0.207309 0.0251,-0.363437 0.16174,-0.735642 0.0955,-0.2601 0.19265,-0.55131 0.21549,-0.646052 0.0411,-0.170437 0.0395,-0.169949 -0.1235,-0.02661 -0.19593,0.172635 -0.59338,0.677942 -0.62632,0.796223 -0.0128,0.04591 -0.0813,0.08326 -0.15193,0.08326 -0.10953,0 -0.13456,-0.0398 -0.17053,-0.268769 -0.0232,-0.14773 -0.0419,-0.396793 -0.0419,-0.553923 0,-0.157252 -0.006,-0.286448 -0.0139,-0.286448 -0.0285,0 -0.58842,0.659703 -0.755,0.889598 -0.0124,0.01709 -0.0325,0.05469 -0.047,0.07692 -0.1959,-0.01221 -0.40144,-0.01954 -0.60772,-0.01709 l -0.27957,0.0024 c -0.0203,-0.121845 -0.0402,-0.236855 -0.0636,-0.391176 l -0.10283,-0.67887 -0.0904,0.272553 c -0.0688,0.206577 -0.12049,0.272555 -0.21239,0.272555 -0.18346,0 -0.23358,-0.202426 -0.30541,-1.230278 -0.0639,-0.913942 -0.0547,-1.456731 0.0424,-2.5426 0.036,-0.402531 -0.0494,-0.259857 -0.23048,0.384852 -0.3005,1.070023 -0.48633,2.131792 -0.60048,3.430928 -0.0598,0.680945 -0.12879,0.913479 -0.26096,0.879513 -0.0715,-0.01954 -0.12904,-0.157985 -0.22325,-0.490851 0.0356,-0.106463 0.14566,-0.336554 0.27234,-0.560272 0.1387,-0.244962 0.2443,-0.463015 0.23461,-0.484551 -0.0124,-0.0276 -0.30118,0.182403 -0.68006,0.474466 -0.0471,-0.12331 -0.0683,-0.104997 -0.0708,0.05421 -0.17961,0.139426 -0.33357,0.25573 -0.56069,0.440379 -7.9e-4,6.59e-4 -0.002,0.002 -0.003,0.0024 -0.0871,-0.122823 -0.13304,-0.178008 -0.28008,-0.396207 -0.3334,-0.494953 -0.62514,-0.899681 -0.64854,-0.899681 -0.028,0 -0.0215,0.123799 0.0196,0.362142 0.0654,0.378968 0.0792,1.086114 0.0548,1.745109 -2.7e-4,3.17e-4 -8e-4,6.59e-4 -10e-4,0.0013 -0.43712,0.483624 -0.51509,0.483185 -0.53692,-0.0013 -0.009,-0.207554 0.0251,-0.364708 0.16175,-0.736913 0.0955,-0.2601 0.19264,-0.550039 0.21549,-0.644782 0.0411,-0.170438 0.0395,-0.169949 -0.12351,-0.02661 -0.19592,0.172635 -0.59338,0.676672 -0.62632,0.794953 -0.0128,0.04591 -0.0813,0.08449 -0.15193,0.08449 -0.10953,0 -0.13456,-0.0398 -0.17053,-0.268771 -0.0232,-0.147728 -0.0419,-0.396791 -0.0419,-0.553946 0,-0.157253 -0.006,-0.286424 -0.0139,-0.286424 -0.0285,0 -0.58841,0.659678 -0.75499,0.889597 -0.0951,0.131125 -0.26297,0.432469 -0.37311,0.670031 -0.18317,0.395108 -0.20806,0.424165 -0.29558,0.335651 -0.11456,-0.115743 -0.19194,-0.428537 -0.32918,-1.335031 l -0.10284,-0.678871 -0.0904,0.272555 c -0.0688,0.206576 -0.1205,0.272554 -0.2124,0.272554 -0.18345,0 -0.23358,-0.202426 -0.3054,-1.230278 -0.0639,-0.913942 -0.0547,-1.456707 0.0424,-2.5426 0.036,-0.402531 -0.0494,-0.261102 -0.23047,0.383607 -0.3005,1.070022 -0.48633,2.133036 -0.60048,3.432173 -0.0598,0.680945 -0.1288,0.913502 -0.26097,0.879512 -0.0811,-0.02198 -0.13606,-0.148217 -0.25735,-0.599365 -0.16478,-0.612843 -0.21135,-0.697134 -0.21135,-0.378552 0,0.320609 -0.0717,0.689199 -0.1571,0.807553 -0.0712,0.09865 -0.13828,0.02198 -0.68523,-0.789898 -0.3334,-0.494954 -0.62514,-0.899682 -0.64854,-0.899682 -0.028,0 -0.0215,0.123799 0.0196,0.362144 0.1025,0.594114 0.0909,2.008357 -0.0227,2.749541 -0.0504,0.328301 -0.0973,0.645466 -0.10439,0.704095 -0.008,0.06275 -0.0763,0.105974 -0.16743,0.105974 0.0297,-0.989126 -0.29021,-2.237766 -0.35657,-2.873196 -0.32187,1.215481 -1.39003,4.48188 -0.95859,-1.552058 0.0552,-0.77222 -0.37024,1.693243 -0.80874,3.423358 -0.33272,0.02711 -0.52023,0.0097 -0.54725,-0.05055 -0.0226,-0.05031 -0.0413,-0.218296 -0.0413,-0.373497 0,-0.266084 0.0165,-0.299634 0.28835,-0.59812 0.1585,-0.174101 0.28784,-0.341291 0.28784,-0.370983 0,-0.149194 -0.8896,-0.291356 -1.76734,-0.282639 l -0.94102,0.0097 -0.53795,0.32178 c -0.65758,0.392863 -0.77268,0.433982 -0.84595,0.299048 -0.0654,-0.120381 -0.075,-0.449365 -0.0196,-0.678869 0.0207,-0.08595 0.15119,-0.356943 0.28991,-0.601905 0.13871,-0.244961 0.24431,-0.463014 0.23461,-0.484527 -0.0188,-0.04176 -0.55684,0.356723 -1.31155,0.970348 -0.25359,0.206088 -0.63981,0.572089 -0.85835,0.813877 -0.43711,0.483623 -0.51457,0.484429 -0.5364,0 -0.009,-0.207309 0.0251,-0.364708 0.16175,-0.736912 0.0955,-0.260101 0.19213,-0.550064 0.21498,-0.644806 0.0411,-0.170438 0.0395,-0.171171 -0.12351,-0.02784 -0.19592,0.172636 -0.59338,0.677967 -0.62632,0.796248 -0.0128,0.04591 -0.0808,0.08326 -0.15141,0.08326 -0.10954,0 -0.13508,-0.0398 -0.17105,-0.268769 -0.0232,-0.14773 -0.0419,-0.396793 -0.0419,-0.553948 0,-0.157251 -0.006,-0.285178 -0.0139,-0.285178 -0.0285,0 -0.5879,0.658432 -0.75448,0.888328 -0.0951,0.131369 -0.26296,0.433737 -0.3731,0.671301 -0.18318,0.395132 -0.20858,0.422895 -0.29611,0.334404 -0.11455,-0.115741 -0.19142,-0.428536 -0.32866,-1.335031 l -0.10284,-0.678869 -0.0909,0.272553 c -0.0688,0.206577 -0.12049,0.272554 -0.21239,0.272554 -0.18346,0 -0.23358,-0.201204 -0.3054,-1.229033 -0.0639,-0.913917 -0.0547,-1.457975 0.0424,-2.543844 0.0135,-0.150904 0.01,-0.224647 -0.009,-0.224647 z m 11.25565,4.365941 c 0.0613,-0.231726 0.10428,-0.413201 0.0951,-0.41513 -0.1108,-0.02442 -0.12314,0.146508 -0.0951,0.41513 z m 21.61625,0.299048 c 0.0615,-0.232215 0.10481,-0.413177 0.0956,-0.415131 -0.11077,-0.02442 -0.12362,0.146752 -0.0956,0.415131 z"
       id="path5155-7-4-9"
       inkscape:connector-curvature="0"
       sodipodi:nodetypes="cccccsccscccsccscsccccccscsccccccccccccccscssccccccsccccccsccsccccccccscsccccccccccccccscsscccccccscssscccccccccsccccccccscssccccccsccccccsccsccccccccscsccccccccccccccssssccccccscccccccccc" />
    <path
       style="fill:#c8ab37;fill-rule:evenodd;stroke:none;stroke-width:0.40608662px;stroke-linecap:butt;stroke-linejoin:miter;stroke-opacity:1"
       d="m -350.31023,-6.5951048 c -2.35542,-1.6635664 -4.34191,-4.0067402 -5.36237,-13.9326162 h -20.53016 c -1.25555,6.087259 -4.77429,8.154703 -6.00069,13.9326162"
       id="path5558"
       inkscape:connector-curvature="0"
       sodipodi:nodetypes="cccc" />
    <path
       style="fill:#44aa00;stroke-width:0.16734365"
       d="m -392.14111,-29.37893 c -0.0187,-7.9e-5 -0.0221,0.07983 -0.009,0.243186 0.0941,1.175485 0.10297,1.764417 0.0411,2.753786 -0.0696,1.112758 -0.11821,1.330463 -0.29605,1.330463 -0.0891,0 -0.13917,-0.07137 -0.20589,-0.295049 l -0.0882,-0.295047 -0.0997,0.734896 c -0.0501,0.36959 -0.0907,0.625781 -0.12924,0.835977 -0.0604,-0.178688 -0.10569,-0.483859 -0.10569,-0.762228 0,-0.344847 -0.0451,-0.253494 -0.20488,0.409795 -0.0794,0.329568 -0.129,0.49245 -0.17734,0.57508 -0.0903,-0.214373 -0.20748,-0.449311 -0.29805,-0.606483 -0.009,-0.08776 -0.0186,-0.163886 -0.027,-0.271839 -0.11065,-1.406353 -0.29079,-2.557123 -0.58208,-3.715454 -0.17552,-0.697916 -0.25829,-0.851017 -0.22342,-0.415238 0.094,1.175485 0.10298,1.763068 0.0411,2.752411 -0.0696,1.11276 -0.11821,1.331837 -0.29605,1.331837 -0.0891,0 -0.13916,-0.07137 -0.20588,-0.295048 l -0.0877,-0.295047 -0.0661,0.486292 c -0.10962,-0.150404 -0.22897,-0.308185 -0.31007,-0.387961 -0.15798,-0.155426 -0.15955,-0.154369 -0.11973,0.03013 0.0221,0.102561 0.11585,0.416456 0.20839,0.698022 0.0581,0.176839 0.091,0.297004 0.11571,0.40842 -0.0544,0.35476 -0.10153,0.584173 -0.14827,0.730799 -0.0762,-0.05075 -0.17415,-0.14829 -0.33062,-0.34149 -0.0853,-0.105472 -0.20566,-0.237371 -0.3246,-0.366075 -0.0314,-0.05763 -0.0676,-0.129522 -0.0917,-0.166793 -0.16148,-0.248737 -0.70421,-0.963015 -0.73187,-0.963015 -0.007,0 -0.0135,0.140096 -0.0135,0.310088 0,0.0052 -5.2e-4,0.01057 -5.2e-4,0.01586 -0.52712,-0.466599 -0.92636,-0.797755 -0.94126,-0.760828 -0.009,0.02379 0.093,0.25931 0.22743,0.524514 0.13446,0.265178 0.26091,0.558507 0.28102,0.651579 0.0177,0.08195 0.0263,0.175782 0.0306,0.26909 -0.10774,-0.201157 -0.39668,-0.60265 -0.55754,-0.760853 -0.15798,-0.155428 -0.15954,-0.155692 -0.11972,0.02881 0.0222,0.102561 0.11635,0.416455 0.20888,0.698022 0.0745,0.226796 0.11588,0.377599 0.13776,0.508152 -0.11309,-0.05683 -0.26838,-0.151727 -0.51245,-0.314185 -0.001,-0.510453 0.0176,-0.990612 0.0631,-1.285395 0.0399,-0.257988 0.0462,-0.392031 0.019,-0.392031 -0.0227,0 -0.30549,0.438131 -0.62867,0.973959 -0.11143,0.184767 -0.15487,0.246357 -0.2124,0.334644 l -0.16781,-0.0014 c -0.15803,-0.140889 -0.29757,-0.262217 -0.43781,-0.383837 -0.002,-0.172345 -0.023,-0.192169 -0.0686,-0.05868 -0.36729,-0.316088 -0.64717,-0.543493 -0.65923,-0.513623 -0.009,0.02379 0.093,0.25931 0.22742,0.52454 0.0812,0.160186 0.14647,0.307525 0.19737,0.433003 -0.12726,0.0026 -0.25516,0.0052 -0.3767,0.01321 -0.009,-0.08485 -0.0179,-0.157277 -0.0261,-0.260896 -0.11065,-1.406353 -0.29079,-2.555748 -0.58209,-3.714078 -0.17551,-0.697916 -0.25828,-0.852366 -0.22341,-0.416641 0.0941,1.175512 0.10297,1.763069 0.0411,2.752464 -0.0696,1.112734 -0.11821,1.331812 -0.29605,1.331812 -0.0891,0 -0.13917,-0.07137 -0.20588,-0.295047 l -0.0877,-0.295049 -0.0997,0.734896 c -0.01,0.07005 -0.0174,0.118685 -0.026,0.177632 -0.26198,-1.366676 -0.45659,-2.51015 -0.41928,-1.927404 0.0587,0.916334 0.0867,1.61655 0.0942,2.170537 -0.19362,-0.0014 -0.38664,0.0052 -0.57057,0.0185 -0.0141,-0.02379 -0.0336,-0.06477 -0.0456,-0.08327 -0.0775,-0.119477 -0.24516,-0.348416 -0.39924,-0.551846 0.0111,-0.213315 -0.01,-0.345006 -0.10019,-0.323726 -0.005,0.0014 0.031,0.157541 0.0541,0.264992 -0.14077,-0.183711 -0.27399,-0.352434 -0.28654,-0.352434 -0.007,0 -0.0135,0.140096 -0.0135,0.310088 0,0.169965 -0.0181,0.439769 -0.0406,0.599664 -0.0349,0.247943 -0.0591,0.29095 -0.1653,0.29095 -0.0685,0 -0.13489,-0.04044 -0.14728,-0.09013 -5.3e-4,-0.0021 -0.004,-0.008 -0.005,-0.01057 -1.7e-4,-0.517034 0.0192,-1.00996 0.0651,-1.307255 0.0399,-0.257987 0.0462,-0.39203 0.019,-0.39203 -0.0222,0 -0.29526,0.423513 -0.60913,0.942529 -0.0239,-0.02696 -0.057,-0.07586 -0.0771,-0.09569 -0.15798,-0.155428 -0.15955,-0.155692 -0.11973,0.02881 0.008,0.03753 0.0527,0.173931 0.0766,0.256667 -0.39813,0.654116 -0.50139,0.792864 -0.56355,0.696647 -0.0828,-0.128201 -0.15228,-0.527131 -0.15228,-0.874226 0,-0.344848 -0.0451,-0.253495 -0.20488,0.409794 -0.0247,0.102822 -0.0387,0.136396 -0.0586,0.210409 -0.0263,-0.02379 -0.06,-0.06132 -0.0842,-0.08327 -0.14062,-0.127673 -0.22413,-0.19587 -0.34715,-0.304617 -0.004,-0.04547 -0.009,-0.07586 -0.0125,-0.125557 -0.11065,-1.406352 -0.29078,-2.557123 -0.58208,-3.715453 -0.17551,-0.697916 -0.25828,-0.850991 -0.22341,-0.415239 0.0941,1.175485 0.10298,1.763069 0.0411,2.752438 -0.0226,0.36076 -0.0444,0.601831 -0.0676,0.797728 -0.0385,-0.02379 -0.0761,-0.04837 -0.0796,-0.03965 -0.005,0.01057 0.0194,0.07877 0.0611,0.174724 -0.0459,0.294308 -0.1045,0.39885 -0.20989,0.39885 -0.0891,0 -0.13916,-0.07137 -0.20588,-0.295047 l -0.0877,-0.295048 -0.0997,0.734896 c -0.0364,0.268245 -0.0676,0.481534 -0.0972,0.662496 l -0.2124,-0.141946 -0.57106,-0.0052 c -0.0295,-0.05393 -0.0639,-0.123179 -0.0867,-0.158335 -0.16148,-0.249002 -0.70421,-0.963015 -0.73186,-0.963015 -0.007,0 -0.0135,0.139831 -0.0135,0.310062 0,0.170229 -0.0181,0.439795 -0.0406,0.599663 -0.0162,0.115512 -0.0306,0.183712 -0.0516,0.226797 -0.0788,0.0052 -0.14508,0.01586 -0.21941,0.02379 -0.0186,-0.01586 -0.0367,-0.03093 -0.0416,-0.05048 -0.0319,-0.127937 -0.41722,-0.673783 -0.60713,-0.86056 -0.15798,-0.155427 -0.15955,-0.155691 -0.11972,0.02855 0.0221,0.102561 0.11635,0.416456 0.20888,0.698022 0.0369,0.11234 0.0509,0.177102 0.0736,0.259574 -0.24735,0.05419 -0.42528,0.119479 -0.42528,0.188469 0,0.03225 0.12538,0.213052 0.27901,0.4016 0.0949,0.116308 0.15085,0.191113 0.19236,0.258252 -0.0532,0.170495 -0.17647,0.07058 -0.4834,-0.308713 -2.6e-4,-7.14e-4 -7.9e-4,-7.14e-4 -10e-4,-0.0014 -0.0237,-0.713406 -0.0103,-1.478887 0.0531,-1.889157 0.0399,-0.257987 0.0462,-0.392031 0.019,-0.392031 -0.0214,0 -0.28026,0.402209 -0.58008,0.896087 -0.18215,-0.972505 -0.30493,-1.631194 -0.27501,-1.163801 0.037,0.578119 0.0594,1.051776 0.0751,1.480708 -0.0337,0.0518 -0.0829,0.130845 -0.12023,0.189791 -7.9e-4,-7.13e-4 -0.002,-0.0021 -0.003,-0.0026 -0.22016,-0.199836 -0.3694,-0.325763 -0.54351,-0.476724 -0.002,-0.172344 -0.023,-0.19217 -0.0686,-0.05868 -0.36728,-0.316063 -0.64717,-0.543468 -0.65923,-0.513598 -0.009,0.02379 0.093,0.25931 0.22743,0.524541 0.0346,0.0682 0.0624,0.131901 0.0932,0.197984 0.0105,0.06661 0.0255,0.149877 0.0706,0.340116 0.006,-0.06106 0.008,-0.114716 0.01,-0.165207 0.0406,0.09516 0.0744,0.181068 0.0902,0.233669 -0.0176,0.06952 -0.0293,0.09727 -0.0446,0.151727 -0.018,-0.07189 -0.0412,-0.156749 -0.0561,-0.219924 -0.0146,0.15622 -0.0445,0.354548 -0.0777,0.568261 -0.0124,0.01321 -0.025,0.02775 -0.0381,0.03146 -0.12813,0.03674 -0.19498,-0.214903 -0.25297,-0.952098 -0.11066,-1.406353 -0.29079,-2.555748 -0.58209,-3.714079 -0.17551,-0.697916 -0.25828,-0.852365 -0.22341,-0.41664 0.0941,1.175512 0.10297,1.763095 0.0411,2.752464 -0.0696,1.112733 -0.11822,1.331811 -0.29606,1.331811 -0.0891,0 -0.13916,-0.07137 -0.20588,-0.295047 l -0.0877,-0.295048 -0.0997,0.734896 c -0.0226,0.167059 -0.0419,0.291507 -0.0616,0.423434 l -0.15028,-0.0014 c -0.0133,-0.114989 -0.0236,-0.233141 -0.0236,-0.34831 0,-0.331922 -0.0443,-0.247679 -0.18986,0.349685 -0.16643,6.08e-4 -0.33287,0.0052 -0.49141,0.01586 -0.009,-0.08459 -0.0174,-0.156484 -0.0256,-0.259574 -0.11066,-1.406379 -0.29079,-2.557123 -0.58208,-3.715452 -0.17552,-0.697917 -0.2583,-0.852366 -0.22342,-0.416641 0.094,1.175511 0.10248,1.764443 0.0406,2.753812 -0.0696,1.112759 -0.1182,1.331837 -0.29605,1.331837 -0.0891,0 -0.13866,-0.07137 -0.20538,-0.295047 l -0.0882,-0.296421 -0.0661,0.48764 c -0.10962,-0.150406 -0.22897,-0.308186 -0.31008,-0.387934 -0.15798,-0.155428 -0.15954,-0.155692 -0.11972,0.02881 0.0221,0.102561 0.11636,0.417804 0.20889,0.699371 0.0579,0.176045 0.0904,0.294836 0.11521,0.405696 -0.0544,0.355739 -0.10106,0.586474 -0.14777,0.733522 -0.0763,-0.05022 -0.17442,-0.147762 -0.33112,-0.341491 -0.0853,-0.105472 -0.20566,-0.237369 -0.3246,-0.366073 -0.0314,-0.05763 -0.0676,-0.129522 -0.0917,-0.166794 -0.16147,-0.249 -0.70372,-0.963014 -0.73137,-0.963014 -0.007,0 -0.013,0.138509 -0.013,0.308713 0,0.0053 -5.2e-4,0.01321 -5.2e-4,0.0185 -0.52774,-0.467206 -0.92735,-0.799154 -0.94226,-0.7622 -0.009,0.02379 0.093,0.259309 0.22743,0.52454 0.13446,0.265152 0.26091,0.558507 0.28102,0.651552 0.0178,0.08221 0.0263,0.175517 0.0306,0.269091 -0.10787,-0.201686 -0.39625,-0.604079 -0.55704,-0.762202 -0.15798,-0.155428 -0.15904,-0.154371 -0.11922,0.03013 0.0222,0.102561 0.11586,0.416456 0.20839,0.697996 0.0742,0.225738 0.11478,0.37662 0.13675,0.506777 -0.11791,-0.05921 -0.27637,-0.155956 -0.538,-0.330547 l -0.52147,-0.348337 -0.37921,-0.0053 c -0.66441,-0.598526 -1.148,-0.998699 -1.16517,-0.956168 -0.009,0.02379 0.093,0.25931 0.22743,0.524541 0.0786,0.154898 0.14639,0.304801 0.19987,0.433002 -0.74238,0.01321 -1.43379,0.137717 -1.49579,0.278659 l -0.34264,-0.0052 c -0.28808,-1.482057 -0.50607,-2.794783 -0.46636,-2.174608 0.0587,0.916255 0.0867,1.61655 0.0942,2.170511 -0.3134,-0.0026 -0.61253,0.02115 -0.88365,0.05603 -0.0538,-0.198248 -0.10218,-0.388726 -0.13926,-0.545026 -0.0147,0.157278 -0.0442,0.35698 -0.0777,0.572332 -0.34951,0.05842 -0.5941,0.139039 -0.5941,0.224154 0,0.03225 0.12589,0.211729 0.27952,0.400224 0.0868,0.10653 0.14004,0.178425 0.18133,0.241865 -0.0415,0.284553 -0.0794,0.58005 -0.10469,0.87285 -0.0686,0.0053 -0.17456,1.86e-4 -0.28453,-0.008 -0.005,-0.03278 -0.005,-0.03779 -0.01,-0.0711 -0.11019,-0.802354 -0.12141,-2.333286 -0.022,-2.97646 0.0399,-0.257988 0.0467,-0.393405 0.0195,-0.393405 -0.0227,2.6e-5 -0.30599,0.439504 -0.62917,0.975332 -0.5302,0.87901 -0.59471,0.961931 -0.66374,0.855088 -0.0828,-0.1282 -0.15278,-0.52713 -0.15278,-0.874225 0,-0.344847 -0.0452,-0.25508 -0.20488,0.40842 -0.11758,0.4883 -0.17038,0.626229 -0.24897,0.648856 -0.12811,0.03674 -0.19497,-0.21358 -0.25297,-0.950723 -0.11066,-1.406354 -0.29079,-2.557123 -0.58208,-3.715454 -0.17552,-0.697916 -0.2583,-0.852365 -0.22342,-0.416613 0.0941,1.175511 0.10248,1.764443 0.0406,2.753786 -0.0696,1.112758 -0.11821,1.331837 -0.29605,1.331837 -0.0891,0 -0.13867,-0.07137 -0.20538,-0.295048 l -0.0882,-0.296422 -0.0997,0.734896 c -0.13304,0.981308 -0.20755,1.321159 -0.3186,1.446558 -0.0849,0.09596 -0.10946,0.06423 -0.28703,-0.363351 -0.10676,-0.257195 -0.26948,-0.583248 -0.36167,-0.725327 -0.16147,-0.248736 -0.70373,-0.963014 -0.73136,-0.963014 -0.007,0 -0.0135,0.138509 -0.0135,0.308713 0,0.170229 -0.0186,0.441144 -0.0411,0.601038 -0.0349,0.247944 -0.0591,0.289575 -0.16531,0.289575 -0.0685,0 -0.13483,-0.04044 -0.14727,-0.09013 -0.0319,-0.127937 -0.41721,-0.675131 -0.60713,-0.861908 -0.15798,-0.155427 -0.15904,-0.15437 -0.11922,0.03013 0.0221,0.102561 0.11586,0.416455 0.20839,0.698022 0.13242,0.402921 0.16577,0.573178 0.15679,0.797727 -0.0212,0.524357 -0.0967,0.524911 -0.52047,0.0014 -0.21184,-0.261688 -0.58622,-0.659218 -0.83205,-0.88242 -0.73158,-0.664267 -1.25313,-1.094255 -1.27137,-1.049081 -0.009,0.02379 0.093,0.25931 0.22743,0.524541 0.13447,0.265178 0.26091,0.557133 0.28102,0.650205 0.0536,0.248471 0.0448,0.604579 -0.0185,0.734896 -0.071,0.146175 -0.1826,0.101503 -0.82002,-0.323728 l -0.52147,-0.346962 -0.9127,-0.01058 c -0.85085,-0.01057 -1.71319,0.145647 -1.71319,0.307365 0,0.03225 0.12589,0.21173 0.27952,0.400225 0.26345,0.32312 0.27902,0.359439 0.27902,0.647456 0,0.167851 -0.0176,0.350002 -0.0396,0.404348 -0.0262,0.06503 -0.20845,0.08379 -0.53098,0.05471 -0.26999,-0.023 -0.76156,0.03894 -0.87013,0.08892 v 15.3440079 h 12.07545 35.42695 12.07599 c 0,0 2.02196,-14.8712239 2.0423,-15.0024919 0.0124,-0.08035 0.0225,-0.182124 0.0225,-0.226797 0,-0.04468 0.14246,-0.297691 0.31659,-0.561415 0.17413,-0.263803 0.31659,-0.498398 0.31659,-0.521792 0,-0.07375 -0.49222,0.07718 -0.74489,0.228119 -0.29393,0.175517 -0.48681,0.409318 -0.54952,0.666593 -0.035,0.143797 -0.0849,0.192699 -0.19687,0.192699 -0.0884,0 -0.15491,-0.04811 -0.1623,-0.116047 -0.007,-0.06343 -0.0524,-0.405433 -0.10119,-0.760853 -0.11018,-0.802355 -0.1219,-2.334661 -0.0225,-2.977835 0.0399,-0.257988 0.0472,-0.392031 0.02,-0.392031 -0.0227,0 -0.30549,0.43813 -0.62867,0.973958 -0.53019,0.878984 -0.59521,0.96328 -0.66423,0.856463 -0.0828,-0.1282 -0.15229,-0.527131 -0.15229,-0.874226 0,-0.344874 -0.0457,-0.25508 -0.20538,0.40842 -0.11757,0.488275 -0.17039,0.626229 -0.24897,0.648856 -0.12812,0.03674 -0.19496,-0.214902 -0.25296,-0.952097 -0.11066,-1.406354 -0.29129,-2.555748 -0.58259,-3.714105 -0.10969,-0.436175 -0.18276,-0.659642 -0.2139,-0.659747 h -5.3e-4 c -0.0187,-7.9e-5 -0.0221,0.07983 -0.009,0.243185 0.094,1.175512 0.10298,1.764444 0.0411,2.753813 -0.0696,1.112759 -0.11821,1.330462 -0.29605,1.330462 -0.0891,0 -0.13916,-0.07137 -0.20588,-0.295047 l -0.0882,-0.295047 -0.0997,0.734896 c -0.13304,0.981307 -0.20755,1.31981 -0.31859,1.445184 -0.0848,0.09569 -0.10947,0.06582 -0.28704,-0.361977 -0.10676,-0.257195 -0.26948,-0.584624 -0.36167,-0.726703 -0.16148,-0.249 -0.70372,-0.96164 -0.73136,-0.96164 -0.007,0 -0.0135,0.13851 -0.0135,0.308713 0,0.170231 -0.0181,0.43977 -0.0406,0.599665 -0.0349,0.247943 -0.0596,0.29095 -0.16582,0.29095 -0.0685,0 -0.13438,-0.04044 -0.14677,-0.09013 -0.0319,-0.127936 -0.41721,-0.675157 -0.60713,-0.861934 -0.15798,-0.155427 -0.15954,-0.15437 -0.11972,0.03013 0.0221,0.102561 0.11585,0.416455 0.20838,0.698022 0.13243,0.402921 0.16585,0.573152 0.1568,0.797727 -0.0212,0.52441 -0.0962,0.523537 -0.51997,0 -0.21184,-0.261688 -0.58622,-0.657869 -0.83205,-0.881045 -0.73158,-0.664267 -1.25313,-1.09563 -1.27137,-1.050455 -0.009,0.02379 0.093,0.259309 0.22743,0.52454 0.13446,0.265178 0.26091,0.558507 0.28102,0.651579 0.0537,0.248472 0.0443,0.60458 -0.019,0.734896 -0.071,0.146176 -0.18259,0.101504 -0.82003,-0.323753 l -0.52147,-0.348311 -0.91219,-0.01057 c -0.85085,-0.01057 -1.71319,0.144324 -1.71319,0.305991 0,0.03225 0.12537,0.213315 0.27901,0.401599 0.2635,0.323119 0.27953,0.359438 0.27953,0.647455 0,0.168115 -0.0181,0.350002 -0.0401,0.404322 -0.0233,0.05762 -0.18807,0.07243 -0.44684,0.05603 -0.005,-0.03278 -0.005,-0.03779 -0.01,-0.07111 -0.11019,-0.802354 -0.1219,-2.334687 -0.0225,-2.977834 0.0399,-0.257988 0.0467,-0.392032 0.0195,-0.392032 -0.0214,0 -0.28055,0.401866 -0.58058,0.896087 -0.18198,-0.971262 -0.30442,-1.629582 -0.27451,-1.162454 0.037,0.577329 0.0594,1.050853 0.0751,1.479335 -0.34122,0.55642 -0.45427,0.708278 -0.51295,0.617428 -0.0828,-0.128202 -0.15229,-0.527132 -0.15229,-0.874226 0,-0.344848 -0.0456,-0.255081 -0.20538,0.408445 -0.0323,0.134281 -0.0517,0.188469 -0.0761,0.274562 -0.0185,-0.07375 -0.0423,-0.160713 -0.0576,-0.225475 -0.0147,0.157013 -0.0443,0.356161 -0.0776,0.570984 -0.0122,0.01057 -0.0243,0.02379 -0.0376,0.02881 -0.12812,0.03674 -0.19497,-0.214902 -0.25297,-0.952098 -0.11065,-1.406352 -0.29079,-2.555748 -0.58209,-3.714078 -0.10969,-0.4362 -0.18326,-0.659667 -0.2144,-0.659773 z m -31.86483,5.050013 c 0.0272,-0.290581 0.0147,-0.474741 -0.0927,-0.449418 -0.009,0.0021 0.033,0.197985 0.0927,0.449418 z m 32.93733,-0.773145 c -0.009,0.0021 0.0332,0.198777 0.0927,0.449391 0.0272,-0.290686 0.0147,-0.474688 -0.0927,-0.449391 z"
       id="path5155-7-4-9-8"
       inkscape:connector-curvature="0" />
    <g
       id="g5354"
       transform="matrix(0.26458333,0,0,0.23423518,-438.62524,-137.65079)">
      <path
         sodipodi:nodetypes="csccscc"
         inkscape:connector-curvature="0"
         d="m 267.5376,424.20094 c 1.85579,0 3.3602,1.50441 3.3602,3.3602 v 73.724 h -33.6014 v -73.724 c 0,-1.85579 1.50441,-3.3602 3.3602,-3.3602 z"
         stroke-miterlimit=".1"
         id="path65"
         style="opacity:1;vector-effect:none;fill:#666666;fill-opacity:1;fill-rule:evenodd;stroke:none;stroke-width:2.79999995;stroke-linecap:square;stroke-linejoin:miter;stroke-miterlimit:0.1;stroke-dasharray:none;stroke-dashoffset:0;stroke-opacity:1" />
      <path
         sodipodi:nodetypes="csccsc"
         inkscape:connector-curvature="0"
         d="m 235.92747,500.00423 v -73.66457 c 0,-1.85429 1.5732,-3.35749 3.51385,-3.35749 h 28.11016 c 1.94065,0 3.51385,1.5032 3.51385,3.35749 v 73.66457"
         stroke-miterlimit=".1"
         id="path65-4"
         style="opacity:1;vector-effect:none;fill:#666666;fill-opacity:1;fill-rule:evenodd;stroke:#483e37;stroke-width:2.86214614;stroke-linecap:square;stroke-linejoin:miter;stroke-miterlimit:0.1;stroke-dasharray:none;stroke-dashoffset:0;stroke-opacity:1" />
      <g
         style="fill:#666666"
         transform="matrix(1.0438845,0,0,1.0000152,-13.819012,10.229118)"
         id="g5347">
        <path
           style="opacity:1;vector-effect:none;fill:#666666;fill-opacity:1;fill-rule:evenodd;stroke:none;stroke-width:2.79999995;stroke-linecap:square;stroke-linejoin:miter;stroke-miterlimit:0.1;stroke-dasharray:none;stroke-dashoffset:0;stroke-opacity:1"
           id="path65-7"
           stroke-miterlimit=".1"
           d="m 310.21934,413.96449 c 1.85579,0 3.3602,1.50441 3.3602,3.3602 v 73.724 h -33.6014 v -73.724 c 0,-1.85579 1.50441,-3.3602 3.3602,-3.3602 z"
           inkscape:connector-curvature="0"
           sodipodi:nodetypes="csccscc" />
        <path
           style="opacity:1;vector-effect:none;fill:#666666;fill-opacity:1;fill-rule:evenodd;stroke:#483e37;stroke-width:2.79999995;stroke-linecap:square;stroke-linejoin:miter;stroke-miterlimit:0.1;stroke-dasharray:none;stroke-dashoffset:0;stroke-opacity:1"
           id="path65-4-7"
           stroke-miterlimit=".1"
           d="m 278.57814,489.79885 v -73.724 c 0,-1.85579 1.50441,-3.3602 3.3602,-3.3602 h 26.881 c 1.85579,0 3.3602,1.50441 3.3602,3.3602 v 73.724"
           inkscape:connector-curvature="0"
           sodipodi:nodetypes="csccsc" />
      </g>
    </g>
    <g
       id="g12197"
       transform="matrix(0.26458333,0,0,0.26458333,-437.59695,-151.67414)">
      <g
         style="opacity:1;vector-effect:none;fill:#0066ff;fill-opacity:1;stroke:#483e37;stroke-width:2.79999995;stroke-linecap:square;stroke-linejoin:miter;stroke-miterlimit:0.1;stroke-dasharray:none;stroke-dashoffset:0;stroke-opacity:1"
         transform="translate(0,-8.686707)"
         id="g5226">
        <path
           inkscape:connector-curvature="0"
           style="vector-effect:none;fill:#0066ff;fill-opacity:1;fill-rule:evenodd;stroke:#483e37;stroke-width:2.79999995;stroke-linecap:square;stroke-linejoin:miter;stroke-miterlimit:0.1;stroke-dasharray:none;stroke-dashoffset:0;stroke-opacity:1"
           id="cA2"
           stroke-miterlimit=".1"
           d="m 177.5466,301.98094 h 33.602 v 38.642 h -33.602 z" />
        <path
           inkscape:connector-curvature="0"
           style="vector-effect:none;fill:#0066ff;fill-opacity:1;fill-rule:evenodd;stroke:#483e37;stroke-width:2.79999995;stroke-linecap:square;stroke-linejoin:miter;stroke-miterlimit:0.1;stroke-dasharray:none;stroke-dashoffset:0;stroke-opacity:1"
           id="cB2"
           stroke-miterlimit=".1"
           d="m 229.2066,301.98094 h 33.602 v 38.642 h -33.602 z" />
        <path
           inkscape:connector-curvature="0"
           style="vector-effect:none;fill:#0066ff;fill-opacity:1;fill-rule:evenodd;stroke:#483e37;stroke-width:2.79999995;stroke-linecap:square;stroke-linejoin:miter;stroke-miterlimit:0.1;stroke-dasharray:none;stroke-dashoffset:0;stroke-opacity:1"
           id="cD2"
           stroke-miterlimit=".1"
           d="m 332.9466,301.98094 h 33.602 v 38.642 h -33.602 z" />
        <path
           inkscape:connector-curvature="0"
           style="vector-effect:none;fill:#0066ff;fill-opacity:1;fill-rule:evenodd;stroke:#483e37;stroke-width:2.79999995;stroke-linecap:square;stroke-linejoin:miter;stroke-miterlimit:0.1;stroke-dasharray:none;stroke-dashoffset:0;stroke-opacity:1"
           id="cC2"
           stroke-miterlimit=".1"
           d="m 279.6066,301.98094 h 33.602 v 38.642 h -33.602 z" />
      </g>
      <g
         transform="translate(53.528832)"
         id="g8648">
        <path
           style="color:#000000;font-style:normal;font-variant:normal;font-weight:normal;font-stretch:normal;font-size:medium;line-height:normal;font-family:sans-serif;font-variant-ligatures:normal;font-variant-position:normal;font-variant-caps:normal;font-variant-numeric:normal;font-variant-alternates:normal;font-feature-settings:normal;text-indent:0;text-align:start;text-decoration:none;text-decoration-line:none;text-decoration-style:solid;text-decoration-color:#000000;letter-spacing:normal;word-spacing:normal;text-transform:none;writing-mode:lr-tb;direction:ltr;text-orientation:mixed;dominant-baseline:auto;baseline-shift:baseline;text-anchor:start;white-space:normal;shape-padding:0;clip-rule:nonzero;display:inline;overflow:visible;visibility:visible;opacity:1;isolation:auto;mix-blend-mode:normal;color-interpolation:sRGB;color-interpolation-filters:linearRGB;solid-color:#000000;solid-opacity:1;vector-effect:none;fill:#87aade;fill-opacity:1;fill-rule:evenodd;stroke:none;stroke-width:2.3970592px;stroke-linecap:butt;stroke-linejoin:miter;stroke-miterlimit:4;stroke-dasharray:none;stroke-dashoffset:0;stroke-opacity:1;color-rendering:auto;image-rendering:auto;shape-rendering:auto;text-rendering:auto;enable-background:accumulate"
           d="m 144.9087,328.31091 c -5.83035,0 -11.66069,0 -17.49104,0 1.69222,-6.61077 0.0358,-12.38438 0,-18.56316 0,0 2.39706,11.98786 2.39706,16.1661 4.34624,1.20299 15.09398,2.39706 15.09398,2.39706 z"
           id="path8526-8"
           inkscape:connector-curvature="0"
           sodipodi:nodetypes="ccccc" />
        <path
           style="color:#000000;font-style:normal;font-variant:normal;font-weight:normal;font-stretch:normal;font-size:medium;line-height:normal;font-family:sans-serif;font-variant-ligatures:normal;font-variant-position:normal;font-variant-caps:normal;font-variant-numeric:normal;font-variant-alternates:normal;font-feature-settings:normal;text-indent:0;text-align:start;text-decoration:none;text-decoration-line:none;text-decoration-style:solid;text-decoration-color:#000000;letter-spacing:normal;word-spacing:normal;text-transform:none;writing-mode:lr-tb;direction:ltr;text-orientation:mixed;dominant-baseline:auto;baseline-shift:baseline;text-anchor:start;white-space:normal;shape-padding:0;clip-rule:nonzero;display:inline;overflow:visible;visibility:visible;opacity:1;isolation:auto;mix-blend-mode:normal;color-interpolation:sRGB;color-interpolation-filters:linearRGB;solid-color:#000000;solid-opacity:1;vector-effect:none;fill:#87aade;fill-opacity:1;fill-rule:evenodd;stroke:none;stroke-width:2.3970592px;stroke-linecap:butt;stroke-linejoin:miter;stroke-miterlimit:4;stroke-dasharray:none;stroke-dashoffset:0;stroke-opacity:1;color-rendering:auto;image-rendering:auto;shape-rendering:auto;text-rendering:auto;enable-background:accumulate"
           d="m 300.04748,328.31091 c -5.83035,0 -11.66069,0 -17.49104,0 1.69222,-6.61078 0.0358,-12.38439 0,-18.56316 0,0 2.39706,11.98786 2.39706,16.1661 4.34624,1.20299 15.09398,2.39706 15.09398,2.39706 z"
           id="path8526-4-91"
           inkscape:connector-curvature="0"
           sodipodi:nodetypes="ccccc" />
        <path
           style="color:#000000;font-style:normal;font-variant:normal;font-weight:normal;font-stretch:normal;font-size:medium;line-height:normal;font-family:sans-serif;font-variant-ligatures:normal;font-variant-position:normal;font-variant-caps:normal;font-variant-numeric:normal;font-variant-alternates:normal;font-feature-settings:normal;text-indent:0;text-align:start;text-decoration:none;text-decoration-line:none;text-decoration-style:solid;text-decoration-color:#000000;letter-spacing:normal;word-spacing:normal;text-transform:none;writing-mode:lr-tb;direction:ltr;text-orientation:mixed;dominant-baseline:auto;baseline-shift:baseline;text-anchor:start;white-space:normal;shape-padding:0;clip-rule:nonzero;display:inline;overflow:visible;visibility:visible;opacity:1;isolation:auto;mix-blend-mode:normal;color-interpolation:sRGB;color-interpolation-filters:linearRGB;solid-color:#000000;solid-opacity:1;vector-effect:none;fill:#87aade;fill-opacity:1;fill-rule:evenodd;stroke:none;stroke-width:2.3970592px;stroke-linecap:butt;stroke-linejoin:miter;stroke-miterlimit:4;stroke-dasharray:none;stroke-dashoffset:0;stroke-opacity:1;color-rendering:auto;image-rendering:auto;shape-rendering:auto;text-rendering:auto;enable-background:accumulate"
           d="m 248.33455,328.31091 c -5.83035,0 -11.66069,0 -17.49104,0 1.69222,-6.61078 0.0358,-12.38439 0,-18.56316 0,0 2.39706,11.98786 2.39706,16.1661 4.34624,1.20299 15.09398,2.39706 15.09398,2.39706 z"
           id="path8526-4-7-0"
           inkscape:connector-curvature="0"
           sodipodi:nodetypes="ccccc" />
        <path
           style="color:#000000;font-style:normal;font-variant:normal;font-weight:normal;font-stretch:normal;font-size:medium;line-height:normal;font-family:sans-serif;font-variant-ligatures:normal;font-variant-position:normal;font-variant-caps:normal;font-variant-numeric:normal;font-variant-alternates:normal;font-feature-settings:normal;text-indent:0;text-align:start;text-decoration:none;text-decoration-line:none;text-decoration-style:solid;text-decoration-color:#000000;letter-spacing:normal;word-spacing:normal;text-transform:none;writing-mode:lr-tb;direction:ltr;text-orientation:mixed;dominant-baseline:auto;baseline-shift:baseline;text-anchor:start;white-space:normal;shape-padding:0;clip-rule:nonzero;display:inline;overflow:visible;visibility:visible;opacity:1;isolation:auto;mix-blend-mode:normal;color-interpolation:sRGB;color-interpolation-filters:linearRGB;solid-color:#000000;solid-opacity:1;vector-effect:none;fill:#87aade;fill-opacity:1;fill-rule:evenodd;stroke:none;stroke-width:2.3970592px;stroke-linecap:butt;stroke-linejoin:miter;stroke-miterlimit:4;stroke-dasharray:none;stroke-dashoffset:0;stroke-opacity:1;color-rendering:auto;image-rendering:auto;shape-rendering:auto;text-rendering:auto;enable-background:accumulate"
           d="m 196.62163,328.31091 c -5.83035,0 -11.66069,0 -17.49104,0 1.69222,-6.61078 0.0358,-12.38439 0,-18.56316 0,0 2.39706,11.98786 2.39706,16.1661 4.34624,1.20299 15.09398,2.39706 15.09398,2.39706 z"
           id="path8526-4-5-95"
           inkscape:connector-curvature="0"
           sodipodi:nodetypes="ccccc" />
      </g>
    </g>
    <g
       id="g12209"
       transform="matrix(0.26458333,0,0,0.26458333,-437.59695,-151.37672)">
      <g
         style="opacity:1;vector-effect:none;fill:#0066ff;fill-opacity:1;stroke:#483e37;stroke-width:2.79999995;stroke-linecap:square;stroke-linejoin:miter;stroke-miterlimit:0.1;stroke-dasharray:none;stroke-dashoffset:0;stroke-opacity:1"
         transform="translate(0,1.061652)"
         id="g5232">
        <path
           inkscape:connector-curvature="0"
           style="vector-effect:none;fill:#0066ff;fill-opacity:1;fill-rule:evenodd;stroke:#483e37;stroke-width:2.79999995;stroke-linecap:square;stroke-linejoin:miter;stroke-miterlimit:0.1;stroke-dasharray:none;stroke-dashoffset:0;stroke-opacity:1"
           id="cA1"
           stroke-miterlimit=".1"
           d="m 177.9666,358.26094 h 33.602 v 38.642 h -33.602 z" />
        <path
           inkscape:connector-curvature="0"
           style="vector-effect:none;fill:#0066ff;fill-opacity:1;fill-rule:evenodd;stroke:#483e37;stroke-width:2.79999995;stroke-linecap:square;stroke-linejoin:miter;stroke-miterlimit:0.1;stroke-dasharray:none;stroke-dashoffset:0;stroke-opacity:1"
           id="cB1"
           stroke-miterlimit=".1"
           d="m 229.6266,358.26094 h 33.602 v 38.642 h -33.602 z" />
        <path
           inkscape:connector-curvature="0"
           style="vector-effect:none;fill:#0066ff;fill-opacity:1;fill-rule:evenodd;stroke:#483e37;stroke-width:2.79999995;stroke-linecap:square;stroke-linejoin:miter;stroke-miterlimit:0.1;stroke-dasharray:none;stroke-dashoffset:0;stroke-opacity:1"
           id="cD1"
           stroke-miterlimit=".1"
           d="m 333.3666,358.26094 h 33.602 v 38.642 h -33.602 z" />
        <path
           inkscape:connector-curvature="0"
           style="vector-effect:none;fill:#0066ff;fill-opacity:1;fill-rule:evenodd;stroke:#483e37;stroke-width:2.79999995;stroke-linecap:square;stroke-linejoin:miter;stroke-miterlimit:0.1;stroke-dasharray:none;stroke-dashoffset:0;stroke-opacity:1"
           id="cC1"
           stroke-miterlimit=".1"
           d="m 280.0266,358.26094 h 33.602 v 38.642 h -33.602 z" />
      </g>
      <g
         transform="translate(63.393412,-12)"
         id="g8666">
        <path
           style="color:#000000;font-style:normal;font-variant:normal;font-weight:normal;font-stretch:normal;font-size:medium;line-height:normal;font-family:sans-serif;font-variant-ligatures:normal;font-variant-position:normal;font-variant-caps:normal;font-variant-numeric:normal;font-variant-alternates:normal;font-feature-settings:normal;text-indent:0;text-align:start;text-decoration:none;text-decoration-line:none;text-decoration-style:solid;text-decoration-color:#000000;letter-spacing:normal;word-spacing:normal;text-transform:none;writing-mode:lr-tb;direction:ltr;text-orientation:mixed;dominant-baseline:auto;baseline-shift:baseline;text-anchor:start;white-space:normal;shape-padding:0;clip-rule:nonzero;display:inline;overflow:visible;visibility:visible;opacity:1;isolation:auto;mix-blend-mode:normal;color-interpolation:sRGB;color-interpolation-filters:linearRGB;solid-color:#000000;solid-opacity:1;vector-effect:none;fill:#87aade;fill-opacity:1;fill-rule:evenodd;stroke:none;stroke-width:2.3970592px;stroke-linecap:butt;stroke-linejoin:miter;stroke-miterlimit:4;stroke-dasharray:none;stroke-dashoffset:0;stroke-opacity:1;color-rendering:auto;image-rendering:auto;shape-rendering:auto;text-rendering:auto;enable-background:accumulate"
           d="m 135.04412,406.72168 c -5.83035,0 -11.66069,0 -17.49104,0 1.69222,-6.61078 0.0358,-12.38439 0,-18.56316 0,0 2.39706,11.98786 2.39706,16.1661 4.34624,1.20299 15.09398,2.39706 15.09398,2.39706 z"
           id="path8526-9"
           inkscape:connector-curvature="0"
           sodipodi:nodetypes="ccccc" />
        <path
           style="color:#000000;font-style:normal;font-variant:normal;font-weight:normal;font-stretch:normal;font-size:medium;line-height:normal;font-family:sans-serif;font-variant-ligatures:normal;font-variant-position:normal;font-variant-caps:normal;font-variant-numeric:normal;font-variant-alternates:normal;font-feature-settings:normal;text-indent:0;text-align:start;text-decoration:none;text-decoration-line:none;text-decoration-style:solid;text-decoration-color:#000000;letter-spacing:normal;word-spacing:normal;text-transform:none;writing-mode:lr-tb;direction:ltr;text-orientation:mixed;dominant-baseline:auto;baseline-shift:baseline;text-anchor:start;white-space:normal;shape-padding:0;clip-rule:nonzero;display:inline;overflow:visible;visibility:visible;opacity:1;isolation:auto;mix-blend-mode:normal;color-interpolation:sRGB;color-interpolation-filters:linearRGB;solid-color:#000000;solid-opacity:1;vector-effect:none;fill:#87aade;fill-opacity:1;fill-rule:evenodd;stroke:none;stroke-width:2.3970592px;stroke-linecap:butt;stroke-linejoin:miter;stroke-miterlimit:4;stroke-dasharray:none;stroke-dashoffset:0;stroke-opacity:1;color-rendering:auto;image-rendering:auto;shape-rendering:auto;text-rendering:auto;enable-background:accumulate"
           d="m 290.1829,406.72168 c -5.83035,0 -11.66069,0 -17.49104,0 1.69222,-6.61078 0.0358,-12.38439 0,-18.56316 0,0 2.39706,11.98786 2.39706,16.1661 4.34624,1.20299 15.09398,2.39706 15.09398,2.39706 z"
           id="path8526-4-74"
           inkscape:connector-curvature="0"
           sodipodi:nodetypes="ccccc" />
        <path
           style="color:#000000;font-style:normal;font-variant:normal;font-weight:normal;font-stretch:normal;font-size:medium;line-height:normal;font-family:sans-serif;font-variant-ligatures:normal;font-variant-position:normal;font-variant-caps:normal;font-variant-numeric:normal;font-variant-alternates:normal;font-feature-settings:normal;text-indent:0;text-align:start;text-decoration:none;text-decoration-line:none;text-decoration-style:solid;text-decoration-color:#000000;letter-spacing:normal;word-spacing:normal;text-transform:none;writing-mode:lr-tb;direction:ltr;text-orientation:mixed;dominant-baseline:auto;baseline-shift:baseline;text-anchor:start;white-space:normal;shape-padding:0;clip-rule:nonzero;display:inline;overflow:visible;visibility:visible;opacity:1;isolation:auto;mix-blend-mode:normal;color-interpolation:sRGB;color-interpolation-filters:linearRGB;solid-color:#000000;solid-opacity:1;vector-effect:none;fill:#87aade;fill-opacity:1;fill-rule:evenodd;stroke:none;stroke-width:2.3970592px;stroke-linecap:butt;stroke-linejoin:miter;stroke-miterlimit:4;stroke-dasharray:none;stroke-dashoffset:0;stroke-opacity:1;color-rendering:auto;image-rendering:auto;shape-rendering:auto;text-rendering:auto;enable-background:accumulate"
           d="m 238.46997,406.72168 c -5.83035,0 -11.66069,0 -17.49104,0 1.69222,-6.61078 0.0358,-12.38439 0,-18.56316 0,0 2.39706,11.98786 2.39706,16.1661 4.34624,1.20299 15.09398,2.39706 15.09398,2.39706 z"
           id="path8526-4-7-90"
           inkscape:connector-curvature="0"
           sodipodi:nodetypes="ccccc" />
        <path
           style="color:#000000;font-style:normal;font-variant:normal;font-weight:normal;font-stretch:normal;font-size:medium;line-height:normal;font-family:sans-serif;font-variant-ligatures:normal;font-variant-position:normal;font-variant-caps:normal;font-variant-numeric:normal;font-variant-alternates:normal;font-feature-settings:normal;text-indent:0;text-align:start;text-decoration:none;text-decoration-line:none;text-decoration-style:solid;text-decoration-color:#000000;letter-spacing:normal;word-spacing:normal;text-transform:none;writing-mode:lr-tb;direction:ltr;text-orientation:mixed;dominant-baseline:auto;baseline-shift:baseline;text-anchor:start;white-space:normal;shape-padding:0;clip-rule:nonzero;display:inline;overflow:visible;visibility:visible;opacity:1;isolation:auto;mix-blend-mode:normal;color-interpolation:sRGB;color-interpolation-filters:linearRGB;solid-color:#000000;solid-opacity:1;vector-effect:none;fill:#87aade;fill-opacity:1;fill-rule:evenodd;stroke:none;stroke-width:2.3970592px;stroke-linecap:butt;stroke-linejoin:miter;stroke-miterlimit:4;stroke-dasharray:none;stroke-dashoffset:0;stroke-opacity:1;color-rendering:auto;image-rendering:auto;shape-rendering:auto;text-rendering:auto;enable-background:accumulate"
           d="m 186.75705,406.72168 c -5.83035,0 -11.66069,0 -17.49104,0 1.69222,-6.61078 0.0358,-12.38439 0,-18.56316 0,0 2.39706,11.98786 2.39706,16.1661 4.34624,1.20299 15.09398,2.39706 15.09398,2.39706 z"
           id="path8526-4-5-39"
           inkscape:connector-curvature="0"
           sodipodi:nodetypes="ccccc" />
      </g>
    </g>
    <g
       id="g12215"
       transform="matrix(0.26458333,0,0,0.26458333,-437.59695,-152.86387)">
      <path
         inkscape:connector-curvature="0"
         d="m 336.0966,432.09579 h 33.602 v 38.642 h -33.602 z"
         stroke-miterlimit=".1"
         id="cD0"
         style="opacity:1;vector-effect:none;fill:#0066ff;fill-opacity:1;fill-rule:evenodd;stroke:#483e37;stroke-width:2.79999995;stroke-linecap:square;stroke-linejoin:miter;stroke-miterlimit:0.1;stroke-dasharray:none;stroke-dashoffset:0;stroke-opacity:1" />
      <path
         inkscape:connector-curvature="0"
         d="m 176.4966,432.09579 h 33.602 v 38.642 h -33.602 z"
         stroke-miterlimit=".1"
         id="cA0"
         style="opacity:1;vector-effect:none;fill:#0066ff;fill-opacity:1;fill-rule:evenodd;stroke:#483e37;stroke-width:2.79999995;stroke-linecap:square;stroke-linejoin:miter;stroke-miterlimit:0.1;stroke-dasharray:none;stroke-dashoffset:0;stroke-opacity:1" />
      <path
         sodipodi:nodetypes="ccccc"
         inkscape:connector-curvature="0"
         id="path8526-31"
         d="m 197.27761,460.28927 c -5.83035,0 -11.66069,0 -17.49104,0 1.69222,-6.61078 0.0358,-12.38439 0,-18.56316 0,0 2.39706,11.98786 2.39706,16.1661 4.34624,1.20299 15.09398,2.39706 15.09398,2.39706 z"
         style="color:#000000;font-style:normal;font-variant:normal;font-weight:normal;font-stretch:normal;font-size:medium;line-height:normal;font-family:sans-serif;font-variant-ligatures:normal;font-variant-position:normal;font-variant-caps:normal;font-variant-numeric:normal;font-variant-alternates:normal;font-feature-settings:normal;text-indent:0;text-align:start;text-decoration:none;text-decoration-line:none;text-decoration-style:solid;text-decoration-color:#000000;letter-spacing:normal;word-spacing:normal;text-transform:none;writing-mode:lr-tb;direction:ltr;text-orientation:mixed;dominant-baseline:auto;baseline-shift:baseline;text-anchor:start;white-space:normal;shape-padding:0;clip-rule:nonzero;display:inline;overflow:visible;visibility:visible;opacity:1;isolation:auto;mix-blend-mode:normal;color-interpolation:sRGB;color-interpolation-filters:linearRGB;solid-color:#000000;solid-opacity:1;vector-effect:none;fill:#87aade;fill-opacity:1;fill-rule:evenodd;stroke:none;stroke-width:2.3970592px;stroke-linecap:butt;stroke-linejoin:miter;stroke-miterlimit:4;stroke-dasharray:none;stroke-dashoffset:0;stroke-opacity:1;color-rendering:auto;image-rendering:auto;shape-rendering:auto;text-rendering:auto;enable-background:accumulate" />
      <path
         sodipodi:nodetypes="ccccc"
         inkscape:connector-curvature="0"
         id="path8526-4-2"
         d="m 356.82829,461.00469 c -5.83035,0 -11.66069,0 -17.49104,0 1.69222,-6.61078 0.0358,-12.38439 0,-18.56316 0,0 2.39706,11.98786 2.39706,16.1661 4.34624,1.20299 15.09398,2.39706 15.09398,2.39706 z"
         style="color:#000000;font-style:normal;font-variant:normal;font-weight:normal;font-stretch:normal;font-size:medium;line-height:normal;font-family:sans-serif;font-variant-ligatures:normal;font-variant-position:normal;font-variant-caps:normal;font-variant-numeric:normal;font-variant-alternates:normal;font-feature-settings:normal;text-indent:0;text-align:start;text-decoration:none;text-decoration-line:none;text-decoration-style:solid;text-decoration-color:#000000;letter-spacing:normal;word-spacing:normal;text-transform:none;writing-mode:lr-tb;direction:ltr;text-orientation:mixed;dominant-baseline:auto;baseline-shift:baseline;text-anchor:start;white-space:normal;shape-padding:0;clip-rule:nonzero;display:inline;overflow:visible;visibility:visible;opacity:1;isolation:auto;mix-blend-mode:normal;color-interpolation:sRGB;color-interpolation-filters:linearRGB;solid-color:#000000;solid-opacity:1;vector-effect:none;fill:#87aade;fill-opacity:1;fill-rule:evenodd;stroke:none;stroke-width:2.3970592px;stroke-linecap:butt;stroke-linejoin:miter;stroke-miterlimit:4;stroke-dasharray:none;stroke-dashoffset:0;stroke-opacity:1;color-rendering:auto;image-rendering:auto;shape-rendering:auto;text-rendering:auto;enable-background:accumulate" />
    </g>
    <g
       id="g5554"
       transform="matrix(0.17821112,0,0,0.17821112,-423.18836,-9.634478)">
      <path
         sodipodi:nodetypes="cccsccccccccccsscccccsccscccsscccccscccssscscssscccssc"
         inkscape:connector-curvature="0"
         style="fill:#803300;stroke-width:1.13199258"
         d="m 258.59708,-51.307809 c 0.0806,6.637201 -1.46821,-19.16572 -2.47939,-22.740745 -2.71779,-9.608761 -4.11111,-15.534936 -5.47478,-23.285836 -1.06541,-6.05567 -1.24465,-8.13575 -1.40478,-16.3034 -0.2043,-10.42051 0.23761,-16.88185 1.49331,-21.83453 1.40313,-5.53412 3.13535,-7.73452 7.41284,-9.41642 2.12501,-0.83554 10.55593,-2.89056 14.66114,-3.57362 7.75575,-1.29048 18.30989,-3.9042 19.2707,-4.77238 0.29734,-0.2687 -0.31273,-4.33462 -0.70999,-4.73189 -0.11252,-0.11252 -1.4053,0.17618 -2.87287,0.64154 -8.74346,2.77251 -14.91934,3.37353 -18.42009,1.79263 -2.87696,-1.29924 -2.85624,-1.93319 0.25831,-7.90021 1.44796,-2.77405 2.54223,-5.27935 2.43173,-5.56732 -0.50353,-1.3122 -1.42929,-0.2511 -3.24429,3.71853 -3.32419,7.27048 -3.22168,7.1621 -9.84497,10.40683 -5.96124,2.92041 -9.59358,4.099 -14.12767,4.58406 -3.6424,0.38966 -3.68941,0.30467 -3.45073,-6.23983 0.20308,-5.56863 0.88089,-8.29663 3.1791,-12.79483 2.85484,-5.58776 9.52712,-12.89842 15.83623,-17.35138 2.32721,-1.64256 3.43223,-2.66425 3.31696,-3.06693 -0.0951,-0.33208 -0.29324,-1.63012 -0.44041,-2.8845 -0.14719,-1.25438 -0.34941,-2.2807 -0.44941,-2.2807 -0.1,0 -3.17515,2.309 -6.83365,5.13113 -3.6585,2.82212 -8.37976,6.30266 -10.49169,7.73455 -3.64217,2.46939 -3.95879,2.60341 -6.15035,2.60341 -1.91101,0 -2.58051,-0.19556 -3.8717,-1.13088 -2.91936,-2.11479 -4.96678,-5.23235 -6.22801,-9.48335 -0.5487,-1.84939 -0.55721,-2.68295 -0.0749,-7.33791 1.12586,-10.8677 1.12723,-11.00283 0.11229,-11.00283 -0.85587,0 -0.94147,0.30779 -1.93979,6.97438 -0.57443,3.83592 -1.19907,7.11793 -1.3881,7.29333 -0.18902,0.17541 -0.73348,0.43653 -1.20994,0.58025 -0.98084,0.29589 -1.67977,-0.32768 -8.36396,-7.46219 -3.07034,-3.27717 -4.10229,-4.16036 -4.28989,-3.67151 -0.16315,0.42512 0.41541,1.41903 1.70376,2.92696 6.01949,7.04543 12.12263,16.1731 15.71558,23.50369 1.96335,4.00577 2.0466,4.31118 2.1812,8.00059 0.10742,2.94559 -0.0537,4.60136 -0.69423,7.13449 -2.17488,8.60045 -3.73345,12.25527 -5.35974,12.56847 -0.44861,0.0864 -3.43885,-1.68332 -7.6111,-4.50445 -11.05545,-7.47535 -13.59233,-10.04978 -17.29107,-17.54693 -1.31843,-2.67239 -2.47928,-4.85888 -2.57967,-4.85888 -0.10041,0 -0.49678,0.38806 -0.88086,0.8624 -0.67765,0.83685 -0.6472,0.97181 1.02719,4.55492 0.94903,2.03089 1.7229,4.27553 1.71968,4.98809 -0.0154,3.40612 -2.20394,4.50126 -5.86006,2.93232 -4.20657,-1.80516 -8.35558,-3.42164 -8.78233,-3.42164 -0.23547,0 -0.42423,0.75933 -0.42423,1.70654 0,1.70004 0.008,1.70937 2.08238,2.4485 3.15868,1.12546 13.58665,5.94432 16.06919,7.4257 3.09403,1.8463 8.3471,6.91583 10.69677,10.32306 4.75127,6.88971 7.75549,14.96959 8.4344,22.68432 0.21284,2.41857 0.56975,13.14337 0.79313,23.83291 0.36527,17.479479 1.76393,48.383974 2.13784,48.757871"
         id="path5153-5" />
      <path
         inkscape:connector-curvature="0"
         style="fill:#008000;stroke-width:1"
         d="m 330.13491,-128.77586 c 2.71494,-0.68746 6.441,-2.27205 7.54957,-3.2106 1.96449,-1.66318 2.1944,-3.46442 0.68471,-5.36411 -1.17054,-1.47295 -1.31617,-2.32223 -0.51253,-2.98919 0.43686,-0.36256 0.99283,-0.36134 2.94209,0.007 7.63219,1.44008 16.65533,-3.47589 19.3378,-10.53558 2.96367,-7.7997 -1.51466,-16.1883 -8.36654,-15.67186 -1.10716,0.0835 -2.59273,0.43016 -3.3013,0.7705 -3.1056,1.49168 -3.84565,-0.0593 -1.88549,-3.95162 1.92276,-3.81806 1.65896,-5.23282 -1.53228,-8.21785 -3.08124,-2.88212 -5.89056,-3.65387 -9.13452,-2.50935 -1.93182,0.6816 -3.11937,0.66512 -3.91432,-0.0543 -1.49259,-1.35076 -0.33891,-2.33577 3.59123,-3.06621 1.65311,-0.30724 3.72835,-0.55862 4.6116,-0.55862 1.36433,0 1.74286,-0.16276 2.5163,-1.08192 3.80612,-4.52333 5.07837,-12.07912 3.23133,-19.19045 -1.00623,-3.87413 -2.5415,-6.51604 -5.24825,-9.03125 -3.40304,-3.16224 -7.78315,-4.89031 -13.34894,-5.26649 -1.74743,-0.11811 -3.38922,-0.38259 -3.64841,-0.58774 -0.3492,-0.27639 -0.41389,-0.92195 -0.24976,-2.49245 0.6233,-5.96453 -4.20414,-11.082 -11.03786,-11.701 -3.01015,-0.27267 -3.56077,-0.77584 -2.82959,-2.58575 1.82134,-4.50832 1.94601,-5.14997 1.50753,-7.75913 -1.14193,-6.79488 -6.11418,-12.02404 -13.89941,-14.61758 -1.93356,-0.64413 -3.23159,-0.81914 -6.13191,-0.82676 -3.48062,-0.009 -3.85871,0.0638 -7.0068,1.3519 -1.83022,0.74886 -3.88391,1.72967 -4.56378,2.17958 -1.26374,0.83631 -3.73612,3.57274 -4.38113,4.84903 -0.66657,1.31897 -1.79459,1.06937 -3.9117,-0.86557 -1.96263,-1.79364 -1.98174,-1.80163 -3.75642,-1.56948 -0.98107,0.12833 -2.30522,0.53386 -2.94256,0.90119 -2.23768,1.28962 -2.92532,0.86399 -3.55352,-2.19951 -1.45142,-7.07753 -9.021,-11.53493 -20.51023,-12.07718 -14.15119,-0.66788 -27.70109,3.58903 -31.751,9.97505 -1.55843,2.45741 -1.88303,4.03016 -1.37019,6.63903 0.34193,1.73947 0.34176,2.30275 -0.001,2.71556 -0.56839,0.68487 -3.37865,0.68222 -5.02274,-0.005 -0.73101,-0.30544 -2.33677,-0.52559 -3.83354,-0.52559 -4.58968,0 -9.08578,1.8588 -12.03206,4.97437 -2.06057,2.17897 -2.7283,3.33587 -3.31714,5.74732 -0.7405,3.03255 -1.6234,3.33297 -3.94164,1.34125 -0.8015,-0.68862 -2.63985,-1.82703 -4.08523,-2.52982 -2.48017,-1.20592 -2.81516,-1.2763 -5.95671,-1.25159 -3.72215,0.0293 -6.2102,0.71304 -10.19705,2.80226 -4.77347,2.50144 -10.26184,7.83446 -12.40841,12.05719 -2.463,4.84522 -2.52022,8.77643 -0.20459,14.05645 0.81595,1.86048 1.7882,3.6584 2.16056,3.9954 1.4172,1.28254 0.60359,2.60644 -1.60182,2.60644 -3.28072,0 -7.35746,3.30629 -9.36412,7.59442 -0.95745,2.04602 -1.08389,2.67763 -1.07135,5.35153 0.0234,4.98809 1.37185,6.81358 6.47166,8.761 3.25036,1.24125 4.14015,1.8817 4.14015,2.98007 0,1.17265 -0.692,1.59255 -2.62442,1.59255 -4.21021,0 -9.80504,2.3718 -13.29422,5.63575 -2.79886,2.61824 -4.22241,4.81025 -5.3867,8.2946 -0.80036,2.39515 -0.90774,3.28883 -0.91547,7.61895 -0.01,5.4017 0.45053,7.70584 2.31512,11.59167 3.1929,6.65401 10.61175,11.90271 18.17307,12.85714 5.84317,0.73754 15.57599,-0.85745 19.01712,-3.11649 1.41714,-0.93032 2.33758,-2.60648 2.33758,-4.25686 0,-1.201 0.56679,-1.8333 1.64336,-1.8333 0.64692,0 0.99977,0.43524 1.82083,2.24604 3.29498,7.26694 10.3347,10.07056 19.46866,7.75353 4.36658,-1.10767 6.72508,-2.2022 9.49553,-4.40673 3.63564,-2.89296 5.74069,-6.10898 5.7569,-8.79517 0.004,-0.70135 0.28827,-1.62165 0.63119,-2.04515 0.87989,-1.08661 3.03944,-0.69418 3.75089,0.68163 0.7488,1.44803 2.08423,2.16864 3.78943,2.0448 l 1.47203,-0.1069 -2.76694,-2.21257 c -1.52182,-1.21689 -4.29896,-2.98135 -6.17143,-3.92099 -3.42667,-1.7196 -11.03974,-4.90458 -11.71969,-4.90303 -0.20108,0 -0.8204,0.87121 -1.37625,1.93503 -1.29849,2.48503 -4.25409,5.19849 -6.43118,5.9043 -2.52233,0.81773 -12.25525,1.77862 -13.28113,1.31119 -0.90806,-0.41373 -1.13616,-1.8199 -0.3883,-2.39373 0.2409,-0.18485 2.93521,-0.58659 5.98737,-0.89277 6.2867,-0.63069 8.54827,-1.42884 10.20566,-3.60179 2.26638,-2.97136 3.20633,-7.20137 2.13041,-9.58733 -1.09952,-2.43831 -0.62445,-2.95081 3.97205,-4.2849 3.13651,-0.91034 7.48777,-3.7194 8.89268,-5.7409 1.9214,-2.76464 1.67558,-4.81975 -1.17289,-9.80549 -0.99093,-1.73446 -1.84397,-3.20085 -1.89562,-3.25865 -0.0516,-0.0578 -1.05341,0.21814 -2.22612,0.61319 -1.69683,0.57162 -3.01095,0.71688 -6.4356,0.71135 -12.96922,-0.0209 -23.176,-4.26553 -26.32737,-10.94854 -2.84034,-6.02343 -1.64865,-12.70235 3.02066,-16.92949 1.63855,-1.48338 6.88454,-4.35131 7.95938,-4.35131 0.22869,0 -0.0727,-0.61679 -0.66979,-1.37066 -1.54728,-1.95362 -2.12796,-3.56722 -2.11915,-5.88876 0.0215,-5.66322 4.70233,-9.0345 14.1104,-10.16277 l 4.57502,-0.54867 0.649,0.80149 c 0.5696,0.70343 0.58914,0.89167 0.15966,1.53849 -0.41734,0.62855 -1.15383,0.8179 -5.00566,1.28693 -8.61489,1.04902 -12.73387,4.29073 -11.15421,8.77855 0.60404,1.71605 3.47423,4.86462 4.43453,4.86462 0.84013,0 1.24262,1.64295 0.56779,2.31778 -0.27857,0.27857 -1.79797,0.81495 -3.37642,1.19195 -8.23203,1.96618 -12.3075,6.99198 -11.21871,13.83479 0.82096,5.15959 4.85907,8.79095 12.03242,10.82039 4.59136,1.29895 8.75418,1.74823 13.83807,1.49349 3.7282,-0.18681 4.52958,-0.33181 5.40318,-0.9777 0.77493,-0.57292 1.41809,-0.73219 2.63044,-0.65136 3.8815,0.25879 5.10501,0.0949 7.51299,-1.00639 3.56129,-1.62874 6.61109,-4.83788 8.78564,-9.24466 1.54704,-3.13512 1.70302,-3.6859 1.8692,-6.60033 0.16607,-2.91263 0.25055,-3.21134 1.00552,-3.55533 1.0817,-0.49285 1.96574,0.27954 2.54931,2.2273 0.67684,2.25913 2.90731,4.21517 6.17876,5.41856 2.51399,0.92477 3.1795,1.02132 6.81558,0.98879 3.41962,-0.0306 4.55989,-0.19709 7.53348,-1.1 3.05857,-0.92873 7.53347,-2.74156 7.53347,-3.05191 0,-0.0589 -0.53775,-1.00008 -1.19501,-2.09155 -1.61533,-2.68252 -2.08533,-4.86808 -1.8803,-8.74363 0.35428,-6.69724 4.62272,-13.56492 9.99285,-16.0779 3.80875,-1.78233 7.11119,-1.68843 9.78204,0.27814 0.72777,0.53585 0.79858,0.49616 1.85533,-1.03976 1.65614,-2.4071 3.48209,-4.05076 5.62229,-5.06097 1.67081,-0.78866 2.39327,-0.91027 5.43111,-0.91431 3.95728,-0.005 6.0225,0.58171 8.47193,2.40782 4.1097,3.0639 6.74266,11.10289 5.63975,17.21936 l -0.25447,1.41131 h 2.54453 c 3.3638,0 5.76741,1.14492 8.42116,4.0113 3.77965,4.08246 4.89624,10.05359 2.81392,15.04805 -1.54998,3.71768 -6.27311,7.61453 -11.22986,9.26527 -3.11955,1.03891 -8.04543,1.24142 -10.3318,0.42476 l -1.2831,-0.45831 -1.06434,1.50999 c -0.67232,0.95383 -1.74845,1.86037 -2.92163,2.46124 -1.60233,0.82066 -2.389,0.97268 -5.73099,1.10753 -3.55925,0.14363 -4.05662,0.0824 -6.1268,-0.75375 -3.2282,-1.30392 -3.36124,-1.09877 -2.6078,4.02096 1.24019,8.42719 2.91389,13.03762 5.4671,15.05979 2.59532,2.05553 4.30372,2.57172 8.54279,2.58118 4.88549,0.0108 6.17219,-0.55481 9.59279,-4.21758 1.33624,-1.43081 2.61899,-2.60148 2.85057,-2.60148 0.23158,0 1.44691,0.48961 2.70075,1.088 3.08443,1.47207 5.45189,1.65375 9.22683,0.70814 5.98751,-1.49988 10.34271,-4.4534 12.08496,-8.19555 0.69366,-1.48991 0.85465,-2.39478 0.85638,-4.81321 0.001,-3.12772 -0.0148,-3.17335 -2.28267,-6.27754 -0.77404,-1.05927 -0.81942,-1.27986 -0.39487,-1.91927 0.26382,-0.39736 1.05656,-0.8423 1.76163,-0.9888 3.01126,-0.62564 6.61059,-3.60751 8.46319,-7.01133 1.57863,-2.90048 1.37738,-4.00326 -1.43672,-7.87318 -0.73445,-1.00998 -0.35569,-2.14425 0.81398,-2.43783 0.76907,-0.19302 1.10358,-0.01 2.08018,1.13797 1.62463,1.90975 2.91341,4.60349 2.91341,6.08939 0,3.16294 -4.51945,9.50585 -8.28881,11.63315 -1.02994,0.58127 -1.87263,1.09102 -1.87263,1.13278 0,0.0418 0.35014,0.77569 0.77809,1.63093 0.63784,1.2747 0.77995,2.15826 0.78837,4.9019 0.0104,3.1749 -0.0577,3.48444 -1.31201,6.02246 -2.4141,4.88461 -7.76158,8.6139 -14.44542,10.07417 -4.12289,0.90075 -6.12685,0.86733 -9.11025,-0.15192 -2.84642,-0.97244 -2.89829,-0.95045 -4.81391,2.0415 l -1.14279,1.78487 0.0511,4.38394 c 0.0295,2.52923 0.29146,5.49576 0.61927,7.0119 l 0.56818,2.62797 -0.86483,0.75677 c -0.47565,0.41622 -1.7792,1.08707 -2.89681,1.49079 -3.07331,1.11019 -3.07144,1.10825 -3.18818,3.3051 -0.13674,2.57321 0.73145,4.54194 3.11377,7.0609 3.48854,3.68862 7.68802,5.78214 11.59873,5.78214 2.37663,0 3.89064,-0.55228 6.23815,-2.2755 1.91756,-1.40761 2.90563,-1.53765 3.773,-0.49654 1.01784,1.22176 3.66738,2.89746 5.33847,3.37637 2.34105,0.67086 11.27294,0.30248 14.89336,-0.61427 z"
         id="path5147-3" />
      <path
         inkscape:connector-curvature="0"
         style="fill:#aa4400;stroke:#803300;stroke-width:0.93716139"
         d="m 245.03483,-97.300922 c -0.46062,-0.44625 -0.94512,-2.09175 -1.7797,-6.044298 -1.41713,-6.71157 -1.72614,-13.08876 -0.89986,-18.5709 0.27594,-1.83081 0.704,-4.82668 0.95123,-6.65749 0.95713,-7.08767 0.77172,-6.48229 1.98531,-6.48229 h 1.0771 l 0.005,4.20473 c 0.004,2.48771 0.2154,5.42096 0.52014,7.18307 1.70343,9.84959 1.85977,11.29929 1.66274,15.41735 -0.26298,5.49593 -0.96847,10.894178 -1.47117,11.257038 -0.64477,0.46542 -1.36468,0.35757 -2.05084,-0.30721 z"
         id="path5151-0" />
      <path
         inkscape:connector-curvature="0"
         style="fill:#aa4400;stroke:#803300;stroke-width:1"
         d="m 245.1806,-113.49281 c -0.48784,-4.48974 -0.87047,-5.37017 -1.19726,-2.75478 -0.14719,1.17809 -0.0306,3.30419 0.30395,5.54146 0.29852,1.9965 0.5612,3.87817 0.58372,4.18148 0.0225,0.30331 0.19101,-0.31575 0.37441,-1.37571 0.22312,-1.28956 0.20168,-3.13982 -0.0648,-5.59245 z"
         id="path5149-0" />
      <path
         inkscape:transform-center-y="17.72417"
         inkscape:transform-center-x="9.6775795"
         inkscape:connector-curvature="0"
         style="fill:#539b23;fill-opacity:0.86538463;stroke:none;stroke-width:1.00518191"
         d="m 271.7063,-210.04875 c -0.57314,-1.7149 -0.49218,-2.76479 0.34381,-4.45937 0.78122,-1.58358 0.40596,-2.99865 -0.82478,-3.11023 -1.38419,-0.12551 -3.68105,-1.77793 -5.611,-4.03671 -1.50697,-1.76378 -1.94154,-2.58112 -2.73579,-5.14555 -0.5193,-1.6768 -0.96262,-3.90409 -0.98516,-4.94952 -0.19687,-9.13845 11.99392,-14.51873 18.2721,-8.06424 1.28152,1.31753 1.62343,1.89942 1.75967,2.99477 0.18612,1.4962 1.00969,2.3624 2.07089,2.17809 0.5087,-0.0884 0.90982,-0.59877 1.54433,-1.96508 0.75458,-1.6249 1.25753,-2.1919 4.20513,-4.74039 3.72489,-3.21976 5.65495,-4.1657 9.25274,-4.53188 3.52277,-0.35854 8.32534,2.3841 10.17866,5.81283 1.45737,2.69621 1.12156,7.3249 -0.68475,9.43848 -1.11322,1.30257 -1.23116,2.40413 -0.35503,3.31582 0.53482,0.55653 1.00048,0.66296 1.94719,0.44508 3.00429,-0.69143 3.27608,-0.62303 5.11096,1.28634 2.13803,2.22482 2.58404,3.67264 2.24946,7.30241 -0.48735,5.28725 -3.13889,10.09439 -6.83406,12.3899 -2.00553,1.24589 -3.58883,1.74489 -6.10603,1.92446 -0.92429,0.066 -2.24889,0.31339 -2.94356,0.5499 -1.14836,0.391 -1.29787,0.54179 -1.6466,1.66083 -0.88687,2.84597 -3.96523,4.07245 -9.03816,3.601 -3.84617,-0.35741 -6.62753,-1.45766 -8.43222,-3.33559 -1.1602,-1.20729 -1.68698,-1.53432 -2.52849,-1.56967 -1.68782,-0.0709 -3.41103,-1.11269 -5.6497,-3.41559 -1.51946,-1.56293 -2.20868,-2.52597 -2.55961,-3.57607 z"
         id="path5135-5-7-5-0-5" />
      <path
         inkscape:connector-curvature="0"
         style="opacity:1;vector-effect:none;fill:#539b23;fill-opacity:0.86538463;stroke:none;stroke-width:1.00518191;stroke-linecap:butt;stroke-linejoin:miter;stroke-miterlimit:4;stroke-dasharray:none;stroke-dashoffset:0;stroke-opacity:1"
         d="m 268.63451,-187.10625 c 1.67252,-0.76803 2.41411,-1.54678 3.14986,-3.30769 0.68757,-1.64557 2.0038,-2.34911 2.89302,-1.54633 1.00008,0.90286 3.75244,1.40938 6.72376,1.23738 2.32015,-0.13432 3.22284,-0.38504 5.68285,-1.57842 1.6085,-0.78031 3.58391,-1.99291 4.38979,-2.69466 7.04435,-6.13426 3.14456,-18.53926 -5.84516,-18.59319 -1.83502,-0.011 -2.49895,0.14425 -3.41696,0.79902 -1.25394,0.89439 -2.44799,0.90071 -3.0024,0.0159 -0.26577,-0.42416 -0.1418,-1.06123 0.47727,-2.45277 0.73627,-1.65493 0.83646,-2.40364 0.83767,-6.25969 9.4e-4,-4.87238 -0.54525,-6.90098 -2.62068,-9.72313 -2.03216,-2.7633 -7.24801,-4.31161 -11.0546,-3.28152 -2.99335,0.81004 -6.27658,4.22827 -6.69492,6.97022 -0.25782,1.68983 -1.01432,2.53049 -2.27714,2.53049 -0.77088,0 -1.15591,-0.25964 -1.61006,-1.0857 -1.44121,-2.6214 -1.6707,-2.76864 -4.31543,-2.76864 -3.08169,0 -4.46898,0.67548 -6.99706,3.40692 -3.68251,3.97873 -5.58656,9.17414 -4.90751,13.39065 0.36855,2.28851 1.02622,3.76244 2.53629,5.68436 0.55448,0.70569 1.23335,1.82206 1.5086,2.48082 0.45501,1.08901 0.43865,1.29938 -0.18016,2.31695 -1.5738,2.58788 -0.48906,5.62961 3.18483,8.93064 2.78543,2.50276 5.43675,3.73461 8.03796,3.73461 1.67227,0 2.26421,0.15185 2.84121,0.72885 1.15729,1.1573 3.07247,1.67323 6.27904,1.69153 2.17631,0.0125 3.35577,-0.15632 4.37993,-0.62661 z"
         id="path5135-0" />
      <path
         inkscape:transform-center-y="18.710124"
         inkscape:transform-center-x="-3.14761"
         inkscape:connector-curvature="0"
         style="fill:#539b23;fill-opacity:0.86538463;stroke:none;stroke-width:1.00518191"
         d="m 206.33818,-211.45395 c 1.17208,-1.37681 1.48904,-2.38098 1.34635,-4.26515 -0.13334,-1.76075 0.74321,-2.93332 1.92658,-2.57722 1.33092,0.40047 4.07869,-0.27468 6.71253,-1.64933 2.05661,-1.07343 2.76496,-1.66936 4.4594,-3.75167 1.10791,-1.36156 2.35091,-3.26217 2.76222,-4.22355 3.59525,-8.40382 -5.70442,-17.94735 -13.93875,-14.3043 -1.68082,0.74365 -2.2153,1.15577 -2.75073,2.121 -0.73138,1.31845 -1.81885,1.81444 -2.73444,1.24717 -0.4389,-0.27196 -0.6204,-0.89521 -0.69878,-2.39962 -0.0932,-1.78914 -0.34803,-2.50294 -2.13069,-5.9678 -2.25304,-4.37784 -3.69022,-5.9761 -6.89099,-7.65933 -3.13403,-1.64813 -8.61336,-0.89735 -11.61302,1.59123 -2.3588,1.95693 -3.7758,6.37616 -2.88945,9.01138 0.54626,1.62405 0.24431,2.68996 -0.9089,3.20852 -0.70396,0.31655 -1.17567,0.24139 -1.97253,-0.31427 -2.52874,-1.76332 -2.80641,-1.80136 -5.22158,-0.71533 -2.81418,1.26545 -3.76859,2.44198 -4.8137,5.9341 -1.52235,5.08674 -0.85779,10.53629 1.71283,14.04565 1.39518,1.90469 2.67759,2.95885 4.94563,4.06544 0.83277,0.4064 1.96917,1.13053 2.52526,1.60935 0.91927,0.79155 1.00166,0.98726 0.90727,2.15558 -0.24008,2.97126 2.15757,5.25859 7.03956,6.71566 3.70139,1.10474 6.69241,1.12274 9.06783,0.0546 1.52711,-0.68669 2.13791,-0.79334 2.93174,-0.51188 1.59219,0.56452 3.57978,0.2416 6.51648,-1.0587 1.99319,-0.88244 2.99218,-1.51843 3.70987,-2.36151 z"
         id="path5135-5-7" />
      <path
         inkscape:transform-center-y="17.504562"
         inkscape:transform-center-x="-10.261522"
         inkscape:connector-curvature="0"
         style="fill:#539b23;fill-opacity:0.86538463;stroke:none;stroke-width:1.00518191"
         d="m 196.64143,-189.56777 c 0.50485,-1.73623 0.38244,-2.7821 -0.51992,-4.44228 -0.84324,-1.55144 -0.52426,-2.98025 0.70112,-3.14042 1.37814,-0.18016 3.60783,-1.92214 5.44693,-4.25548 1.43604,-1.82201 1.83794,-2.6559 2.53013,-5.24974 0.45257,-1.69602 0.80746,-3.9391 0.78863,-4.98461 -0.16474,-9.13908 -12.55879,-14.03297 -18.57677,-7.33521 -1.2284,1.36718 -1.54704,1.96215 -1.63985,3.06203 -0.12678,1.50238 -0.91545,2.40049 -1.98311,2.25829 -0.5118,-0.0682 -0.93279,-0.56231 -1.62084,-1.90245 -0.81826,-1.5938 -1.34326,-2.14045 -4.38935,-4.57036 -3.84932,-3.06991 -5.81528,-3.93877 -9.42474,-4.16236 -3.5342,-0.21892 -8.22452,2.71153 -9.94079,6.21088 -1.34958,2.75175 -0.83096,7.36353 1.05754,9.40401 1.16387,1.25752 1.32529,2.35355 0.4859,3.29918 -0.51239,0.57725 -0.97347,0.70202 -1.92806,0.52175 -3.02928,-0.57206 -3.29815,-0.49296 -5.05608,1.48749 -2.04836,2.30764 -2.43675,3.77198 -1.95886,7.38567 0.6961,5.26383 3.5357,9.96233 7.31877,12.1099 2.05324,1.16559 3.65503,1.60157 6.17737,1.68144 0.92617,0.0294 2.25951,0.22419 2.963,0.43304 1.16293,0.34527 1.31828,0.49003 1.711,1.5944 0.99875,2.80866 4.12321,3.91243 9.17353,3.2407 3.82902,-0.50926 6.56468,-1.71867 8.29367,-3.66653 1.11154,-1.25223 1.62498,-1.59984 2.46443,-1.66844 1.68369,-0.13761 3.36435,-1.24675 5.51018,-3.63639 1.45645,-1.6218 2.10703,-2.61135 2.41616,-3.67451 z"
         id="path5135-5" />
      <path
         inkscape:transform-center-y="18.710124"
         inkscape:transform-center-x="-3.14761"
         inkscape:connector-curvature="0"
         style="fill:#539b23;fill-opacity:0.86538463;stroke:none;stroke-width:1.00518191"
         d="m 198.46812,-128.38795 c 1.17208,-1.37681 1.48904,-2.38098 1.34635,-4.26515 -0.13334,-1.76075 0.74321,-2.93332 1.92658,-2.57722 1.33092,0.40047 4.07869,-0.27468 6.71253,-1.64933 2.05661,-1.07343 2.76496,-1.66936 4.4594,-3.75167 1.10791,-1.36156 2.35091,-3.26217 2.76222,-4.22355 3.59525,-8.40382 -5.70442,-17.94735 -13.93875,-14.3043 -1.68082,0.74365 -2.2153,1.15577 -2.75073,2.121 -0.73138,1.31845 -1.81885,1.81444 -2.73444,1.24717 -0.4389,-0.27196 -0.6204,-0.89521 -0.69878,-2.39962 -0.0932,-1.78914 -0.34803,-2.50294 -2.13069,-5.9678 -2.25304,-4.37784 -3.69022,-5.9761 -6.89099,-7.65933 -3.13403,-1.64813 -8.61336,-0.89735 -11.61302,1.59123 -2.3588,1.95693 -3.7758,6.37616 -2.88945,9.01138 0.54626,1.62405 0.24431,2.68996 -0.9089,3.20852 -0.70396,0.31655 -1.17567,0.24139 -1.97253,-0.31427 -2.52874,-1.76332 -2.80641,-1.80136 -5.22158,-0.71533 -2.81418,1.26545 -3.76859,2.44198 -4.8137,5.9341 -1.52235,5.08674 -0.85779,10.53629 1.71283,14.04565 1.39518,1.90469 2.67759,2.95885 4.94563,4.06544 0.83277,0.4064 1.96917,1.13053 2.52526,1.60935 0.91927,0.79155 1.00166,0.98726 0.90727,2.15558 -0.24008,2.97126 2.15757,5.25859 7.03956,6.71566 3.70139,1.10474 6.69241,1.12274 9.06783,0.0546 1.52711,-0.68669 2.13791,-0.79334 2.93174,-0.51188 1.59219,0.56452 3.57978,0.2416 6.51648,-1.0587 1.99319,-0.88244 2.99218,-1.51843 3.70987,-2.36151 z"
         id="path5135-5-7-5" />
      <path
         inkscape:transform-center-y="18.710124"
         inkscape:transform-center-x="-3.14761"
         inkscape:connector-curvature="0"
         style="fill:#539b23;fill-opacity:0.86538463;stroke:none;stroke-width:1.00518191"
         d="m 315.3188,-156.55731 c 1.17208,-1.37681 1.48904,-2.38098 1.34635,-4.26515 -0.13334,-1.76075 0.74321,-2.93332 1.92658,-2.57722 1.33092,0.40047 4.07869,-0.27468 6.71253,-1.64933 2.05661,-1.07343 2.76496,-1.66936 4.4594,-3.75167 1.10791,-1.36156 2.35091,-3.26217 2.76222,-4.22355 3.59525,-8.40382 -5.70442,-17.94735 -13.93875,-14.3043 -1.68082,0.74365 -2.2153,1.15577 -2.75073,2.121 -0.73138,1.31845 -1.81885,1.81444 -2.73444,1.24717 -0.4389,-0.27196 -0.6204,-0.89521 -0.69878,-2.39962 -0.0932,-1.78914 -0.34803,-2.50294 -2.13069,-5.9678 -2.25304,-4.37784 -3.69022,-5.9761 -6.89099,-7.65933 -3.13403,-1.64813 -8.61336,-0.89735 -11.61302,1.59123 -2.3588,1.95693 -3.7758,6.37616 -2.88945,9.01138 0.54626,1.62405 0.24431,2.68996 -0.9089,3.20852 -0.70396,0.31655 -1.17567,0.24139 -1.97253,-0.31427 -2.52874,-1.76332 -2.80641,-1.80136 -5.22158,-0.71533 -2.81418,1.26545 -3.76859,2.44198 -4.8137,5.9341 -1.52235,5.08674 -0.85779,10.53629 1.71283,14.04565 1.39518,1.90469 2.67759,2.95885 4.94563,4.06544 0.83277,0.4064 1.96917,1.13053 2.52526,1.60935 0.91927,0.79155 1.00166,0.98726 0.90727,2.15558 -0.24008,2.97126 2.15757,5.25859 7.03956,6.71566 3.70139,1.10474 6.69241,1.12274 9.06783,0.0546 1.52711,-0.68669 2.13791,-0.79334 2.93174,-0.51188 1.59219,0.56452 3.57978,0.2416 6.51648,-1.0587 1.99319,-0.88244 2.99218,-1.51843 3.70987,-2.36151 z"
         id="path5135-5-7-5-0" />
    </g>
  </g>
</svg>
