<?xml version="1.0" encoding="UTF-8" standalone="no"?>
<svg
   version="1.1"
   class="blocklySvg"
   width="136.10001"
   height="31.900009"
   id="svg53"
   xmlns="http://www.w3.org/2000/svg"
   xmlns:svg="http://www.w3.org/2000/svg">
  <defs
     id="defs2" />
  <g
     class="blocklyWorkspace"
     id="g53"
     transform="translate(-335.60001,-149.19998)">
    <g
       class="blocklyBlockCanvas"
       transform="matrix(1.1,0,0,1.1,207.41406,7)"
       id="g47">
      <g
         class="blocklyDraggable"
         transform="translate(116.53268,129.27272)"
         id="g43">
        <path
           class="blocklyPathDark"
           transform="translate(1,1)"
           fill="#5b3084"
           d="M 0,8 A 8,8 0 0 1 8,0 h 7 l 6,4 h 3 l 6,-4 h 92.72727 V 24 H 29.5 l -6,4 h -3 l -6,-4 H 8 A 8,8 0 0 1 0,16 Z"
           id="path41" />
        <path
           class="blocklyPath"
           fill="#723ca5"
           d="M 0,8 A 8,8 0 0 1 8,0 h 7 l 6,4 h 3 l 6,-4 h 92.72727 V 24 H 29.5 l -6,4 h -3 l -6,-4 H 8 A 8,8 0 0 1 0,16 Z"
           id="path42" />
        <text
           class="blocklyText"
           y="12.5"
           transform="translate(10,5)"
           id="text43"
           style="font-style:normal;font-variant:normal;font-weight:normal;font-stretch:normal;font-size:14.5455px;font-family:Arial;-inkscape-font-specification:'Arial, Normal';font-variant-ligatures:normal;font-variant-caps:normal;font-variant-numeric:normal;font-variant-east-asian:normal;fill:#ffffff;fill-opacity:1">zünde Kerze an</text>
      </g>
      <g
         class="blocklyDraggable"
         transform="translate(125.62359,193.18183)"
         id="g46">
        <path
           class="blocklyPathDark"
           transform="translate(1,1)"
           fill="#226384"
           d="M 0,0 H 82.769886 V 24 H 0 V 20 C 0,10 -8,28 -8,12.5 -8,-3 0,15 0,5 Z"
           id="path44" />
        <path
           class="blocklyPath"
           fill="#2b7ca5"
           d="M 0,0 H 82.769886 V 24 H 0 V 20 C 0,10 -8,28 -8,12.5 -8,-3 0,15 0,5 Z"
           id="path45" />
        <text
           class="blocklyText"
           y="12.5"
           transform="translate(10,5)"
           id="text46"
           style="font-style:normal;font-variant:normal;font-weight:normal;font-stretch:normal;font-size:14.5455px;font-family:Arial;-inkscape-font-specification:'Arial, Normal';font-variant-ligatures:normal;font-variant-caps:normal;font-variant-numeric:normal;font-variant-east-asian:normal;fill:#ffffff;fill-opacity:1">auf Kerze</text>
      </g>
    </g>
  </g>
</svg>
