<?xml version="1.0" encoding="UTF-8" standalone="no"?>
<svg
   version="1.1"
   class="blocklySvg"
   width="238.76874"
   height="171.59999"
   id="svg69"
   xmlns="http://www.w3.org/2000/svg"
   xmlns:svg="http://www.w3.org/2000/svg">
  <defs
     id="defs2" />
  <g
     class="blocklyWorkspace"
     id="g69"
     transform="translate(-297.61407,-108.2)">
    <g
       class="blocklyBlockCanvas"
       transform="matrix(1.1,0,0,1.1,295.41406,106)"
       id="g63">
      <g
         transform="translate(2,2)"
         id="g62">
        <path
           class="blocklyPathDark"
           transform="translate(1,1)"
           fill="#496684"
           d="M 0,8 A 8,8 0 0 1 8,0 H 145.49715 V 24 H 29.5 l -6,4 h -3 l -6,-4 H 0 Z"
           id="path43" />
        <path
           class="blocklyPath"
           fill="#5b80a5"
           d="M 0,8 A 8,8 0 0 1 8,0 H 145.49715 V 24 H 29.5 l -6,4 h -3 l -6,-4 H 0 Z"
           id="path44" />
        <text
           class="blocklyText"
           y="12.5"
           transform="translate(10,5)"
           id="text45"
           style="font-style:normal;font-variant:normal;font-weight:normal;font-stretch:normal;font-size:14.5455px;font-family:Arial;-inkscape-font-specification:'Arial, Normal';font-variant-ligatures:normal;font-variant-caps:normal;font-variant-numeric:normal;font-variant-east-asian:normal;fill:#ffffff;fill-opacity:1">Roboter-Programm</text>
        <g
           class="blocklyDraggable"
           transform="translate(0,25)"
           id="g61">
          <path
             class="blocklyPathDark"
             transform="translate(1,1)"
             fill="#269197"
             d="m 0,0 h 15 l 6,4 h 3 L 30,0 H 154.95738 V 25 H 94.019886 l -6,4 h -3 l -6,-4 h -7 a 8,8 0 0 0 -8,8 v 75 a 8,8 0 0 0 8,8 h 82.937494 v 10 H 29.5 l -6,4 h -3 l -6,-4 H 8 a 8,8 0 0 1 -8,-8 z"
             id="path46" />
          <path
             class="blocklyPath"
             fill="#2fb5bd"
             d="m 0,0 h 15 l 6,4 h 3 L 30,0 H 154.95738 V 25 H 94.019886 l -6,4 h -3 l -6,-4 h -7 a 8,8 0 0 0 -8,8 v 75 a 8,8 0 0 0 8,8 h 82.937494 v 10 H 29.5 l -6,4 h -3 l -6,-4 H 8 a 8,8 0 0 1 -8,-8 z"
             id="path47" />
          <text
             class="blocklyText"
             y="12.5"
             transform="translate(10,5)"
             id="text48"
             style="font-style:normal;font-variant:normal;font-weight:normal;font-stretch:normal;font-size:14.5455px;font-family:Arial;-inkscape-font-specification:'Arial, Normal';font-variant-ligatures:normal;font-variant-caps:normal;font-variant-numeric:normal;font-variant-east-asian:normal;fill:#ffffff;fill-opacity:1">wiederhole</text>
          <g
             class="blocklyEditableText"
             transform="translate(90.923294,5)"
             id="g49">
            <rect
               rx="4"
               ry="4"
               x="-5"
               y="0"
               height="16"
               width="26.321022"
               id="rect48"
               style="fill:#abe1e5;fill-opacity:1" />
            <text
               class="blocklyText"
               y="12.5"
               id="text49"
               style="font-style:normal;font-variant:normal;font-weight:normal;font-stretch:normal;font-size:14.5455px;font-family:Arial;-inkscape-font-specification:'Arial, Normal';font-variant-ligatures:normal;font-variant-caps:normal;font-variant-numeric:normal;font-variant-east-asian:normal;fill:#000000;fill-opacity:1">10</text>
          </g>
          <text
             class="blocklyText"
             y="12.5"
             transform="translate(117.24432,5)"
             id="text50"
             style="font-style:normal;font-variant:normal;font-weight:normal;font-stretch:normal;font-size:14.5455px;font-family:Arial;-inkscape-font-specification:'Arial, Normal';font-variant-ligatures:normal;font-variant-caps:normal;font-variant-numeric:normal;font-variant-east-asian:normal;fill:#ffffff;fill-opacity:1">mal:</text>
          <text
             class="blocklyText"
             y="12.5"
             transform="translate(10,30)"
             id="text51"
             style="font-style:normal;font-variant:normal;font-weight:normal;font-stretch:normal;font-size:14.5455px;font-family:Arial;-inkscape-font-specification:'Arial, Normal';font-variant-ligatures:normal;font-variant-caps:normal;font-variant-numeric:normal;font-variant-east-asian:normal;fill:#ffffff;fill-opacity:1">mache</text>
          <g
             class="blocklyDraggable"
             transform="translate(65.019886,26)"
             id="g60">
            <path
               class="blocklyPathDark"
               transform="translate(1,1)"
               fill="#678f17"
               d="M 0,8 A 8,8 0 0 1 8,0 h 7 l 6,4 h 3 l 6,-4 h 64.019886 v 5 c 0,10 -8,-8 -8,7.5 0,15.5 8,-2.5 8,7.5 v 4 0 l -6,4 h -3 l -6,-4 h -7 a 8,8 0 0 0 -8,8 v 12 a 8,8 0 0 0 8,8 h 22 V 62 H 29.5 l -6,4 h -3 l -6,-4 H 0 Z"
               id="path51" />
            <path
               class="blocklyPath"
               fill="#81b31d"
               d="M 0,8 A 8,8 0 0 1 8,0 h 7 l 6,4 h 3 l 6,-4 h 64.019886 v 5 c 0,10 -8,-8 -8,7.5 0,15.5 8,-2.5 8,7.5 v 4 0 l -6,4 h -3 l -6,-4 h -7 a 8,8 0 0 0 -8,8 v 12 a 8,8 0 0 0 8,8 h 22 V 62 H 29.5 l -6,4 h -3 l -6,-4 H 0 Z"
               id="path52" />
            <text
               class="blocklyText"
               y="12.5"
               transform="translate(10,5)"
               id="text53"
               style="font-style:normal;font-variant:normal;font-weight:normal;font-stretch:normal;font-size:14.5455px;font-family:Arial;-inkscape-font-specification:'Arial, Normal';font-variant-ligatures:normal;font-variant-caps:normal;font-variant-numeric:normal;font-variant-east-asian:normal;fill:#ffffff;fill-opacity:1">falls</text>
            <text
               class="blocklyText"
               y="12.5"
               transform="translate(10,29)"
               id="text54"
               style="font-style:normal;font-variant:normal;font-weight:normal;font-stretch:normal;font-size:14.5455px;font-family:Arial;-inkscape-font-specification:'Arial, Normal';font-variant-ligatures:normal;font-variant-caps:normal;font-variant-numeric:normal;font-variant-east-asian:normal;fill:#ffffff;fill-opacity:1">mache</text>
            <g
               class="blocklyDraggable"
               transform="translate(65.019886,25)"
               id="g56">
              <path
                 class="blocklyPathDark"
                 transform="translate(1,1)"
                 fill="#5b3084"
                 d="M 0,8 A 8,8 0 0 1 8,0 h 7 l 6,4 h 3 L 30,0 H 86.022728 V 24 H 29.5 l -6,4 h -3 l -6,-4 H 8 A 8,8 0 0 1 0,16 Z"
                 id="path54" />
              <path
                 class="blocklyPath"
                 fill="#723ca5"
                 d="M 0,8 A 8,8 0 0 1 8,0 h 7 l 6,4 h 3 L 30,0 H 86.022728 V 24 H 29.5 l -6,4 h -3 l -6,-4 H 8 A 8,8 0 0 1 0,16 Z"
                 id="path55" />
              <text
                 class="blocklyText"
                 y="12.5"
                 transform="translate(10,5)"
                 id="text56"
                 style="font-style:normal;font-variant:normal;font-weight:normal;font-stretch:normal;font-size:14.5455px;font-family:Arial;-inkscape-font-specification:'Arial, Normal';font-variant-ligatures:normal;font-variant-caps:normal;font-variant-numeric:normal;font-variant-east-asian:normal;fill:#ffffff;fill-opacity:1">färbe Feld</text>
            </g>
            <g
               class="blocklyDraggable"
               transform="translate(0,63)"
               id="g59">
              <path
                 class="blocklyPathDark"
                 transform="translate(1,1)"
                 fill="#5b3084"
                 d="m 0,0 h 15 l 6,4 h 3 l 6,-4 h 102.5 v 24 h -103 l -6,4 h -3 l -6,-4 H 8 A 8,8 0 0 1 0,16 Z"
                 id="path57" />
              <path
                 class="blocklyPath"
                 fill="#723ca5"
                 d="m 0,0 h 15 l 6,4 h 3 l 6,-4 h 102.5 v 24 h -103 l -6,4 h -3 l -6,-4 H 8 A 8,8 0 0 1 0,16 Z"
                 id="path58" />
              <text
                 class="blocklyText"
                 y="12.5"
                 transform="translate(10,5)"
                 id="text59"
                 style="font-style:normal;font-variant:normal;font-weight:normal;font-stretch:normal;font-size:14.5455px;font-family:Arial;-inkscape-font-specification:'Arial, Normal';font-variant-ligatures:normal;font-variant-caps:normal;font-variant-numeric:normal;font-variant-east-asian:normal;fill:#ffffff;fill-opacity:1">gehe nach rechts</text>
            </g>
          </g>
        </g>
      </g>
    </g>
  </g>
</svg>
