<?xml version="1.0" encoding="UTF-8" standalone="no"?>
<svg
   version="1.1"
   class="blocklySvg"
   width="474.94998"
   height="127.60001"
   id="svg83"
   xmlns="http://www.w3.org/2000/svg"
   xmlns:svg="http://www.w3.org/2000/svg">
  <defs
     id="defs2" />
  <g
     class="blocklyWorkspace"
     id="g83"
     transform="translate(-275.60001,-361.29999)">
    <g
       class="blocklyBlockCanvas"
       transform="matrix(1.1,0,0,1.1,296.41406,119)"
       id="g77">
      <g
         class="blocklyDraggable"
         transform="translate(-18.921871,220.27272)"
         id="g74">
        <path
           class="blocklyPathDark"
           transform="translate(1,1)"
           fill="#678f17"
           d="M 0,8 A 8,8 0 0 1 8,0 h 7 l 6,4 h 3 l 6,-4 h 64.019886 v 5 c 0,10 -8,-8 -8,7.5 0,15.5 8,-2.5 8,7.5 v 53 0 l -6,4 h -3 l -6,-4 h -7 a 8,8 0 0 0 -8,8 v 12 a 8,8 0 0 0 8,8 h 22 v 10 H 29.5 l -6,4 h -3 l -6,-4 H 8 a 8,8 0 0 1 -8,-8 z"
           id="path44" />
        <path
           class="blocklyPath"
           fill="#81b31d"
           d="M 0,8 A 8,8 0 0 1 8,0 h 7 l 6,4 h 3 l 6,-4 h 64.019886 v 5 c 0,10 -8,-8 -8,7.5 0,15.5 8,-2.5 8,7.5 v 53 0 l -6,4 h -3 l -6,-4 h -7 a 8,8 0 0 0 -8,8 v 12 a 8,8 0 0 0 8,8 h 22 v 10 H 29.5 l -6,4 h -3 l -6,-4 H 8 a 8,8 0 0 1 -8,-8 z"
           id="path45" />
        <text
           class="blocklyText"
           y="12.5"
           transform="translate(10,5)"
           id="text46"
           style="font-style:normal;font-variant:normal;font-weight:normal;font-stretch:normal;font-size:14.5455px;font-family:Arial;-inkscape-font-specification:'Arial, Normal';font-variant-ligatures:normal;font-variant-caps:normal;font-variant-numeric:normal;font-variant-east-asian:normal;fill:#ffffff;fill-opacity:1">falls</text>
        <text
           class="blocklyText"
           y="12.5"
           transform="translate(10,78)"
           id="text47"
           style="font-style:normal;font-variant:normal;font-weight:normal;font-stretch:normal;font-size:14.5455px;font-family:Arial;-inkscape-font-specification:'Arial, Normal';font-variant-ligatures:normal;font-variant-caps:normal;font-variant-numeric:normal;font-variant-east-asian:normal;fill:#ffffff;fill-opacity:1">mache</text>
        <g
           class="blocklyDraggable"
           transform="translate(95.019886)"
           id="g71">
          <path
             class="blocklyPathDark"
             transform="translate(1,1)"
             fill="#678f17"
             d="m 0,0 h 73.25568 v 5 c 0,10 -8,-8 -8,7.5 0,15.5 8,-2.5 8,7.5 v 17 5 c 0,10 -8,-8 -8,7.5 0,15.5 8,-2.5 8,7.5 V 73 H 0 V 20 C 0,10 -8,28 -8,12.5 -8,-3 0,15 0,5 Z"
             id="path47" />
          <path
             class="blocklyPath"
             fill="#81b31d"
             d="m 0,0 h 73.25568 v 5 c 0,10 -8,-8 -8,7.5 0,15.5 8,-2.5 8,7.5 v 17 5 c 0,10 -8,-8 -8,7.5 0,15.5 8,-2.5 8,7.5 V 73 H 0 V 20 C 0,10 -8,28 -8,12.5 -8,-3 0,15 0,5 Z"
             id="path48" />
          <path
             class="blocklyPathLight"
             stroke="#a7ca61"
             d="m 0.5,0.5 h 72.25568 m 0,0 m -4.5,18.8 3.68,-2.1 m 0.82,20.3 m -4.5,18.8 3.68,-2.1 M 0.5,72.5 v -54 M -6.86,18 q -1.52,-5.5 0,-11 M 0.5,8 V 0.5 H 1"
             id="path49" />
          <g
             class="blocklyEditableText"
             transform="translate(10,42)"
             id="g49">
            <rect
               rx="4"
               ry="4"
               x="-5"
               y="0"
               height="16"
               width="55.25568"
               id="rect49"
               style="fill:#cce0a5;fill-opacity:1" />
            <text
               class="blocklyText"
               y="12.5"
               id="text49"
               style="font-style:normal;font-variant:normal;font-weight:normal;font-stretch:normal;font-size:14.5455px;font-family:Arial;-inkscape-font-specification:'Arial, Normal';font-variant-ligatures:normal;font-variant-caps:normal;font-variant-numeric:normal;font-variant-east-asian:normal;fill:#000000;fill-opacity:1">oder<tspan
   style="font-style:normal;font-variant:normal;font-weight:normal;font-stretch:normal;font-size:14.5455px;font-family:Arial;-inkscape-font-specification:'Arial, Normal';font-variant-ligatures:normal;font-variant-caps:normal;font-variant-numeric:normal;font-variant-east-asian:normal;fill:#000000;fill-opacity:1"
   id="tspan49">▾</tspan></text>
          </g>
          <g
             class="blocklyDraggable"
             transform="translate(74.25568)"
             id="g60">
            <path
               class="blocklyPathDark"
               transform="translate(1,1)"
               fill="#678f17"
               d="M 0,0 H 20 261.49715 V 36 H 0 V 20 C 0,10 -8,28 -8,12.5 -8,-3 0,15 0,5 Z M 170.86931,5 H 16 v 5 C 16,20 8,2 8,17.5 8,33 16,15 16,25 v 6 h 154.86931 z m 80.62784,0 h -30.16761 v 5 c 0,10 -8,-8 -8,7.5 0,15.5 8,-2.5 8,7.5 v 7 h 30.16761 z"
               id="path50" />
            <path
               class="blocklyPath"
               fill="#81b31d"
               d="M 0,0 H 20 261.49715 V 36 H 0 V 20 C 0,10 -8,28 -8,12.5 -8,-3 0,15 0,5 Z M 170.86931,5 H 16 v 5 C 16,20 8,2 8,17.5 8,33 16,15 16,25 v 6 h 154.86931 z m 80.62784,0 h -30.16761 v 5 c 0,10 -8,-8 -8,7.5 0,15.5 8,-2.5 8,7.5 v 7 h 30.16761 z"
               id="path51" />
            <path
               class="blocklyPathLight"
               stroke="#a7ca61"
               d="m 0.5,0.5 h 19 m 0,0 H 260.99715 M 0.5,35.5 v -17 M -6.86,18 q -1.52,-5.5 0,-11 M 0.5,8 V 0.5 H 1 m 170.36931,5 v 26 H 16.5 m -5.6,-7.2 3.68,-2.1 M 251.99715,5.5 v 27 h -30.16761 m -5.6,-8.2 3.68,-2.1"
               id="path52" />
            <g
               class="blocklyEditableText"
               transform="translate(180.86931,10)"
               id="g52">
              <rect
                 rx="4"
                 ry="4"
                 x="-5"
                 y="0"
                 height="16"
                 width="34.460228"
                 id="rect52"
                 style="fill:#cce0a5;fill-opacity:1" />
              <text
                 class="blocklyText"
                 y="12.5"
                 id="text52"
                 style="font-style:normal;font-variant:normal;font-weight:normal;font-stretch:normal;font-size:14.5455px;font-family:Arial;-inkscape-font-specification:'Arial, Normal';font-variant-ligatures:normal;font-variant-caps:normal;font-variant-numeric:normal;font-variant-east-asian:normal;fill:#000000;fill-opacity:1">&lt;<tspan
   style="font-style:normal;font-variant:normal;font-weight:normal;font-stretch:normal;font-size:14.5455px;font-family:Arial;-inkscape-font-specification:'Arial, Normal';font-variant-ligatures:normal;font-variant-caps:normal;font-variant-numeric:normal;font-variant-east-asian:normal;fill:#000000;fill-opacity:1"
   id="tspan52">▾</tspan></text>
            </g>
            <g
               class="blocklyDraggable"
               transform="translate(17,6)"
               id="g55">
              <path
                 class="blocklyPathDark"
                 transform="translate(1,1)"
                 fill="#226384"
                 d="M 0,0 H 152.86931 V 24 H 0 V 20 C 0,10 -8,28 -8,12.5 -8,-3 0,15 0,5 Z"
                 id="path53" />
              <path
                 class="blocklyPath"
                 fill="#2b7ca5"
                 d="M 0,0 H 152.86931 V 24 H 0 V 20 C 0,10 -8,28 -8,12.5 -8,-3 0,15 0,5 Z"
                 id="path54" />
              <path
                 class="blocklyPathLight"
                 stroke="#6ba3c0"
                 d="m 0.5,0.5 h 151.86931 m 0,0 M 0.5,23.5 v -5 M -6.86,18 q -1.52,-5.5 0,-11 M 0.5,8 V 0.5 H 1"
                 id="path55" />
              <text
                 class="blocklyText"
                 y="12.5"
                 transform="translate(10,5)"
                 id="text55"
                 style="font-style:normal;font-variant:normal;font-weight:normal;font-stretch:normal;font-size:14.5455px;font-family:Arial;-inkscape-font-specification:'Arial, Normal';font-variant-ligatures:normal;font-variant-caps:normal;font-variant-numeric:normal;font-variant-east-asian:normal;fill:#ffffff;fill-opacity:1">Spalte des Roboters</text>
            </g>
            <g
               class="blocklyDraggable"
               transform="translate(222.32954,6)"
               id="g59">
              <path
                 class="blocklyPathDark"
                 transform="translate(1,1)"
                 fill="#2e4084"
                 d="M 0,0 H 28.167613 V 25 H 0 V 20 C 0,10 -8,28 -8,12.5 -8,-3 0,15 0,5 Z"
                 id="path56" />
              <path
                 class="blocklyPath"
                 fill="#3950a5"
                 d="M 0,0 H 28.167613 V 25 H 0 V 20 C 0,10 -8,28 -8,12.5 -8,-3 0,15 0,5 Z"
                 id="path57" />
              <g
                 class="blocklyEditableText"
                 transform="translate(10,5)"
                 id="g58">
                <rect
                   rx="4"
                   ry="4"
                   x="-5"
                   y="0"
                   height="16"
                   width="18.167614"
                   id="rect58"
                   style="fill:#afb9db;fill-opacity:1" />
                <text
                   class="blocklyText"
                   y="12.5"
                   id="text58"
                   style="font-style:normal;font-variant:normal;font-weight:normal;font-stretch:normal;font-size:14.5455px;font-family:Arial;-inkscape-font-specification:'Arial, Normal';font-variant-ligatures:normal;font-variant-caps:normal;font-variant-numeric:normal;font-variant-east-asian:normal;fill:#000000;fill-opacity:1">4</text>
              </g>
            </g>
          </g>
          <g
             class="blocklyDraggable"
             transform="translate(74.25568,37)"
             id="g70">
            <path
               class="blocklyPathDark"
               transform="translate(1,1)"
               fill="#678f17"
               d="M 0,0 H 20 261.49715 V 36 H 0 V 20 C 0,10 -8,28 -8,12.5 -8,-3 0,15 0,5 Z M 170.86931,5 H 16 v 5 C 16,20 8,2 8,17.5 8,33 16,15 16,25 v 6 h 154.86931 z m 80.62784,0 h -30.16761 v 5 c 0,10 -8,-8 -8,7.5 0,15.5 8,-2.5 8,7.5 v 7 h 30.16761 z"
               id="path60" />
            <path
               class="blocklyPath"
               fill="#81b31d"
               d="M 0,0 H 20 261.49715 V 36 H 0 V 20 C 0,10 -8,28 -8,12.5 -8,-3 0,15 0,5 Z M 170.86931,5 H 16 v 5 C 16,20 8,2 8,17.5 8,33 16,15 16,25 v 6 h 154.86931 z m 80.62784,0 h -30.16761 v 5 c 0,10 -8,-8 -8,7.5 0,15.5 8,-2.5 8,7.5 v 7 h 30.16761 z"
               id="path61" />
            <path
               class="blocklyPathLight"
               stroke="#a7ca61"
               d="m 0.5,0.5 h 19 m 0,0 H 260.99715 M 0.5,35.5 v -17 M -6.86,18 q -1.52,-5.5 0,-11 M 0.5,8 V 0.5 H 1 m 170.36931,5 v 26 H 16.5 m -5.6,-7.2 3.68,-2.1 M 251.99715,5.5 v 27 h -30.16761 m -5.6,-8.2 3.68,-2.1"
               id="path62" />
            <g
               class="blocklyDraggable"
               transform="translate(17,6)"
               id="g65">
              <path
                 class="blocklyPathDark"
                 transform="translate(1,1)"
                 fill="#226384"
                 d="M 0,0 H 152.86931 V 24 H 0 V 20 C 0,10 -8,28 -8,12.5 -8,-3 0,15 0,5 Z"
                 id="path63" />
              <path
                 class="blocklyPath"
                 fill="#2b7ca5"
                 d="M 0,0 H 152.86931 V 24 H 0 V 20 C 0,10 -8,28 -8,12.5 -8,-3 0,15 0,5 Z"
                 id="path64" />
              <text
                 class="blocklyText"
                 y="12.5"
                 transform="translate(10,5)"
                 id="text65"
                 style="font-style:normal;font-variant:normal;font-weight:normal;font-stretch:normal;font-size:14.5455px;font-family:Arial;-inkscape-font-specification:'Arial, Normal';font-variant-ligatures:normal;font-variant-caps:normal;font-variant-numeric:normal;font-variant-east-asian:normal;fill:#ffffff;fill-opacity:1">Spalte des Roboters</text>
            </g>
            <g
               class="blocklyEditableText"
               transform="translate(180.86931,10)"
               id="g66">
              <rect
                 rx="4"
                 ry="4"
                 x="-5"
                 y="0"
                 height="16"
                 width="34.460228"
                 id="rect65"
                 style="fill:#cce0a5;fill-opacity:1" />
              <text
                 class="blocklyText"
                 y="12.5"
                 id="text66"
                 style="font-style:normal;font-variant:normal;font-weight:normal;font-stretch:normal;font-size:14.5455px;font-family:Arial;-inkscape-font-specification:'Arial, Normal';font-variant-ligatures:normal;font-variant-caps:normal;font-variant-numeric:normal;font-variant-east-asian:normal;fill:#000000;fill-opacity:1">&gt;<tspan
   style="font-style:normal;font-variant:normal;font-weight:normal;font-stretch:normal;font-size:14.5455px;font-family:Arial;-inkscape-font-specification:'Arial, Normal';font-variant-ligatures:normal;font-variant-caps:normal;font-variant-numeric:normal;font-variant-east-asian:normal;fill:#000000;fill-opacity:1"
   id="tspan65">▾</tspan></text>
            </g>
            <g
               class="blocklyDraggable"
               transform="translate(222.32954,6)"
               id="g69">
              <path
                 class="blocklyPathDark"
                 transform="translate(1,1)"
                 fill="#2e4084"
                 d="M 0,0 H 28.167613 V 25 H 0 V 20 C 0,10 -8,28 -8,12.5 -8,-3 0,15 0,5 Z"
                 id="path66" />
              <path
                 class="blocklyPath"
                 fill="#3950a5"
                 d="M 0,0 H 28.167613 V 25 H 0 V 20 C 0,10 -8,28 -8,12.5 -8,-3 0,15 0,5 Z"
                 id="path67" />
              <g
                 class="blocklyEditableText"
                 transform="translate(10,5)"
                 id="g68">
                <rect
                   rx="4"
                   ry="4"
                   x="-5"
                   y="0"
                   height="16"
                   width="18.167614"
                   id="rect68"
                   style="fill:#afb9db;fill-opacity:1" />
                <text
                   class="blocklyText"
                   y="12.5"
                   id="text68"
                   style="font-style:normal;font-variant:normal;font-weight:normal;font-stretch:normal;font-size:14.5455px;font-family:Arial;-inkscape-font-specification:'Arial, Normal';font-variant-ligatures:normal;font-variant-caps:normal;font-variant-numeric:normal;font-variant-east-asian:normal;fill:#000000;fill-opacity:1">8</text>
              </g>
            </g>
          </g>
        </g>
        <g
           class="blocklyDraggable"
           transform="translate(65.019886,74)"
           id="g73">
          <path
             class="blocklyPathDark"
             transform="translate(1,1)"
             fill="#5b3084"
             d="M 0,8 A 8,8 0 0 1 8,0 h 7 l 6,4 h 3 L 30,0 H 86.022728 V 24 H 29.5 l -6,4 h -3 l -6,-4 H 8 A 8,8 0 0 1 0,16 Z"
             id="path71" />
          <path
             class="blocklyPath"
             fill="#723ca5"
             d="M 0,8 A 8,8 0 0 1 8,0 h 7 l 6,4 h 3 L 30,0 H 86.022728 V 24 H 29.5 l -6,4 h -3 l -6,-4 H 8 A 8,8 0 0 1 0,16 Z"
             id="path72" />
          <text
             class="blocklyText"
             y="12.5"
             transform="translate(10,5)"
             id="text73"
             style="font-style:normal;font-variant:normal;font-weight:normal;font-stretch:normal;font-size:14.5455px;font-family:Arial;-inkscape-font-specification:'Arial, Normal';font-variant-ligatures:normal;font-variant-caps:normal;font-variant-numeric:normal;font-variant-east-asian:normal;fill:#ffffff;fill-opacity:1">färbe Feld</text>
        </g>
      </g>
    </g>
  </g>
</svg>
