<?xml version="1.0" encoding="UTF-8" standalone="no"?>
<svg
   version="1.1"
   class="blocklySvg"
   width="445.15625"
   height="114"
   id="svg86"
   xmlns="http://www.w3.org/2000/svg"
   xmlns:svg="http://www.w3.org/2000/svg">
  <defs
     id="defs2" />
  <g
     class="blocklyWorkspace"
     id="g86"
     transform="translate(-345,-219)">
    <g
       class="blocklyBlockCanvas"
       transform="translate(198.625,7)"
       id="g80">
      <g
         class="blocklyDraggable"
         transform="translate(146.375,212)"
         id="g79">
        <path
           class="blocklyPathDark"
           transform="translate(1,1)"
           fill="#678f17"
           d="M 0,8 A 8,8 0 0 1 8,0 h 7 l 6,4 h 3 l 6,-4 h 64.015625 v 5 c 0,10 -8,-8 -8,7.5 0,15.5 8,-2.5 8,7.5 v 55 0 l -6,4 h -3 l -6,-4 h -7 a 8,8 0 0 0 -8,8 v 8 a 8,8 0 0 0 8,8 h 22 v 10 H 29.5 l -6,4 h -3 l -6,-4 H 8 a 8,8 0 0 1 -8,-8 z"
           id="path53" />
        <path
           class="blocklyPath"
           fill="#81b31d"
           d="M 0,8 A 8,8 0 0 1 8,0 h 7 l 6,4 h 3 l 6,-4 h 64.015625 v 5 c 0,10 -8,-8 -8,7.5 0,15.5 8,-2.5 8,7.5 v 55 0 l -6,4 h -3 l -6,-4 h -7 a 8,8 0 0 0 -8,8 v 8 a 8,8 0 0 0 8,8 h 22 v 10 H 29.5 l -6,4 h -3 l -6,-4 H 8 a 8,8 0 0 1 -8,-8 z"
           id="path54" />
        <text
           class="blocklyText"
           y="12.5"
           transform="translate(10,5)"
           id="text55"
           style="font-style:normal;font-variant:normal;font-weight:normal;font-stretch:normal;font-size:14.6667px;font-family:Arial;-inkscape-font-specification:'Arial, Normal';font-variant-ligatures:normal;font-variant-caps:normal;font-variant-numeric:normal;font-variant-east-asian:normal;fill:#ffffff;fill-opacity:1">falls</text>
        <text
           class="blocklyText"
           y="12.5"
           transform="translate(10,80)"
           id="text56"
           style="font-style:normal;font-variant:normal;font-weight:normal;font-stretch:normal;font-size:14.6667px;font-family:Arial;-inkscape-font-specification:'Arial, Normal';font-variant-ligatures:normal;font-variant-caps:normal;font-variant-numeric:normal;font-variant-east-asian:normal;fill:#ffffff;fill-opacity:1">mache</text>
        <g
           class="blocklyDraggable"
           transform="translate(95.015625)"
           id="g78">
          <path
             class="blocklyPathDark"
             transform="translate(1,1)"
             fill="#678f17"
             d="m 0,0 h 68.796875 v 5 c 0,10 -8,-8 -8,7.5 0,15.5 8,-2.5 8,7.5 v 5 5 c 0,10 -8,-8 -8,7.5 0,15.5 8,-2.5 8,7.5 V 75 H 0 V 20 C 0,10 -8,28 -8,12.5 -8,-3 0,15 0,5 Z"
             id="path56" />
          <path
             class="blocklyPath"
             fill="#81b31d"
             d="m 0,0 h 68.796875 v 5 c 0,10 -8,-8 -8,7.5 0,15.5 8,-2.5 8,7.5 v 5 5 c 0,10 -8,-8 -8,7.5 0,15.5 8,-2.5 8,7.5 V 75 H 0 V 20 C 0,10 -8,28 -8,12.5 -8,-3 0,15 0,5 Z"
             id="path57" />
          <path
             class="blocklyPathLight"
             stroke="#a7ca61"
             d="m 0.5,0.5 h 67.796875 m 0,0 m -4.5,18.8 3.68,-2.1 m 0.82,8.3 m -4.5,18.8 3.68,-2.1 M 0.5,74.5 v -56 M -6.86,18 q -1.52,-5.5 0,-11 M 0.5,8 V 0.5 H 1"
             id="path58" />
          <g
             class="blocklyEditableText"
             transform="translate(10,30)"
             id="g58">
            <rect
               rx="4"
               ry="4"
               x="-5"
               y="0"
               height="16"
               width="50.796875"
               id="rect58"
               style="fill:#cce0a5;fill-opacity:1" />
            <text
               class="blocklyText"
               y="12.5"
               id="text58"
               style="font-style:normal;font-variant:normal;font-weight:normal;font-stretch:normal;font-size:14.6667px;font-family:Arial;-inkscape-font-specification:'Arial, Normal';font-variant-ligatures:normal;font-variant-caps:normal;font-variant-numeric:normal;font-variant-east-asian:normal;fill:#000000;fill-opacity:1">und<tspan
   style="font-style:normal;font-variant:normal;font-weight:normal;font-stretch:normal;font-size:14.6667px;font-family:Arial;-inkscape-font-specification:'Arial, Normal';font-variant-ligatures:normal;font-variant-caps:normal;font-variant-numeric:normal;font-variant-east-asian:normal;fill:#000000;fill-opacity:1"
   id="tspan58">▾</tspan></text>
          </g>
          <g
             class="blocklyDraggable"
             transform="translate(69.796875,25)"
             id="g75">
            <path
               class="blocklyPathDark"
               transform="translate(1,1)"
               fill="#678f17"
               d="m 0,0 h 68.796875 v 5 c 0,10 -8,-8 -8,7.5 0,15.5 8,-2.5 8,7.5 v 5 5 c 0,10 -8,-8 -8,7.5 0,15.5 8,-2.5 8,7.5 v 5 H 0 V 20 C 0,10 -8,28 -8,12.5 -8,-3 0,15 0,5 Z"
               id="path59" />
            <path
               class="blocklyPath"
               fill="#81b31d"
               d="m 0,0 h 68.796875 v 5 c 0,10 -8,-8 -8,7.5 0,15.5 8,-2.5 8,7.5 v 5 5 c 0,10 -8,-8 -8,7.5 0,15.5 8,-2.5 8,7.5 v 5 H 0 V 20 C 0,10 -8,28 -8,12.5 -8,-3 0,15 0,5 Z"
               id="path60" />
            <path
               class="blocklyPathLight"
               stroke="#a7ca61"
               d="m 0.5,0.5 h 67.796875 m 0,0 m -4.5,18.8 3.68,-2.1 m 0.82,8.3 m -4.5,18.8 3.68,-2.1 M 0.5,49.5 v -31 M -6.86,18 q -1.52,-5.5 0,-11 M 0.5,8 V 0.5 H 1"
               id="path61" />
            <g
               class="blocklyEditableText"
               transform="translate(10,30)"
               id="g61">
              <rect
                 rx="4"
                 ry="4"
                 x="-5"
                 y="0"
                 height="16"
                 width="50.796875"
                 id="rect61"
                 style="fill:#cce0a5;fill-opacity:1" />
              <text
                 class="blocklyText"
                 y="12.5"
                 id="text61"
                 style="font-style:normal;font-variant:normal;font-weight:normal;font-stretch:normal;font-size:14.6667px;font-family:Arial;-inkscape-font-specification:'Arial, Normal';font-variant-ligatures:normal;font-variant-caps:normal;font-variant-numeric:normal;font-variant-east-asian:normal;fill:#000000;fill-opacity:1">und<tspan
   style="font-style:normal;font-variant:normal;font-weight:normal;font-stretch:normal;font-size:14.6667px;font-family:Arial;-inkscape-font-specification:'Arial, Normal';font-variant-ligatures:normal;font-variant-caps:normal;font-variant-numeric:normal;font-variant-east-asian:normal;fill:#000000;fill-opacity:1"
   id="tspan61">▾</tspan></text>
            </g>
            <g
               class="blocklyDraggable"
               transform="translate(69.796875)"
               id="g68">
              <path
                 class="blocklyPathDark"
                 transform="translate(1,1)"
                 fill="#678f17"
                 d="m 0,0 h 58.96875 v 5 c 0,10 -8,-8 -8,7.5 0,15.5 8,-2.5 8,7.5 v 4 H 0 V 20 C 0,10 -8,28 -8,12.5 -8,-3 0,15 0,5 Z"
                 id="path62" />
              <path
                 class="blocklyPath"
                 fill="#81b31d"
                 d="m 0,0 h 58.96875 v 5 c 0,10 -8,-8 -8,7.5 0,15.5 8,-2.5 8,7.5 v 4 H 0 V 20 C 0,10 -8,28 -8,12.5 -8,-3 0,15 0,5 Z"
                 id="path63" />
              <text
                 class="blocklyText"
                 y="12.5"
                 transform="translate(10,5)"
                 id="text64"
                 style="font-style:normal;font-variant:normal;font-weight:normal;font-stretch:normal;font-size:14.6667px;font-family:Arial;-inkscape-font-specification:'Arial, Normal';font-variant-ligatures:normal;font-variant-caps:normal;font-variant-numeric:normal;font-variant-east-asian:normal;fill:#ffffff;fill-opacity:1">nicht</text>
              <g
                 class="blocklyDraggable"
                 transform="translate(59.96875)"
                 id="g67">
                <path
                   class="blocklyPathDark"
                   transform="translate(1,1)"
                   fill="#226384"
                   d="M 0,0 H 136.53125 V 24 H 0 V 20 C 0,10 -8,28 -8,12.5 -8,-3 0,15 0,5 Z"
                   id="path65" />
                <path
                   class="blocklyPath"
                   fill="#2b7ca5"
                   d="M 0,0 H 136.53125 V 24 H 0 V 20 C 0,10 -8,28 -8,12.5 -8,-3 0,15 0,5 Z"
                   id="path66" />
                <text
                   class="blocklyText"
                   y="12.5"
                   transform="translate(10,5)"
                   id="text67"
                   style="font-style:normal;font-variant:normal;font-weight:normal;font-stretch:normal;font-size:14.6667px;font-family:Arial;-inkscape-font-specification:'Arial, Normal';font-variant-ligatures:normal;font-variant-caps:normal;font-variant-numeric:normal;font-variant-east-asian:normal;fill:#ffffff;fill-opacity:1">auf grünem Kreuz</text>
              </g>
            </g>
            <g
               class="blocklyDraggable"
               transform="translate(69.796875,25)"
               id="g74">
              <path
                 class="blocklyPathDark"
                 transform="translate(1,1)"
                 fill="#678f17"
                 d="m 0,0 h 58.96875 v 5 c 0,10 -8,-8 -8,7.5 0,15.5 8,-2.5 8,7.5 v 4 H 0 V 20 C 0,10 -8,28 -8,12.5 -8,-3 0,15 0,5 Z"
                 id="path68" />
              <path
                 class="blocklyPath"
                 fill="#81b31d"
                 d="m 0,0 h 58.96875 v 5 c 0,10 -8,-8 -8,7.5 0,15.5 8,-2.5 8,7.5 v 4 H 0 V 20 C 0,10 -8,28 -8,12.5 -8,-3 0,15 0,5 Z"
                 id="path69" />
              <path
                 class="blocklyPathLight"
                 stroke="#a7ca61"
                 d="m 0.5,0.5 h 57.96875 m 0,0 m -4.5,18.8 3.68,-2.1 M 0.5,23.5 v -5 M -6.86,18 q -1.52,-5.5 0,-11 M 0.5,8 V 0.5 H 1"
                 id="path70" />
              <text
                 class="blocklyText"
                 y="12.5"
                 transform="translate(10,5)"
                 id="text70"
                 style="font-style:normal;font-variant:normal;font-weight:normal;font-stretch:normal;font-size:14.6667px;font-family:Arial;-inkscape-font-specification:'Arial, Normal';font-variant-ligatures:normal;font-variant-caps:normal;font-variant-numeric:normal;font-variant-east-asian:normal;fill:#ffffff;fill-opacity:1">nicht</text>
              <g
                 class="blocklyDraggable"
                 transform="translate(59.96875)"
                 id="g73">
                <path
                   class="blocklyPathDark"
                   transform="translate(1,1)"
                   fill="#226384"
                   d="M 0,0 H 149.57812 V 24 H 0 V 20 C 0,10 -8,28 -8,12.5 -8,-3 0,15 0,5 Z"
                   id="path71" />
                <path
                   class="blocklyPath"
                   fill="#2b7ca5"
                   d="M 0,0 H 149.57812 V 24 H 0 V 20 C 0,10 -8,28 -8,12.5 -8,-3 0,15 0,5 Z"
                   id="path72" />
                <text
                   class="blocklyText"
                   y="12.5"
                   transform="translate(10,5)"
                   id="text73"
                   style="font-style:normal;font-variant:normal;font-weight:normal;font-stretch:normal;font-size:14.6667px;font-family:Arial;-inkscape-font-specification:'Arial, Normal';font-variant-ligatures:normal;font-variant-caps:normal;font-variant-numeric:normal;font-variant-east-asian:normal;fill:#ffffff;fill-opacity:1">auf blauem Quadrat</text>
              </g>
            </g>
          </g>
          <g
             class="blocklyDraggable"
             transform="translate(69.796875)"
             id="g77">
            <path
               class="blocklyPathDark"
               transform="translate(1,1)"
               fill="#226384"
               d="M 0,0 H 131.65625 V 24 H 0 V 20 C 0,10 -8,28 -8,12.5 -8,-3 0,15 0,5 Z"
               id="path75" />
            <path
               class="blocklyPath"
               fill="#2b7ca5"
               d="M 0,0 H 131.65625 V 24 H 0 V 20 C 0,10 -8,28 -8,12.5 -8,-3 0,15 0,5 Z"
               id="path76" />
            <text
               class="blocklyText"
               y="12.5"
               transform="translate(10,5)"
               id="text77"
               style="font-style:normal;font-variant:normal;font-weight:normal;font-stretch:normal;font-size:14.6667px;font-family:Arial;-inkscape-font-specification:'Arial, Normal';font-variant-ligatures:normal;font-variant-caps:normal;font-variant-numeric:normal;font-variant-east-asian:normal;fill:#ffffff;fill-opacity:1">auf gelbem Stern</text>
          </g>
        </g>
      </g>
    </g>
  </g>
</svg>
