<svg xmlns="http://www.w3.org/2000/svg" xmlns:html="http://www.w3.org/1999/xhtml" xmlns:xlink="http://www.w3.org/1999/xlink" version="1.1" class="blocklySvg" width="853px" height="832px"><defs><filter id="blocklyEmbossFilter40994268562124425"><feGaussianBlur in="SourceAlpha" stdDeviation="1" result="blur"></feGaussianBlur><feSpecularLighting in="blur" surfaceScale="1" specularConstant="0.5" specularExponent="10" lighting-color="white" result="specOut"><fePointLight x="-5000" y="-10000" z="20000"></fePointLight></feSpecularLighting><feComposite in="specOut" in2="SourceAlpha" operator="in" result="specOut"></feComposite><feComposite in="SourceGraphic" in2="specOut" operator="arithmetic" k1="0" k2="1" k3="1" k4="0"></feComposite></filter><pattern id="blocklyDisabledPattern40994268562124425" patternUnits="userSpaceOnUse" width="10" height="10"><rect width="10" height="10" fill="#aaa"></rect><path d="M 0 0 L 10 10 M 10 0 L 0 10" stroke="#cc0"></path></pattern><pattern id="blocklyGridPattern40994268562124425" patternUnits="userSpaceOnUse" width="100" height="100" x="75.31250000000011" y="1.0000000000001705"></pattern></defs><g class="blocklyWorkspace"><rect height="100%" width="100%" class="blocklyMainBackground" style="fill: url(&quot;#blocklyGridPattern40994268562124425&quot;);"></rect><g class="blocklyTrash" transform="translate(771,737) scale(1)" style="opacity: 0.4;"><clipPath id="blocklyTrashBodyClipPath09384576754964224"><rect width="47" height="44" y="16"></rect></clipPath><image width="96" x="0" height="124" y="-32" clip-path="url(#blocklyTrashBodyClipPath09384576754964224)" xlink:href="../../../../_common/modules//img/blockly/sprites.png"></image><clipPath id="blocklyTrashLidClipPath09384576754964224"><rect width="47" height="16"></rect></clipPath><image width="96" x="0" height="124" y="-32" clip-path="url(#blocklyTrashLidClipPath09384576754964224)" xlink:href="../../../../_common/modules//img/blockly/sprites.png" transform="rotate(0,43,14)"></image></g><g class="blocklyBlockCanvas" transform="translate(75.31250000000011,1.0000000000001705) scale(1)"><g><path class="blocklyPathDark" transform="translate(1,1)" fill="#496684" d="m 0,8 A 8,8 0 0,1 8,0 H 145.46875 v 24 H 29.5 l -6,4 -3,0 -6,-4 H 8 a 8,8 0 0,1 -8,-8 z
"></path><path class="blocklyPath" fill="#5b80a5" d="m 0,8 A 8,8 0 0,1 8,0 H 145.46875 v 24 H 29.5 l -6,4 -3,0 -6,-4 H 8 a 8,8 0 0,1 -8,-8 z
"></path><path class="blocklyPathLight" stroke="#8ca6c0" d="m 0.5,7.5 A 7.5,7.5 0 0,1 8,0.5 H 144.96875 M 144.96875,0.5 M 2.6966991411008934,21.303300858899107 A 7.5,7.5 0 0,1 0.5,16 V 8
"></path><text class="blocklyText" y="12.5" transform="translate(10,5)">Roboter-Programm</text></g><g class="blocklyDraggable" transform="translate(242,146.99999999999977)"><path class="blocklyPathDark" transform="translate(1,1)" fill="#843456" d="m 0,8 A 8,8 0 0,1 8,0 H 15 l 6,4 3,0 6,-4 H 246.09375 v 5 c 0,10 -8,-8 -8,7.5 s 8,-2.5 8,7.5 v 5 H 29.5 l -6,4 -3,0 -6,-4 H 8 a 8,8 0 0,1 -8,-8 z
"></path><path class="blocklyPath" fill="#a5416b" d="m 0,8 A 8,8 0 0,1 8,0 H 15 l 6,4 3,0 6,-4 H 246.09375 v 5 c 0,10 -8,-8 -8,7.5 s 8,-2.5 8,7.5 v 5 H 29.5 l -6,4 -3,0 -6,-4 H 8 a 8,8 0 0,1 -8,-8 z
"></path><path class="blocklyPathLight" stroke="#c07a97" d="m 0.5,7.5 A 7.5,7.5 0 0,1 8,0.5 H 15 l 6,4 3,0 6,-4 H 245.59375 M 245.59375,0.5 M 241.09375,19.3 l 3.68,-2.1 M 2.6966991411008934,22.303300858899107 A 7.5,7.5 0 0,1 0.5,17 V 8
"></path><text class="blocklyText" y="12.5" transform="translate(10,5)">setze</text><g class="blocklyEditableText" transform="translate(55.046875,5)" style="cursor: default;"><rect rx="4" ry="4" x="-5" y="0" height="16" width="152.65625"></rect><text class="blocklyText" y="12.5">RoboterGedächtnis<tspan style="fill: rgb(165, 65, 107);"> ▾</tspan></text></g><text class="blocklyText" y="12.5" transform="translate(207.703125,5)">auf</text><g class="blocklyDraggable" transform="translate(247.09375,0)"><path class="blocklyPathDark" transform="translate(1,1)" fill="#226384" d="m 0,0 H 74.59375 v 24 H 0 V 20 c 0,-10 -8,8 -8,-7.5 s 8,2.5 8,-7.5 z
"></path><path class="blocklyPath" fill="#2b7ca5" d="m 0,0 H 74.59375 v 24 H 0 V 20 c 0,-10 -8,8 -8,-7.5 s 8,2.5 8,-7.5 z
"></path><path class="blocklyPathLight" stroke="#6ba3c0" d="m 0.5,0.5 H 74.09375 M 74.09375,0.5 M 0.5,23.5 V 18.5 m -7.36,-0.5 q -1.52,-5.5 0,-11 m 7.36,1 V 0.5 H 1
"></path><text class="blocklyText" y="12.5" transform="translate(10,5)">lies Zahl</text></g></g><g class="blocklyDraggable" transform="translate(176.6874999999999,259.9999999999998)"><path class="blocklyPathDark" transform="translate(1,1)" fill="#843456" d="m 0,8 A 8,8 0 0,1 8,0 H 15 l 6,4 3,0 6,-4 H 212.6875 v 5 c 0,10 -8,-8 -8,7.5 s 8,-2.5 8,7.5 v 5 H 29.5 l -6,4 -3,0 -6,-4 H 0 z
"></path><path class="blocklyPath" fill="#a5416b" d="m 0,8 A 8,8 0 0,1 8,0 H 15 l 6,4 3,0 6,-4 H 212.6875 v 5 c 0,10 -8,-8 -8,7.5 s 8,-2.5 8,7.5 v 5 H 29.5 l -6,4 -3,0 -6,-4 H 0 z
"></path><path class="blocklyPathLight" stroke="#c07a97" d="m 0.5,7.5 A 7.5,7.5 0 0,1 8,0.5 H 15 l 6,4 3,0 6,-4 H 212.1875 M 212.1875,0.5 M 207.6875,19.3 l 3.68,-2.1 M 0.5,24.5 V 8
"></path><text class="blocklyText" y="12.5" transform="translate(10,5)">setze</text><g class="blocklyEditableText" transform="translate(55.046875,5)" style="cursor: default;"><rect rx="4" ry="4" x="-5" y="0" height="16" width="119.25"></rect><text class="blocklyText" y="12.5">anzahlSpalten<tspan style="fill: rgb(165, 65, 107);"> ▾</tspan></text></g><text class="blocklyText" y="12.5" transform="translate(174.296875,5)">auf</text><g class="blocklyDraggable" transform="translate(213.6875,0)"><path class="blocklyPathDark" transform="translate(1,1)" fill="#2e4084" d="m 0,0 H 28.15625 v 25 H 0 V 20 c 0,-10 -8,8 -8,-7.5 s 8,2.5 8,-7.5 z
"></path><path class="blocklyPath" fill="#3950a5" d="m 0,0 H 28.15625 v 25 H 0 V 20 c 0,-10 -8,8 -8,-7.5 s 8,2.5 8,-7.5 z
"></path><path class="blocklyPathLight" stroke="#7485c0" d="m 0.5,0.5 H 27.65625 M 27.65625,0.5 M 0.5,24.5 V 18.5 m -7.36,-0.5 q -1.52,-5.5 0,-11 m 7.36,1 V 0.5 H 1
"></path><g class="blocklyEditableText" transform="translate(10,5)" style="cursor: text;"><rect rx="4" ry="4" x="-5" y="0" height="16" width="18.15625"></rect><text class="blocklyText" y="12.5">1</text></g></g><g class="blocklyDraggable" transform="translate(0,26)"><path class="blocklyPathDark" transform="translate(1,1)" fill="#269197" d="m 0,0 H 15 l 6,4 3,0 6,-4 H 94.015625 H 182.921875 v 36 H 94.015625 l -6,4 -3,0 -6,-4 h -7 a 8,8 0 0,0 -8,8 v 111 a 8,8 0 0,0 8,8 H 94.015625 v 10 H 29.5 l -6,4 -3,0 -6,-4 H 8 a 8,8 0 0,1 -8,-8 z
M 135.21875,5 h -38.3125 v 5 c 0,10 -8,-8 -8,7.5 s 8,-2.5 8,7.5 v 7 h 38.3125 z"></path><path class="blocklyPath" fill="#2fb5bd" d="m 0,0 H 15 l 6,4 3,0 6,-4 H 94.015625 H 182.921875 v 36 H 94.015625 l -6,4 -3,0 -6,-4 h -7 a 8,8 0 0,0 -8,8 v 111 a 8,8 0 0,0 8,8 H 94.015625 v 10 H 29.5 l -6,4 -3,0 -6,-4 H 8 a 8,8 0 0,1 -8,-8 z
M 135.21875,5 h -38.3125 v 5 c 0,10 -8,-8 -8,7.5 s 8,-2.5 8,7.5 v 7 h 38.3125 z"></path><path class="blocklyPathLight" stroke="#6dcbd1" d="m 0.5,0.5 H 15 l 6,4 3,0 6,-4 H 93.515625 M 93.515625,0.5 H 182.421875 M 93.515625,36.5 M 66.00521735991434,161.01040764008565 a 8.5,8.5 0 0,0 6.0104076400856545,2.4895923599143455 H 93.515625 M 2.6966991411008934,170.3033008588991 A 7.5,7.5 0 0,1 0.5,165 V 0.5
M 135.71875,5.5 v 27 h -38.3125 M 91.80625,24.3 l 3.68,-2.1"></path><g transform="translate(97.90625,6)"><path class="blocklyPathDark" transform="translate(1,1)" fill="#b0b9db" d="m 0,0 H 36.3125 v 25 H 0 V 20 c 0,-10 -8,8 -8,-7.5 s 8,2.5 8,-7.5 z
"></path><path class="blocklyPath" fill="#b0b9db" d="m 0,0 H 36.3125 v 25 H 0 V 20 c 0,-10 -8,8 -8,-7.5 s 8,2.5 8,-7.5 z
"></path><path class="blocklyPathLight" d="m 0.5,0.5 H 35.8125 M 35.8125,0.5 M 0.5,24.5 V 18.5 m -7.36,-0.5 q -1.52,-5.5 0,-11 m 7.36,1 V 0.5 H 1
" style="display: none;"></path><g class="blocklyEditableText" transform="translate(10,5)" style="cursor: text;"><rect rx="4" ry="4" x="-5" y="0" height="16" width="26.3125"></rect><text class="blocklyText" y="12.5">10</text></g></g><text class="blocklyText" y="12.5" transform="translate(10,10)">wiederhole</text><text class="blocklyText" y="12.5" transform="translate(145.21875,10)">mal:</text><text class="blocklyText" y="12.5" transform="translate(10,41)">mache</text><g class="blocklyDraggable" transform="translate(65.015625,37)"><path class="blocklyPathDark" transform="translate(1,1)" fill="#5b3084" d="m 0,8 A 8,8 0 0,1 8,0 H 15 l 6,4 3,0 6,-4 H 132.484375 v 24 H 29.5 l -6,4 -3,0 -6,-4 H 0 z
"></path><path class="blocklyPath" fill="#723ca5" d="m 0,8 A 8,8 0 0,1 8,0 H 15 l 6,4 3,0 6,-4 H 132.484375 v 24 H 29.5 l -6,4 -3,0 -6,-4 H 0 z
"></path><path class="blocklyPathLight" stroke="#9c77c0" d="m 0.5,7.5 A 7.5,7.5 0 0,1 8,0.5 H 15 l 6,4 3,0 6,-4 H 131.984375 M 131.984375,0.5 M 0.5,23.5 V 8
"></path><text class="blocklyText" y="12.5" transform="translate(10,5)">gehe nach rechts</text><g class="blocklyDraggable" transform="translate(0,25)"><path class="blocklyPathDark" transform="translate(1,1)" fill="#269197" d="m 0,0 H 15 l 6,4 3,0 6,-4 H 94.015625 H 182.921875 v 36 H 94.015625 l -6,4 -3,0 -6,-4 h -7 a 8,8 0 0,0 -8,8 v 9 a 8,8 0 0,0 8,8 H 94.015625 v 10 H 29.5 l -6,4 -3,0 -6,-4 H 0 z
M 135.21875,5 h -38.3125 v 5 c 0,10 -8,-8 -8,7.5 s 8,-2.5 8,7.5 v 7 h 38.3125 z"></path><path class="blocklyPath" fill="#2fb5bd" d="m 0,0 H 15 l 6,4 3,0 6,-4 H 94.015625 H 182.921875 v 36 H 94.015625 l -6,4 -3,0 -6,-4 h -7 a 8,8 0 0,0 -8,8 v 9 a 8,8 0 0,0 8,8 H 94.015625 v 10 H 29.5 l -6,4 -3,0 -6,-4 H 0 z
M 135.21875,5 h -38.3125 v 5 c 0,10 -8,-8 -8,7.5 s 8,-2.5 8,7.5 v 7 h 38.3125 z"></path><path class="blocklyPathLight" stroke="#6dcbd1" d="m 0.5,0.5 H 15 l 6,4 3,0 6,-4 H 93.515625 M 93.515625,0.5 H 182.421875 M 93.515625,36.5 M 66.00521735991434,59.01040764008565 a 8.5,8.5 0 0,0 6.0104076400856545,2.4895923599143455 H 93.515625 M 0.5,70.5 V 0.5
M 135.71875,5.5 v 27 h -38.3125 M 91.80625,24.3 l 3.68,-2.1"></path><g transform="translate(97.90625,6)"><path class="blocklyPathDark" transform="translate(1,1)" fill="#b0b9db" d="m 0,0 H 36.3125 v 25 H 0 V 20 c 0,-10 -8,8 -8,-7.5 s 8,2.5 8,-7.5 z
"></path><path class="blocklyPath" fill="#b0b9db" d="m 0,0 H 36.3125 v 25 H 0 V 20 c 0,-10 -8,8 -8,-7.5 s 8,2.5 8,-7.5 z
"></path><path class="blocklyPathLight" d="m 0.5,0.5 H 35.8125 M 35.8125,0.5 M 0.5,24.5 V 18.5 m -7.36,-0.5 q -1.52,-5.5 0,-11 m 7.36,1 V 0.5 H 1
" style="display: none;"></path><g class="blocklyEditableText" transform="translate(10,5)" style="cursor: text;"><rect rx="4" ry="4" x="-5" y="0" height="16" width="26.3125"></rect><text class="blocklyText" y="12.5">10</text></g></g><text class="blocklyText" y="12.5" transform="translate(10,10)">wiederhole</text><text class="blocklyText" y="12.5" transform="translate(145.21875,10)">mal:</text><text class="blocklyText" y="12.5" transform="translate(10,41)">mache</text><g class="blocklyDraggable" transform="translate(0,72)"><path class="blocklyPathDark" transform="translate(1,1)" fill="#843456" d="m 0,0 H 15 l 6,4 3,0 6,-4 H 223.28125 v 5 c 0,10 -8,-8 -8,7.5 s 8,-2.5 8,7.5 v 5 H 29.5 l -6,4 -3,0 -6,-4 H 8 a 8,8 0 0,1 -8,-8 z
"></path><path class="blocklyPath" fill="#a5416b" d="m 0,0 H 15 l 6,4 3,0 6,-4 H 223.28125 v 5 c 0,10 -8,-8 -8,7.5 s 8,-2.5 8,7.5 v 5 H 29.5 l -6,4 -3,0 -6,-4 H 8 a 8,8 0 0,1 -8,-8 z
"></path><path class="blocklyPathLight" stroke="#c07a97" d="m 0.5,0.5 H 15 l 6,4 3,0 6,-4 H 222.78125 M 222.78125,0.5 M 218.28125,19.3 l 3.68,-2.1 M 2.6966991411008934,22.303300858899107 A 7.5,7.5 0 0,1 0.5,17 V 0.5
"></path><g transform="translate(224.28125,0)"><path class="blocklyPathDark" transform="translate(1,1)" fill="#b0b9db" d="m 0,0 H 28.15625 v 25 H 0 V 20 c 0,-10 -8,8 -8,-7.5 s 8,2.5 8,-7.5 z
"></path><path class="blocklyPath" fill="#b0b9db" d="m 0,0 H 28.15625 v 25 H 0 V 20 c 0,-10 -8,8 -8,-7.5 s 8,2.5 8,-7.5 z
"></path><path class="blocklyPathLight" d="m 0.5,0.5 H 27.65625 M 27.65625,0.5 M 0.5,24.5 V 18.5 m -7.36,-0.5 q -1.52,-5.5 0,-11 m 7.36,1 V 0.5 H 1
" style="display: none;"></path><g class="blocklyEditableText" transform="translate(10,5)" style="cursor: text;"><rect rx="4" ry="4" x="-5" y="0" height="16" width="18.15625"></rect><text class="blocklyText" y="12.5">1</text></g></g><text class="blocklyText" y="12.5" transform="translate(10,5)">erhöhe</text><g class="blocklyEditableText" transform="translate(65.65625,5)" style="cursor: default;"><rect rx="4" ry="4" x="-5" y="0" height="16" width="119.25"></rect><text class="blocklyText" y="12.5">anzahlSpalten<tspan style="fill: rgb(165, 65, 107);"> ▾</tspan></text></g><text class="blocklyText" y="12.5" transform="translate(184.90625,5)">um</text></g></g></g></g></g><g class="blocklyDraggable" transform="translate(378.6874999999999,570.9999999999998)"><path class="blocklyPathDark" transform="translate(1,1)" fill="#269197" d="m 0,8 A 8,8 0 0,1 8,0 H 15 l 6,4 3,0 6,-4 H 94.015625 H 309.265625 v 36 H 94.015625 l -6,4 -3,0 -6,-4 h -7 a 8,8 0 0,0 -8,8 v 9 a 8,8 0 0,0 8,8 H 94.015625 v 10 H 29.5 l -6,4 -3,0 -6,-4 H 8 a 8,8 0 0,1 -8,-8 z
M 261.5625,5 h -164.65625 v 5 c 0,10 -8,-8 -8,7.5 s 8,-2.5 8,7.5 v 7 h 164.65625 z"></path><path class="blocklyPath" fill="#2fb5bd" d="m 0,8 A 8,8 0 0,1 8,0 H 15 l 6,4 3,0 6,-4 H 94.015625 H 309.265625 v 36 H 94.015625 l -6,4 -3,0 -6,-4 h -7 a 8,8 0 0,0 -8,8 v 9 a 8,8 0 0,0 8,8 H 94.015625 v 10 H 29.5 l -6,4 -3,0 -6,-4 H 8 a 8,8 0 0,1 -8,-8 z
M 261.5625,5 h -164.65625 v 5 c 0,10 -8,-8 -8,7.5 s 8,-2.5 8,7.5 v 7 h 164.65625 z"></path><path class="blocklyPathLight" stroke="#6dcbd1" d="m 0.5,7.5 A 7.5,7.5 0 0,1 8,0.5 H 15 l 6,4 3,0 6,-4 H 93.515625 M 93.515625,0.5 H 308.765625 M 93.515625,36.5 M 66.00521735991434,59.01040764008565 a 8.5,8.5 0 0,0 6.0104076400856545,2.4895923599143455 H 93.515625 M 2.6966991411008934,68.3033008588991 A 7.5,7.5 0 0,1 0.5,63 V 8
M 262.0625,5.5 v 27 h -164.65625 M 91.80625,24.3 l 3.68,-2.1"></path><text class="blocklyText" y="12.5" transform="translate(10,10)">wiederhole</text><text class="blocklyText" y="12.5" transform="translate(271.5625,10)">mal:</text><text class="blocklyText" y="12.5" transform="translate(10,41)">mache</text><g class="blocklyDraggable" transform="translate(97.90625,6)"><path class="blocklyPathDark" transform="translate(1,1)" fill="#843456" d="m 0,0 H 162.65625 v 25 H 0 V 20 c 0,-10 -8,8 -8,-7.5 s 8,2.5 8,-7.5 z
"></path><path class="blocklyPath" fill="#a5416b" d="m 0,0 H 162.65625 v 25 H 0 V 20 c 0,-10 -8,8 -8,-7.5 s 8,2.5 8,-7.5 z
"></path><path class="blocklyPathLight" stroke="#c07a97" d="m 0.5,0.5 H 162.15625 M 162.15625,0.5 M 0.5,24.5 V 18.5 m -7.36,-0.5 q -1.52,-5.5 0,-11 m 7.36,1 V 0.5 H 1
"></path><g class="blocklyEditableText" transform="translate(10,5)" style="cursor: default;"><rect rx="4" ry="4" x="-5" y="0" height="16" width="152.65625"></rect><text class="blocklyText" y="12.5">RoboterGedächtnis<tspan style="fill: rgb(165, 65, 107);"> ▾</tspan></text></g></g></g></g><g class="blocklyBubbleCanvas" transform="translate(75.31250000000011,1.0000000000001705) scale(1)"></g><rect height="15" width="15" class="blocklyScrollbarBackground" x="837.5" y="816.5"></rect><g class="blocklyScrollbarVertical" transform="translate(837.5,0.5)"><rect class="blocklyScrollbarBackground" width="15" height="816"></rect><rect class="blocklyScrollbarHandle" rx="5" ry="5" width="10" x="2.5" height="461.2173913043479" y="228.11413043478257"></rect></g><g class="blocklyScrollbarHorizontal" transform="translate(107.5,816.5)"><rect class="blocklyScrollbarBackground" height="15" width="730"></rect><rect class="blocklyScrollbarHandle" rx="5" ry="5" height="10" y="2.5" width="381.6383246646592" x="205.23931015603608"></rect></g></g><g class="blocklyFlyout" transform="translate(107,0)" style="display: none;"><path class="blocklyFlyoutBackground" d="M 0,0 h 279.4375 a 8 8 0 0 1 8 8 v 816 a 8 8 0 0 1 -8 8 h -279.4375 z"></path><g class="blocklyWorkspace"><g class="blocklyBlockCanvas" transform="translate(0,2) scale(1)"><rect fill-opacity="0" width="170.65625" height="26" x="8" y="52"></rect><rect fill-opacity="0" width="246.09375" height="30" x="16" y="102"></rect><rect fill-opacity="0" width="285.84375" height="30" x="16" y="156"></rect><rect fill-opacity="0" width="170.65625" height="26" x="8" y="52"></rect><rect fill-opacity="0" width="246.09375" height="30" x="16" y="102"></rect><rect fill-opacity="0" width="285.84375" height="30" x="16" y="156"></rect><rect fill-opacity="0" width="137.25" height="26" x="8" y="52"></rect><rect fill-opacity="0" width="170.65625" height="26" x="8" y="86"></rect><rect fill-opacity="0" width="212.6875" height="30" x="16" y="136"></rect><rect fill-opacity="0" width="252.4375" height="30" x="16" y="174"></rect><rect fill-opacity="0" width="137.25" height="26" x="8" y="52"></rect><rect fill-opacity="0" width="170.65625" height="26" x="8" y="86"></rect><rect fill-opacity="0" width="212.6875" height="30" x="16" y="136"></rect><rect fill-opacity="0" width="252.4375" height="30" x="16" y="174"></rect><rect fill-opacity="0" width="137.25" height="26" x="8" y="52"></rect><rect fill-opacity="0" width="170.65625" height="26" x="8" y="86"></rect><rect fill-opacity="0" width="212.6875" height="30" x="16" y="136"></rect><rect fill-opacity="0" width="252.4375" height="30" x="16" y="174"></rect><rect fill-opacity="0" width="137.25" height="26" x="8" y="52"></rect><rect fill-opacity="0" width="170.65625" height="26" x="8" y="86"></rect><rect fill-opacity="0" width="212.6875" height="30" x="16" y="136"></rect><g class="blocklyDraggable" transform="translate(16,136)"><path class="blocklyPathDark" transform="translate(1,1)" fill="#843456" d="m 0,8 A 8,8 0 0,1 8,0 H 15 l 6,4 3,0 6,-4 H 212.6875 v 5 c 0,10 -8,-8 -8,7.5 s 8,-2.5 8,7.5 v 5 H 29.5 l -6,4 -3,0 -6,-4 H 8 a 8,8 0 0,1 -8,-8 z
"></path><path class="blocklyPath" fill="#a5416b" d="m 0,8 A 8,8 0 0,1 8,0 H 15 l 6,4 3,0 6,-4 H 212.6875 v 5 c 0,10 -8,-8 -8,7.5 s 8,-2.5 8,7.5 v 5 H 29.5 l -6,4 -3,0 -6,-4 H 8 a 8,8 0 0,1 -8,-8 z
"></path><path class="blocklyPathLight" stroke="#c07a97" d="m 0.5,7.5 A 7.5,7.5 0 0,1 8,0.5 H 15 l 6,4 3,0 6,-4 H 212.1875 M 212.1875,0.5 M 207.6875,19.3 l 3.68,-2.1 M 2.6966991411008934,22.303300858899107 A 7.5,7.5 0 0,1 0.5,17 V 8
"></path><text class="blocklyText" y="12.5" transform="translate(10,5)">setze</text><g class="blocklyEditableText" transform="translate(55.046875,5)" style="cursor: default;"><rect rx="4" ry="4" x="-5" y="0" height="16" width="119.25"></rect><text class="blocklyText" y="12.5">anzahlSpalten<tspan style="fill: rgb(165, 65, 107);"> ▾</tspan></text></g><text class="blocklyText" y="12.5" transform="translate(174.296875,5)">auf</text></g><rect fill-opacity="0" width="252.4375" height="30" x="16" y="174"></rect><g class="blocklyDraggable" transform="translate(16,174)"><path class="blocklyPathDark" transform="translate(1,1)" fill="#843456" d="m 0,8 A 8,8 0 0,1 8,0 H 15 l 6,4 3,0 6,-4 H 223.28125 v 5 c 0,10 -8,-8 -8,7.5 s 8,-2.5 8,7.5 v 5 H 29.5 l -6,4 -3,0 -6,-4 H 8 a 8,8 0 0,1 -8,-8 z
"></path><path class="blocklyPath" fill="#a5416b" d="m 0,8 A 8,8 0 0,1 8,0 H 15 l 6,4 3,0 6,-4 H 223.28125 v 5 c 0,10 -8,-8 -8,7.5 s 8,-2.5 8,7.5 v 5 H 29.5 l -6,4 -3,0 -6,-4 H 8 a 8,8 0 0,1 -8,-8 z
"></path><path class="blocklyPathLight" stroke="#c07a97" d="m 0.5,7.5 A 7.5,7.5 0 0,1 8,0.5 H 15 l 6,4 3,0 6,-4 H 222.78125 M 222.78125,0.5 M 218.28125,19.3 l 3.68,-2.1 M 2.6966991411008934,22.303300858899107 A 7.5,7.5 0 0,1 0.5,17 V 8
"></path><g transform="translate(224.28125,0)"><path class="blocklyPathDark" transform="translate(1,1)" fill="#b0b9db" d="m 0,0 H 28.15625 v 25 H 0 V 20 c 0,-10 -8,8 -8,-7.5 s 8,2.5 8,-7.5 z
"></path><path class="blocklyPath" fill="#b0b9db" d="m 0,0 H 28.15625 v 25 H 0 V 20 c 0,-10 -8,8 -8,-7.5 s 8,2.5 8,-7.5 z
"></path><path class="blocklyPathLight" d="m 0.5,0.5 H 27.65625 M 27.65625,0.5 M 0.5,24.5 V 18.5 m -7.36,-0.5 q -1.52,-5.5 0,-11 m 7.36,1 V 0.5 H 1
" style="display: none;"></path><g class="blocklyEditableText" transform="translate(10,5)" style="cursor: text;"><rect rx="4" ry="4" x="-5" y="0" height="16" width="18.15625"></rect><text class="blocklyText" y="12.5">1</text></g></g><text class="blocklyText" y="12.5" transform="translate(10,5)">erhöhe</text><g class="blocklyEditableText" transform="translate(65.65625,5)" style="cursor: default;"><rect rx="4" ry="4" x="-5" y="0" height="16" width="119.25"></rect><text class="blocklyText" y="12.5">anzahlSpalten<tspan style="fill: rgb(165, 65, 107);"> ▾</tspan></text></g><text class="blocklyText" y="12.5" transform="translate(184.90625,5)">um</text></g><g class="blocklyFlyoutButton" transform="translate(16,8)" display="block"><rect class="blocklyFlyoutButtonShadow" rx="4" ry="4" x="1" y="1" width="140.921875" height="20"></rect><rect class="blocklyFlyoutButtonBackground" rx="4" ry="4" width="140.921875" height="20"></rect><text class="blocklyText" x="70.4609375" y="15" text-anchor="middle">Variable erstellen …</text></g><g class="blocklyDraggable" transform="translate(16,52)"><path class="blocklyPathDark" transform="translate(1,1)" fill="#843456" d="m 0,0 H 129.25 v 25 H 0 V 20 c 0,-10 -8,8 -8,-7.5 s 8,2.5 8,-7.5 z
"></path><path class="blocklyPath" fill="#a5416b" d="m 0,0 H 129.25 v 25 H 0 V 20 c 0,-10 -8,8 -8,-7.5 s 8,2.5 8,-7.5 z
"></path><path class="blocklyPathLight" stroke="#c07a97" d="m 0.5,0.5 H 128.75 M 128.75,0.5 M 0.5,24.5 V 18.5 m -7.36,-0.5 q -1.52,-5.5 0,-11 m 7.36,1 V 0.5 H 1
"></path><g class="blocklyEditableText" transform="translate(10,5)" style="cursor: default;"><rect rx="4" ry="4" x="-5" y="0" height="16" width="119.25"></rect><text class="blocklyText" y="12.5">anzahlSpalten<tspan style="fill: rgb(165, 65, 107);"> ▾</tspan></text></g></g><g class="blocklyDraggable blocklySelected" transform="translate(16,86)"><path class="blocklyPathDark" transform="translate(1,1)" fill="#843456" d="m 0,0 H 162.65625 v 25 H 0 V 20 c 0,-10 -8,8 -8,-7.5 s 8,2.5 8,-7.5 z
"></path><path class="blocklyPath" fill="#a5416b" d="m 0,0 H 162.65625 v 25 H 0 V 20 c 0,-10 -8,8 -8,-7.5 s 8,2.5 8,-7.5 z
"></path><path class="blocklyPathLight" stroke="#c07a97" d="m 0.5,0.5 H 162.15625 M 162.15625,0.5 M 0.5,24.5 V 18.5 m -7.36,-0.5 q -1.52,-5.5 0,-11 m 7.36,1 V 0.5 H 1
"></path><g class="blocklyEditableText" transform="translate(10,5)" style="cursor: default;"><rect rx="4" ry="4" x="-5" y="0" height="16" width="152.65625"></rect><text class="blocklyText" y="12.5">RoboterGedächtnis<tspan style="fill: rgb(165, 65, 107);"> ▾</tspan></text></g></g></g><g class="blocklyBubbleCanvas" transform="translate(0,2) scale(1)"></g><g class="blocklyScrollbarVertical" transform="translate(269.9375,2.5)" display="none"><rect class="blocklyScrollbarBackground" width="15" height="827"></rect><rect class="blocklyScrollbarHandle" rx="5" ry="5" width="10" x="2.5" height="3229.9811320754716" y="0"></rect></g></g></g></svg>
