<?xml version="1.0" encoding="UTF-8" standalone="no"?>
<svg
   version="1.1"
   class="blocklySvg"
   width="318.45312"
   height="204"
   id="svg112"
   xmlns:xlink="http://www.w3.org/1999/xlink"
   xmlns="http://www.w3.org/2000/svg"
   xmlns:svg="http://www.w3.org/2000/svg">
  <defs
     id="defs2">
    <linearGradient
       id="linearGradient118">
      <stop
         style="stop-color:#2fb5bd;stop-opacity:1;"
         offset="0"
         id="stop119" />
      <stop
         style="stop-color:#000000;stop-opacity:0;"
         offset="1"
         id="stop120" />
    </linearGradient>
    <linearGradient
       xlink:href="#linearGradient118"
       id="linearGradient120"
       x1="0"
       y1="38"
       x2="183.92188"
       y2="38"
       gradientUnits="userSpaceOnUse" />
    <filter
       style="color-interpolation-filters:sRGB"
       id="filter120"
       x="-0.01702081"
       y="-0.041190781"
       width="1.0340416"
       height="1.0823816">
      <feGaussianBlur
         stdDeviation="1.3043747"
         id="feGaussianBlur120" />
    </filter>
    <linearGradient
       xlink:href="#linearGradient118"
       id="linearGradient1"
       gradientUnits="userSpaceOnUse"
       x1="0"
       y1="38"
       x2="183.92188"
       y2="38" />
    <linearGradient
       xlink:href="#linearGradient118"
       id="linearGradient2"
       gradientUnits="userSpaceOnUse"
       x1="0"
       y1="38"
       x2="183.92188"
       y2="38" />
    <linearGradient
       xlink:href="#linearGradient118"
       id="linearGradient3"
       gradientUnits="userSpaceOnUse"
       x1="0"
       y1="38"
       x2="183.92188"
       y2="38" />
    <linearGradient
       xlink:href="#linearGradient118"
       id="linearGradient4"
       gradientUnits="userSpaceOnUse"
       x1="0"
       y1="38"
       x2="183.92188"
       y2="38" />
    <linearGradient
       xlink:href="#linearGradient118"
       id="linearGradient5"
       gradientUnits="userSpaceOnUse"
       x1="0"
       y1="38"
       x2="183.92188"
       y2="38" />
    <linearGradient
       xlink:href="#linearGradient118"
       id="linearGradient6"
       gradientUnits="userSpaceOnUse"
       x1="0"
       y1="38"
       x2="183.92188"
       y2="38" />
    <linearGradient
       xlink:href="#linearGradient118"
       id="linearGradient7"
       gradientUnits="userSpaceOnUse"
       x1="0"
       y1="38"
       x2="183.92188"
       y2="38" />
    <linearGradient
       xlink:href="#linearGradient118"
       id="linearGradient8"
       gradientUnits="userSpaceOnUse"
       x1="0"
       y1="38"
       x2="183.92188"
       y2="38" />
    <linearGradient
       xlink:href="#linearGradient118"
       id="linearGradient9"
       gradientUnits="userSpaceOnUse"
       x1="0"
       y1="38"
       x2="183.92188"
       y2="38" />
    <linearGradient
       xlink:href="#linearGradient118"
       id="linearGradient10"
       gradientUnits="userSpaceOnUse"
       x1="0"
       y1="38"
       x2="183.92188"
       y2="38" />
    <linearGradient
       xlink:href="#linearGradient118"
       id="linearGradient11"
       gradientUnits="userSpaceOnUse"
       x1="0"
       y1="38"
       x2="183.92188"
       y2="38" />
  </defs>
  <g
     class="blocklyWorkspace"
     id="g68"
     transform="translate(-252,-261)">
    <g
       class="blocklyBlockCanvas"
       transform="translate(75.3125,1)"
       id="g62">
      <g
         class="blocklyDraggable"
         transform="translate(176.6875,260)"
         id="g53">
        <path
           class="blocklyPathDark"
           transform="translate(1,1)"
           fill="#843456"
           d="M 0,8 A 8,8 0 0 1 8,0 h 7 l 6,4 h 3 l 6,-4 h 182.6875 v 5 c 0,10 -8,-8 -8,7.5 0,15.5 8,-2.5 8,7.5 v 5 H 29.5 l -6,4 h -3 l -6,-4 H 0 Z"
           id="path15" />
        <path
           class="blocklyPath"
           fill="#a5416b"
           d="M 0,8 A 8,8 0 0 1 8,0 h 7 l 6,4 h 3 l 6,-4 h 182.6875 v 5 c 0,10 -8,-8 -8,7.5 0,15.5 8,-2.5 8,7.5 v 5 H 29.5 l -6,4 h -3 l -6,-4 H 0 Z"
           id="path16" />
        <text
           class="blocklyText"
           y="12.5"
           transform="translate(10,5)"
           id="text17"
           style="font-style:normal;font-variant:normal;font-weight:normal;font-stretch:normal;font-size:14.6667px;font-family:Arial;-inkscape-font-specification:'Arial, Normal';font-variant-ligatures:normal;font-variant-caps:normal;font-variant-numeric:normal;font-variant-east-asian:normal;fill:#ffffff;fill-opacity:1">setze</text>
        <g
           class="blocklyEditableText"
           transform="translate(55.046875,5)"
           id="g18">
          <rect
             rx="4"
             ry="4"
             x="-5"
             y="0"
             height="16"
             width="119.25"
             id="rect17"
             style="fill:#dbb3c4;fill-opacity:1" />
          <text
             class="blocklyText"
             y="12.5"
             id="text18"
             style="font-style:normal;font-variant:normal;font-weight:normal;font-stretch:normal;font-size:14.6667px;font-family:Arial;-inkscape-font-specification:'Arial, Normal';font-variant-ligatures:normal;font-variant-caps:normal;font-variant-numeric:normal;font-variant-east-asian:normal;fill:#000000;fill-opacity:1">anzahlSpalten<tspan
   style="font-style:normal;font-variant:normal;font-weight:normal;font-stretch:normal;font-size:14.6667px;font-family:Arial;-inkscape-font-specification:'Arial, Normal';font-variant-ligatures:normal;font-variant-caps:normal;font-variant-numeric:normal;font-variant-east-asian:normal;fill:#000000;fill-opacity:1"
   id="tspan17">▾</tspan></text>
        </g>
        <text
           class="blocklyText"
           y="12.5"
           transform="translate(174.29687,5)"
           id="text19"
           style="font-style:normal;font-variant:normal;font-weight:normal;font-stretch:normal;font-size:14.6667px;font-family:Arial;-inkscape-font-specification:'Arial, Normal';font-variant-ligatures:normal;font-variant-caps:normal;font-variant-numeric:normal;font-variant-east-asian:normal;fill:#ffffff;fill-opacity:1">auf</text>
        <g
           class="blocklyDraggable"
           transform="translate(213.6875)"
           id="g22">
          <path
             class="blocklyPathDark"
             transform="translate(1,1)"
             fill="#2e4084"
             d="M 0,0 H 28.15625 V 25 H 0 V 20 C 0,10 -8,28 -8,12.5 -8,-3 0,15 0,5 Z"
             id="path19" />
          <path
             class="blocklyPath"
             fill="#3950a5"
             d="M 0,0 H 28.15625 V 25 H 0 V 20 C 0,10 -8,28 -8,12.5 -8,-3 0,15 0,5 Z"
             id="path20" />
          <g
             class="blocklyEditableText"
             transform="translate(10,5)"
             id="g21">
            <rect
               rx="4"
               ry="4"
               x="-5"
               y="0"
               height="16"
               width="18.15625"
               id="rect21"
               style="fill:#afb9db;fill-opacity:1" />
            <text
               class="blocklyText"
               y="12.5"
               id="text21"
               style="font-style:normal;font-variant:normal;font-weight:normal;font-stretch:normal;font-size:14.6667px;font-family:Arial;-inkscape-font-specification:'Arial, Normal';font-variant-ligatures:normal;font-variant-caps:normal;font-variant-numeric:normal;font-variant-east-asian:normal;fill:#000000;fill-opacity:1">1</text>
          </g>
        </g>
        <g
           class="blocklyDraggable"
           transform="translate(0,26)"
           id="g52">
          <path
             class="blocklyPathDark"
             transform="translate(1,1)"
             fill="#269197"
             d="m 0,0 h 15 l 6,4 h 3 L 30,0 H 94.015625 182.92187 V 36 H 94.015625 l -6,4 h -3 l -6,-4 h -7 a 8,8 0 0 0 -8,8 v 111 a 8,8 0 0 0 8,8 h 22 v 10 H 29.5 l -6,4 h -3 l -6,-4 H 8 a 8,8 0 0 1 -8,-8 z m 135.21875,5 h -38.3125 v 5 c 0,10 -8,-8 -8,7.5 0,15.5 8,-2.5 8,7.5 v 7 h 38.3125 z"
             id="path22" />
          <path
             class="blocklyPath"
             fill="#2fb5bd"
             d="m 0,0 h 15 l 6,4 h 3 L 30,0 H 94.015625 182.92187 V 36 H 94.015625 l -6,4 h -3 l -6,-4 h -7 a 8,8 0 0 0 -8,8 v 111 a 8,8 0 0 0 8,8 h 22 v 10 H 29.5 l -6,4 h -3 l -6,-4 H 8 a 8,8 0 0 1 -8,-8 z m 135.21875,5 h -38.3125 v 5 c 0,10 -8,-8 -8,7.5 0,15.5 8,-2.5 8,7.5 v 7 h 38.3125 z"
             id="path23" />
          <g
             transform="translate(97.90625,6)"
             id="g28">
            <path
               class="blocklyPathDark"
               transform="translate(1,1)"
               fill="#b0b9db"
               d="M 0,0 H 36.3125 V 25 H 0 V 20 C 0,10 -8,28 -8,12.5 -8,-3 0,15 0,5 Z"
               id="path25" />
            <path
               class="blocklyPath"
               fill="#b0b9db"
               d="M 0,0 H 36.3125 V 25 H 0 V 20 C 0,10 -8,28 -8,12.5 -8,-3 0,15 0,5 Z"
               id="path26" />
            <g
               class="blocklyEditableText"
               transform="translate(10,5)"
               id="g27">
              <rect
                 rx="4"
                 ry="4"
                 x="-5"
                 y="0"
                 height="16"
                 width="26.3125"
                 id="rect27"
                 style="fill:#dfe3f1;fill-opacity:1" />
              <text
                 class="blocklyText"
                 y="12.5"
                 id="text27"
                 style="font-style:normal;font-variant:normal;font-weight:normal;font-stretch:normal;font-size:14.6667px;font-family:Arial;-inkscape-font-specification:'Arial, Normal';font-variant-ligatures:normal;font-variant-caps:normal;font-variant-numeric:normal;font-variant-east-asian:normal;fill:#000000;fill-opacity:1">10</text>
            </g>
          </g>
          <text
             class="blocklyText"
             y="12.5"
             transform="translate(10,10)"
             id="text28"
             style="font-style:normal;font-variant:normal;font-weight:normal;font-stretch:normal;font-size:14.6667px;font-family:Arial;-inkscape-font-specification:'Arial, Normal';font-variant-ligatures:normal;font-variant-caps:normal;font-variant-numeric:normal;font-variant-east-asian:normal;fill:#ffffff;fill-opacity:1">wiederhole</text>
          <text
             class="blocklyText"
             y="12.5"
             transform="translate(145.21875,10)"
             id="text29"
             style="font-style:normal;font-variant:normal;font-weight:normal;font-stretch:normal;font-size:14.6667px;font-family:Arial;-inkscape-font-specification:'Arial, Normal';font-variant-ligatures:normal;font-variant-caps:normal;font-variant-numeric:normal;font-variant-east-asian:normal;fill:#ffffff;fill-opacity:1">mal:</text>
          <text
             class="blocklyText"
             y="12.5"
             transform="translate(10,41)"
             id="text30"
             style="font-style:normal;font-variant:normal;font-weight:normal;font-stretch:normal;font-size:14.6667px;font-family:Arial;-inkscape-font-specification:'Arial, Normal';font-variant-ligatures:normal;font-variant-caps:normal;font-variant-numeric:normal;font-variant-east-asian:normal;fill:#ffffff;fill-opacity:1">mache</text>
          <g
             class="blocklyDraggable"
             transform="translate(65.01562,134)"
             id="g49">
            <path
               class="blocklyPathDark"
               transform="translate(1,1)"
               fill="#843456"
               d="m 0,0 h 15 l 6,4 h 3 l 6,-4 h 193.28125 v 5 c 0,10 -8,-8 -8,7.5 0,15.5 8,-2.5 8,7.5 v 5 H 29.5 l -6,4 h -3 l -6,-4 H 8 A 8,8 0 0 1 0,17 Z"
               id="path41" />
            <path
               class="blocklyPath"
               fill="#a5416b"
               d="m 0,0 h 15 l 6,4 h 3 l 6,-4 h 193.28125 v 5 c 0,10 -8,-8 -8,7.5 0,15.5 8,-2.5 8,7.5 v 5 H 29.5 l -6,4 h -3 l -6,-4 H 8 A 8,8 0 0 1 0,17 Z"
               id="path42" />
            <path
               class="blocklyPathLight"
               stroke="#c07a97"
               d="M 0.5,0.5 H 15 l 6,4 h 3 l 6,-4 h 192.78125 m 0,0 m -4.5,18.8 3.68,-2.1 M 2.6966991,22.303301 A 7.5,7.5 0 0 1 0.5,17 V 0.5"
               id="path43" />
            <g
               transform="translate(224.28125)"
               id="g47">
              <path
                 class="blocklyPathDark"
                 transform="translate(1,1)"
                 fill="#b0b9db"
                 d="M 0,0 H 28.15625 V 25 H 0 V 20 C 0,10 -8,28 -8,12.5 -8,-3 0,15 0,5 Z"
                 id="path44" />
              <path
                 class="blocklyPath"
                 fill="#b0b9db"
                 d="M 0,0 H 28.15625 V 25 H 0 V 20 C 0,10 -8,28 -8,12.5 -8,-3 0,15 0,5 Z"
                 id="path45" />
              <path
                 class="blocklyPathLight"
                 d="m 0.5,0.5 h 27.15625 m 0,0 M 0.5,24.5 v -6 M -6.86,18 q -1.52,-5.5 0,-11 M 0.5,8 V 0.5 H 1"
                 style="display:none"
                 id="path46" />
              <g
                 class="blocklyEditableText"
                 transform="translate(10,5)"
                 id="g46">
                <rect
                   rx="4"
                   ry="4"
                   x="-5"
                   y="0"
                   height="16"
                   width="18.15625"
                   id="rect46"
                   style="fill:#dfe3f1;fill-opacity:1" />
                <text
                   class="blocklyText"
                   y="12.5"
                   id="text46"
                   style="font-style:normal;font-variant:normal;font-weight:normal;font-stretch:normal;font-size:14.6667px;font-family:Arial;-inkscape-font-specification:'Arial, Normal';font-variant-ligatures:normal;font-variant-caps:normal;font-variant-numeric:normal;font-variant-east-asian:normal;fill:#000000;fill-opacity:1">1</text>
              </g>
            </g>
            <text
               class="blocklyText"
               y="12.5"
               transform="translate(10,5)"
               id="text47"
               style="font-style:normal;font-variant:normal;font-weight:normal;font-stretch:normal;font-size:14.6667px;font-family:Arial;-inkscape-font-specification:'Arial, Normal';font-variant-ligatures:normal;font-variant-caps:normal;font-variant-numeric:normal;font-variant-east-asian:normal;fill:#ffffff;fill-opacity:1">erhöhe</text>
            <g
               class="blocklyEditableText"
               transform="translate(65.65625,5)"
               id="g48">
              <rect
                 rx="4"
                 ry="4"
                 x="-5"
                 y="0"
                 height="16"
                 width="119.25"
                 id="rect47"
                 style="fill:#dbb3c4;fill-opacity:1" />
              <text
                 class="blocklyText"
                 y="12.5"
                 id="text48"
                 style="font-style:normal;font-variant:normal;font-weight:normal;font-stretch:normal;font-size:14.6667px;font-family:Arial;-inkscape-font-specification:'Arial, Normal';font-variant-ligatures:normal;font-variant-caps:normal;font-variant-numeric:normal;font-variant-east-asian:normal;fill:#000000;fill-opacity:1">anzahlSpalten<tspan
   style="font-style:normal;font-variant:normal;font-weight:normal;font-stretch:normal;font-size:14.6667px;font-family:Arial;-inkscape-font-specification:'Arial, Normal';font-variant-ligatures:normal;font-variant-caps:normal;font-variant-numeric:normal;font-variant-east-asian:normal;fill:#000000;fill-opacity:1"
   id="tspan47">▾</tspan></text>
            </g>
            <text
               class="blocklyText"
               y="12.5"
               transform="translate(184.90625,5)"
               id="text49"
               style="font-style:normal;font-variant:normal;font-weight:normal;font-stretch:normal;font-size:14.6667px;font-family:Arial;-inkscape-font-specification:'Arial, Normal';font-variant-ligatures:normal;font-variant-caps:normal;font-variant-numeric:normal;font-variant-east-asian:normal;fill:#ffffff;fill-opacity:1">um</text>
          </g>
          <g
             class="blocklyDraggable"
             transform="translate(65.015625,37)"
             id="g51">
            <path
               class="blocklyPathDark"
               transform="translate(1,1)"
               fill="#5b3084"
               d="M 0,8 A 8,8 0 0 1 8,0 h 7 l 6,4 h 3 L 30,0 H 132.48437 V 24 H 29.5 l -6,4 h -3 l -6,-4 H 0 Z"
               id="path30" />
            <path
               class="blocklyPath"
               fill="#723ca5"
               d="M 0,8 A 8,8 0 0 1 8,0 h 7 l 6,4 h 3 L 30,0 H 132.48437 V 24 H 29.5 l -6,4 h -3 l -6,-4 H 0 Z"
               id="path31" />
            <text
               class="blocklyText"
               y="12.5"
               transform="translate(10,5)"
               id="text32"
               style="font-style:normal;font-variant:normal;font-weight:normal;font-stretch:normal;font-size:14.6667px;font-family:Arial;-inkscape-font-specification:'Arial, Normal';font-variant-ligatures:normal;font-variant-caps:normal;font-variant-numeric:normal;font-variant-east-asian:normal;fill:#ffffff;fill-opacity:1">gehe nach rechts</text>
            <g
               class="blocklyDraggable"
               transform="translate(0,25)"
               id="g50"
               style="display:inline;opacity:0.247117;fill:url(#linearGradient120);fill-opacity:1;filter:url(#filter120)">
              <path
                 class="blocklyPathDark"
                 transform="translate(1,1)"
                 fill="#269197"
                 d="m 0,0 h 15 l 6,4 h 3 L 30,0 H 94.015625 182.92187 V 36 H 94.015625 l -6,4 h -3 l -6,-4 h -7 a 8,8 0 0 0 -8,8 v 9 a 8,8 0 0 0 8,8 h 22 V 71 H 29.5 l -6,4 h -3 l -6,-4 H 0 Z m 135.21875,5 h -38.3125 v 5 c 0,10 -8,-8 -8,7.5 0,15.5 8,-2.5 8,7.5 v 7 h 38.3125 z"
                 id="path33"
                 style="fill:url(#linearGradient1);fill-opacity:1" />
              <path
                 class="blocklyPath"
                 fill="#2fb5bd"
                 d="m 0,0 h 15 l 6,4 h 3 L 30,0 H 94.015625 182.92187 V 36 H 94.015625 l -6,4 h -3 l -6,-4 h -7 a 8,8 0 0 0 -8,8 v 9 a 8,8 0 0 0 8,8 h 22 V 71 H 29.5 l -6,4 h -3 l -6,-4 H 0 Z m 135.21875,5 h -38.3125 v 5 c 0,10 -8,-8 -8,7.5 0,15.5 8,-2.5 8,7.5 v 7 h 38.3125 z"
                 id="path34"
                 style="fill:url(#linearGradient2);fill-opacity:1" />
              <g
                 transform="translate(97.90625,6)"
                 id="g39"
                 style="fill:url(#linearGradient8);fill-opacity:1">
                <path
                   class="blocklyPathDark"
                   transform="translate(1,1)"
                   fill="#b0b9db"
                   d="M 0,0 H 36.3125 V 25 H 0 V 20 C 0,10 -8,28 -8,12.5 -8,-3 0,15 0,5 Z"
                   id="path36"
                   style="fill:url(#linearGradient3);fill-opacity:1" />
                <path
                   class="blocklyPath"
                   fill="#b0b9db"
                   d="M 0,0 H 36.3125 V 25 H 0 V 20 C 0,10 -8,28 -8,12.5 -8,-3 0,15 0,5 Z"
                   id="path37"
                   style="fill:url(#linearGradient4);fill-opacity:1" />
                <g
                   class="blocklyEditableText"
                   transform="translate(10,5)"
                   id="g38"
                   style="fill:url(#linearGradient7);fill-opacity:1">
                  <rect
                     rx="4"
                     ry="4"
                     x="-5"
                     y="0"
                     height="16"
                     width="26.3125"
                     id="rect38"
                     style="fill:url(#linearGradient5);fill-opacity:1" />
                  <text
                     class="blocklyText"
                     y="12.5"
                     id="text38"
                     style="font-style:normal;font-variant:normal;font-weight:normal;font-stretch:normal;font-size:14.6667px;font-family:Arial;-inkscape-font-specification:'Arial, Normal';font-variant-ligatures:normal;font-variant-caps:normal;font-variant-numeric:normal;font-variant-east-asian:normal;fill:url(#linearGradient6);fill-opacity:1">10</text>
                </g>
              </g>
              <text
                 class="blocklyText"
                 y="12.5"
                 transform="translate(10,10)"
                 id="text39"
                 style="font-style:normal;font-variant:normal;font-weight:normal;font-stretch:normal;font-size:14.6667px;font-family:Arial;-inkscape-font-specification:'Arial, Normal';font-variant-ligatures:normal;font-variant-caps:normal;font-variant-numeric:normal;font-variant-east-asian:normal;fill:url(#linearGradient9);fill-opacity:1">wiederhole</text>
              <text
                 class="blocklyText"
                 y="12.5"
                 transform="translate(145.21875,10)"
                 id="text40"
                 style="font-style:normal;font-variant:normal;font-weight:normal;font-stretch:normal;font-size:14.6667px;font-family:Arial;-inkscape-font-specification:'Arial, Normal';font-variant-ligatures:normal;font-variant-caps:normal;font-variant-numeric:normal;font-variant-east-asian:normal;fill:url(#linearGradient10);fill-opacity:1">mal:</text>
              <text
                 class="blocklyText"
                 y="12.5"
                 transform="translate(10,41)"
                 id="text41"
                 style="font-style:normal;font-variant:normal;font-weight:normal;font-stretch:normal;font-size:14.6667px;font-family:Arial;-inkscape-font-specification:'Arial, Normal';font-variant-ligatures:normal;font-variant-caps:normal;font-variant-numeric:normal;font-variant-east-asian:normal;fill:url(#linearGradient11);fill-opacity:1">mache</text>
            </g>
          </g>
        </g>
      </g>
    </g>
  </g>
</svg>
