<?xml version="1.0" encoding="UTF-8" standalone="no"?>
<svg
   version="1.1"
   class="blocklySvg"
   width="310.26562"
   height="76"
   id="svg112"
   sodipodi:docname="Beispiel_useVar_short.svg"
   inkscape:version="1.3.2 (091e20e, 2023-11-25, custom)"
   xmlns:inkscape="http://www.inkscape.org/namespaces/inkscape"
   xmlns:sodipodi="http://sodipodi.sourceforge.net/DTD/sodipodi-0.dtd"
   xmlns="http://www.w3.org/2000/svg"
   xmlns:svg="http://www.w3.org/2000/svg">
  <sodipodi:namedview
     id="namedview1"
     pagecolor="#ffffff"
     bordercolor="#000000"
     borderopacity="0.25"
     inkscape:showpageshadow="2"
     inkscape:pageopacity="0.0"
     inkscape:pagecheckerboard="0"
     inkscape:deskcolor="#d1d1d1"
     inkscape:zoom="3.4486579"
     inkscape:cx="155.13281"
     inkscape:cy="38.130775"
     inkscape:window-width="1920"
     inkscape:window-height="1017"
     inkscape:window-x="-8"
     inkscape:window-y="-8"
     inkscape:window-maximized="1"
     inkscape:current-layer="svg112" />
  <defs
     id="defs2" />
  <g
     class="blocklyWorkspace"
     id="g68"
     transform="translate(-454,-572)">
    <g
       class="blocklyBlockCanvas"
       transform="translate(75.3125,1)"
       id="g62">
      <g
         class="blocklyDraggable"
         transform="translate(378.6875,571)"
         id="g61">
        <path
           class="blocklyPathDark"
           transform="translate(1,1)"
           fill="#269197"
           d="M 0,8 A 8,8 0 0 1 8,0 h 7 l 6,4 h 3 L 30,0 H 94.015625 309.26562 V 36 H 94.015625 l -6,4 h -3 l -6,-4 h -7 a 8,8 0 0 0 -8,8 v 9 a 8,8 0 0 0 8,8 h 22 V 71 H 29.5 l -6,4 h -3 l -6,-4 H 8 A 8,8 0 0 1 0,63 Z M 261.5625,5 H 96.90625 v 5 c 0,10 -8,-8 -8,7.5 0,15.5 8,-2.5 8,7.5 v 7 H 261.5625 Z"
           id="path53" />
        <path
           class="blocklyPath"
           fill="#2fb5bd"
           d="M 0,8 A 8,8 0 0 1 8,0 h 7 l 6,4 h 3 L 30,0 H 94.015625 309.26562 V 36 H 94.015625 l -6,4 h -3 l -6,-4 h -7 a 8,8 0 0 0 -8,8 v 9 a 8,8 0 0 0 8,8 h 22 V 71 H 29.5 l -6,4 h -3 l -6,-4 H 8 A 8,8 0 0 1 0,63 Z M 261.5625,5 H 96.90625 v 5 c 0,10 -8,-8 -8,7.5 0,15.5 8,-2.5 8,7.5 v 7 H 261.5625 Z"
           id="path54" />
        <text
           class="blocklyText"
           y="12.5"
           transform="translate(10,10)"
           id="text55"
           style="font-style:normal;font-variant:normal;font-weight:normal;font-stretch:normal;font-size:14.6667px;font-family:Arial;-inkscape-font-specification:'Arial, Normal';font-variant-ligatures:normal;font-variant-caps:normal;font-variant-numeric:normal;font-variant-east-asian:normal;fill:#ffffff;fill-opacity:1">wiederhole</text>
        <text
           class="blocklyText"
           y="12.5"
           transform="translate(271.5625,10)"
           id="text56"
           style="font-style:normal;font-variant:normal;font-weight:normal;font-stretch:normal;font-size:14.6667px;font-family:Arial;-inkscape-font-specification:'Arial, Normal';font-variant-ligatures:normal;font-variant-caps:normal;font-variant-numeric:normal;font-variant-east-asian:normal;fill:#ffffff;fill-opacity:1">mal:</text>
        <text
           class="blocklyText"
           y="12.5"
           transform="translate(10,41)"
           id="text57"
           style="font-style:normal;font-variant:normal;font-weight:normal;font-stretch:normal;font-size:14.6667px;font-family:Arial;-inkscape-font-specification:'Arial, Normal';font-variant-ligatures:normal;font-variant-caps:normal;font-variant-numeric:normal;font-variant-east-asian:normal;fill:#ffffff;fill-opacity:1">mache</text>
        <g
           class="blocklyDraggable"
           transform="translate(97.90625,6)"
           id="g60">
          <path
             class="blocklyPathDark"
             transform="translate(1,1)"
             fill="#843456"
             d="M 0,0 H 162.65625 V 25 H 0 V 20 C 0,10 -8,28 -8,12.5 -8,-3 0,15 0,5 Z"
             id="path57" />
          <path
             class="blocklyPath"
             fill="#a5416b"
             d="M 0,0 H 162.65625 V 25 H 0 V 20 C 0,10 -8,28 -8,12.5 -8,-3 0,15 0,5 Z"
             id="path58" />
          <path
             class="blocklyPathLight"
             stroke="#c07a97"
             d="m 0.5,0.5 h 161.65625 m 0,0 M 0.5,24.5 v -6 M -6.86,18 q -1.52,-5.5 0,-11 M 0.5,8 V 0.5 H 1"
             id="path59" />
          <g
             class="blocklyEditableText"
             transform="translate(10,5)"
             id="g59">
            <rect
               rx="4"
               ry="4"
               x="-5"
               y="0"
               height="16"
               width="152.65625"
               id="rect59"
               style="fill:#dbb3c4;fill-opacity:1" />
            <text
               class="blocklyText"
               y="12.5"
               id="text59"
               style="font-style:normal;font-variant:normal;font-weight:normal;font-stretch:normal;font-size:14.6667px;font-family:Arial;-inkscape-font-specification:'Arial, Normal';font-variant-ligatures:normal;font-variant-caps:normal;font-variant-numeric:normal;font-variant-east-asian:normal;fill:#000000;fill-opacity:1">RoboterGedächtnis<tspan
   style="font-style:normal;font-variant:normal;font-weight:normal;font-stretch:normal;font-size:14.6667px;font-family:Arial;-inkscape-font-specification:'Arial, Normal';font-variant-ligatures:normal;font-variant-caps:normal;font-variant-numeric:normal;font-variant-east-asian:normal;fill:#000000;fill-opacity:1"
   id="tspan59">▾</tspan></text>
          </g>
        </g>
      </g>
    </g>
  </g>
</svg>
