<?xml version="1.0" encoding="UTF-8" standalone="no"?>
<svg
   version="1.1"
   class="blocklySvg"
   width="312.64062"
   height="69"
   id="svg99"
   sodipodi:docname="liste_for_each.svg"
   xmlns:inkscape="http://www.inkscape.org/namespaces/inkscape"
   xmlns:sodipodi="http://sodipodi.sourceforge.net/DTD/sodipodi-0.dtd"
   xmlns="http://www.w3.org/2000/svg"
   xmlns:svg="http://www.w3.org/2000/svg">
  <sodipodi:namedview
     id="namedview99"
     pagecolor="#ffffff"
     bordercolor="#000000"
     borderopacity="0.25"
     inkscape:showpageshadow="2"
     inkscape:pageopacity="0.0"
     inkscape:pagecheckerboard="0"
     inkscape:deskcolor="#d1d1d1" />
  <defs
     id="defs2" />
  <g
     class="blocklyWorkspace"
     id="g99"
     transform="translate(-521,-246)">
    <g
       class="blocklyBlockCanvas"
       transform="translate(457.6875,7)"
       id="g93">
      <g
         class="blocklyDraggable"
         transform="translate(63.3125,239)"
         id="g92">
        <path
           class="blocklyPathDark"
           transform="translate(1,1)"
           fill="#269197"
           d="M 0,8 A 8,8 0 0 1 8,0 h 7 l 6,4 h 3 l 6,-4 h 213.34375 v 5 c 0,10 -8,-8 -8,7.5 0,15.5 8,-2.5 8,7.5 v 5 H 94.015625 l -6,4 h -3 l -6,-4 h -7 a 8,8 0 0 0 -8,8 v 13 a 8,8 0 0 0 8,8 H 243.34375 V 64 H 29.5 l -6,4 h -3 l -6,-4 H 8 A 8,8 0 0 1 0,56 Z"
           id="path76" />
        <path
           class="blocklyPath"
           fill="#2fb5bd"
           d="M 0,8 A 8,8 0 0 1 8,0 h 7 l 6,4 h 3 l 6,-4 h 213.34375 v 5 c 0,10 -8,-8 -8,7.5 0,15.5 8,-2.5 8,7.5 v 5 H 94.015625 l -6,4 h -3 l -6,-4 h -7 a 8,8 0 0 0 -8,8 v 13 a 8,8 0 0 0 8,8 H 243.34375 V 64 H 29.5 l -6,4 h -3 l -6,-4 H 8 A 8,8 0 0 1 0,56 Z"
           id="path77" />
        <text
           class="blocklyText"
           y="12.5"
           transform="translate(10,5)"
           id="text78"
           style="font-style:normal;font-variant:normal;font-weight:normal;font-stretch:normal;font-size:14.6667px;font-family:Arial;-inkscape-font-specification:'Arial, Normal';font-variant-ligatures:normal;font-variant-caps:normal;font-variant-numeric:normal;font-variant-east-asian:normal;fill:#ffffff;fill-opacity:1">für jeden Wert</text>
        <g
           class="blocklyEditableText"
           transform="translate(111.8125,5)"
           id="g79">
          <rect
             rx="4"
             ry="4"
             x="-5"
             y="0"
             height="16"
             width="29.59375"
             id="rect78"
             style="fill:#abe1e5;fill-opacity:1" />
          <text
             class="blocklyText"
             y="12.5"
             id="text79"
             style="font-style:normal;font-variant:normal;font-weight:normal;font-stretch:normal;font-size:14.6667px;font-family:Arial;-inkscape-font-specification:'Arial, Normal';font-variant-ligatures:normal;font-variant-caps:normal;font-variant-numeric:normal;font-variant-east-asian:normal;fill:#000000;fill-opacity:1">i<tspan
   style="font-style:normal;font-variant:normal;font-weight:normal;font-stretch:normal;font-size:14.6667px;font-family:Arial;-inkscape-font-specification:'Arial, Normal';font-variant-ligatures:normal;font-variant-caps:normal;font-variant-numeric:normal;font-variant-east-asian:normal;fill:#000000;fill-opacity:1"
   id="tspan78">▾</tspan></text>
        </g>
        <text
           class="blocklyText"
           y="12.5"
           transform="translate(141.40625,5)"
           id="text80"
           style="font-style:normal;font-variant:normal;font-weight:normal;font-stretch:normal;font-size:14.6667px;font-family:Arial;-inkscape-font-specification:'Arial, Normal';font-variant-ligatures:normal;font-variant-caps:normal;font-variant-numeric:normal;font-variant-east-asian:normal;fill:#ffffff;fill-opacity:1">aus der Liste</text>
        <text
           class="blocklyText"
           y="12.5"
           transform="translate(10,30)"
           id="text81"
           style="font-style:normal;font-variant:normal;font-weight:normal;font-stretch:normal;font-size:14.6667px;font-family:Arial;-inkscape-font-specification:'Arial, Normal';font-variant-ligatures:normal;font-variant-caps:normal;font-variant-numeric:normal;font-variant-east-asian:normal;fill:#ffffff;fill-opacity:1">mache</text>
        <g
           class="blocklyDraggable"
           transform="translate(244.34375)"
           id="g84">
          <path
             class="blocklyPathDark"
             transform="translate(1,1)"
             fill="#843456"
             d="M 0,0 H 67.296875 V 25 H 0 V 20 C 0,10 -8,28 -8,12.5 -8,-3 0,15 0,5 Z"
             id="path81" />
          <path
             class="blocklyPath"
             fill="#a5416b"
             d="M 0,0 H 67.296875 V 25 H 0 V 20 C 0,10 -8,28 -8,12.5 -8,-3 0,15 0,5 Z"
             id="path82" />
          <g
             class="blocklyNonEditableText"
             transform="translate(10,5)"
             id="g83">
            <rect
               rx="4"
               ry="4"
               x="-5"
               y="0"
               height="16"
               width="57.296875"
               id="rect83"
               style="fill:#dbb3c4;fill-opacity:1" />
            <text
               class="blocklyText"
               y="12.5"
               id="text83"
               style="font-style:normal;font-variant:normal;font-weight:normal;font-stretch:normal;font-size:14.6667px;font-family:Arial;-inkscape-font-specification:'Arial, Normal';font-variant-ligatures:normal;font-variant-caps:normal;font-variant-numeric:normal;font-variant-east-asian:normal;fill:#000000;fill-opacity:1">Liste<tspan
   style="font-style:normal;font-variant:normal;font-weight:normal;font-stretch:normal;font-size:14.6667px;font-family:Arial;-inkscape-font-specification:'Arial, Normal';font-variant-ligatures:normal;font-variant-caps:normal;font-variant-numeric:normal;font-variant-east-asian:normal;fill:#000000;fill-opacity:1"
   id="tspan83">▾</tspan></text>
          </g>
        </g>
        <g
           class="blocklyDraggable"
           transform="translate(65.015625,26)"
           id="g91">
          <path
             class="blocklyPathDark"
             transform="translate(1,1)"
             fill="#ae9b1a"
             d="M 0,8 A 8,8 0 0 1 8,0 h 7 l 6,4 h 3 l 6,-4 h 53.421875 v 5 c 0,10 -8,-8 -8,7.5 0,15.5 8,-2.5 8,7.5 v 5 H 29.5 l -6,4 h -3 l -6,-4 H 8 A 8,8 0 0 1 0,17 Z"
             id="path84" />
          <path
             class="blocklyPath"
             fill="#dac221"
             d="M 0,8 A 8,8 0 0 1 8,0 h 7 l 6,4 h 3 l 6,-4 h 53.421875 v 5 c 0,10 -8,-8 -8,7.5 0,15.5 8,-2.5 8,7.5 v 5 H 29.5 l -6,4 h -3 l -6,-4 H 8 A 8,8 0 0 1 0,17 Z"
             id="path85" />
          <text
             class="blocklyText"
             y="12.5"
             transform="translate(10,5)"
             id="text86"
             style="font-style:normal;font-variant:normal;font-weight:normal;font-stretch:normal;font-size:14.6667px;font-family:Arial;-inkscape-font-specification:'Arial, Normal';font-variant-ligatures:normal;font-variant-caps:normal;font-variant-numeric:normal;font-variant-east-asian:normal;fill:#ffffff;fill-opacity:1">schreibe</text>
          <g
             class="blocklyDraggable"
             transform="translate(84.421875)"
             id="g90">
            <path
               class="blocklyPathDark"
               transform="translate(1,1)"
               fill="#843456"
               d="M 0,0 H 39.59375 V 25 H 0 V 20 C 0,10 -8,28 -8,12.5 -8,-3 0,15 0,5 Z"
               id="path87" />
            <path
               class="blocklyPath"
               fill="#a5416b"
               d="M 0,0 H 39.59375 V 25 H 0 V 20 C 0,10 -8,28 -8,12.5 -8,-3 0,15 0,5 Z"
               id="path88" />
            <g
               class="blocklyNonEditableText"
               transform="translate(10,5)"
               id="g89">
              <rect
                 rx="4"
                 ry="4"
                 x="-5"
                 y="0"
                 height="16"
                 width="29.59375"
                 id="rect89"
                 style="fill:#dbb3c4;fill-opacity:1" />
              <text
                 class="blocklyText"
                 y="12.5"
                 id="text89"
                 style="font-style:normal;font-variant:normal;font-weight:normal;font-stretch:normal;font-size:14.6667px;font-family:Arial;-inkscape-font-specification:'Arial, Normal';font-variant-ligatures:normal;font-variant-caps:normal;font-variant-numeric:normal;font-variant-east-asian:normal;fill:#000000;fill-opacity:1">i<tspan
   style="font-style:normal;font-variant:normal;font-weight:normal;font-stretch:normal;font-size:14.6667px;font-family:Arial;-inkscape-font-specification:'Arial, Normal';font-variant-ligatures:normal;font-variant-caps:normal;font-variant-numeric:normal;font-variant-east-asian:normal;fill:#000000;fill-opacity:1"
   id="tspan89">▾</tspan></text>
            </g>
          </g>
        </g>
      </g>
    </g>
  </g>
</svg>
