<?xml version="1.0" encoding="UTF-8" standalone="no"?>
<svg
   version="1.1"
   class="blocklySvg"
   width="297.93405"
   height="52.799988"
   id="svg71"
   sodipodi:docname="drehen.svg"
   xmlns:inkscape="http://www.inkscape.org/namespaces/inkscape"
   xmlns:sodipodi="http://sodipodi.sourceforge.net/DTD/sodipodi-0.dtd"
   xmlns="http://www.w3.org/2000/svg"
   xmlns:svg="http://www.w3.org/2000/svg">
  <sodipodi:namedview
     id="namedview71"
     pagecolor="#ffffff"
     bordercolor="#000000"
     borderopacity="0.25"
     inkscape:showpageshadow="2"
     inkscape:pageopacity="0.0"
     inkscape:pagecheckerboard="0"
     inkscape:deskcolor="#d1d1d1" />
  <defs
     id="defs2" />
  <g
     class="blocklyWorkspace"
     id="g71"
     transform="translate(-453.66904,-203.39999)">
    <g
       class="blocklyBlockCanvas"
       transform="matrix(1.1,0,0,1.1,91.420313,4.8)"
       id="g65">
      <g
         class="blocklyDraggable"
         transform="translate(337.43605,180.54545)"
         id="g64">
        <path
           class="blocklyPathDark"
           transform="translate(1,1)"
           fill="#2e4084"
           d="M 0,0 H 20 261.73011 V 47 H 0 V 20 C 0,10 -8,28 -8,12.5 -8,-3 0,15 0,5 Z M 62.474432,5 H 16 v 5 C 16,20 8,2 8,17.5 8,33 16,15 16,25 v 7 H 62.474432 Z M 251.73011,5 H 112.93466 v 5 c 0,10 -8,-8 -8,7.5 0,15.5 8,-2.5 8,7.5 v 18 h 138.79545 z"
           id="path45" />
        <path
           class="blocklyPath"
           fill="#3950a5"
           d="M 0,0 H 20 261.73011 V 47 H 0 V 20 C 0,10 -8,28 -8,12.5 -8,-3 0,15 0,5 Z M 62.474432,5 H 16 v 5 C 16,20 8,2 8,17.5 8,33 16,15 16,25 v 7 H 62.474432 Z M 251.73011,5 H 112.93466 v 5 c 0,10 -8,-8 -8,7.5 0,15.5 8,-2.5 8,7.5 v 18 h 138.79545 z"
           id="path46" />
        <path
           class="blocklyPathLight"
           stroke="#7485c0"
           d="m 0.5,0.5 h 19 m 0,0 H 261.23011 M 0.5,46.5 v -28 M -6.86,18 q -1.52,-5.5 0,-11 M 0.5,8 V 0.5 H 1 m 61.974432,5 v 27 H 16.5 m -5.6,-8.2 3.68,-2.1 M 252.23011,5.5 v 38 H 113.43466 m -5.6,-19.2 3.68,-2.1"
           id="path47" />
        <g
           transform="translate(17,6)"
           id="g51">
          <path
             class="blocklyPathDark"
             transform="translate(1,1)"
             fill="#b0b9db"
             d="M 0,0 H 44.474432 V 25 H 0 V 20 C 0,10 -8,28 -8,12.5 -8,-3 0,15 0,5 Z"
             id="path48" />
          <path
             class="blocklyPath"
             fill="#b0b9db"
             d="M 0,0 H 44.474432 V 25 H 0 V 20 C 0,10 -8,28 -8,12.5 -8,-3 0,15 0,5 Z"
             id="path49" />
          <path
             class="blocklyPathLight"
             d="m 0.5,0.5 h 43.474432 m 0,0 M 0.5,24.5 v -6 M -6.86,18 q -1.52,-5.5 0,-11 M 0.5,8 V 0.5 H 1"
             style="display:none"
             id="path50" />
          <g
             class="blocklyEditableText"
             transform="translate(10,5)"
             id="g50">
            <rect
               rx="4"
               ry="4"
               x="-5"
               y="0"
               height="16"
               width="34.474434"
               id="rect50"
               style="fill:#dfe3f0;fill-opacity:1" />
            <text
               class="blocklyText"
               y="12.5"
               id="text50"
               style="font-style:normal;font-variant:normal;font-weight:normal;font-stretch:normal;font-size:13.3333px;font-family:Arial;-inkscape-font-specification:'Arial, Normal';font-variant-ligatures:normal;font-variant-caps:normal;font-variant-numeric:normal;font-variant-east-asian:normal;fill:#000000;fill-opacity:1">360</text>
          </g>
        </g>
        <g
           class="blocklyEditableText"
           transform="translate(72.474432,10)"
           id="g52">
          <rect
             rx="4"
             ry="4"
             x="-5"
             y="0"
             height="16"
             width="34.460228"
             id="rect51"
             style="fill:#b0b9db;fill-opacity:1" />
          <text
             class="blocklyText"
             y="16.136364"
             id="text51"
             style="font-style:normal;font-variant:normal;font-weight:normal;font-stretch:normal;font-size:13.3333px;font-family:Arial;-inkscape-font-specification:'Arial, Normal';font-variant-ligatures:normal;font-variant-caps:normal;font-variant-numeric:normal;font-variant-east-asian:normal;fill:#000000;fill-opacity:1"><tspan
   style="font-style:normal;font-variant:normal;font-weight:normal;font-stretch:normal;font-size:24.2424px;font-family:Arial;-inkscape-font-specification:'Arial, Normal';font-variant-ligatures:normal;font-variant-caps:normal;font-variant-numeric:normal;font-variant-east-asian:normal"
   id="tspan71">÷</tspan>▾</text>
        </g>
        <g
           class="blocklyDraggable"
           transform="translate(113.93466,6)"
           id="g63">
          <path
             class="blocklyPathDark"
             transform="translate(1,1)"
             fill="#2e4084"
             d="M 0,0 H 20 136.79545 V 36 H 0 V 20 C 0,10 -8,28 -8,12.5 -8,-3 0,15 0,5 Z M 46.167613,5 H 16 v 5 C 16,20 8,2 8,17.5 8,33 16,15 16,25 v 7 H 46.167613 Z M 126.79545,5 H 96.627841 v 5 c 0,10 -8,-8 -8,7.5 0,15.5 8,-2.5 8,7.5 v 7 h 30.167609 z"
             id="path52" />
          <path
             class="blocklyPath"
             fill="#3950a5"
             d="M 0,0 H 20 136.79545 V 36 H 0 V 20 C 0,10 -8,28 -8,12.5 -8,-3 0,15 0,5 Z M 46.167613,5 H 16 v 5 C 16,20 8,2 8,17.5 8,33 16,15 16,25 v 7 H 46.167613 Z M 126.79545,5 H 96.627841 v 5 c 0,10 -8,-8 -8,7.5 0,15.5 8,-2.5 8,7.5 v 7 h 30.167609 z"
             id="path53" />
          <path
             class="blocklyPathLight"
             stroke="#7485c0"
             d="m 0.5,0.5 h 19 m 0,0 H 136.29545 M 0.5,35.5 v -17 M -6.86,18 q -1.52,-5.5 0,-11 M 0.5,8 V 0.5 H 1 m 45.667613,5 v 27 H 16.5 m -5.6,-8.2 3.68,-2.1 M 127.29545,5.5 v 27 H 97.127841 m -5.6,-8.2 3.68,-2.1"
             id="path54" />
          <g
             transform="translate(17,6)"
             id="g58">
            <path
               class="blocklyPathDark"
               transform="translate(1,1)"
               fill="#b0b9db"
               d="M 0,0 H 28.167613 V 25 H 0 V 20 C 0,10 -8,28 -8,12.5 -8,-3 0,15 0,5 Z"
               id="path55" />
            <path
               class="blocklyPath"
               fill="#b0b9db"
               d="M 0,0 H 28.167613 V 25 H 0 V 20 C 0,10 -8,28 -8,12.5 -8,-3 0,15 0,5 Z"
               id="path56" />
            <path
               class="blocklyPathLight"
               d="m 0.5,0.5 h 27.167613 m 0,0 M 0.5,24.5 v -6 M -6.86,18 q -1.52,-5.5 0,-11 M 0.5,8 V 0.5 H 1"
               style="display:none"
               id="path57" />
            <g
               class="blocklyEditableText"
               transform="translate(10,5)"
               id="g57">
              <rect
                 rx="4"
                 ry="4"
                 x="-5"
                 y="0"
                 height="16"
                 width="18.167614"
                 id="rect57"
                 style="fill:#dfe3f0;fill-opacity:1" />
              <text
                 class="blocklyText"
                 y="12.5"
                 id="text57"
                 style="font-style:normal;font-variant:normal;font-weight:normal;font-stretch:normal;font-size:13.3333px;font-family:Arial;-inkscape-font-specification:'Arial, Normal';font-variant-ligatures:normal;font-variant-caps:normal;font-variant-numeric:normal;font-variant-east-asian:normal;fill:#000000;fill-opacity:1">5</text>
            </g>
          </g>
          <g
             transform="translate(97.627841,6)"
             id="g61">
            <path
               class="blocklyPathDark"
               transform="translate(1,1)"
               fill="#b0b9db"
               d="M 0,0 H 28.167613 V 25 H 0 V 20 C 0,10 -8,28 -8,12.5 -8,-3 0,15 0,5 Z"
               id="path58" />
            <path
               class="blocklyPath"
               fill="#b0b9db"
               d="M 0,0 H 28.167613 V 25 H 0 V 20 C 0,10 -8,28 -8,12.5 -8,-3 0,15 0,5 Z"
               id="path59" />
            <path
               class="blocklyPathLight"
               d="m 0.5,0.5 h 27.167613 m 0,0 M 0.5,24.5 v -6 M -6.86,18 q -1.52,-5.5 0,-11 M 0.5,8 V 0.5 H 1"
               style="display:none"
               id="path60" />
            <g
               class="blocklyEditableText"
               transform="translate(10,5)"
               id="g60">
              <rect
                 rx="4"
                 ry="4"
                 x="-5"
                 y="0"
                 height="16"
                 width="18.167614"
                 id="rect60"
                 style="fill:#dfe3f0;fill-opacity:1" />
              <text
                 class="blocklyText"
                 y="12.5"
                 id="text60"
                 style="font-style:normal;font-variant:normal;font-weight:normal;font-stretch:normal;font-size:13.3333px;font-family:Arial;-inkscape-font-specification:'Arial, Normal';font-variant-ligatures:normal;font-variant-caps:normal;font-variant-numeric:normal;font-variant-east-asian:normal;fill:#000000;fill-opacity:1">2</text>
            </g>
          </g>
          <g
             class="blocklyEditableText"
             transform="translate(56.167613,10)"
             id="g62">
            <rect
               rx="4"
               ry="4"
               x="-5"
               y="0"
               height="16"
               width="34.460228"
               id="rect61"
               style="fill:#b0b9db;fill-opacity:1" />
            <text
               class="blocklyText"
               y="16.136364"
               id="text61"
               style="font-style:normal;font-variant:normal;font-weight:normal;font-stretch:normal;font-size:13.3333px;font-family:Arial;-inkscape-font-specification:'Arial, Normal';font-variant-ligatures:normal;font-variant-caps:normal;font-variant-numeric:normal;font-variant-east-asian:normal;fill:#000000;fill-opacity:1"><tspan
   style="font-style:normal;font-variant:normal;font-weight:normal;font-stretch:normal;font-size:24.2424px;font-family:Arial;-inkscape-font-specification:'Arial, Normal';font-variant-ligatures:normal;font-variant-caps:normal;font-variant-numeric:normal;font-variant-east-asian:normal"
   id="tspan72">÷</tspan>▾</text>
          </g>
        </g>
      </g>
    </g>
  </g>
</svg>
