<?xml version="1.0" encoding="UTF-8" standalone="no"?>
<svg
   viewBox="0 0 774.46667 117.00002"
   version="1.1"
   class="blocklySvg"
   width="774.46667"
   height="117.00002"
   id="svg81"
   sodipodi:docname="12064.svg"
   inkscape:version="1.4.2 (f4327f4, 2025-05-13)"
   xmlns:inkscape="http://www.inkscape.org/namespaces/inkscape"
   xmlns:sodipodi="http://sodipodi.sourceforge.net/DTD/sodipodi-0.dtd"
   xmlns="http://www.w3.org/2000/svg"
   xmlns:svg="http://www.w3.org/2000/svg">
  <sodipodi:namedview
     id="namedview81"
     pagecolor="#ffffff"
     bordercolor="#000000"
     borderopacity="0.25"
     inkscape:showpageshadow="2"
     inkscape:pageopacity="0.0"
     inkscape:pagecheckerboard="0"
     inkscape:deskcolor="#d1d1d1"
     inkscape:zoom="1.2569106"
     inkscape:cx="330.97025"
     inkscape:cy="135.65006"
     inkscape:window-width="1920"
     inkscape:window-height="991"
     inkscape:window-x="-9"
     inkscape:window-y="-9"
     inkscape:window-maximized="1"
     inkscape:current-layer="svg81" />
  <defs
     id="defs5">
    <filter
       id="blocklyEmbossFilter08808151412240506">
      <feGaussianBlur
         in="SourceAlpha"
         stdDeviation="1"
         result="blur"
         id="feGaussianBlur1" />
      <feSpecularLighting
         in="blur"
         surfaceScale="1"
         specularConstant="0.5"
         specularExponent="10"
         lighting-color="#ffffff"
         result="specOut"
         id="feSpecularLighting1">
        <fePointLight
           x="-5000"
           y="-10000"
           z="20000"
           id="fePointLight1" />
      </feSpecularLighting>
      <feComposite
         in="specOut"
         in2="SourceAlpha"
         operator="in"
         result="specOut"
         id="feComposite1" />
      <feComposite
         in="SourceGraphic"
         in2="specOut"
         operator="arithmetic"
         k1="0"
         k2="1"
         k3="1"
         k4="0"
         id="feComposite2" />
    </filter>
    <pattern
       id="blocklyDisabledPattern08808151412240506"
       patternUnits="userSpaceOnUse"
       width="10"
       height="10">
      <rect
         width="10"
         height="10"
         fill="#aaa"
         id="rect2" />
      <path
         d="M 0 0 L 10 10 M 10 0 L 0 10"
         stroke="#cc0"
         id="path2" />
    </pattern>
    <pattern
       id="blocklyGridPattern08808151412240506"
       patternUnits="userSpaceOnUse"
       width="100"
       height="100"
       x="126.7166690826416"
       y="64.99999999999989" />
    <pattern
       id="pattern2"
       patternUnits="userSpaceOnUse"
       width="100"
       height="100"
       x="138.81666755676264"
       y="7.000000000000455" />
    <pattern
       id="pattern3"
       patternUnits="userSpaceOnUse"
       width="100"
       height="100"
       x="218.566665649414"
       y="7.000000000000227" />
    <pattern
       id="pattern4"
       patternUnits="userSpaceOnUse"
       width="100"
       height="100"
       x="215.00000000000006"
       y="38.000000000000114" />
    <pattern
       id="pattern5"
       patternUnits="userSpaceOnUse"
       width="100"
       height="100"
       x="126.7166690826416"
       y="64.99999999999989" />
  </defs>
  <g
     class="blocklyWorkspace"
     id="g43"
     transform="translate(-130,-171.99998)">
    <g
       class="blocklyBlockCanvas"
       transform="translate(126.71667,65)"
       id="g37">
      <g
         class="blocklyDraggable"
         transform="translate(3.2833309,107)"
         id="g36">
        <path
           class="blocklyPathDark"
           transform="translate(1,1)"
           fill="#269197"
           d="M 0,8 A 8,8 0 0 1 8,0 h 7 l 6,4 h 3 l 6,-4 h 64 88.91667 V 36 H 94 l -6,4 h -3 l -6,-4 h -7 a 8,8 0 0 0 -8,8 v 50 a 8,8 0 0 0 8,8 h 22 v 10 H 29.5 l -6,4 h -3 l -6,-4 H 8 A 8,8 0 0 1 0,104 Z M 135.21667,5 H 96.916664 v 5 c 0,10 -8,-8 -8,7.5 0,15.5 8,-2.5 8,7.5 v 7 h 38.300006 z"
           id="path10" />
        <path
           class="blocklyPath"
           fill="#2fb5bd"
           d="M 0,8 A 8,8 0 0 1 8,0 h 7 l 6,4 h 3 l 6,-4 h 64 88.91667 V 36 H 94 l -6,4 h -3 l -6,-4 h -7 a 8,8 0 0 0 -8,8 v 50 a 8,8 0 0 0 8,8 h 22 v 10 H 29.5 l -6,4 h -3 l -6,-4 H 8 A 8,8 0 0 1 0,104 Z M 135.21667,5 H 96.916664 v 5 c 0,10 -8,-8 -8,7.5 0,15.5 8,-2.5 8,7.5 v 7 h 38.300006 z"
           id="path11" />
        <path
           class="blocklyPathLight"
           stroke="#6dcbd1"
           d="M 0.5,7.5 A 7.5,7.5 0 0 1 8,0.5 h 7 l 6,4 h 3 l 6,-4 h 63.5 m 0,0 h 88.91667 M 93.5,36.5 M 65.989592,100.01041 A 8.5,8.5 0 0 0 72,102.5 H 93.5 M 2.6966991,109.3033 A 7.5,7.5 0 0 1 0.5,104 V 8 M 135.71667,5.5 v 27 H 97.416664 m -5.6,-8.2 3.68,-2.1"
           fill="none"
           id="path12" />
        <g
           transform="translate(97.916664,6)"
           id="g16">
          <path
             class="blocklyPathDark"
             transform="translate(1,1)"
             fill="#b0b9db"
             d="M 0,0 H 36.300001 V 25 H 0 V 20 C 0,10 -8,28 -8,12.5 -8,-3 0,15 0,5 Z"
             id="path13" />
          <path
             class="blocklyPath"
             fill="#b0b9db"
             d="M 0,0 H 36.300001 V 25 H 0 V 20 C 0,10 -8,28 -8,12.5 -8,-3 0,15 0,5 Z"
             id="path14" />
          <path
             class="blocklyPathLight"
             style="display:none"
             d="m 0.5,0.5 h 35.300001 m 0,0 M 0.5,24.5 v -6 M -6.86,18 q -1.52,-5.5 0,-11 M 0.5,8 V 0.5 H 1"
             fill="none"
             id="path15" />
          <g
             class="blocklyEditableText"
             transform="translate(10,5)"
             id="g15">
            <rect
               rx="4"
               ry="4"
               x="-5"
               y="0"
               height="16"
               width="26.300001"
               fill="#ffffff"
               fill-opacity="0.6"
               id="rect15" />
            <text
               class="blocklyText"
               y="12.5"
               id="text15"
			   style="font-style:normal;font-variant:normal;font-weight:normal;font-stretch:normal;font-size:14.5455px;font-family:Arial;-inkscape-font-specification:'Arial, Normal';font-variant-ligatures:normal;font-variant-caps:normal;font-variant-numeric:normal;font-variant-east-asian:normal;fill:#000000;fill-opacity:1">15</text>
          </g>
        </g>
        <text
           class="blocklyText"
           y="12.5"
           transform="translate(10,10)"
           fill="#ffffff"
           id="text16"
		   style="font-style:normal;font-variant:normal;font-weight:normal;font-stretch:normal;font-size:14.5455px;font-family:Arial;-inkscape-font-specification:'Arial, Normal';font-variant-ligatures:normal;font-variant-caps:normal;font-variant-numeric:normal;font-variant-east-asian:normal;fill:#ffffff;fill-opacity:1">wiederhole</text>
        <text
           class="blocklyText"
           y="12.5"
           transform="translate(145.21667,10)"
           fill="#ffffff"
           id="text17"
		   style="font-style:normal;font-variant:normal;font-weight:normal;font-stretch:normal;font-size:14.5455px;font-family:Arial;-inkscape-font-specification:'Arial, Normal';font-variant-ligatures:normal;font-variant-caps:normal;font-variant-numeric:normal;font-variant-east-asian:normal;fill:#ffffff;fill-opacity:1">Mal:</text>
        <text
           class="blocklyText"
           y="12.5"
           transform="translate(10,41)"
           fill="#ffffff"
           id="text18"
		   style="font-style:normal;font-variant:normal;font-weight:normal;font-stretch:normal;font-size:14.5455px;font-family:Arial;-inkscape-font-specification:'Arial, Normal';font-variant-ligatures:normal;font-variant-caps:normal;font-variant-numeric:normal;font-variant-east-asian:normal;fill:#ffffff;fill-opacity:1">mache</text>
        <g
           class="blocklyDraggable"
           transform="translate(65,37)"
           id="g35">
          <path
             class="blocklyPathDark"
             transform="translate(1,1)"
             fill="#5b3084"
             d="M 0,8 A 8,8 0 0 1 8,0 h 7 l 6,4 h 3 L 30,0 H 132.43333 V 24 H 29.5 l -6,4 h -3 l -6,-4 H 0 Z"
             id="path18" />
          <path
             class="blocklyPath"
             fill="#723ca5"
             d="M 0,8 A 8,8 0 0 1 8,0 h 7 l 6,4 h 3 L 30,0 H 132.43333 V 24 H 29.5 l -6,4 h -3 l -6,-4 H 0 Z"
             id="path19" />
          <path
             class="blocklyPathLight"
             stroke="#9c77c0"
             d="M 0.5,7.5 A 7.5,7.5 0 0 1 8,0.5 h 7 l 6,4 h 3 l 6,-4 h 101.93333 m 0,0 M 0.5,23.5 V 8"
             fill="none"
             id="path20" />
          <text
             class="blocklyText"
             y="12.5"
             transform="translate(10,5)"
             fill="#ffffff"
             id="text20"
			 style="font-style:normal;font-variant:normal;font-weight:normal;font-stretch:normal;font-size:14.5455px;font-family:Arial;-inkscape-font-specification:'Arial, Normal';font-variant-ligatures:normal;font-variant-caps:normal;font-variant-numeric:normal;font-variant-east-asian:normal;fill:#ffffff;fill-opacity:1">gehe nach rechts</text>
          <g
             class="blocklyDraggable"
             transform="translate(0,25)"
             id="g34">
            <path
               class="blocklyPathDark"
               transform="translate(1,1)"
               fill="#ad6e22"
               d="m 0,0 h 15 l 6,4 h 3 L 30,0 H 40 708.46667 V 36 H 29.5 l -6,4 h -3 l -6,-4 H 8 A 8,8 0 0 1 0,28 Z M 208.95,5 H 97.700005 v 5 c 0,10 -8,-8 -8,7.5 0,15.5 8,-2.5 8,7.5 v 7 H 208.95 Z M 466.75001,5 H 311.93334 v 5 c 0,10 -8,-8 -8,7.5 0,15.5 8,-2.5 8,7.5 v 6 H 466.75001 Z M 698.46667,5 H 581.13334 v 5 c 0,10 -8,-8 -8,7.5 0,15.5 8,-2.5 8,7.5 v 6 h 117.33333 z"
               id="path21" />
            <path
               class="blocklyPath"
               fill="#d8892b"
               d="m 0,0 h 15 l 6,4 h 3 L 30,0 H 40 708.46667 V 36 H 29.5 l -6,4 h -3 l -6,-4 H 8 A 8,8 0 0 1 0,28 Z M 208.95,5 H 97.700005 v 5 c 0,10 -8,-8 -8,7.5 0,15.5 8,-2.5 8,7.5 v 7 H 208.95 Z M 466.75001,5 H 311.93334 v 5 c 0,10 -8,-8 -8,7.5 0,15.5 8,-2.5 8,7.5 v 6 H 466.75001 Z M 698.46667,5 H 581.13334 v 5 c 0,10 -8,-8 -8,7.5 0,15.5 8,-2.5 8,7.5 v 6 h 117.33333 z"
               id="path22" />
            <path
               class="blocklyPathLight"
               stroke="#e4ac6b"
               d="M 0.5,0.5 H 15 l 6,4 h 3 l 6,-4 h 9.5 m 0,0 H 707.96667 M 2.6966991,33.303301 A 7.5,7.5 0 0 1 0.5,28 V 0.5 m 208.95,5 v 27 H 98.200005 m -5.6,-8.2 3.68,-2.1 M 467.25001,5.5 v 26 H 312.43334 m -5.6,-7.2 3.68,-2.1 M 698.96667,5.5 v 26 H 581.63334 m -5.6,-7.2 3.68,-2.1"
               fill="none"
               id="path23" />
            <text
               class="blocklyText"
               y="12.5"
               transform="translate(10,10)"
               fill="#ffffff"
               id="text23"
			   style="font-style:normal;font-variant:normal;font-weight:normal;font-stretch:normal;font-size:14.5455px;font-family:Arial;-inkscape-font-specification:'Arial, Normal';font-variant-ligatures:normal;font-variant-caps:normal;font-variant-numeric:normal;font-variant-east-asian:normal;fill:#ffffff;fill-opacity:1">in der Liste</text>
            <g
               class="blocklyEditableText"
               transform="translate(218.95,10)"
               id="g24">
              <rect
                 rx="4"
                 ry="4"
                 x="-5"
                 y="0"
                 height="16"
                 width="86.983337"
                 fill="#ffffff"
                 fill-opacity="0.6"
                 id="rect23" />
              <text
                 class="blocklyText"
                 y="12.5"
                 id="text24"
				 style="font-style:normal;font-variant:normal;font-weight:normal;font-stretch:normal;font-size:14.5455px;font-family:Arial;-inkscape-font-specification:'Arial, Normal';font-variant-ligatures:normal;font-variant-caps:normal;font-variant-numeric:normal;font-variant-east-asian:normal;fill:#000000;fill-opacity:1">am Index<tspan
   fill="#d8892b"
   id="tspan23">▾</tspan></text>
            </g>
            <g
               class="blocklyEditableText"
               transform="translate(476.75001,10)"
               id="g25">
              <rect
                 rx="4"
                 ry="4"
                 x="-5"
                 y="0"
                 height="16"
                 width="98.383331"
                 fill="#ffffff"
                 fill-opacity="0.6"
                 id="rect24" />
              <text
                 class="blocklyText"
                 y="12.5"
                 id="text25"
				 style="font-style:normal;font-variant:normal;font-weight:normal;font-stretch:normal;font-size:14.5455px;font-family:Arial;-inkscape-font-specification:'Arial, Normal';font-variant-ligatures:normal;font-variant-caps:normal;font-variant-numeric:normal;font-variant-east-asian:normal;fill:#000000;fill-opacity:1">ersetze mit<tspan
   fill="#d8892b"
   id="tspan24">▾</tspan></text>
            </g>
            <g
               class="blocklyDraggable"
               transform="translate(98.700005,6)"
               id="g28">
              <path
                 class="blocklyPathDark"
                 transform="translate(1,1)"
                 fill="#843456"
                 d="M 0,0 H 109.25 V 25 H 0 V 20 C 0,10 -8,28 -8,12.5 -8,-3 0,15 0,5 Z"
                 id="path25" />
              <path
                 class="blocklyPath"
                 fill="#a5416b"
                 d="M 0,0 H 109.25 V 25 H 0 V 20 C 0,10 -8,28 -8,12.5 -8,-3 0,15 0,5 Z"
                 id="path26" />
              <path
                 class="blocklyPathLight"
                 stroke="#c07a97"
                 d="m 0.5,0.5 h 108.25 m 0,0 M 0.5,24.5 v -6 M -6.86,18 q -1.52,-5.5 0,-11 M 0.5,8 V 0.5 H 1"
                 fill="none"
                 id="path27" />
              <g
                 class="blocklyEditableText"
                 transform="translate(10,5)"
                 id="g27">
                <rect
                   rx="4"
                   ry="4"
                   x="-5"
                   y="0"
                   height="16"
                   width="99.25"
                   fill="#ffffff"
                   fill-opacity="0.6"
                   id="rect27" />
                <text
                   class="blocklyText"
                   y="12.5"
                   id="text27"
				   style="font-style:normal;font-variant:normal;font-weight:normal;font-stretch:normal;font-size:14.5455px;font-family:Arial;-inkscape-font-specification:'Arial, Normal';font-variant-ligatures:normal;font-variant-caps:normal;font-variant-numeric:normal;font-variant-east-asian:normal;fill:#000000;fill-opacity:1">alleSpalten<tspan
   fill="#a5416b"
   id="tspan27">▾</tspan></text>
              </g>
            </g>
            <g
               class="blocklyDraggable"
               transform="translate(312.93334,6)"
               id="g30">
              <path
                 class="blocklyPathDark"
                 transform="translate(1,1)"
                 fill="#226384"
                 d="M 0,0 H 152.81667 V 24 H 0 V 20 C 0,10 -8,28 -8,12.5 -8,-3 0,15 0,5 Z"
                 id="path28" />
              <path
                 class="blocklyPath"
                 fill="#2b7ca5"
                 d="M 0,0 H 152.81667 V 24 H 0 V 20 C 0,10 -8,28 -8,12.5 -8,-3 0,15 0,5 Z"
                 id="path29" />
              <path
                 class="blocklyPathLight"
                 stroke="#6ba3c0"
                 d="m 0.5,0.5 h 151.81667 m 0,0 M 0.5,23.5 v -5 M -6.86,18 q -1.52,-5.5 0,-11 M 0.5,8 V 0.5 H 1"
                 fill="none"
                 id="path30" />
              <text
                 class="blocklyText"
                 y="12.5"
                 transform="translate(10,5)"
                 fill="#ffffff"
                 id="text30"
				 style="font-style:normal;font-variant:normal;font-weight:normal;font-stretch:normal;font-size:14.5455px;font-family:Arial;-inkscape-font-specification:'Arial, Normal';font-variant-ligatures:normal;font-variant-caps:normal;font-variant-numeric:normal;font-variant-east-asian:normal;fill:#ffffff;fill-opacity:1">Spalte des Roboters</text>
            </g>
            <g
               class="blocklyDraggable"
               transform="translate(582.13334,6)"
               id="g33">
              <path
                 class="blocklyPathDark"
                 transform="translate(1,1)"
                 fill="#226384"
                 d="M 0,0 H 115.33334 V 24 H 0 V 20 C 0,10 -8,28 -8,12.5 -8,-3 0,15 0,5 Z"
                 id="path31" />
              <path
                 class="blocklyPath"
                 fill="#2b7ca5"
                 d="M 0,0 H 115.33334 V 24 H 0 V 20 C 0,10 -8,28 -8,12.5 -8,-3 0,15 0,5 Z"
                 id="path32" />
              <path
                 class="blocklyPathLight"
                 stroke="#6ba3c0"
                 d="m 0.5,0.5 h 114.33334 m 0,0 M 0.5,23.5 v -5 M -6.86,18 q -1.52,-5.5 0,-11 M 0.5,8 V 0.5 H 1"
                 fill="none"
                 id="path33" />
              <text
                 class="blocklyText"
                 y="12.5"
                 transform="translate(10,5)"
                 fill="#ffffff"
                 id="text33"
				 style="font-style:normal;font-variant:normal;font-weight:normal;font-stretch:normal;font-size:14.5455px;font-family:Arial;-inkscape-font-specification:'Arial, Normal';font-variant-ligatures:normal;font-variant-caps:normal;font-variant-numeric:normal;font-variant-east-asian:normal;fill:#ffffff;fill-opacity:1">Farbe auf Feld</text>
            </g>
          </g>
        </g>
      </g>
    </g>
  </g>
</svg>
